<?xml version="1.0" encoding="UTF-8"?>
<svg width="40px" height="40px" viewBox="0 0 40 40" version="1.1" xmlns="http://www.w3.org/2000/svg" xmlns:xlink="http://www.w3.org/1999/xlink">
    <title>Group 24 Copy 2</title>
    <g id="Логистика-2" stroke="none" stroke-width="1" fill="none" fill-rule="evenodd">
        <g id="Собираем-штрафы-по-базам-Desktop-HD-Copy-12" transform="translate(-252, -5977)">
            <g id="Нижняя-часть-шапки" transform="translate(0, 5749)">
                <g id="Group-24-Copy-2" transform="translate(252, 228)">
                    <rect id="Rectangle-Copy" stroke="#EEEFF1" fill="#FBFCFD" x="0.5" y="0.5" width="39" height="39" rx="5"></rect>
                    <g id="Minilogo_RUTUBE_dark_color" transform="translate(10, 8)" fill-rule="nonzero">
                        <path d="M13.1712277,11.2272768 L3.92238839,11.2272768 L3.92238839,7.52174107 L13.1712277,7.52174107 C13.7114732,7.52174107 14.0871205,7.61707589 14.275625,7.78357143 C14.4641518,7.95006696 14.5809375,8.25886161 14.5809375,8.70995536 L14.5809375,10.0404911 C14.5809375,10.5157813 14.4641518,10.8245759 14.275625,10.9910714 C14.0871205,11.157567 13.7114732,11.2287054 13.1712277,11.2287054 L13.1712277,11.2272768 Z M13.8057366,4.02821429 L0,4.02821429 L0,19.875 L3.92238839,19.875 L3.92238839,14.719375 L11.1509375,14.719375 L14.5809375,19.875 L18.9732143,19.875 L15.1915179,14.6952009 C16.5857366,14.4860045 17.211808,14.0534152 17.728125,13.3404688 C18.244442,12.6275446 18.5033259,11.4877009 18.5033259,9.96649554 L18.5033259,8.77825893 C18.5033259,7.87607143 18.4090625,7.163125 18.244442,6.61669643 C18.0798438,6.07024554 17.7984598,5.59495536 17.3989063,5.16805804 C16.9768527,4.76390625 16.506942,4.47930804 15.9427902,4.28861607 C15.3786384,4.12212054 14.6737723,4.02678571 13.8057366,4.02678571 L13.8057366,4.02821429 Z" id="Shape" fill="#100943"></path>
                        <path d="M19.9866071,6.02678571 C21.6508929,6.02678571 23,4.67763393 23,3.01339286 C23,1.34914286 21.6508929,0 19.9866071,0 C18.3223661,0 16.9732143,1.34914286 16.9732143,3.01339286 C16.9732143,4.67763393 18.3223661,6.02678571 19.9866071,6.02678571 Z" id="Path" fill="#ED143B"></path>
                    </g>
                </g>
            </g>
        </g>
    </g>
</svg>