<?xml version="1.0" encoding="UTF-8"?>
<svg width="40px" height="40px" viewBox="0 0 40 40" version="1.1" xmlns="http://www.w3.org/2000/svg" xmlns:xlink="http://www.w3.org/1999/xlink">
    <title>Group 24</title>
    <g id="Логистика-2" stroke="none" stroke-width="1" fill="none" fill-rule="evenodd">
        <g id="Desktop-HD-Copy-9" transform="translate(-142.000000, -3164.000000)">
            <g id="Нижняя-часть-шапки" transform="translate(0.000000, 2936.000000)">
                <g id="Group-24" transform="translate(142.000000, 228.000000)">
                    <rect id="Rectangle-Copy" stroke="#EEEFF1" fill="#FBFCFD" x="0.5" y="0.5" width="39" height="39" rx="5"></rect>
                    <path d="M28.823651,10.1766188 C25.6778179,11.4989225 12.1888826,17.1693119 8.46189878,18.7147674 C5.96241373,19.7046789 7.42564541,20.6328344 7.42564541,20.6328344 C7.42564541,20.6328344 9.55925862,21.3752031 11.3883621,21.9320445 C13.21721,22.488886 14.1926125,21.8702886 14.1926125,21.8702886 L22.7884275,15.9925757 C25.8365925,13.8889814 25.1051045,15.6212616 24.3733608,16.3638898 C22.7884275,17.9726581 20.1669852,20.509063 17.9722655,22.5509014 C16.996863,23.4170415 17.4844364,24.1594102 17.9114147,24.5307243 C19.496348,25.8919499 23.8249366,28.676157 24.0685954,28.8616843 C25.3564336,29.7869856 27.8896679,31.11889 28.2749711,28.3048429 C28.2749711,28.3048429 29.7990535,18.5912555 29.7990535,18.5912555 C30.2868827,15.3122224 30.7744561,12.2804726 30.8353069,11.4143325 C31.0183707,9.31047868 28.823651,10.1766188 28.823651,10.1766188 Z" id="Path" fill="#1B92D1" fill-rule="nonzero"></path>
                </g>
            </g>
        </g>
    </g>
</svg>