<?xml version="1.0" encoding="UTF-8"?>
<svg width="660px" height="258px" viewBox="0 0 660 258" version="1.1" xmlns="http://www.w3.org/2000/svg" xmlns:xlink="http://www.w3.org/1999/xlink">
    <title>Слой_x0020_1 (1)</title>
    <defs>
        <radialGradient cx="10.9680069%" cy="-14.9467845%" fx="10.9680069%" fy="-14.9467845%" r="263.18583%" gradientTransform="translate(0.1097, -0.1495), scale(1, 0.6301), rotate(55.5151), translate(-0.1097, 0.1495)" id="radialGradient-1">
            <stop stop-color="#0E1B2F" offset="0%"></stop>
            <stop stop-color="#27425F" offset="100%"></stop>
        </radialGradient>
        <linearGradient x1="73.9894541%" y1="42.182764%" x2="1.52733689%" y2="67.4287394%" id="linearGradient-2">
            <stop stop-color="#FFD89D" offset="0%"></stop>
            <stop stop-color="#E2B46E" offset="100%"></stop>
        </linearGradient>
        <linearGradient x1="73.9894541%" y1="42.0841292%" x2="1.52733689%" y2="67.6486484%" id="linearGradient-3">
            <stop stop-color="#FFD89D" offset="0%"></stop>
            <stop stop-color="#E2B46E" offset="100%"></stop>
        </linearGradient>
        <linearGradient x1="1.60914258%" y1="36.0359658%" x2="88.7249396%" y2="61.8812932%" id="linearGradient-4">
            <stop stop-color="#FDD59A" offset="0%"></stop>
            <stop stop-color="#E5B874" offset="100%"></stop>
        </linearGradient>
        <radialGradient cx="92.012686%" cy="36.6110276%" fx="92.012686%" fy="36.6110276%" r="461.885927%" gradientTransform="translate(0.9201, 0.3661), scale(0.1806, 1), rotate(176.072), translate(-0.9201, -0.3661)" id="radialGradient-5">
            <stop stop-color="#E5B873" offset="0%"></stop>
            <stop stop-color="#F5CB8C" offset="100%"></stop>
        </radialGradient>
        <radialGradient cx="92.012686%" cy="36.6110276%" fx="92.012686%" fy="36.6110276%" r="142.442467%" gradientTransform="translate(0.9201, 0.3661), scale(0.5992, 1), rotate(167.1659), translate(-0.9201, -0.3661)" id="radialGradient-6">
            <stop stop-color="#E5B873" offset="0%"></stop>
            <stop stop-color="#F5CB8C" offset="100%"></stop>
        </radialGradient>
        <linearGradient x1="88.9464815%" y1="68.0416786%" x2="65.3202613%" y2="47.5216467%" id="linearGradient-7">
            <stop stop-color="#FED79B" offset="0%"></stop>
            <stop stop-color="#E7BA76" offset="100%"></stop>
        </linearGradient>
        <radialGradient cx="10.9680069%" cy="-14.9467845%" fx="10.9680069%" fy="-14.9467845%" r="272.83782%" gradientTransform="translate(0.1097, -0.1495), scale(1, 0.5981), rotate(56.8961), translate(-0.1097, 0.1495)" id="radialGradient-8">
            <stop stop-color="#0E1B2F" offset="0%"></stop>
            <stop stop-color="#27425F" offset="100%"></stop>
        </radialGradient>
        <radialGradient cx="10.9680069%" cy="-14.9467845%" fx="10.9680069%" fy="-14.9467845%" r="388.42099%" gradientTransform="translate(0.1097, -0.1495), scale(1, 0.3811), rotate(67.4408), translate(-0.1097, 0.1495)" id="radialGradient-9">
            <stop stop-color="#0E1B2F" offset="0%"></stop>
            <stop stop-color="#27425F" offset="100%"></stop>
        </radialGradient>
        <linearGradient x1="0.0832077341%" y1="35.1107186%" x2="98.4809947%" y2="67.2137343%" id="linearGradient-10">
            <stop stop-color="#EFC483" offset="0%"></stop>
            <stop stop-color="#EEC382" offset="100%"></stop>
        </linearGradient>
        <filter x="-1.1%" y="-0.9%" width="102.1%" height="101.8%" filterUnits="objectBoundingBox" id="filter-11">
            <feGaussianBlur stdDeviation="1" in="SourceGraphic"></feGaussianBlur>
        </filter>
        <filter x="-1.1%" y="-0.9%" width="102.1%" height="101.8%" filterUnits="objectBoundingBox" id="filter-12">
            <feGaussianBlur stdDeviation="1" in="SourceGraphic"></feGaussianBlur>
        </filter>
        <radialGradient cx="10.9680069%" cy="-14.9467845%" fx="10.9680069%" fy="-14.9467845%" r="209.074587%" gradientTransform="translate(0.1097, -0.1495), scale(1, 0.932), rotate(44.5428), translate(-0.1097, 0.1495)" id="radialGradient-13">
            <stop stop-color="#0E1B2F" offset="0%"></stop>
            <stop stop-color="#27425F" offset="100%"></stop>
        </radialGradient>
        <radialGradient cx="10.9680069%" cy="-14.9467845%" fx="10.9680069%" fy="-14.9467845%" r="209.077897%" gradientTransform="translate(0.1097, -0.1495), scale(1, 0.932), rotate(44.5438), translate(-0.1097, 0.1495)" id="radialGradient-14">
            <stop stop-color="#0E1B2F" offset="0%"></stop>
            <stop stop-color="#27425F" offset="100%"></stop>
        </radialGradient>
    </defs>
    <g id="Логистика-2" stroke="none" stroke-width="1" fill="none" fill-rule="evenodd">
        <g id="Desktop-HD-Copy-15" transform="translate(-637, -206)">
            <g id="Group-5" transform="translate(143, 151)">
                <g id="Group-20" transform="translate(0, 55.9323)">
                    <g id="Слой_x0020_1-(1)" transform="translate(494, 0)">
                        <g transform="translate(74.2285, -41.9323)">
                            <polygon id="Path" fill="#E7E2DE" points="169.847342 154.980288 194.685333 169.338953 219.887563 154.960775 195.008688 140.585385"></polygon>
                            <polygon id="Path" fill="#E7E2DE" points="175.789003 152.642464 194.747123 163.604964 213.987251 152.628061 194.99568 141.655804"></polygon>
                            <polygon id="Path" fill="#192C44" points="183.009219 152.637818 194.800551 159.456627 206.768428 152.628061 194.95526 145.804142"></polygon>
                            <polygon id="Path" fill="#BFBAB7" points="184.406711 152.637818 194.812631 158.651955 205.370472 152.628061 194.947827 146.606491"></polygon>
                            <polygon id="Path" fill="#B7B3AF" points="169.847342 217.771686 169.847342 154.979823 194.685333 169.338953 194.685333 232.130351"></polygon>
                            <polygon id="Path" fill="#BFBAB7" points="194.684868 169.338953 219.887098 154.960775 219.887098 217.752174 194.684868 232.130351"></polygon>
                            <path d="M209.928115,164.579677 L212.146075,163.260238 L212.146075,172.996681 L209.928115,174.258512 L209.928115,164.579677 Z M174.648431,201.187629 L172.430007,199.865401 L172.430007,219.179863 L174.648431,220.439835 L174.648431,201.187629 Z M178.785618,203.580275 L176.567194,202.258047 L176.567194,221.572509 L178.785618,222.832482 L178.785618,203.580275 Z M183.01433,206.025884 L180.798693,204.703657 L180.798693,224.018119 L183.01433,225.278091 L183.01433,206.025884 Z M186.97776,208.315391 L184.762123,206.995951 L184.762123,226.310413 L186.97776,227.569921 L186.97776,208.315391 Z M191.011343,210.64857 L188.792919,209.326342 L188.792919,228.640804 L191.011343,229.900777 L191.011343,210.64857 Z M197.745597,211.079246 L199.964021,209.759806 L199.964021,229.074268 L197.745597,230.33424 L197.745597,211.079246 Z M201.807985,208.763257 L204.024086,207.44103 L204.024086,226.755957 L201.807985,228.018252 L201.807985,208.763257 Z M205.781171,206.495122 L207.999596,205.175217 L207.999596,224.487821 L205.781171,225.749652 L205.781171,206.495122 Z M214.328261,201.659189 L216.546685,200.339749 L216.546685,219.654211 L214.328261,220.914183 L214.328261,201.659189 Z M209.928115,204.13128 L212.146075,202.809053 L212.146075,222.123515 L209.928115,223.383487 L209.928115,204.13128 Z M174.648431,187.66941 L172.430007,186.347183 L172.430007,196.085949 L174.648431,197.348245 L174.648431,187.66941 Z M178.785618,190.062056 L176.567194,188.739829 L176.567194,198.478596 L178.785618,199.740891 L178.785618,190.062056 Z M183.01433,192.507666 L180.798693,191.185438 L180.798693,200.924205 L183.01433,202.1865 L183.01433,192.507666 Z M186.97776,194.797173 L184.762123,193.477268 L184.762123,203.216035 L186.97776,204.476007 L186.97776,194.797173 Z M191.011343,197.129887 L188.792919,195.808124 L188.792919,205.546891 L191.011343,206.808721 L191.011343,197.129887 Z M197.745597,197.561027 L199.964021,196.241588 L199.964021,205.980354 L197.745597,207.239862 L197.745597,197.561027 Z M201.807985,195.245039 L204.024086,193.925599 L204.024086,203.661578 L201.807985,204.923873 L201.807985,195.245039 Z M205.781171,192.976903 L207.999596,191.656999 L207.999596,201.393443 L205.781171,202.655738 L205.781171,192.976903 Z M214.328261,188.14097 L216.546685,186.82153 L216.546685,196.559833 L214.328261,197.819805 L214.328261,188.14097 Z M209.928115,190.613062 L212.146075,189.290834 L212.146075,199.029601 L209.928115,200.289109 L209.928115,190.613062 Z M174.648431,174.953541 L172.430007,173.633636 L172.430007,183.37008 L174.648431,184.632375 L174.648431,174.953541 Z M178.785618,177.346187 L176.567194,176.026283 L176.567194,185.762726 L178.785618,187.025022 L178.785618,177.346187 Z M183.01433,179.791332 L180.798693,178.471892 L180.798693,188.208336 L183.01433,189.470167 L183.01433,179.791332 Z M186.97776,182.083626 L184.762123,180.761399 L184.762123,190.500166 L186.97776,191.762461 L186.97776,182.083626 Z M191.011343,184.414017 L188.792919,183.094578 L188.792919,192.830557 L191.011343,194.092852 L191.011343,184.414017 Z M197.745597,184.847946 L199.964021,183.525718 L199.964021,193.264485 L197.745597,194.52678 L197.745597,184.847946 Z M201.807985,182.52917 L204.024086,181.209265 L204.024086,190.948032 L201.807985,192.208004 L201.807985,182.52917 Z M205.781171,180.261034 L207.999596,178.94113 L207.999596,188.679896 L205.781171,189.939869 L205.781171,180.261034 Z M214.328261,175.427424 L216.546685,174.105661 L216.546685,183.843964 L214.328261,185.106259 L214.328261,175.427424 Z M209.928115,177.897193 L212.146075,176.577288 L212.146075,186.313732 L209.928115,187.576027 L209.928115,177.897193 Z M174.648431,161.636026 L172.430007,160.316586 L172.430007,170.05303 L174.648431,171.315325 L174.648431,161.636026 Z M178.785618,164.029137 L176.567194,162.706909 L176.567194,172.445676 L178.785618,173.707971 L178.785618,164.029137 Z M183.01433,166.474282 L180.798693,165.154842 L180.798693,174.891286 L183.01433,176.153116 L183.01433,166.474282 Z M186.97776,168.766576 L184.762123,167.444349 L184.762123,177.183115 L186.97776,178.443088 L186.97776,168.766576 Z M191.011343,171.096967 L188.792919,169.777527 L188.792919,179.513506 L191.011343,180.775801 L191.011343,171.096967 Z M197.745597,171.530431 L199.964021,170.208668 L199.964021,179.947435 L197.745597,181.206942 L197.745597,171.530431 Z M201.807985,169.212119 L204.024086,167.892215 L204.024086,177.630982 L201.807985,178.890954 L201.807985,169.212119 Z M205.781171,166.943984 L207.999596,165.624079 L207.999596,175.362846 L205.781171,176.622818 L205.781171,166.943984 Z M214.328261,162.110374 L216.546685,160.788146 L216.546685,170.526913 L214.328261,171.786885 L214.328261,162.110374 Z" id="Shape" fill="url(#radialGradient-1)"></path>
                            <polygon id="Path" fill="#B7B3AF" points="175.789003 155.586115 175.789003 152.642464 194.747123 163.604964 194.747123 166.548616"></polygon>
                            <polygon id="Path" fill="#BFBAB7" points="194.747588 163.604964 213.987715 152.628061 213.987715 155.574036 194.747588 166.548616"></polygon>
                            <polygon id="Path" fill="url(#linearGradient-2)" points="77.4237919 350.660565 92.6015313 359.376301 624.771517 52 609.671829 42.828964"></polygon>
                            <polygon id="Path" fill="url(#linearGradient-3)" points="30.3002769 354.941733 45.4780164 363.660257 598.771517 42 583.6709 32.828964"></polygon>
                            <polygon id="Path" fill="url(#linearGradient-4)" points="324.746327 173.497047 616.30663 334.817023 630 327.008634 339.030657 165.528373"></polygon>
                            <polygon id="Path" fill="url(#radialGradient-5)" points="273.989707 177.274175 324.746327 173.497047 339.031122 165.528373 288.274037 169.307825"></polygon>
                            <polygon id="Path" fill="url(#radialGradient-6)" points="47.4867227 40.9686733 273.989707 177.274175 288.274501 169.307825 61.7715173 33"></polygon>
                            <polygon id="Path" fill-opacity="0.97" fill="url(#linearGradient-7)" points="183.486723 40.9686733 374.498796 156.318396 388.194489 148.510471 197.771517 33"></polygon>
                            <polygon id="Path" fill="#E8BD7B" points="322.356933 110.909139 337.534672 119.627663 539.881921 9.08002257 524.479784 0"></polygon>
                            <polygon id="Path" fill="#DBF0D4" points="507.165389 169.384483 480.941986 174.759342 477.164393 185.197319 484.178795 198.047455 468.262355 212.233756 467.724358 224.547289 489.573632 239.002124 519.789269 243.821331 539.133464 259.411163 601.440294 223.862481"></polygon>
                            <polygon id="Path-Copy" fill="#DBF0D4" points="583.828475 93.2950397 525.281078 128.994672 542.416901 139.94256 599.060318 103.766932"></polygon>
                            <polygon id="Path" fill="#E7E2DE" points="269.045989 94.8352028 291.706439 107.93436 314.697678 94.8184775 292.00099 81.7025951"></polygon>
                            <polygon id="Path" fill="#E7E2DE" points="272.794313 89.745603 291.754756 100.708104 310.992561 89.7312006 292.00099 78.7589434"></polygon>
                            <polygon id="Path" fill="#14243A" points="280.014529 89.7409571 291.808184 96.5597664 303.773273 89.7312006 291.96057 82.9072808"></polygon>
                            <polygon id="Path" fill="#BFBAB7" points="281.41202 89.7409571 291.81794 95.7550939 302.375782 89.7312006 291.953137 83.7096303"></polygon>
                            <polygon id="Path" fill="#B7B3AF" points="269.045989 152.120263 269.045989 94.8352028 291.706439 107.93436 291.706439 165.21942"></polygon>
                            <polygon id="Path" fill="#BFBAB7" points="291.706439 107.93436 314.697678 94.8184775 314.697678 152.103538 291.706439 165.21942"></polygon>
                            <path d="M305.612591,100.052101 L307.634958,98.8469503 L307.634958,155.96197 L305.612591,157.111834 L305.612591,100.052101 Z M273.427086,97.3667618 L271.404255,96.1620761 L271.404255,153.277096 L273.427086,154.42696 L273.427086,97.3667618 Z M277.202357,99.548948 L275.177202,98.3442623 L275.177202,155.459282 L277.202357,156.611004 L277.202357,99.548948 Z M281.059395,101.78131 L279.036564,100.576624 L279.036564,157.691179 L281.059395,158.841043 L281.059395,101.78131 Z M284.675311,103.871972 L282.65248,102.664963 L282.65248,159.782306 L284.675311,160.93217 L284.675311,103.871972 Z M288.353946,105.996549 L286.331115,104.791863 L286.331115,161.906883 L288.353946,163.059069 L288.353946,105.996549 Z M294.499563,106.391916 L296.521929,105.18723 L296.521929,162.30225 L294.499563,163.453972 L294.499563,106.391916 Z M298.20468,104.279419 L300.227046,103.074733 L300.227046,160.189752 L298.20468,161.339152 L298.20468,104.279419 Z M301.829887,102.210128 L303.852718,101.004978 L303.852718,158.119997 L301.829887,159.269861 L301.829887,102.210128 Z M309.626662,97.7979027 L311.649028,96.593217 L311.649028,153.708237 L309.626662,154.8581 L309.626662,97.7979027 Z" id="Shape" fill="url(#radialGradient-8)"></path>
                            <polygon id="Path" fill="#B7B3AF" points="272.794313 92.6892547 272.794313 89.745603 291.754756 100.708104 291.754756 103.651755"></polygon>
                            <polygon id="Path" fill="#BFBAB7" points="291.754756 100.708104 310.992561 89.7312006 310.992561 92.6771753 291.754756 103.651755"></polygon>
                            <polygon id="Path" fill="#E7E2DE" points="227.804202 67.9209531 250.462329 81.0201102 273.456356 67.9042278 250.759203 54.788206"></polygon>
                            <polygon id="Path" fill-opacity="0.69" fill="#1E344E" points="231.552991 62.8313533 250.510646 73.7938541 269.748451 62.816951 250.759203 51.8446008"></polygon>
                            <polygon id="Path" fill="#EF7F1A" points="238.772278 62.8262428 250.56361 69.6455167 262.528699 62.816951 250.717854 55.9930311"></polygon>
                            <polygon id="Path" fill="#5B5B5B" points="240.169769 62.8262428 250.572902 68.8408442 261.133066 62.816951 250.710421 56.7953806"></polygon>
                            <polygon id="Path" fill="#B7B3AF" points="227.804202 191.237937 227.804202 67.9209531 250.462329 81.0201102 250.462329 204.339417"></polygon>
                            <polygon id="Path" fill="#BFBAB7" points="250.462329 81.0201102 273.455891 67.9042278 273.455891 191.221212 250.462329 204.339417"></polygon>
                            <polygon id="Path" fill="#B7B3AF" points="231.552991 65.775005 231.552991 62.8313533 250.510646 73.7938541 250.510646 76.7375058"></polygon>
                            <polygon id="Path" fill="#BFBAB7" points="250.510182 73.7938541 269.750774 62.816951 269.747986 65.7629256 250.510182 76.7375058"></polygon>
                            <polygon id="Path" fill="#B2B3B3" points="235.626993 60.3329661 250.541774 68.9555983 265.673983 60.3209796 250.735044 51.6888697"></polygon>
                            <polygon id="Path" fill="#B7B3AF" points="235.626993 62.6492334 235.626993 60.3330125 250.541774 68.9555983 250.541774 71.2715869"></polygon>
                            <polygon id="Path" fill="#BFBAB7" points="250.541309 68.9555983 265.673054 60.3210261 265.673054 62.637154 250.541309 71.2715869"></polygon>
                            <polygon id="Path" fill="#B7B3AF" points="235.774269 60.4168713 250.650024 47.8734586 250.541774 68.9555983"></polygon>
                            <polygon id="Path" fill="#BFBAB7" points="250.650024 47.8734586 250.541309 68.9555983 265.673054 60.3210725"></polygon>
                            <path d="M232.182977,151.751377 L230.160145,150.546691 L230.160145,192.143426 L232.182977,193.292825 L232.182977,151.751377 Z M268.38441,74.2607686 L270.407242,73.0560828 L270.407242,85.7840313 L268.38441,86.9338953 L268.38441,74.2607686 Z M264.37034,76.5149665 L266.393171,75.3098162 L266.393171,88.0377647 L264.37034,89.1876286 L264.37034,76.5149665 Z M260.5881,78.6702064 L262.610932,77.4655207 L262.610932,90.1934692 L260.5881,91.3456561 L260.5881,78.6702064 Z M256.960105,80.7399615 L258.98526,79.5348112 L258.98526,92.2627597 L256.960105,93.4149466 L256.960105,80.7399615 Z M253.254988,82.854782 L255.280143,81.6500962 L255.280143,94.3775801 L253.254988,95.5274441 L253.254988,82.854782 Z M247.11216,82.4594146 L245.089328,81.2547289 L245.089328,93.9826774 L247.11216,95.1320767 L247.11216,82.4594146 Z M243.433524,80.3325148 L241.410693,79.127829 L241.410693,91.8557775 L243.433524,93.0051769 L243.433524,80.3325148 Z M239.817609,78.2418531 L237.794777,77.0367027 L237.794777,89.7646512 L239.817609,90.9168381 L239.817609,78.2418531 Z M235.957783,76.0118139 L233.934951,74.8071282 L233.934951,87.5346121 L235.957783,88.684476 L235.957783,76.0118139 Z M232.182977,73.8273047 L230.160145,72.6249419 L230.160145,85.3505675 L232.182977,86.5027544 L232.182977,73.8273047 Z M232.182977,93.3526913 L230.160145,92.1480056 L230.160145,104.875954 L232.182977,106.027676 L232.182977,93.3526913 Z M235.957783,95.5372005 L233.934951,94.3325148 L233.934951,107.059999 L235.957783,108.209863 L235.957783,95.5372005 Z M239.817609,97.7667751 L237.794777,96.5620893 L237.794777,109.290038 L239.817609,110.439902 L239.817609,97.7667751 Z M243.433524,99.8579014 L241.410693,98.6532156 L241.410693,111.381164 L243.433524,112.530563 L243.433524,99.8579014 Z M247.11216,101.984801 L245.089328,100.780115 L245.089328,113.508064 L247.11216,114.657463 L247.11216,101.984801 Z M253.254988,102.380169 L255.280143,101.175483 L255.280143,113.902967 L253.254988,115.052831 L253.254988,102.380169 Z M256.960105,100.264884 L258.98526,99.0601978 L258.98526,111.788146 L256.960105,112.93801 L256.960105,100.264884 Z M260.5881,98.195593 L262.610932,96.9909073 L262.610932,109.718856 L260.5881,110.871043 L260.5881,98.195593 Z M264.37034,96.0375655 L266.393171,94.8328798 L266.393171,107.560828 L264.37034,108.713015 L264.37034,96.0375655 Z M268.38441,93.7861552 L270.407242,92.5814694 L270.407242,105.309418 L268.38441,106.458817 L268.38441,93.7861552 Z M268.38441,112.698281 L270.407242,111.493595 L270.407242,124.221544 L268.38441,125.370943 L268.38441,112.698281 Z M264.37034,114.952014 L266.393171,113.747329 L266.393171,126.475277 L264.37034,127.625141 L264.37034,114.952014 Z M260.5881,117.107719 L262.610932,115.905356 L262.610932,128.630982 L260.5881,129.783169 L260.5881,117.107719 Z M256.960105,119.177474 L258.98526,117.972324 L258.98526,130.700272 L256.960105,131.850136 L256.960105,119.177474 Z M253.254988,121.292294 L255.280143,120.087609 L255.280143,132.815093 L253.254988,133.964957 L253.254988,121.292294 Z M247.11216,120.896927 L245.089328,119.692241 L245.089328,132.42019 L247.11216,133.569589 L247.11216,120.896927 Z M243.433524,118.770027 L241.410693,117.565341 L241.410693,130.29329 L243.433524,131.442689 L243.433524,118.770027 Z M239.817609,116.678901 L237.794777,115.474215 L237.794777,128.202164 L239.817609,129.354351 L239.817609,116.678901 Z M235.957783,114.449326 L233.934951,113.244641 L233.934951,125.972125 L235.957783,127.121988 L235.957783,114.449326 Z M232.182977,112.26714 L230.160145,111.062454 L230.160145,123.78808 L232.182977,124.939802 L232.182977,112.26714 Z M232.182977,131.593682 L230.160145,130.388996 L230.160145,143.116944 L232.182977,144.266344 L232.182977,131.593682 Z M235.957783,133.775868 L233.934951,132.571182 L233.934951,145.298666 L235.957783,146.44853 L235.957783,133.775868 Z M239.817609,136.005442 L237.794777,134.800757 L237.794777,147.528705 L239.817609,148.680892 L239.817609,136.005442 Z M243.433524,138.096569 L241.410693,136.891883 L241.410693,149.619831 L243.433524,150.769231 L243.433524,138.096569 Z M247.11216,140.223469 L245.089328,139.018783 L245.089328,151.746731 L247.11216,152.896131 L247.11216,140.223469 Z M253.254988,140.618836 L255.280143,139.41415 L255.280143,152.141634 L253.254988,153.291498 L253.254988,140.618836 Z M256.960105,138.504015 L258.98526,137.298865 L258.98526,150.026814 L256.960105,151.179 L256.960105,138.504015 Z M260.5881,136.43426 L262.610932,135.229575 L262.610932,147.957523 L260.5881,149.10971 L260.5881,136.43426 Z M264.37034,134.278556 L266.393171,133.07387 L266.393171,145.801819 L264.37034,146.951682 L264.37034,134.278556 Z M268.38441,132.024822 L270.407242,130.820137 L270.407242,143.548085 L268.38441,144.697485 L268.38441,132.024822 Z M268.38441,152.184841 L270.407242,150.980155 L270.407242,192.574567 L268.38441,193.723966 L268.38441,152.184841 Z M264.37034,154.438574 L266.393171,153.233889 L266.393171,194.8283 L264.37034,195.978164 L264.37034,154.438574 Z M260.5881,156.594279 L262.610932,155.389593 L262.610932,196.984005 L260.5881,198.136192 L260.5881,156.594279 Z M256.960105,158.664034 L258.98526,157.458884 L258.98526,199.053295 L256.960105,200.205482 L256.960105,158.664034 Z M253.254988,160.778854 L255.280143,159.574169 L255.280143,201.168116 L253.254988,202.31798 L253.254988,160.778854 Z M247.11216,160.383487 L245.089328,159.178801 L245.089328,200.773213 L247.11216,201.922612 L247.11216,160.383487 Z M243.433524,158.256587 L241.410693,157.051902 L241.410693,198.646313 L243.433524,199.795712 L243.433524,158.256587 Z M239.817609,156.165461 L237.794777,154.960775 L237.794777,196.555187 L239.817609,197.707374 L239.817609,156.165461 Z M235.957783,153.935886 L233.934951,152.731201 L233.934951,194.325148 L235.957783,195.475012 L235.957783,153.935886 Z" id="Shape" fill="#000000"></path>
                            <polygon id="Path" fill="#E7E2DE" points="406.938137 104.658061 429.598587 117.759541 452.589826 104.640871 429.893138 91.5249884"></polygon>
                            <polygon id="Path" fill="#E7E2DE" points="410.686461 99.5703192 429.646904 110.530497 448.884709 99.5559169 429.893138 88.5813367"></polygon>
                            <polygon id="Path" fill="#EF7F1A" points="417.906677 99.5656733 429.698009 106.38216 441.665422 99.5559169 429.852254 92.7296741"></polygon>
                            <polygon id="Path" fill="#5B5B5B" points="419.303239 99.5633504 429.70916 105.57981 440.267001 99.5559169 429.844356 93.5324882"></polygon>
                            <polygon id="Path" fill="#B7B3AF" points="406.938137 200.27006 406.938137 104.658061 429.598587 117.759541 429.598587 213.37154"></polygon>
                            <polygon id="Path" fill="#BFBAB7" points="429.598587 117.759541 452.589826 104.640871 452.589826 200.253335 429.598587 213.37154"></polygon>
                            <path d="M411.31877,107.18962 L409.293616,105.984934 L409.293616,201.426893 L411.31877,202.57908 L411.31877,107.18962 Z M443.504275,109.876817 L445.526642,108.672131 L445.526642,204.114555 L443.504275,205.263954 L443.504275,109.876817 Z M447.518345,107.623084 L449.541177,106.418398 L449.541177,201.860357 L447.518345,203.010221 L447.518345,107.623084 Z M439.721571,112.032521 L441.744402,110.827836 L441.744402,206.269795 L439.721571,207.421982 L439.721571,112.032521 Z M436.096364,114.101812 L438.11873,112.897126 L438.11873,208.33955 L436.096364,209.491272 L436.096364,114.101812 Z M432.391246,116.216632 L434.413613,115.011947 L434.413613,210.45437 L432.391246,211.60377 L432.391246,116.216632 Z M426.24563,115.82173 L424.222799,114.617044 L424.222799,210.059003 L426.24563,211.208867 L426.24563,115.82173 Z M422.566995,113.69483 L420.544163,112.490144 L420.544163,207.932103 L422.566995,209.081967 L422.566995,113.69483 Z M418.951079,111.603703 L416.928248,110.399018 L416.928248,205.841442 L418.951079,206.993164 L418.951079,111.603703 Z M415.094041,109.373664 L413.068886,108.168979 L413.068886,203.611402 L415.094041,204.760802 L415.094041,109.373664 Z" id="Shape" fill="url(#radialGradient-9)"></path>
                            <polygon id="Path" fill="#B7B3AF" points="410.686461 102.513971 410.686461 99.5703192 429.646904 110.530962 429.646904 113.476936"></polygon>
                            <polygon id="Path" fill="#BFBAB7" points="429.646904 110.530962 448.884709 99.5563815 448.884709 102.500033 429.646904 113.476936"></polygon>
                            <polygon id="Path" fill="#E7E2DE" points="414.760928 97.0698878 429.675245 105.692706 444.807454 97.0601314 429.870838 88.4280215"></polygon>
                            <polygon id="Path" fill="#EF7F1A" points="420.440095 97.0675649 429.716129 102.430344 439.130146 97.060596 429.836922 91.690383"></polygon>
                            <polygon id="Path" fill="#5B5B5B" points="421.538854 97.0652419 429.724027 101.798035 438.029993 97.060596 429.832741 92.322692"></polygon>
                            <polygon id="Path" fill="#B7B3AF" points="414.760928 99.3858764 414.760928 97.0698878 429.675245 105.692241 429.675245 108.008694"></polygon>
                            <polygon id="Path" fill="#BFBAB7" points="429.675709 105.692706 444.807454 97.060596 444.807454 99.3742616 429.675709 108.008694"></polygon>
                            <polygon id="Path" fill="#E7E2DE" points="417.889488 94.9931639 429.697545 101.819407 441.679824 94.983872 429.852254 88.1501958"></polygon>
                            <polygon id="Path" fill="#EF7F1A" points="422.385804 94.9908409 429.730531 99.2376717 437.184437 94.983872 429.827166 90.7323953"></polygon>
                            <polygon id="Path" fill="#5B5B5B" points="423.256913 94.988518 429.737964 98.7368421 436.312863 94.983872 429.822055 91.2332249"></polygon>
                            <polygon id="Path" fill="#B7B3AF" points="417.889488 96.8278357 417.889488 94.9931639 429.697545 101.819407 429.697545 103.654078"></polygon>
                            <polygon id="Path" fill="#BFBAB7" points="429.696616 101.819407 441.67843 94.983872 441.67843 96.8185438 429.696616 103.654078"></polygon>
                            <polygon id="Path" fill="#EF7F1A" points="422.929376 94.9216168 429.736106 98.8567067 436.639471 94.9165063 429.822985 90.9790934"></polygon>
                            <polygon id="Path" fill="#5B5B5B" points="423.735907 94.9216168 429.741217 98.3944382 435.833869 94.9165063 429.821126 91.4413619"></polygon>
                            <polygon id="Path" fill="#E7E2DE" points="421.058002 93.4005442 429.721239 98.4111635 438.512239 93.3958983 429.834599 88.3801686"></polygon>
                            <polygon id="Path" fill="#192B43" points="424.358459 93.3982213 429.745862 96.5142364 435.213175 93.3958983 429.816016 90.2770956"></polygon>
                            <polygon id="Path" fill="#BFBAB7" points="424.995414 93.3982213 429.750508 96.1476737 434.575756 93.3958983 429.813228 90.6436583"></polygon>
                            <polygon id="Path" fill="#B7B3AF" points="421.058002 94.7464658 421.058002 93.4005442 429.721239 98.4111635 429.721239 99.7547621"></polygon>
                            <polygon id="Path" fill="#BFBAB7" points="429.722168 98.4111635 438.513168 93.3958983 438.513168 94.7394969 429.722168 99.7547621"></polygon>
                            <polygon id="Path" fill="url(#linearGradient-10)" points="245.799224 268.971527 507.373061 419.663636 521.066431 411.855711 260.084019 261.002854"></polygon>
                            <path d="M361.307819,96.6680162 C361.954995,96.3042411 362.775464,96.5291033 363.142491,97.1688458 C363.509054,97.8104467 363.282333,98.6248756 362.635621,98.9891153 L324.739358,120.231632 L386.664758,155.775669 C386.889156,155.890887 387.084749,156.067897 387.219945,156.30298 C387.589295,156.944581 387.364433,157.761333 386.720044,158.127895 L349.144814,179.514436 L368.010945,190.450455 C368.65301,190.823986 368.870439,191.643526 368.495979,192.280481 C368.36357,192.505343 368.174946,192.675383 367.960305,192.788279 L246.916567,261.670472 L521.61883,418.768833 C522.260895,419.140041 522.480647,419.956793 522.108974,420.593748 C521.737301,421.23349 520.914045,421.451384 520.269656,421.080175 L243.607281,262.853786 C243.380096,262.741355 243.184968,262.561558 243.049772,262.329263 C242.680421,261.687197 242.904819,260.870445 243.55153,260.503883 L364.641263,191.595208 L345.772809,180.659189 C345.130743,180.285657 344.913314,179.466583 345.287775,178.829163 C345.420184,178.604301 345.608808,178.431473 345.823449,178.319042 L383.35315,156.961306 L321.357597,121.376385 C320.715531,121.0075 320.495779,120.190748 320.867453,119.55147 C321.000326,119.32382 321.190808,119.151457 321.408237,119.036703 L361.307819,96.6680162 Z" id="Path" fill="#FFF2C8" fill-rule="nonzero" filter="url(#filter-11)"></path>
                            <path d="M364.449387,96.6680162 C365.096563,96.3042411 365.917031,96.5291033 366.284058,97.1688458 C366.650621,97.8104467 366.423901,98.6248756 365.777189,98.9891153 L327.880926,120.231632 L389.806326,155.775669 C390.030723,155.890887 390.226316,156.067897 390.361513,156.30298 C390.730863,156.944581 390.506,157.761333 389.861612,158.127895 L352.286381,179.514436 L371.152513,190.450455 C371.794578,190.823986 372.012007,191.643526 371.637546,192.280481 C371.505138,192.505343 371.316514,192.675383 371.101872,192.788279 L250.058134,261.670472 L524.760397,418.768833 C525.402463,419.140041 525.622215,419.956793 525.250542,420.593748 C524.878868,421.23349 524.055612,421.451384 523.411224,421.080175 L246.748849,262.853786 C246.521664,262.741355 246.326535,262.561558 246.191339,262.329263 C245.821989,261.687197 246.046387,260.870445 246.693098,260.503883 L367.782831,191.595208 L348.914376,180.659189 C348.272311,180.285657 348.054882,179.466583 348.429343,178.829163 C348.561751,178.604301 348.750376,178.431473 348.965017,178.319042 L386.494718,156.961306 L324.499164,121.376385 C323.857099,121.0075 323.637347,120.190748 324.00902,119.55147 C324.141893,119.32382 324.332376,119.151457 324.549805,119.036703 L364.449387,96.6680162 Z" id="Path" fill="#FCFCFC" fill-rule="nonzero" filter="url(#filter-12)"></path>
                            <path d="M362.355008,95.620827 C363.002184,95.2570518 363.822653,95.4819141 364.18968,96.1216566 C364.556243,96.7632575 364.329522,97.5776863 363.682811,97.9419261 L325.786547,119.184443 L387.711947,154.728479 C387.936345,154.843698 388.131938,155.020708 388.267134,155.255791 C388.636484,155.897392 388.411622,156.714143 387.767234,157.080706 L350.192003,178.467246 L369.058134,189.403265 C369.7002,189.776797 369.917629,190.596336 369.543168,191.233291 C369.410759,191.458154 369.222135,191.628194 369.007494,191.74109 L247.963756,260.623283 L522.666019,417.721643 C523.308084,418.092852 523.527836,418.909604 523.156163,419.546559 C522.78449,420.186301 521.961234,420.404195 521.316845,420.032986 L244.654471,261.806597 C244.427285,261.694166 244.232157,261.514369 244.096961,261.282073 C243.727611,260.640008 243.952008,259.823256 244.59872,259.456693 L365.688452,190.548019 L346.819998,179.612 C346.177933,179.238468 345.960504,178.419393 346.334964,177.781974 C346.467373,177.557112 346.655997,177.384284 346.870638,177.271852 L384.400339,155.914117 L322.404786,120.329196 C321.76272,119.960311 321.542969,119.143559 321.914642,118.504281 C322.047515,118.276631 322.237998,118.104268 322.455426,117.989514 L362.355008,95.620827 Z" id="Path" fill="#D19C00" fill-rule="nonzero"></path>
                            <polygon id="Path" fill="#E7E2DE" points="338.531221 182.119865 400.838515 217.934293 423.832077 204.816088 361.486687 168.986792"></polygon>
                            <polygon id="Path" fill="#E7E2DE" points="342.28001 177.0298 400.886368 210.705714 420.124173 199.731134 361.486222 166.043141"></polygon>
                            <polygon id="Path" fill="#1B2F48" points="349.499297 177.025154 400.939332 206.557377 412.904421 199.731134 361.444874 170.191478"></polygon>
                            <polygon id="Path" fill="#BFBAB7" points="350.896788 177.025154 400.948623 205.755028 411.506465 199.731134 361.43744 170.993828"></polygon>
                            <polygon id="Path" fill="#B7B3AF" points="338.531221 239.40446 338.531221 182.119865 400.838515 217.934293 400.838515 275.219354"></polygon>
                            <polygon id="Path" fill="#BFBAB7" points="400.838515 217.934293 423.832077 204.816088 423.832077 262.101148 400.838515 275.219354"></polygon>
                            <polygon id="Path" fill="#898989" points="342.28001 179.975775 342.28001 177.0298 400.886368 210.705714 400.886368 213.651689"></polygon>
                            <polygon id="Path" fill="#727271" points="400.886368 210.705714 420.124173 199.731134 420.124173 202.674786 400.886368 213.652154"></polygon>
                            <path d="M338.531221,229.541183 L338.531221,226.461406 L400.838515,262.275835 L410.746858,256.654742 L410.746858,259.734519 L400.838515,265.356076 L338.531221,229.541183 Z M400.838515,223.690117 L410.746858,218.06856 L410.746858,221.146479 L400.838515,226.767572 L338.531221,190.953143 L338.531221,187.875224 L400.838515,223.690117 Z M400.838515,230.114024 L410.746858,224.492467 L410.746858,227.569921 L400.838515,233.191478 L338.531221,197.376585 L338.531221,194.299131 L400.838515,230.114024 Z M400.838515,236.645251 L410.746858,231.024159 L410.746858,234.101613 L400.838515,239.72317 L338.531221,203.908276 L338.531221,200.830822 L400.838515,236.645251 Z M400.838515,242.973452 L410.746858,237.351895 L410.746858,240.429813 L400.838515,246.051371 L338.531221,210.236477 L338.531221,207.158558 L400.838515,242.973452 Z M400.838515,249.445211 L410.746858,243.823654 L410.746858,246.901573 L400.838515,252.522665 L338.531221,216.708237 L338.531221,213.630318 L400.838515,249.445211 Z M400.838515,255.718126 L410.746858,250.096569 L410.746858,253.174487 L400.838515,258.798367 L338.531221,222.981151 L338.531221,219.903232 L400.838515,255.718126 Z" id="Shape" fill="url(#radialGradient-13)"></path>
                            <polygon id="Path" fill="#E7E2DE" points="292.635621 209.63065 354.942451 245.447866 377.93369 232.329196 315.590622 196.500365"></polygon>
                            <polygon id="Path" fill="#E7E2DE" points="296.38441 204.542908 354.990769 238.218823 374.228573 227.241919 315.590622 193.553926"></polygon>
                            <polygon id="Path" fill="#1B2F48" points="303.603697 204.538262 355.043732 234.070485 367.008821 227.244242 315.549274 197.702728"></polygon>
                            <polygon id="Path" fill="#BFBAB7" points="304.99933 204.535939 355.053488 233.268136 365.611795 227.244242 315.54277 198.5074"></polygon>
                            <polygon id="Path" fill="#B7B3AF" points="292.635621 266.915245 292.635621 209.63065 354.942451 245.447866 354.942451 302.730139"></polygon>
                            <polygon id="Path" fill="#BFBAB7" points="354.942916 245.447402 377.934155 232.329196 377.934155 289.614256 354.942916 302.730139"></polygon>
                            <polygon id="Path" fill="#898989" points="296.383946 207.48656 296.381623 204.542908 354.990304 238.218823 354.990304 241.162474"></polygon>
                            <polygon id="Path" fill="#727271" points="354.990769 238.218823 374.228573 227.241919 374.228573 230.187894 354.990769 241.162474"></polygon>
                            <path d="M292.635621,257.051968 L292.635621,253.974514 L354.942451,289.789407 L364.848935,284.16785 L364.848935,287.245304 L354.942451,292.866861 L292.635621,257.051968 Z M354.942451,251.200903 L364.848935,245.579346 L364.848935,248.659587 L354.942451,254.281144 L292.635621,218.466251 L292.635621,215.386009 L354.942451,251.200903 Z M354.942451,257.627132 L364.848935,252.005575 L364.848935,255.083494 L354.942451,260.704586 L292.635621,224.890157 L292.635621,221.812239 L354.942451,257.627132 Z M354.942451,264.158359 L364.848935,258.537267 L364.848935,261.615186 L354.942451,267.236278 L292.635621,231.421384 L292.635621,228.34393 L354.942451,264.158359 Z M354.942451,270.48656 L364.848935,264.865003 L364.848935,267.942922 L354.942451,273.564479 L292.635621,237.749585 L292.635621,234.671667 L354.942451,270.48656 Z M292.635621,244.221345 L292.635621,241.141103 L354.942451,276.955997 L364.848935,271.33444 L364.848935,274.414681 L354.942451,280.036238 L292.635621,244.221345 Z M354.942451,283.231234 L364.848935,277.609677 L364.848935,280.687595 L354.942451,286.309152 L292.635621,250.494259 L292.635621,247.41634 L354.942451,283.231234 Z" id="Shape" fill="url(#radialGradient-14)"></path>
                            <g id="Group-30" transform="translate(347.5086, 57.1262)">
                                <polygon id="Path" fill="#F18B2B" points="3.63701247 2.70410832 8.10731179 0.560483175 8.22067212 0.5077985 8.33681999 0.455067366 8.45482623 0.404752107 8.57562002 0.3592686 8.69641381 0.31615451 8.81953055 0.275409836 8.9426473 0.237127497 9.07040996 0.201168116 9.19817262 0.170040486 9.32639987 0.138912856 9.45648549 0.112570518 9.58935865 0.0886440565 9.72455478 0.0670405522 9.8597509 0.0503152585 9.99726998 0.0335435057 10.137112 0.0215570452 10.2774187 0.0119400013 10.4195836 0.00478529236 10.5645362 0 10.7094887 0 10.8567642 0 11.0063627 0.00478529236 11.1559612 0.0119400013 11.3078826 0.0215570452 11.4625915 0.0359129223 11.6168359 0.0503152585 11.7738678 0.069456428 11.9332227 0.0910134732 12.0925776 0.112570518 12.2542554 0.141328732 12.4159333 0.170040486 12.5799341 0.201168116 12.7443995 0.237127497 12.9107232 0.275409836 13.0775116 0.313738634 13.2461583 0.356899184 13.4129466 0.402382691 13.5815933 0.452697949 13.7530276 0.502966749 13.9221389 0.555651424 14.0912502 0.61316785 14.2626845 0.670637818 14.4336541 0.732893078 14.6050884 0.797564213 14.7741997 0.864651225 14.945634 0.934107652 15.1170682 1.00597996 15.2857149 1.08022168 15.4571492 1.15924869 15.6262605 1.2382757 15.7953718 1.31971859 15.9640185 1.40594677 16.1308069 1.49217495 16.2999182 1.58318843 16.4639189 1.67661777 16.6302427 1.77004712 16.7947081 1.8682153 16.9563859 1.96879936 17.1180638 2.0717993 17.2774187 2.17721511 17.4367735 2.28258446 17.5956638 2.39278556 17.7526957 2.50530962 17.9074047 2.62029601 18.0616491 2.73765182 18.2140351 2.85742351 18.3659565 2.97956461 18.515555 3.10170571 18.6651534 3.22867857 18.8147519 3.35802084 18.9620274 3.48731665 19.1069799 3.62149067 19.2519325 3.75798766 19.3940975 3.89453109 19.5367271 4.03344395 19.6788921 4.17472622 19.8187341 4.32084025 19.9567178 4.46458485 20.0942369 4.61306829 20.2317559 4.76396761 20.3669521 4.91723634 20.5021482 5.07055154 20.6350214 5.22623615 20.7674299 5.38433663 20.8979801 5.54476007 21.0280658 5.70764585 21.156293 5.8729475 21.2840557 6.03820269 21.4122829 6.2058273 21.5377226 6.37591425 21.6631623 6.54837061 21.7862791 6.72082697 21.9070729 6.89783633 22.0301896 7.07531028 22.1481958 7.25231964 22.2689896 7.43211655 22.3846729 7.61423641 22.5031437 7.79867923 22.6165041 7.98312205 22.7298644 8.16988783 22.8432247 8.35665361 22.9542621 8.54574235 23.0629765 8.73761864 23.1716909 8.92670737 23.2804053 9.12090662 23.3840092 9.31464127 23.4880777 9.50884051 23.5916816 9.70536271 23.6906396 9.90142032 23.7895976 10.0979425 23.8885556 10.2967877 23.9851906 10.4956328 24.0795027 10.696801 24.1710272 10.8979691 24.2625517 11.0991372 24.3522179 11.3003053 24.4390965 11.5037964 24.5236521 11.7049645 24.6077432 11.9089202 24.6899759 12.1124112 24.769421 12.3182253 24.8470078 12.5217163 24.92413 12.725672 24.9989292 12.931486 25.0690826 13.1373001 25.1415588 13.3435787 25.2089246 13.5493927 25.2739674 13.7552067 25.3394748 13.9614854 25.3994071 14.1672994 25.459804 14.373578 25.5178779 14.581715 25.5759519 14.787529 25.6289153 14.9961306 25.6795558 15.2019446 25.7301962 15.4105462 25.7761908 15.6186832 25.8221854 15.8272848 25.8653924 16.0354218 25.906741 16.2463463 25.9453021 16.4549479 25.9815402 16.6630849 26.0149908 16.8740094 26.046583 17.0844694 26.0753877 17.2930709 26.1018694 17.5039955 26.1288157 17.7144554 26.150187 17.92538 26.1696998 18.1386275 26.188748 18.3490874 26.203615 18.5600119 26.2180173 18.7732594 26.2277737 18.984184 26.2347426 19.1969669 26.2421761 19.4102144 26.244499 19.6234619 26.246822 19.8367094 26.244499 20.0499569 26.2398531 20.2632044 26.2324196 20.4759873 26.2249862 20.6892348 26.2129068 20.9048052 26.1985045 21.1180527 26.1817792 21.3313002 26.1599434 21.5445477 26.1381076 21.7601181 26.1139488 21.9733656 26.0851441 22.1861485 26.0563395 22.399396 26.0224243 22.6126435 25.9861862 22.825891 25.9476251 23.0391385 25.906741 23.252386 25.8630694 23.4651689 25.8147519 23.6784164 25.7641114 23.8893409 25.711148 24.1025884 25.655397 24.3130484 25.5977877 24.5239729 25.5346032 24.7348975 25.4718834 24.9453574 25.4045176 25.153959 25.3343643 25.3648835 25.2595651 25.5730205 25.1824429 25.7816221 25.1053207 25.9897591 25.020765 26.1960377 24.9362094 26.4041747 24.8470078 26.6099887 24.7550187 26.8162673 24.6611712 27.0197584 24.5645362 27.2255724 24.4632552 27.4295281 24.3615097 27.6330192 24.2555829 27.8341873 24.1468684 28.0376784 24.0358311 28.2388465 23.9224708 28.4400146 23.8063229 28.6411827 23.6883166 28.8400279 23.5675229 29.038873 23.4444061 29.2377182 23.3189664 29.4365634 23.1912037 29.6330856 23.0606535 29.8314661 22.9277804 30.0279883 22.7953718 30.2221876 22.6573881 30.4187098 22.519869 30.6124444 22.377704 30.8066437 22.2350745 31.0003783 22.0901219 31.1922546 21.945634 31.3836663 21.7960355 31.5755426 21.646437 31.7669543 21.494051 31.958366 21.3398067 32.1479193 21.1850977 32.337008 21.0280658 32.5237738 20.8691755 32.7128625 20.7098206 32.9000929 20.5504657 33.0845357 20.3887879 33.268514 20.22711 33.4529568 20.0649676 33.6327537 19.9032898 33.8125506 19.7416119 33.9918829 19.5799341 34.1670339 19.4182562 34.3393974 19.2589014 34.5117608 19.1018694 34.6818013 18.9453021 34.8471959 18.7882702 35.0098029 18.6340258 35.1705515 18.4816398 35.3285126 18.3320413 35.4818278 18.1847658 35.6328201 18.0426008 35.7787018 17.8999712 35.9227252 13.9462977 39.9275038 14.0935732 39.7765116 14.2454946 39.6231964 14.4025265 39.4624477 14.5595584 39.3021637 14.7184487 39.1344461 14.8805911 38.9667286 15.0445919 38.7943652 15.2109157 38.6196788 15.377704 38.4422048 15.5440278 38.2628725 15.7131391 38.0784297 15.8845734 37.8939869 16.0536847 37.7067565 16.2246543 37.5176678 16.3960886 37.3262561 16.5651999 37.1343798 16.7343112 36.9406451 16.9029579 36.7441229 17.0720692 36.5476007 17.2388576 36.3515431 17.4028584 36.1526979 17.5668591 35.9538528 17.728537 35.7526847 17.8878919 35.5538395 18.0472468 35.3526714 18.2042787 35.1515033 18.3562001 34.9475476 18.5109091 34.7440565 18.6605075 34.5405655 18.807783 34.3370744 18.9550585 34.1335833 19.0972235 33.9273047 19.2398531 33.7214907 19.3796951 33.5152121 19.5148913 33.3070751 19.6500874 33.0984735 19.7829606 32.8903365 19.9130462 32.6817349 20.0384859 32.471275 20.1639256 32.2603504 20.2847194 32.0494259 20.4055132 31.838966 20.5211964 31.6257185 20.6350214 31.4147939 20.7460587 31.1992235 20.8543085 30.985976 20.9607 30.7704055 21.0619809 30.5548351 21.1609389 30.3392646 21.257574 30.1236942 21.351886 29.9058008 21.4410876 29.6902303 21.5279662 29.4700139 21.6125219 29.2521205 21.691967 29.0319042 21.7718767 28.8135462 21.844353 28.5933298 21.9163647 28.3707905 21.984195 28.1501095 22.0492379 27.9275702 22.1096348 27.7073538 22.1700316 27.4843499 22.225318 27.2618106 22.2764231 27.0364837 22.3270636 26.8139444 22.3725935 26.5909405 22.4162651 26.3660782 22.4571492 26.1407513 22.4957103 25.918212 22.5296255 25.6928851 22.5635406 25.4675582 22.5923453 25.242696 22.618827 25.0173691 22.6406628 24.7925068 22.6624986 24.5671799 22.6792239 24.3418531 22.6964138 24.1169908 22.7084932 23.8916639 22.717785 23.666337 22.7252185 23.4437977 22.7298644 23.2184708 22.7298644 22.9936085 22.7298644 22.7706046 22.7275414 22.5457424 22.720108 22.3204155 22.7108161 22.0978762 22.7010597 21.8748722 22.6866574 21.6523329 22.6694675 21.429329 22.6527422 21.2067897 22.6309064 20.9837858 22.6067476 20.7612464 22.5802659 20.5387071 22.5514613 20.3180261 22.519869 20.0978098 22.4887414 19.8748059 22.4525033 19.6545895 22.4139422 19.4343731 22.3725935 19.2141568 22.3293865 18.9934758 22.2857149 18.7755824 22.2373974 18.555366 22.1867569 18.3351497 22.1361165 18.1167917 22.0808301 17.8988983 22.0250791 17.6810048 21.9646822 17.4607885 21.9042853 17.2428951 21.8415655 17.0273246 21.7765227 16.8094312 21.7091569 16.5910732 21.6390036 16.3755028 21.5665273 16.1576093 21.494051 15.9420389 21.4169288 15.7264684 21.3398067 15.510898 21.2598969 15.2953275 21.1781288 15.0797571 21.0935732 14.8641866 21.0066946 14.6509391 20.9198159 14.4358333 20.8278268 14.2225858 20.7363023 14.0093383 20.6419902 13.7960908 20.5481427 13.5851663 20.4491848 13.3723834 20.3502268 13.1637818 20.2484812 12.9528572 20.1472003 12.7447202 20.0435964 12.5361187 19.9372049 12.3279817 19.8284905 12.1217031 19.7202407 11.918212 19.6087388 11.7147209 19.4953784 11.5112298 19.3820181 11.3100617 19.2663348 11.1088936 19.150187 10.9100485 19.0321807 10.7135262 18.9113869 10.517004 18.7905931 10.3232694 18.6674764 10.1290702 18.5443596 9.93765846 18.4189199 9.74810513 18.2911573 9.55901639 18.1657176 9.37457357 18.0351674 9.19013075 17.9050818 9.00568793 17.7745315 8.82635561 17.6416584 8.6465587 17.5087852 8.46908475 17.3735891 8.29439835 17.2388576 8.12203491 17.1008739 7.95199442 16.9633548 7.78195394 16.8258357 7.61655937 16.6836707 7.4511648 16.5433641 7.28855778 16.4011991 7.12780912 16.2562466 6.96984801 16.111294 6.81420986 15.9668061 6.66094113 15.816743 6.51004181 15.6694675 6.3591425 15.519869 6.21302847 15.3679476 6.06691445 15.2160262 5.92563218 15.0636402 5.78667286 14.9093958 5.64776001 14.7523639 5.5136789 14.5957966 5.37950488 14.4364417 5.24779319 14.2770868 5.12086679 14.115409 4.99630982 13.9537311 4.87175284 13.7892657 4.75198115 13.6252649 4.63220946 13.4584766 4.51726953 13.2921528 4.40469901 13.1230415 4.29449791 12.9516073 4.18675914 12.7806376 4.08134333 12.6092033 3.9783434 12.4354461 3.87775934 12.2612243 3.7795447 12.0851441 3.68616181 11.909064 3.59273246 11.7301962 3.50413486 11.5517931 3.41790668 11.3729254 3.33404792 11.1945223 3.25260503 11.0161191 3.17357802 10.8372514 3.09692042 10.6560607 3.0226787 10.4776576 2.95322227 10.2964669 2.88613526 10.1180638 2.82146413 9.93687309 2.75920887 9.75846995 2.69936948 9.57960223 2.64185306 9.4011991 2.58916838 9.22233137 2.53885312 9.0462512 2.49095374 8.87017102 2.44547023 8.69409085 2.40230968 8.51986904 2.36402734 8.34611182 2.32569855 8.17467756 2.29215504 8.00370789 2.26102741 7.83227363 2.2322692 7.66548529 2.20834274 7.49683858 2.18678569 7.33237319 2.16759806 7.16837239 2.15087277 7.00669455 2.13647043 6.84733967 2.12689985 6.68798479 2.11969868 6.53095286 2.11491339 6.37670849 2.11254397 6.22478707 2.11491339 6.07240106 2.11969868 5.9228026 2.12689985 5.77320414 2.13647043 5.6282516 2.15087277 5.48376364 2.16522865 5.34113406 2.18436981 5.19850447 2.20592686 5.05866243 2.2322692 4.92114335 2.26102741 4.78594722 2.29215504 4.6507511 2.32569855 4.51787793 2.36161147 4.38779232 2.40230968 4.25724211 2.44547023 4.12947945 2.49095374 4.00403974 2.53885312 3.880923 2.5915378 3.75780625 2.64663835"></polygon>
                                <polygon id="Path" fill="#CB691E" points="15.7317228 22.9313533 19.5961948 19.7767771 19.5069932 19.8441428 19.4126811 19.908721 19.3137232 19.9663304 19.2101193 20.0188292 19.1037278 20.0666822 18.9903675 20.1075662 18.8746842 20.1433397 18.7515675 20.1744674 18.6261278 20.2009491 18.4932546 20.2199973 18.3557355 20.2343997 18.2154289 20.2413686 18.0681534 20.2441561 17.9185549 20.2390456 17.7619876 20.2269662 17.6026327 20.207918 17.4381673 20.1842238 17.2718436 20.1479857 17.1004093 20.1075662 16.9243291 20.0569257 16.7454614 19.997458 16.5619478 19.9277693 16.3761112 19.8511117 16.1856286 19.7623747 15.9923586 19.6666689 15.7972302 19.5565607 15.5988496 19.439019 15.3986107 19.3098626 15.1960488 19.1732727 14.9906993 19.0246034 14.7881374 18.8689653 14.582788 18.7063583 14.3779032 18.5363178 14.1748767 18.3611668 13.9746377 18.1795115 13.7743988 17.9899582 13.5788058 17.7985465 13.3855357 17.6020243 13.1973762 17.4008562 13.0115396 17.1996881 12.8326719 16.993874 12.6565917 16.7875954 12.4902679 16.5794584 12.3285901 16.3685339 12.1715582 16.1576093 12.0219597 15.9471494 11.8793301 15.7339019 11.741811 15.5206544 11.6117254 15.305084 11.4858211 15.0871905 11.3678149 14.8692971 11.2544546 14.6490808 11.1480631 14.4283998 11.0491051 14.2058605 10.954793 13.9828566 10.8679144 13.7556713 10.7884693 13.5303445 10.7136701 13.3003717 10.6458397 13.0703989 10.5854428 12.8381031 10.5301564 12.6081304 10.4795159 12.3758346 10.4386319 12.1435389 10.4023938 11.9135661 10.3731245 11.6859162 10.3489657 11.461054 10.3322404 11.2357271 10.3201611 11.0155107 10.3155152 10.7999403 10.3155152 10.5866928 10.324807 10.3808787 10.3368864 10.1797106 10.3563992 9.98318843 10.3828809 9.79409969 10.4144731 9.61197982 10.4530342 9.43682883 10.4962412 9.26678835 10.5468817 9.10650428 10.6026327 8.95086613 10.6653525 8.80219685 10.7303954 8.66096104 10.8028716 8.5266941 10.8827814 8.39753767 10.9645495 8.2753501 11.053751 8.15780846 11.1457401 8.04770027 11.2446981 7.942238 11.348302 7.8442092 11.4570164 7.75082631 11.5680538 7.66441229 11.6865246 7.58310878 11.8068538 7.50645118 7.53214753 10.016639 7.40438487 10.0956196 7.28126812 10.1820336 7.16279729 10.2730935 7.04943697 10.3711223 6.94072256 10.4742616 6.83711866 10.5843698 6.73816067 10.7014469 6.64617155 10.8236344 6.55696999 10.9532555 6.47520189 11.0870578 6.40040266 11.2310812 6.33024934 11.3792859 6.26520653 11.5353886 6.2071326 11.6979956 6.15416917 11.8703591 6.10817461 12.0455101 6.06729056 12.2299529 6.03337538 12.4236875 6.00689366 12.6225327 5.98505786 12.8283467 5.97065553 13.0392713 5.96322206 13.2571647 5.9608991 13.4824915 5.96554502 13.7101414 5.9776244 13.9424371 5.99713724 14.1770558 6.021296 14.4139975 6.05242363 14.6560496 6.09098472 14.8981018 6.13697928 15.1396894 6.18761975 15.3840645 6.24569369 15.6284396 6.3107365 15.8728148 6.38088981 16.1148669 6.46033496 16.3541315 6.54489061 16.5938608 6.63687972 16.8308024 6.73583771 17.0682087 6.83944161 17.3028274 6.95047898 17.5351231 7.06894981 17.7650959 7.19438951 17.9950687 7.32447513 18.2222539 7.4624588 18.4499038 7.60694676 18.6752306 7.75933277 18.9000929 7.9159001 19.1230968 8.08036549 19.3433132 8.25133516 19.5635296 8.42787992 19.7842105 8.61139356 20.0021039 8.79955312 20.2176744 8.99514613 20.4309219 9.19306211 20.6413818 9.395624 20.8499834 9.6032964 21.0511515 9.81329175 21.2499967 10.0256101 21.4414084 10.2379284 21.6258512 10.4530342 21.8056481 10.6676755 21.9780115 10.8851043 22.1410832 11.0997456 22.2967213 11.3120639 22.4402801 11.5220593 22.57687 11.7320546 22.7013805 11.937404 22.8138116 12.1427535 22.916951 12.3406695 23.0080109 12.5357979 23.0916374 12.729068 23.163649 12.9172275 23.2259043 13.1030641 23.2784031 13.2842548 23.3239331 13.460335 23.3601712 13.6340922 23.386653 13.8008805 23.4057012 13.9648813 23.4177806 14.1242362 23.4224265 14.2789452 23.4224265 14.4257561 23.4126701 14.5707086 23.3982677 14.7082277 23.3768965 14.8434238 23.3504148 14.9716511 23.3192872 15.0947678 23.2811907 15.2127741 23.2356607 15.3261344 23.1850202 15.4348488 23.1301984 15.5389173 23.0702661 15.6378753 23.003365"></polygon>
                                <path d="M6.70238712,32.5260968 C5.03914959,28.835382 3.30854628,24.4858764 2.1498551,21.0511515 C0.993951471,17.6141037 0.407172417,15.0941594 0.148859548,12.8404261 C-0.109453321,10.5890157 -0.0416229634,8.6033517 0.431331175,6.94104334 C0.901962356,5.27901374 1.78050487,3.94010752 2.94895247,3.11615451 C4.11740007,2.28983208 5.57761112,1.97604699 7.33237319,2.16769098 C9.08481229,2.35687264 11.1318024,3.04911396 12.9516073,4.1868056 C14.7741997,5.32449725 16.3696069,6.90759275 17.7745315,8.82635561 C19.1789916,10.7446539 20.3934338,12.9960642 21.2598969,15.2953275 C22.1240371,17.5927325 22.6406628,19.9347382 22.720108,22.3204155 C22.8000177,24.7084157 22.4404239,27.139623 21.5279662,29.4700139 C20.6178315,31.8031924 19.1576204,34.032767 17.4028584,36.1526979 C15.6504192,38.2721643 13.6034291,40.2796642 12.582257,41.2831818 C11.558762,42.2866994 11.558762,42.2866994 11.558762,42.2866994 C11.558762,42.2866994 11.558762,42.2866994 10.7601292,40.7702728 C9.9633548,39.2519878 8.36562466,36.2195991 6.70238712,32.5260968 Z M8.42834452,19.7842105 C7.46756931,18.6176213 6.78183227,17.4031791 6.3813544,16.1148669 C5.9831995,14.8260901 5.87216213,13.4657662 6.03383997,12.4236875 C6.19784077,11.3792859 6.63455677,10.6559169 7.28173271,10.1820336 C7.92844407,9.70768567 8.78282782,9.4823588 9.82815868,9.79131214 C10.8734895,10.0979425 12.1093029,10.9337426 13.1931949,12.093363 C14.2794098,13.2525187 15.2109157,14.7373532 15.8069866,16.1362381 C16.4035221,17.5374461 16.6618349,18.85224 16.700396,19.9180129 C16.7412801,20.9842503 16.5600894,21.7982146 16.2056061,22.3780248 C15.8529811,22.957835 15.324276,23.3025619 14.5711732,23.3982677 C13.8180704,23.4916506 12.8405699,23.3360125 11.7325192,22.7013805 C10.6249331,22.0644256 9.38911972,20.9480122 8.42834452,19.7842105 Z" id="Shape" fill="#EF7F1A"></path>
                            </g>
                            <polygon id="Path" fill="#DBF0D4" points="131.322383 152.435432 149.462462 184.461994 122.43608 217.976879 143.831077 262.670179 106.643381 289.22243 0 227.565165"></polygon>
                            <polygon id="Path" fill="#DBF0D4" points="530.35826 406.305701 358.261957 308.871574 456.457086 253.727816 588.506067 325.312537"></polygon>
                            <polygon id="Path" fill="#B2B3B3" points="380.014595 296.653747 525.281078 291.784997 530.041029 293.688977 376.024684 298.895401"></polygon>
                            <polygon id="Path" fill="#B2B3B3" points="446.755951 295.161479 462.2524 256.980421 465.39722 258.745404 451.872961 295.046725"></polygon>
                        </g>
                    </g>
                </g>
            </g>
        </g>
    </g>
</svg>