<?xml version="1.0" encoding="UTF-8"?>
<svg width="181px" height="30px" viewBox="0 0 181 30" version="1.1" xmlns="http://www.w3.org/2000/svg" xmlns:xlink="http://www.w3.org/1999/xlink">
    <title>Logo_RUTUBE_dark_color</title>
    <g id="Логистика-2" stroke="none" stroke-width="1" fill="none" fill-rule="evenodd">
        <g id="Собираем-штрафы-по-базам-Desktop-HD-Copy-12" transform="translate(-886, -5628)" fill-rule="nonzero">
            <g id="Group-11" transform="translate(225, 5488)">
                <g id="Logo_RUTUBE_dark_color" transform="translate(661, 140)">
                    <path d="M18.0531926,18.1300166 L5.37623637,18.1300166 L5.37623637,13.0510101 L18.0531926,13.0510101 C18.7936822,13.0510101 19.3085646,13.1816812 19.566939,13.4098889 C19.8253439,13.6380966 19.9854167,14.0613472 19.9854167,14.6796405 L19.9854167,16.5033443 C19.9854167,17.1548025 19.8253439,17.5780531 19.566939,17.8062608 C19.3085646,18.0344685 18.7936822,18.1319746 18.0531926,18.1319746 L18.0531926,18.1300166 Z M18.9228847,8.26259453 L0,8.26259453 L0,29.9830508 L5.37623637,29.9830508 L5.37623637,22.9164741 L15.2840743,22.9164741 L19.9854167,29.9830508 L26.0057074,29.9830508 L20.822311,22.8833398 C22.7333021,22.5966039 23.5914293,22.0036738 24.2991211,21.0264711 C25.0068128,20.049299 25.3616531,18.4869678 25.3616531,16.401922 L25.3616531,14.773261 C25.3616531,13.5366744 25.2324506,12.5594717 25.0068128,11.8105073 C24.7812057,11.0615123 24.3955257,10.4100541 23.8478761,9.82492564 C23.2693868,9.27097348 22.6253019,8.88088787 21.8520452,8.61951522 C21.0787884,8.39130748 20.1126611,8.26063645 18.9228847,8.26063645 L18.9228847,8.26259453 Z M33.5305353,23.5673816 L33.5305353,8.26063645 L28.1473538,8.26063645 L28.1473538,23.43668 C28.1473538,24.6733891 28.2438809,25.6838179 28.469794,26.432874 C28.6957071,27.2150951 29.081846,27.866584 29.6630277,28.4186393 C30.2113809,29.0038289 30.8562307,29.3959032 31.6284472,29.6241415 C32.4028054,29.8835561 33.3680761,29.9830508 34.5943217,29.9830508 L47.0941944,29.9830508 C48.2873974,29.9830508 49.2548097,29.8855141 50.0270263,29.6241415 C50.8013844,29.3959032 51.446326,29.0057869 52.0254884,28.4186393 C52.5737499,27.8646565 52.9598582,27.2131371 53.1859548,26.432874 C53.4117456,25.6838179 53.5411622,24.6733891 53.5411622,23.43668 L53.5411622,8.26063645 L48.1579808,8.26063645 L48.1579808,23.5673816 C48.1579808,24.2189011 47.9979692,24.6421822 47.7391359,24.87039 C47.4803026,25.0986283 46.9647777,25.196165 46.2234621,25.196165 L35.4650539,25.196165 C34.6906958,25.196165 34.1751709,25.0986283 33.9184792,24.87039 C33.659646,24.6421822 33.532371,24.2189011 33.532371,23.5673816 L33.5305353,23.5673816 Z M73.0481963,29.9830508 L73.0481963,13.0475223 L83.2182635,13.0475223 L83.2182635,8.26063645 L57.5185057,8.26063645 L57.5185057,13.0475223 L67.688573,13.0475223 L67.688573,29.9830508 L73.0481963,29.9830508 Z M92.5787884,23.5673816 L92.5787884,8.26063645 L87.195607,8.26063645 L87.195607,23.43668 C87.195607,24.6733891 87.2922871,25.6838179 87.5180778,26.432874 C87.7438685,27.2150951 88.1299768,27.866584 88.7112808,28.4186393 C89.2595423,29.0038289 89.9044839,29.3959032 90.6767004,29.6241415 C91.4510586,29.8835561 92.4163293,29.9830508 93.6425748,29.9830508 L106.142448,29.9830508 C107.335651,29.9830508 108.303063,29.8855141 109.075279,29.6241415 C109.849638,29.3959032 110.494579,29.0057869 111.073742,28.4186393 C111.622003,27.8646565 112.008111,27.2131371 112.234208,26.432874 C112.459999,25.6838179 112.589415,24.6733891 112.589415,23.43668 L112.589415,8.26063645 L107.206234,8.26063645 L107.206234,23.5673816 C107.206234,24.2189011 107.046222,24.6421822 106.787389,24.87039 C106.530697,25.0986283 106.013031,25.196165 105.271715,25.196165 L94.5133071,25.196165 C93.7389489,25.196165 93.223424,25.0986283 92.9667324,24.87039 C92.7078991,24.6421822 92.5806241,24.2189011 92.5806241,23.5673816 L92.5787884,23.5673816 Z M121.956671,25.196165 L121.956671,21.2890063 L134.699162,21.2890063 C135.441395,21.2890063 135.957838,21.4197079 136.216671,21.6479157 C136.475811,21.876154 136.636128,22.2994351 136.636128,22.9177897 L136.636128,23.5693091 C136.636128,24.2208286 136.475811,24.6441403 136.216671,24.872348 C135.959674,25.1005864 135.441395,25.1981231 134.699162,25.1981231 L121.956671,25.1981231 L121.956671,25.196165 Z M121.956671,16.956639 L121.956671,13.0494804 L133.403772,13.0494804 C134.179048,13.0494804 134.695184,13.180182 134.952488,13.4083897 C135.211321,13.6366281 135.338902,14.0599092 135.338902,14.6782637 L135.338902,15.3297832 C135.338902,15.9813026 135.209486,16.4045838 134.952488,16.6328221 C134.695184,16.8610298 134.177212,16.9585665 133.403772,16.9585665 L121.956671,16.9585665 L121.956671,16.956639 Z M140.69822,14.5787995 L140.69822,14.1554878 C140.69822,12.1365883 140.182083,10.638476 139.149503,9.69437699 C138.11723,8.75024744 136.469998,8.26063645 134.275728,8.26063645 L116.566759,8.26063645 L116.566759,29.9830508 L135.538075,29.9830508 C137.732345,29.9830508 139.379577,29.5266048 140.411851,28.5824752 C141.44443,27.6383763 141.960567,26.1402639 141.960567,24.1213644 L141.960567,23.6648877 C141.960567,21.6459882 141.44443,20.2122477 140.411851,19.3656854 C140.218797,19.2349838 140.025437,19.1374471 139.829935,19.0399104 C139.636881,18.9423737 139.147668,18.8117026 138.793684,18.681001 C139.503487,18.2908542 139.988723,17.7700364 140.278457,17.1828887 C140.537596,16.595741 140.69822,15.7179719 140.69822,14.5768415 L140.69822,14.5787995 Z M150.092705,13.0475223 L169.496022,13.0475223 L169.496022,8.26063645 L144.714113,8.26063645 L144.714113,29.9830508 L169.496022,29.9830508 L169.496022,25.196165 L150.092705,25.196165 L150.092705,21.5152866 L167.024868,21.5152866 L167.024868,16.7284007 L150.092705,16.7284007 L150.092705,13.0475223 Z" id="Combined-Shape" fill="#383838"></path>
                    <path d="M176.379886,8.26063645 C178.661045,8.26063645 180.510204,6.4114165 180.510204,4.13031823 C180.510204,1.84920772 178.661045,0 176.379886,0 C174.098726,0 172.249568,1.84920772 172.249568,4.13031823 C172.249568,6.4114165 174.098726,8.26063645 176.379886,8.26063645 Z" id="Path" fill="#ED143B"></path>
                </g>
            </g>
        </g>
    </g>
</svg>