<?xml version="1.0" encoding="UTF-8"?>
<svg width="180px" height="26px" viewBox="0 0 180 26" version="1.1" xmlns="http://www.w3.org/2000/svg" xmlns:xlink="http://www.w3.org/1999/xlink">
    <title>Group 9 Copy 2</title>
    <defs>
        <linearGradient x1="50%" y1="0%" x2="50%" y2="100%" id="linearGradient-1">
            <stop stop-color="#757575" offset="0%"></stop>
            <stop stop-color="#2A2A2A" offset="100%"></stop>
        </linearGradient>
    </defs>
    <g id="Вопос-ответ" stroke="none" stroke-width="1" fill="none" fill-rule="evenodd">
        <g id="Часто-задаваемые-вопросы-1" transform="translate(-885, -5179)" fill-rule="nonzero">
            <g id="Group-11" transform="translate(225, 5035)">
                <g id="Group-9-Copy-2" transform="translate(660, 144.15)">
                    <g id="youtube-color-svgrepo-com" transform="translate(0, 0.85)" fill="#CE1312">
                        <path d="M14.0029412,17.1102324 L14.0018382,7.12333971 L23.5378676,12.1340029 L14.0029412,17.1102324 Z M34.9411765,5.39276691 C34.9411765,5.39276691 34.5959559,2.94352868 33.5382353,1.864975 C32.1959559,0.448749265 30.6915441,0.442084559 30.0022059,0.359888235 C25.0632353,0 17.6547794,0 17.6547794,0 L17.6393382,0 C17.6393382,0 10.2308824,0 5.29191176,0.359888235 C4.60147059,0.442084559 3.09816176,0.448749265 1.75477941,1.864975 C0.697058824,2.94352868 0.352941176,5.39276691 0.352941176,5.39276691 C0.352941176,5.39276691 0,8.26964926 0,11.1454213 L0,13.8423603 C0,16.7192426 0.352941176,19.5950147 0.352941176,19.5950147 C0.352941176,19.5950147 0.697058824,22.0442529 1.75477941,23.1228059 C3.09816176,24.5390324 4.86176471,24.4946015 5.64705882,24.6423338 C8.47058824,24.9155816 17.6470588,25 17.6470588,25 C17.6470588,25 25.0632353,24.9888926 30.0022059,24.6290044 C30.6915441,24.5456971 32.1959559,24.5390324 33.5382353,23.1228059 C34.5959559,22.0442529 34.9411765,19.5950147 34.9411765,19.5950147 C34.9411765,19.5950147 35.2941176,16.7192426 35.2941176,13.8423603 L35.2941176,11.1454213 C35.2941176,8.26964926 34.9411765,5.39276691 34.9411765,5.39276691 L34.9411765,5.39276691 Z" id="Youtube"></path>
                    </g>
                    <g id="YouTube" transform="translate(50.385, 0)" fill="url(#linearGradient-1)">
                        <path d="M26.495,7.42 C31.57,7.42 34.965,10.99 34.965,16.17 C34.965,22.435 30.555,25.235 26.215,25.235 C21.42,25.235 17.675,21.945 17.675,16.45 C17.675,10.85 21.35,7.42 26.495,7.42 Z M4.935,1.26 L7.735,7.315 C8.54,9.065 9.135,10.395 9.8,12.005 L9.87,12.005 C10.43,10.5 11.095,9.03 11.9,7.315 L14.735,1.26 L19.6,1.26 L11.76,14.91 L11.76,24.85 L7.455,24.85 L7.455,15.015 L0,1.26 L4.935,1.26 Z M26.39,10.535 C23.345,10.535 22.12,13.51 22.12,16.345 C22.12,19.635 23.765,22.12 26.355,22.12 C28.805,22.12 30.52,19.74 30.52,16.275 C30.52,13.615 29.33,10.535 26.39,10.535 Z M53.76,7.805 L49.455,7.805 L49.455,18.095 C49.455,18.585 49.385,19.075 49.21,19.425 C48.79,20.545 47.67,21.735 45.92,21.735 C43.645,21.735 42.735,19.915 42.735,17.08 L42.735,7.805 L38.43,7.805 L38.43,17.815 C38.43,23.38 41.265,25.235 44.345,25.235 C47.425,25.235 49.105,23.485 49.84,22.295 L49.945,22.295 L50.155,24.85 L53.9,24.85 C53.83,23.45 53.76,21.77 53.76,19.74 L53.76,7.805 Z M61.88,24.85 L66.185,24.85 L66.185,4.865 L72.975,4.865 L72.975,1.26 L55.16,1.26 L55.16,4.865 L61.88,4.865 L61.88,24.85 Z M89.075,7.805 L84.77,7.805 L84.77,18.095 C84.77,18.585 84.7,19.075 84.525,19.425 C84.105,20.545 82.985,21.735 81.235,21.735 C78.96,21.735 78.05,19.915 78.05,17.08 L78.05,7.805 L73.745,7.805 L73.745,17.815 C73.745,23.38 76.58,25.235 79.66,25.235 C82.74,25.235 84.42,23.485 85.155,22.295 L85.26,22.295 L85.47,24.85 L89.215,24.85 C89.145,23.45 89.075,21.77 89.075,19.74 L89.075,7.805 Z M93.73,20.055 C93.73,21.805 93.66,23.695 93.59,24.85 L97.265,24.85 L97.475,22.295 L97.545,22.295 C98.77,24.395 100.73,25.235 102.935,25.235 C106.785,25.235 110.67,22.19 110.67,16.065 C110.705,10.885 107.73,7.42 103.565,7.42 C101.01,7.42 99.155,8.505 98.105,10.15 L98.035,10.15 L98.035,0 L93.73,0 L93.73,20.055 Z M98.035,15.05 C98.035,14.63 98.105,14.245 98.175,13.93 C98.63,12.04 100.24,10.78 101.99,10.78 C104.86,10.78 106.295,13.23 106.295,16.24 C106.295,19.705 104.65,21.84 101.955,21.84 C100.1,21.84 98.595,20.58 98.14,18.83 C98.07,18.515 98.035,18.165 98.035,17.815 L98.035,15.05 Z M128.66,17.535 C128.73,17.15 128.8,16.52 128.8,15.715 C128.8,11.97 126.98,7.42 121.45,7.42 C115.99,7.42 113.12,11.865 113.12,16.59 C113.12,21.805 116.375,25.2 121.905,25.2 C124.355,25.2 126.385,24.745 127.855,24.115 L127.225,21.175 C125.895,21.63 124.495,21.945 122.5,21.945 C119.735,21.945 117.355,20.615 117.25,17.535 L128.66,17.535 Z M117.25,14.525 C117.425,12.775 118.545,10.36 121.205,10.36 C124.075,10.36 124.775,12.95 124.74,14.525 L117.25,14.525 Z" id="Combined-Shape"></path>
                    </g>
                </g>
            </g>
        </g>
    </g>
</svg>