<?xml version="1.0" encoding="UTF-8"?>
<svg width="141px" height="42px" viewBox="0 0 141 42" version="1.1" xmlns="http://www.w3.org/2000/svg" xmlns:xlink="http://www.w3.org/1999/xlink">
    <title>download-on-the-app-store-apple-logo-svgrepo-com</title>
    <g id="Логистика-2" stroke="none" stroke-width="1" fill="none" fill-rule="evenodd">
        <g id="Собираем-штрафы-по-базам-Desktop-HD-Copy-11" transform="translate(-141, -6738)" fill-rule="nonzero">
            <g id="Нижняя-часть-шапки" transform="translate(0, 6456)">
                <g id="download-on-the-app-store-apple-logo-svgrepo-com" transform="translate(142, 283)">
                    <path d="M139.423435,35.9903665 C139.423435,37.0545128 139.000307,38.0750133 138.24725,38.8270855 C137.494193,39.5791577 136.472981,40.0011091 135.408553,40 L4.02011813,40 C1.80258952,40.002312 0.00288996498,38.2073071 0,35.9903665 L0,4.01486577 C0.00288843616,1.79707884 1.80174184,0.000575669224 4.02011813,0 L135.407506,0 C136.4725,0 137.49386,0.423026944 138.246827,1.17599044 C138.999793,1.92895394 139.423435,2.95015344 139.423435,4.01486577 L139.423435,35.9903665 Z" id="Path" stroke="#FFFFFF"></path>
                    <path d="M30.617404,19.7801496 C30.5870358,16.4059874 33.380908,14.7644464 33.5086638,14.6880226 C31.9263771,12.3816995 29.4738851,12.0665822 28.6120572,12.0414566 C26.5522572,11.8247481 24.5542407,13.2736592 23.5049679,13.2736592 C22.4347515,13.2736592 20.8189551,12.0623946 19.0774973,12.0979893 C16.8365354,12.132537 14.7400841,13.4296475 13.5902821,15.4438852 C11.2173757,19.5508783 12.9871073,25.5862632 15.2605318,28.9059867 C16.3977676,30.532871 17.7266371,32.3471506 19.4660005,32.2832897 C21.1676655,32.2141942 21.8033029,31.199747 23.8568198,31.199747 C25.8914876,31.199747 26.4883793,32.2832897 28.2622996,32.2424605 C30.0885789,32.2141942 31.2383808,30.6092948 32.3358239,28.9688007 C33.6500328,27.1063636 34.1778108,25.2700991 34.1987544,25.175878 C34.1568672,25.1612214 30.6530081,23.8232818 30.617404,19.7801496 Z M27.2664329,9.85762089 C28.1816669,8.71335797 28.8078796,7.15661602 28.634048,5.57684223 C27.3093672,5.6354687 25.6527309,6.49288071 24.6987513,7.612018 C23.8547255,8.59819885 23.100757,10.2146142 23.2955322,11.7347146 C24.7835728,11.8456861 26.3114062,10.9840865 27.2664329,9.85762089 L27.2664329,9.85762089 Z" id="Shape" fill="#FFFFFF"></path>
                    <g id="Group" transform="translate(43.4998, 17.9114)" fill="#FFFFFF">
                        <path d="M11.7650501,14.1383995 L9.38690777,14.1383995 L8.08421776,10.0460631 L3.55621807,10.0460631 L2.31531159,14.1383995 L0,14.1383995 L4.48715973,0.206239519 L7.25799395,0.206239519 L11.7650501,14.1383995 L11.7650501,14.1383995 Z M7.69152584,8.32914526 L6.51345006,4.69116389 C6.38883582,4.319514 6.15426785,3.44430467 5.81079331,2.0665828 L5.76890617,2.0665828 C5.63067861,2.65912883 5.40972396,3.53433816 5.10708938,4.69116389 L3.94891,8.32914526 L7.69152584,8.32914526 Z M23.2819188,8.99183367 C23.2819188,10.7003763 22.8180188,12.0508787 21.8891715,13.0422941 C21.0577118,13.9248317 20.0241466,14.3655771 18.7916176,14.3655771 C17.4606538,14.3655771 16.5035326,13.8913309 15.9223486,12.9407447 L15.9223486,18.2118918 L13.6897641,18.2118918 L13.6897641,7.39426257 C13.6897641,6.32118893 13.6614903,5.22089586 13.607037,4.09233645 L15.5704966,4.09233645 L15.6951109,5.68467305 L15.736998,5.68467305 C16.4815419,4.48492437 17.6114475,3.88505003 19.1277619,3.88505003 C20.3131679,3.88505003 21.3027515,4.35301483 22.0944185,5.28999133 C22.8850382,6.22906163 23.2819188,7.46231114 23.2819188,8.99183367 Z M21.0074472,9.07349196 C21.0074472,8.09568631 20.7875397,7.28957246 20.3456304,6.65410348 C19.8628812,5.99350888 19.2146777,5.66268813 18.4020672,5.66268813 C17.8512513,5.66268813 17.3507,5.84694272 16.9035548,6.21021741 C16.4553624,6.5766328 16.1621525,7.05506661 16.0249721,7.64761264 C15.963732,7.86921191 15.9289332,8.09727682 15.9213014,8.32705146 L15.9213014,10.0031401 C15.9213014,10.7328302 16.1453976,11.349455 16.59359,11.8540613 C17.0417824,12.3565738 17.6240136,12.608877 18.3402837,12.608877 C19.181168,12.608877 19.8356545,12.2832908 20.3037433,11.6373528 C20.7728792,10.989321 21.0074472,10.1350497 21.0074472,9.07349196 L21.0074472,9.07349196 Z M34.8396276,8.99183367 C34.8396276,10.7003763 34.3757275,12.0508787 33.4468802,13.0422941 C32.6143733,13.9248317 31.5818554,14.3655771 30.3482791,14.3655771 C29.0173153,14.3655771 28.0601942,13.8913309 27.4790101,12.9407447 L27.4790101,18.2118918 L25.2464257,18.2118918 L25.2464257,7.39426257 C25.2464257,6.32118893 25.2181518,5.22089586 25.1636986,4.09233645 L27.1271582,4.09233645 L27.2517724,5.68467305 L27.2936596,5.68467305 C28.0371563,4.48492437 29.1670618,3.88505003 30.6844234,3.88505003 C31.8687823,3.88505003 32.8583659,4.35301483 33.6521272,5.28999133 C34.4416998,6.22906163 34.8396276,7.46231114 34.8396276,8.99183367 L34.8396276,8.99183367 Z M32.5641088,9.07349196 C32.5641088,8.09568631 32.3431541,7.28957246 31.9012448,6.65410348 C31.4184955,5.99350888 30.7723864,5.66268813 29.9597759,5.66268813 C29.4089601,5.66268813 28.9084087,5.84694272 28.4591692,6.21021741 C28.0109768,6.5766328 27.718814,7.05506661 27.5816336,7.64761264 C27.513567,7.92399453 27.4769158,8.14907827 27.4769158,8.32705146 L27.4769158,10.0031401 C27.4769158,10.7328302 27.7020592,11.349455 28.1481572,11.8540613 C28.5963496,12.3555269 29.1785808,12.608877 29.8969452,12.608877 C30.7388767,12.608877 31.3933632,12.2832908 31.8604048,11.6373528 C32.3295408,10.989321 32.5641088,10.1350497 32.5641088,9.07349196 L32.5641088,9.07349196 Z M47.7618099,10.2303177 C47.7618099,11.4164566 47.3471272,12.3806526 46.5229977,13.1249993 C45.6161412,13.9373945 44.3501024,14.3446391 42.7269758,14.3446391 C41.2274162,14.3446391 40.0252553,14.0556944 39.1183988,13.476758 L39.6346578,11.6164148 C40.6137696,12.196398 41.6892219,12.4853427 42.8599675,12.4853427 C43.7018989,12.4853427 44.3563855,12.2948067 44.8234271,11.9168754 C45.2915159,11.5378972 45.5281782,11.031197 45.5281782,10.3988688 C45.5281782,9.83249526 45.3323558,9.35824906 44.9480413,8.97194255 C44.5616325,8.58668294 43.9228536,8.22759586 43.0254217,7.897822 C40.5854958,6.98806494 39.3644857,5.65745362 39.3644857,3.90703496 C39.3644857,2.76381894 39.7959233,1.82788935 40.656704,1.09610547 C41.5174847,0.365368489 42.6589092,0 44.0788832,0 C45.3470163,0 46.4036194,0.220896135 47.2424093,0.661641504 L46.6821689,2.48115564 C45.8925963,2.05401999 45.0014474,1.84045216 44.0045335,1.84045216 C43.2170553,1.84045216 42.59922,2.03412886 42.1573107,2.41938847 C41.7855624,2.76381894 41.5970702,3.18362629 41.5970702,3.68195122 C41.5970702,4.2315743 41.8117418,4.68802319 42.2389906,5.04606337 C42.6096918,5.37583722 43.2861691,5.7349243 44.2642338,6.12018391 C45.4643003,6.60385223 46.3460246,7.16708503 46.9104538,7.81406992 C47.4790717,8.4610548 47.7618099,9.26821556 47.7618099,10.2303177 Z M55.1622201,5.76737824 L52.7013507,5.76737824 L52.7013507,10.6448905 C52.7013507,11.8854683 53.1348826,12.5041869 54.0040407,12.5041869 C54.4030157,12.5041869 54.7339241,12.4706861 54.9957187,12.4005437 L55.0575022,14.0954766 C54.6176873,14.2598401 54.0385976,14.3425453 53.3212803,14.3425453 C52.4395561,14.3425453 51.7505126,14.0734917 51.2531029,13.5353845 C50.7577875,12.9972773 50.508559,12.0958955 50.508559,10.8270513 L50.508559,5.76319063 L49.0425091,5.76319063 L49.0425091,4.08814885 L50.508559,4.08814885 L50.508559,2.24874359 L52.7013507,1.58710209 L52.7013507,4.08814885 L55.1622201,4.08814885 L55.1622201,5.76737824 L55.1622201,5.76737824 Z M66.2434626,9.03266281 C66.2434626,10.576842 65.8015533,11.8446392 64.919829,12.8360546 C63.9972648,13.8567831 62.7699716,14.3655771 61.2400439,14.3655771 C59.7635223,14.3655771 58.5896352,13.8766743 57.714194,12.8999155 C56.8387528,11.921063 56.4010322,10.6878135 56.4010322,9.20016699 C56.4010322,7.64342503 56.8534133,6.36829948 57.755034,5.37688412 C58.658749,4.38442187 59.8755704,3.88819074 61.4054981,3.88819074 C62.8799254,3.88819074 64.0642842,4.37814046 64.960669,5.3559461 C65.817261,6.30443851 66.2434626,7.52931281 66.2434626,9.03266281 Z M63.9291982,9.08396097 C63.9291982,8.16373489 63.7302343,7.37437145 63.3312593,6.71377684 C62.8631705,5.9160382 62.1929763,5.51716887 61.3248654,5.51716887 C60.4305749,5.51716887 59.7446731,5.9160382 59.2776315,6.71377684 C58.8776093,7.37437145 58.6786454,8.1773446 58.6786454,9.12583701 C58.6786454,10.04711 58.8776093,10.8385672 59.2776315,11.497068 C59.7603807,12.2948067 60.4337165,12.693676 61.3060161,12.693676 C62.1594666,12.693676 62.8286136,12.2864315 63.3124101,11.4771769 C63.722904,10.8008788 63.9291982,10.0062808 63.9291982,9.08396097 Z M73.5035509,6.05527604 C73.2713459,6.01336551 73.0358045,5.99269101 72.799847,5.99350888 C72.0144631,5.99350888 71.4070996,6.28873499 70.9798508,6.88337482 C70.6091496,7.40682538 70.4227519,8.06846689 70.4227519,8.86725244 L70.4227519,14.1383995 L68.1901674,14.1383995 L68.1901674,7.25607162 C68.1921584,6.20148971 68.1705113,5.1469956 68.1252423,4.09338336 L70.0698527,4.09338336 L70.1515327,6.0154938 L70.2133162,6.0154938 C70.4499785,5.3548992 70.8206797,4.82202653 71.3296084,4.42315721 C71.7954493,4.0746205 72.3614606,3.88587764 72.9433104,3.88505003 C73.1496046,3.88505003 73.3360024,3.89970665 73.5014566,3.92587918 L73.5035509,6.05527604 L73.5035509,6.05527604 Z M83.4883976,8.64007489 C83.4940589,8.97937517 83.4667036,9.31842181 83.4067177,9.65242827 L76.7089642,9.65242827 C76.7340965,10.6448905 77.0587218,11.4049407 77.6807458,11.9283913 C78.245175,12.3953092 78.9750584,12.629815 79.8714432,12.629815 C80.8631212,12.629815 81.7678834,12.4727799 82.5815411,12.1555688 L82.9312987,13.7039356 C81.9804606,14.1185084 80.8578853,14.3247479 79.5625255,14.3247479 C78.004324,14.3247479 76.7812195,13.8662053 75.8911178,12.9512137 C75.0031105,12.0351752 74.5580596,10.8040195 74.5580596,9.26193416 C74.5580596,7.74811514 74.9716951,6.4865993 75.8000133,5.48052733 C76.6670771,4.40640679 77.8388698,3.86934652 79.3132971,3.86934652 C80.7615449,3.86934652 81.8579407,4.40640679 82.6024846,5.48052733 C83.1920461,6.33165794 83.4883976,7.38693426 83.4883976,8.64007489 L83.4883976,8.64007489 Z M81.3594838,8.06113858 C81.3751915,7.39845017 81.2285865,6.82788907 80.9259519,6.34526765 C80.539543,5.72340839 79.9447457,5.41352566 79.1478429,5.41352566 C78.4179595,5.41352566 77.8231621,5.71608008 77.370781,6.32328273 C76.9990326,6.80590414 76.778078,7.38588736 76.7100114,8.05904478 L81.3594838,8.06113858 Z" id="Shape"></path>
                    </g>
                    <g id="Скачать-приложение-в" transform="translate(45.917, 6.7739)" fill="#FFFFFF">
                        <path d="M3.96822763,4.52489283 C3.70579975,4.63622587 3.29227703,4.71574947 2.90261139,4.71574947 C1.71770976,4.71574947 1.0338068,3.96822763 1.0338068,2.78332599 C1.0338068,1.49504368 1.82109044,0.811140718 2.91056375,0.811140718 C3.34794355,0.811140718 3.70579975,0.906569038 3.96027527,1.01790208 L4.16703663,0.238570799 C3.96822763,0.13519012 3.51494311,0 2.87080195,0 C1.2326158,0 0,1.06561624 0,2.83104015 C0,4.46922631 1.0338068,5.53484255 2.73561183,5.53484255 C3.38770535,5.53484255 3.89665639,5.40760479 4.12727483,5.29627175 L3.96822763,4.52489283 Z" id="Path"></path>
                        <path d="M4.92251083,1.57456728 L4.92251083,5.44736659 L5.90065111,5.44736659 L5.90065111,3.83303751 L6.02788886,3.83303751 C6.52888754,3.83303751 6.82312486,4.08751303 7.03783858,4.62032115 C7.18098106,4.99408207 7.2923141,5.28036703 7.39569478,5.44736659 L8.41359686,5.44736659 C8.23069258,5.10541511 8.09550246,4.68394003 7.97621706,4.38970271 C7.71378918,3.76941863 7.38774242,3.35589591 6.8549343,3.27637231 L8.39769214,1.57456728 L7.23664758,1.57456728 L6.04379358,3.18094399 L5.90065111,3.18094399 L5.90065111,1.57456728 L4.92251083,1.57456728 Z" id="Path"></path>
                        <path d="M11.9603494,3.12527747 C11.9603494,2.27437495 11.6024932,1.48709132 10.3619251,1.48709132 C9.74959334,1.48709132 9.24859466,1.65409088 8.9623097,1.8290428 L9.15316634,2.46523159 C9.41559422,2.29823203 9.81321222,2.17894663 10.1949255,2.17894663 C10.8788285,2.17894663 10.9822091,2.60042171 10.9822091,2.85489723 L10.9822091,2.91851611 C9.55078434,2.91056375 8.6839771,3.41156243 8.6839771,4.38175035 C8.6839771,4.97022499 9.1213569,5.53484255 9.90068818,5.53484255 C10.4096392,5.53484255 10.8152096,5.32012883 11.045828,5.01793915 L11.0696851,5.01793915 L11.1412563,5.44736659 L12.0239683,5.44736659 C11.9762541,5.20879579 11.9603494,4.86684431 11.9603494,4.51694047 L11.9603494,3.12527747 Z M11.0060662,4.08751303 C11.0060662,4.15908427 11.0060662,4.23065551 10.9822091,4.30222675 C10.8867808,4.58055935 10.6084482,4.83503487 10.2108302,4.83503487 C9.90068818,4.83503487 9.65416502,4.66008295 9.65416502,4.27836967 C9.65416502,3.68989503 10.3142109,3.54675255 11.0060662,3.55470491 L11.0060662,4.08751303 Z" id="Shape"></path>
                        <path d="M12.946442,1.57456728 L12.946442,2.92646847 C12.946442,3.82508515 13.4553931,4.26246495 14.2426767,4.26246495 C14.6005329,4.26246495 14.9981509,4.15908427 15.2446741,4.00003707 L15.2605788,4.00003707 L15.2605788,5.50303311 L16.2387191,5.50303311 L16.2387191,1.57456728 L15.2605788,1.57456728 L15.2605788,3.34794355 C15.1015316,3.46722895 14.8470561,3.55470491 14.6005329,3.55470491 C14.0995342,3.55470491 13.9245823,3.28432467 13.9245823,2.83104015 L13.9245823,1.57456728 L12.946442,1.57456728 Z" id="Path"></path>
                        <path d="M20.2864703,3.12527747 C20.2864703,2.27437495 19.9286141,1.48709132 18.688046,1.48709132 C18.0757142,1.48709132 17.5747156,1.65409088 17.2884306,1.8290428 L17.4792872,2.46523159 C17.7417151,2.29823203 18.1393331,2.17894663 18.5210464,2.17894663 C19.2049494,2.17894663 19.30833,2.60042171 19.30833,2.85489723 L19.30833,2.91851611 C17.8769052,2.91056375 17.010098,3.41156243 17.010098,4.38175035 C17.010098,4.97022499 17.4474778,5.53484255 18.2268091,5.53484255 C18.7357601,5.53484255 19.1413305,5.32012883 19.3719489,5.01793915 L19.395806,5.01793915 L19.4673772,5.44736659 L20.3500892,5.44736659 C20.302375,5.20879579 20.2864703,4.86684431 20.2864703,4.51694047 L20.2864703,3.12527747 Z M19.3321871,4.08751303 C19.3321871,4.15908427 19.3321871,4.23065551 19.30833,4.30222675 C19.2129017,4.58055935 18.9345691,4.83503487 18.5369511,4.83503487 C18.2268091,4.83503487 17.9802859,4.66008295 17.9802859,4.27836967 C17.9802859,3.68989503 18.6403318,3.54675255 19.3321871,3.55470491 L19.3321871,4.08751303 Z" id="Shape"></path>
                        <polygon id="Path" points="20.8908497 1.57456728 20.8908497 2.33004147 22.0518942 2.33004147 22.0518942 5.44736659 23.0300345 5.44736659 23.0300345 2.33004147 24.1910791 2.33004147 24.1910791 1.57456728"></polygon>
                        <path d="M24.7954584,1.57456728 L24.7954584,5.42350951 C25.1453623,5.46327131 25.558885,5.48712839 25.9724077,5.48712839 C26.55293,5.48712839 27.2845471,5.39965243 27.745784,5.04974859 C28.0320689,4.83503487 28.2229256,4.52489283 28.2229256,4.07956067 C28.2229256,3.04575387 27.2845471,2.75151655 26.3938828,2.75151655 C26.1871214,2.75151655 25.9405983,2.76742127 25.7735987,2.79923071 L25.7735987,1.57456728 L24.7954584,1.57456728 Z M25.7656463,3.46722895 C25.9008365,3.44337187 26.0360266,3.42746715 26.2109785,3.42746715 C26.6404059,3.42746715 27.2447853,3.55470491 27.2447853,4.11932247 C27.2447853,4.66008295 26.6801677,4.81117779 26.2189309,4.81117779 C26.0201219,4.81117779 25.8928841,4.80322543 25.7656463,4.78732071 L25.7656463,3.46722895 Z" id="Shape"></path>
                        <polygon id="Path" points="30.6483954 1.57456728 30.6483954 5.44736659 31.6265356 5.44736659 31.6265356 2.33004147 33.0818175 2.33004147 33.0818175 5.44736659 34.0679102 5.44736659 34.0679102 1.57456728"></polygon>
                        <path d="M35.1096693,7.02193386 L36.0878096,7.02193386 L36.0878096,5.01793915 L36.1037143,5.01793915 C36.3025233,5.32808119 36.7080937,5.53484255 37.1931876,5.53484255 C38.0758996,5.53484255 38.9586115,4.85889195 38.9586115,3.45927659 C38.9586115,2.25051787 38.2190421,1.48709132 37.3283777,1.48709132 C36.7399031,1.48709132 36.2866186,1.73361448 36.0003336,2.17099427 L35.9844289,2.17099427 L35.9367147,1.57456728 L35.0778599,1.57456728 C35.0937646,1.94037584 35.1096693,2.35389855 35.1096693,2.86284959 L35.1096693,7.02193386 Z M36.0878096,3.22865815 C36.0878096,3.14913455 36.1037143,3.06165859 36.119619,2.98213499 C36.2229997,2.55270755 36.5967606,2.25847023 37.002331,2.25847023 C37.6305674,2.25847023 37.9645665,2.81513543 37.9645665,3.49903839 C37.9645665,4.26246495 37.598758,4.77936835 36.9784739,4.77936835 C36.5569988,4.77936835 36.2150473,4.49308339 36.1116667,4.09546539 C36.0957619,4.00798943 36.0878096,3.92051347 36.0878096,3.82508515 L36.0878096,3.22865815 Z" id="Shape"></path>
                        <path d="M39.7538475,1.57456728 L39.7538475,5.44736659 L40.9228445,5.44736659 C41.2568436,4.81117779 41.6146998,4.11137011 41.9089371,3.53880019 C42.0997937,3.16503927 42.2270315,2.88670667 42.4178881,2.42546979 L42.4496976,2.42546979 C42.4099358,3.15708691 42.3860787,3.44337187 42.3860787,4.06365595 L42.3860787,5.44736659 L43.3165048,5.44736659 L43.3165048,1.57456728 L42.1316032,1.57456728 L41.1852723,3.38770535 C40.978511,3.79327571 40.8671779,4.07956067 40.6604166,4.53284519 L40.6286071,4.53284519 C40.6604166,3.99208471 40.6842737,3.57856199 40.6842737,2.96623027 L40.6842737,1.57456728 L39.7538475,1.57456728 Z" id="Path"></path>
                        <path d="M44.5729777,1.57456728 L44.5729777,3.13322983 C44.5729777,3.88075167 44.5411682,4.32608383 44.2548833,4.57260699 C44.159455,4.66008295 44.0083601,4.73165419 43.8413606,4.75551127 L43.9447412,5.51893783 C44.4059781,5.51893783 44.6922631,5.41555715 44.9149292,5.20084343 C45.376166,4.85889195 45.4874991,4.17498899 45.4874991,3.16503927 L45.4874991,2.33004147 L46.545163,2.33004147 L46.545163,5.44736659 L47.5233032,5.44736659 L47.5233032,1.57456728 L44.5729777,1.57456728 Z" id="Path"></path>
                        <path d="M50.3145816,1.48709132 C49.1455847,1.48709132 48.3105869,2.26642259 48.3105869,3.53880019 C48.3105869,4.78732071 49.1614894,5.53484255 50.2509627,5.53484255 C51.2370554,5.53484255 52.2390527,4.89865375 52.2390527,3.47518131 C52.2390527,2.29823203 51.4676738,1.48709132 50.3145816,1.48709132 Z M50.2907245,2.19485135 C50.9587228,2.19485135 51.229103,2.89465903 51.229103,3.49903839 C51.229103,4.28632203 50.8394374,4.82708251 50.2827722,4.82708251 C49.6942975,4.82708251 49.3205366,4.26246495 49.3205366,3.51494311 C49.3205366,2.87080195 49.5988692,2.19485135 50.2907245,2.19485135 Z" id="Shape"></path>
                        <path d="M52.5730518,1.57456728 L54.0044766,3.28432467 C53.5034779,3.35589591 53.1853835,3.74556155 52.9865745,4.29427439 C52.8354797,4.69189239 52.7082419,5.10541511 52.53329,5.44736659 L53.4955256,5.44736659 C53.614811,5.23265287 53.7102393,4.93841555 53.8454294,4.56465463 C54.0442384,4.04775123 54.3066663,3.83303751 54.7519985,3.83303751 L54.8553791,3.83303751 L54.8553791,5.44736659 L55.7937576,5.44736659 L55.7937576,3.83303751 L55.8971383,3.83303751 C56.3027087,3.83303751 56.596946,4.03979887 56.7878026,4.56465463 C56.907088,4.92251083 57.0104687,5.24060523 57.1297541,5.44736659 L58.1158467,5.44736659 C57.9408948,5.11336747 57.8136571,4.69189239 57.6625622,4.29427439 C57.4717056,3.74556155 57.1456588,3.35589591 56.6446601,3.28432467 L58.0760849,1.57456728 L56.9786593,1.57456728 L55.9209954,3.18889635 L55.7937576,3.18889635 L55.7937576,1.57456728 L54.8553791,1.57456728 L54.8553791,3.18889635 L54.7281414,3.18889635 L53.6625251,1.57456728 L52.5730518,1.57456728 Z" id="Path"></path>
                        <path d="M61.9409319,3.78532335 C61.9568366,3.69784739 61.9727413,3.55470491 61.9727413,3.37180063 C61.9727413,2.52089811 61.5592186,1.48709132 60.3027457,1.48709132 C59.0621776,1.48709132 58.4100841,2.49704103 58.4100841,3.57060963 C58.4100841,4.75551127 59.1496535,5.52689019 60.4061264,5.52689019 C60.9627916,5.52689019 61.4240285,5.42350951 61.7580276,5.28036703 L61.6148851,4.61236879 C61.3126954,4.71574947 60.994601,4.78732071 60.5413165,4.78732071 C59.9130801,4.78732071 59.3723196,4.48513103 59.3484625,3.78532335 L61.9409319,3.78532335 Z M59.3484625,3.10142039 C59.3882243,2.70380239 59.6426998,2.15508955 60.2470792,2.15508955 C60.8991727,2.15508955 61.0582199,2.74356419 61.0502676,3.10142039 L59.3484625,3.10142039 Z" id="Shape"></path>
                        <polygon id="Path" points="62.7520726 1.57456728 62.7520726 5.44736659 63.7302129 5.44736659 63.7302129 3.81713279 65.2252566 3.81713279 65.2252566 5.44736659 66.2033968 5.44736659 66.2033968 1.57456728 65.2252566 1.57456728 65.2252566 3.05370623 63.7302129 3.05370623 63.7302129 1.57456728"></polygon>
                        <path d="M67.2372036,1.57456728 L67.2372036,5.44736659 L68.4062005,5.44736659 C68.7401997,4.81117779 69.0980559,4.11137011 69.3922932,3.53880019 C69.5831498,3.16503927 69.7103876,2.88670667 69.9012442,2.42546979 L69.9330537,2.42546979 C69.8932919,3.15708691 69.8694348,3.44337187 69.8694348,4.06365595 L69.8694348,5.44736659 L70.7998609,5.44736659 L70.7998609,1.57456728 L69.6149593,1.57456728 L68.6686284,3.38770535 C68.4618671,3.79327571 68.350534,4.07956067 68.1437727,4.53284519 L68.1119632,4.53284519 C68.1437727,3.99208471 68.1676297,3.57856199 68.1676297,2.96623027 L68.1676297,1.57456728 L67.2372036,1.57456728 Z" id="Path"></path>
                        <path d="M75.1259447,3.78532335 C75.1418495,3.69784739 75.1577542,3.55470491 75.1577542,3.37180063 C75.1577542,2.52089811 74.7442315,1.48709132 73.4877586,1.48709132 C72.2471904,1.48709132 71.5950969,2.49704103 71.5950969,3.57060963 C71.5950969,4.75551127 72.3346664,5.52689019 73.5911393,5.52689019 C74.1478045,5.52689019 74.6090413,5.42350951 74.9430405,5.28036703 L74.799898,4.61236879 C74.4977083,4.71574947 74.1796139,4.78732071 73.7263294,4.78732071 C73.0980929,4.78732071 72.5573325,4.48513103 72.5334754,3.78532335 L75.1259447,3.78532335 Z M72.5334754,3.10142039 C72.5732372,2.70380239 72.8277127,2.15508955 73.4320921,2.15508955 C74.0841856,2.15508955 74.2432328,2.74356419 74.2352804,3.10142039 L72.5334754,3.10142039 Z" id="Shape"></path>
                        <path d="M77.583224,5.44736659 C77.8138424,5.45531895 78.3307458,5.49508075 78.8237921,5.49508075 C79.595171,5.49508075 80.9947864,5.38374771 80.9947864,4.32608383 C80.9947864,3.78532335 80.6051208,3.46722895 80.0245985,3.37975299 L80.0245985,3.36384827 C80.4381212,3.27637231 80.8198345,2.99803971 80.8198345,2.50499339 C80.8198345,1.61432908 79.6508376,1.52685312 78.998744,1.52685312 C78.4659359,1.52685312 77.8695089,1.57456728 77.583224,1.62228144 L77.583224,5.44736659 Z M78.5454595,2.18689899 C78.688602,2.17099427 78.8158398,2.15508955 79.0146488,2.15508955 C79.5872187,2.15508955 79.8575989,2.32208911 79.8575989,2.63223115 C79.8575989,3.00599207 79.4440762,3.14118219 78.9510299,3.14118219 L78.5454595,3.14118219 L78.5454595,2.18689899 Z M78.5375072,3.72965683 L78.9510299,3.72965683 C79.5633616,3.72965683 79.992789,3.87279931 79.992789,4.30222675 C79.992789,4.76346363 79.4520286,4.87479667 79.0066964,4.87479667 C78.8158398,4.87479667 78.6965544,4.87479667 78.5375072,4.85889195 L78.5375072,3.72965683 Z" id="Shape"></path>
                    </g>
                </g>
            </g>
        </g>
    </g>
</svg>