<?xml version="1.0" encoding="UTF-8"?>
<svg width="40px" height="40px" viewBox="0 0 40 40" version="1.1" xmlns="http://www.w3.org/2000/svg" xmlns:xlink="http://www.w3.org/1999/xlink">
    <title>Group 24 Copy</title>
    <g id="Логистика-2" stroke="none" stroke-width="1" fill="none" fill-rule="evenodd">
        <g id="Desktop-HD-Copy-9" transform="translate(-197.000000, -3164.000000)">
            <g id="Нижняя-часть-шапки" transform="translate(0.000000, 2936.000000)">
                <g id="Group-24-Copy" transform="translate(197.000000, 228.000000)">
                    <rect id="Rectangle-Copy" stroke="#EEEFF1" fill="#FBFCFD" x="0.5" y="0.5" width="39" height="39" rx="5"></rect>
                    <polygon id="Path-39" fill="#0277FF" points="17.099574 20.7878099 17.3487431 20.2473567 17.3567756 15.2265887 17.1002166 14.5710009 16.7664381 14.0242709 16.2994802 13.4191889 16.1764753 12.9470843 16.2858249 12.6125485 16.6537149 12.4642857 21.3079783 12.4827096 21.5379765 12.5739572 21.6733514 12.8334607 21.6685855 13.1201641 21.6928437 19.2355546 21.7520703 19.5002307 21.9588276 19.6915601 22.2727926 19.7394506 22.558001 19.5833416 23.1915536 18.9267658 23.7935651 18.093158 24.5578338 16.9235033 25.2444011 15.7479786 25.8027157 14.6106384 26.1933645 13.7106581 26.4533508 12.9745167 26.6638031 12.6739227 26.9970461 12.5116531 27.5240338 12.5347847 30.373655 12.5026446 30.6678599 12.5270548 30.7829928 12.6861278 30.8704403 13.0208379 30.8918604 13.5678004 30.7232308 14.0858775 30.3143749 14.9831843 29.6793764 16.1269176 28.9211054 17.494411 28.0497363 18.8605096 27.3590992 19.8660929 27.1647119 20.2278867 27.0974528 20.5856122 27.2631907 20.9591461 27.5378498 21.2235898 28.4540404 22.2366124 29.2042254 23.0398237 29.7840671 23.7368507 30.6116322 24.8655893 31.0484948 25.5749376 31.2532173 26.0376268 31.4296117 26.6121961 31.4444451 26.9157542 31.241222 27.2311105 30.9668843 27.4287749 30.2733019 27.5357147 27.9720349 27.5330993 27.4765348 27.5184532 27.1895056 27.3474076 26.7829524 26.9590532 25.6241793 25.6679288 24.6532067 24.5727833 23.8197512 23.7976437 23.0775987 23.2440556 22.6419142 23.0301759 22.2458568 22.9900153 21.9050632 23.0835877 21.7067668 23.2898537 21.6926295 23.6045708 21.6926295 24.3528592 21.6967529 26.8041066 21.4871573 27.1511962 21.2550172 27.2655753 20.6856713 27.4741081 20.0890148 27.4699816 19.0853766 27.4757354 17.730931 27.2068165 16.6269398 26.7310504 15.5222524 26.0745908 14.2925788 25.1044604 13.4277963 24.2221484 12.7040116 23.3221682 11.9795843 22.2460278 11.2874477 21.2432923 10.3661163 19.6344286 9.38132782 17.59118 8.55269178 15.4391316 8.1617752 14.1299902 8 13.1425982 8.06950818 12.7365755 8.44264608 12.4701558 11.8722161 12.4802105 12.2466392 12.6340527 12.4697294 12.9506877 12.7357669 13.5977319 13.3498272 15.3024927 14.0806805 17.0202141 14.578055 18.1338416 15.3801301 19.4766924 16.0062392 20.3142523 16.553576 20.789321 16.8112061 20.941594 17.0174815 20.897307"></polygon>
                </g>
            </g>
        </g>
    </g>
</svg>