<svg xmlns="http://www.w3.org/2000/svg" width="15" height="15" viewBox="0 0 15 15" fill="none">
    <path fill-rule="evenodd" clip-rule="evenodd"
        d="M1.226 12.1314C0.835474 12.5219 0.835475 13.1551 1.226 13.5456L1.4544 13.774C1.84492 14.1645 2.47809 14.1645 2.86861 13.774L7.5 9.14262L12.1314 13.774C12.5219 14.1645 13.1551 14.1645 13.5456 13.774L13.774 13.5456C14.1645 13.1551 14.1645 12.5219 13.774 12.1314L9.14262 7.5L13.774 2.86861C14.1645 2.47809 14.1645 1.84492 13.774 1.4544L13.5456 1.226C13.1551 0.835474 12.5219 0.835475 12.1314 1.226L7.5 5.85739L2.86861 1.226C2.47809 0.835474 1.84492 0.835475 1.4544 1.226L1.226 1.4544C0.835474 1.84492 0.835475 2.47809 1.226 2.86861L5.85739 7.5L1.226 12.1314Z"
        fill="black" />
</svg>