<svg xmlns="http://www.w3.org/2000/svg" width="40" height="40" viewBox="0 0 40 40" fill="none"><script xmlns=""/>
<g clip-path="url(#clip0)">
<path d="M35.6524 3.47705H25.2173C24.7373 3.47705 24.3477 3.86666 24.3477 4.34667C24.3477 4.82669 24.7373 5.2163 25.2173 5.2163H35.6524C36.1324 5.2163 36.522 4.82669 36.522 4.34667C36.522 3.86666 36.1324 3.47705 35.6524 3.47705Z" fill="#222f3e"/>
<path d="M36.2688 3.73275L32.7904 0.254356C32.4512 -0.0847853 31.8999 -0.0847853 31.5608 0.254356C31.2216 0.593497 31.2216 1.14485 31.5608 1.48399L34.4235 4.34671L31.559 7.21115C31.2199 7.55029 31.2199 8.10164 31.559 8.44079C31.7295 8.60946 31.9521 8.69473 32.1747 8.69473C32.3974 8.69473 32.6199 8.60954 32.7904 8.44079L36.2688 4.96239C36.6079 4.62316 36.6079 4.0719 36.2688 3.73275Z" fill="#222f3e"/>
<path d="M13.043 3.47705H2.6079C2.12789 3.47705 1.73828 3.86666 1.73828 4.34667C1.73828 4.82669 2.12789 5.2163 2.6079 5.2163H13.043C13.523 5.2163 13.9126 4.82669 13.9126 4.34667C13.9126 3.86666 13.523 3.47705 13.043 3.47705Z" fill="#222f3e"/>
<path d="M3.83786 4.34671L6.70059 1.48399C7.03973 1.14485 7.03973 0.593497 6.70059 0.254356C6.36145 -0.0847853 5.8101 -0.0847853 5.47095 0.254356L1.99264 3.73284C1.6535 4.07198 1.6535 4.62333 1.99264 4.96247L5.47104 8.44087C5.6415 8.60954 5.86407 8.69482 6.08671 8.69482C6.30935 8.69482 6.53191 8.60962 6.70067 8.43916C7.03981 8.10001 7.03981 7.54866 6.70067 7.20952L3.83786 4.34671Z" fill="#222f3e"/>
<path d="M34.7832 17.3906C34.0684 17.3906 33.4022 17.608 32.8492 17.9785C32.3727 16.6254 31.0804 15.6514 29.5656 15.6514C28.8508 15.6514 28.1847 15.8689 27.6316 16.2393C27.1551 14.8862 25.8629 13.9123 24.3481 13.9123C23.715 13.9123 23.1202 14.0827 22.6089 14.3801V8.69471C22.6089 6.77636 21.0489 5.21631 19.1305 5.21631C17.2122 5.21631 15.6521 6.77636 15.6521 8.69471V23.4778L12.6294 21.2116C10.8381 19.8672 8.28842 20.0464 6.70057 21.6325C5.68314 22.65 5.68314 24.3039 6.70057 25.3214L19.0853 37.7078C20.5636 39.1861 22.5306 40.0001 24.6212 40.0001H28.6961C33.9693 40.0001 38.2616 35.7095 38.2616 30.4346V20.869C38.2616 18.9506 36.7015 17.3906 34.7832 17.3906ZM36.5224 30.4345C36.5224 34.7494 33.011 38.2608 28.6961 38.2608H24.6212C22.9933 38.2608 21.4645 37.6278 20.315 36.4781L7.9302 24.0917C7.59106 23.7526 7.59106 23.2012 7.9302 22.8621C8.46932 22.3247 9.18934 22.0482 9.91287 22.0482C10.5007 22.0482 11.092 22.2308 11.5877 22.6029L16 25.9126C16.2644 26.1108 16.6192 26.1404 16.9114 25.9943C17.2053 25.8465 17.3914 25.5456 17.3914 25.2169V8.69471C17.3914 7.73639 18.1706 6.95555 19.1306 6.95555C20.0906 6.95555 20.8697 7.73647 20.8697 8.69471V21.7386C20.8697 22.2186 21.2593 22.6082 21.7394 22.6082C22.2194 22.6082 22.609 22.2186 22.609 21.7386V17.3907C22.609 16.4323 23.3881 15.6515 24.3481 15.6515C25.3082 15.6515 26.0873 16.4324 26.0873 17.3907V21.7386C26.0873 22.2186 26.4769 22.6082 26.9569 22.6082C27.4369 22.6082 27.8265 22.2186 27.8265 21.7386V19.1298C27.8265 18.1715 28.6057 17.3907 29.5657 17.3907C30.5257 17.3907 31.3049 18.1716 31.3049 19.1298V21.7386C31.3049 22.2186 31.6945 22.6082 32.1745 22.6082C32.6545 22.6082 33.0441 22.2186 33.0441 21.7386V20.869C33.0441 19.9107 33.8232 19.1298 34.7833 19.1298C35.7433 19.1298 36.5224 19.9107 36.5224 20.869V30.4345V30.4345Z" fill="#222f3e"/>
</g>
<defs>
<clipPath id="clip0">
<rect width="40" height="40" fill="white"/>
</clipPath>
</defs>
<script xmlns=""/></svg>