<svg width="48" height="34" viewBox="0 0 48 34" xmlns="http://www.w3.org/2000/svg">
    <path d="M23.976 0h.06l.529.001c1.328.007 4.464.033 7.803.142l.718.024.72.027.72.03c3.352.147 6.563.389 8.027.788a6.014 6.014 0 0 1 4.235 4.234c1.58 6.361 1.215 16.407.03 23.013a6.014 6.014 0 0 1-4.234 4.235c-1.621.442-5.383.69-9.107.831l-.72.026c-3.83.13-7.47.151-8.524.154h-.61c-1.119-.003-5.158-.026-9.243-.18l-.72-.028c-3.481-.145-6.871-.39-8.388-.803a6.014 6.014 0 0 1-4.234-4.235c-1.59-6.333-1.154-16.385-.03-22.982a6.014 6.014 0 0 1 4.234-4.234C6.915.586 10.87.329 14.709.185l.718-.026C19.005.036 22.35.008 23.487 0L23.82 0h.043zm-4.834 9.573v14.36l12.396-7.18-12.396-7.18z" fill="#EEF3F8" fill-rule="nonzero"/>
</svg>
