<?xml version="1.0" encoding="UTF-8"?>
<svg width="216px" height="25px" viewBox="0 0 216 25" version="1.1" xmlns="http://www.w3.org/2000/svg" xmlns:xlink="http://www.w3.org/1999/xlink">
    <title>Group 9</title>
    <defs>
        <linearGradient x1="50%" y1="0%" x2="50%" y2="100%" id="linearGradient-1">
            <stop stop-color="#757575" offset="0%"></stop>
            <stop stop-color="#2A2A2A" offset="100%"></stop>
        </linearGradient>
    </defs>
    <g id="Вопос-ответ" stroke="none" stroke-width="1" fill="none" fill-rule="evenodd">
        <g id="Часто-задаваемые-вопросы-1" transform="translate(-595, -5180)">
            <g id="Group-11" transform="translate(225, 5035)">
                <g id="Group-9" transform="translate(370, 145)">
                    <polygon id="Path-39" fill="#0277FF" points="15.0940796 13.8067932 15.5073934 12.910307 15.5207175 4.58201899 15.0951455 3.49455109 14.5414845 2.587653 13.7669099 1.58396255 13.5628734 0.800850693 13.7442589 0.245933564 14.3545029 0 22.0748449 0.0305609329 22.4563585 0.181919497 22.6809141 0.612375539 22.6730084 1.08794993 22.7132472 11.2319623 22.8114903 11.6709985 23.1544528 11.9883695 23.6752476 12.0678086 24.1483422 11.8088602 25.1992588 10.7197534 26.1978561 9.33699165 27.4656003 7.39680624 28.604456 5.44688375 29.5305702 3.56030048 30.1785659 2.06744229 30.6098227 0.846354669 30.9589143 0.347739069 31.511687 0.0785714837 32.3858372 0.116941362 37.1126968 0.0636284408 37.6007144 0.104119267 37.7916932 0.367984482 37.9367483 0.923190831 37.9722793 1.83047455 37.6925619 2.68984413 37.0143649 4.17826761 35.96105 6.07545562 34.7032544 8.34380953 33.2578554 10.6098497 32.1122489 12.2778789 31.7898055 12.8780108 31.6782383 13.4713942 31.953159 14.0910002 32.4087546 14.5296509 33.9285021 16.2100201 35.1728847 17.5423611 36.1347075 18.698567 37.5074456 20.5708821 38.2320993 21.7475262 38.5716864 22.5150202 38.8642837 23.4680971 38.8888889 23.9716294 38.551789 24.4947323 38.0967264 24.8226116 36.9462343 25 33.1289669 24.9956617 32.3070473 24.9713672 31.8309326 24.6876422 31.1565552 24.0434524 29.2344197 21.901777 27.6238019 20.085185 26.2412927 18.7994084 25.0102342 17.8811344 24.2875347 17.5263576 23.6305675 17.4597406 23.0652701 17.6149554 22.7363423 17.9571029 22.7128919 18.4791453 22.7128919 19.7203819 22.7197316 23.7864321 22.3720613 24.3621731 21.9869947 24.5519015 21.0425821 24.8978089 20.0528675 24.890964 18.388065 24.9005083 16.1413543 24.4544343 14.3100892 23.6652488 12.4776694 22.5763348 10.4379265 20.9671137 9.00345335 19.5035632 7.80286263 18.010705 6.60120597 16.225638 5.45311222 14.5623327 3.92483733 11.8936017 2.291302 8.50432673 0.916787282 4.93457839 0.268347484 2.76301684 0 1.12516293 0.115297926 0.451665523 0.734247037 0.00973707957 6.4231071 0.0264154436 7.04418806 0.281604054 7.41424288 0.80682791 7.85553726 1.88012402 8.8741207 4.70792618 10.0864366 7.55722703 10.9114653 9.40447636 12.2419216 11.6319538 13.2804912 13.0212712 14.1883957 13.8092998 14.6157442 14.0618854 14.9579072 13.9884235"></polygon>
                    <g id="ВКонтакте" transform="translate(56.485, 0.235)" fill="url(#linearGradient-1)" fill-rule="nonzero">
                        <path d="M0,23.695 C1.12,23.835 2.905,24.01 5.285,24.01 C9.625,24.01 12.39,23.275 14.07,21.84 C15.4,20.685 16.31,19.04 16.31,16.94 C16.31,13.72 14.035,11.76 11.55,11.13 L11.55,11.025 C14.105,10.08 15.47,8.12 15.47,5.95 C15.47,3.92 14.49,2.38 13.02,1.505 C11.445,0.42 9.45,0 6.3,0 C3.85,0 1.365,0.245 0,0.525 L0,23.695 Z M4.27,3.36 C4.725,3.255 5.46,3.185 6.72,3.185 C9.45,3.185 11.13,4.2 11.13,6.44 C11.13,8.435 9.485,9.835 6.475,9.835 L4.27,9.835 L4.27,3.36 Z M4.27,12.95 L6.405,12.95 C9.38,12.95 11.795,14.07 11.795,16.835 C11.795,19.74 9.31,20.755 6.545,20.755 C5.565,20.755 4.83,20.755 4.27,20.65 L4.27,12.95 Z M20.125,0.175 L20.125,23.765 L24.395,23.765 L24.395,13.475 L25.375,13.475 C28.77,13.475 30.03,15.54 30.975,18.41 C31.57,20.195 32.095,22.155 32.935,23.765 L37.555,23.765 C36.47,21.525 35.77,19.145 34.895,16.66 C33.81,13.685 32.375,11.445 28.945,10.815 L37.485,0.175 L32.305,0.175 L25.06,10.29 L24.395,10.29 L24.395,0.175 L20.125,0.175 Z M47.705,6.335 C42.56,6.335 38.885,9.765 38.885,15.365 C38.885,20.86 42.63,24.15 47.425,24.15 C51.765,24.15 56.175,21.35 56.175,15.085 C56.175,9.905 52.78,6.335 47.705,6.335 Z M47.6,9.45 C50.54,9.45 51.73,12.53 51.73,15.19 C51.73,18.655 50.015,21.035 47.565,21.035 C44.975,21.035 43.33,18.55 43.33,15.26 C43.33,12.425 44.555,9.45 47.6,9.45 Z M59.675,6.72 L59.675,23.765 L63.98,23.765 L63.98,16.59 L70.56,16.59 L70.56,23.765 L74.865,23.765 L74.865,6.72 L70.56,6.72 L70.56,13.23 L63.98,13.23 L63.98,6.72 L59.675,6.72 Z M77.42,6.72 L77.42,10.045 L82.53,10.045 L82.53,23.765 L86.835,23.765 L86.835,10.045 L91.945,10.045 L91.945,6.72 L77.42,6.72 Z M107.415,13.545 C107.415,9.8 105.84,6.335 100.38,6.335 C97.685,6.335 95.48,7.07 94.22,7.84 L95.06,10.64 C96.215,9.905 97.965,9.38 99.645,9.38 C102.655,9.38 103.11,11.235 103.11,12.355 L103.11,12.635 C96.81,12.6 92.995,14.805 92.995,19.075 C92.995,21.665 94.92,24.15 98.35,24.15 C100.59,24.15 102.375,23.205 103.39,21.875 L103.495,21.875 L103.81,23.765 L107.695,23.765 C107.485,22.715 107.415,21.21 107.415,19.67 L107.415,13.545 Z M103.215,17.78 C103.215,18.095 103.215,18.41 103.11,18.725 C102.69,19.95 101.465,21.07 99.715,21.07 C98.35,21.07 97.265,20.3 97.265,18.62 C97.265,16.03 100.17,15.4 103.215,15.435 L103.215,17.78 Z M111.965,6.72 L111.965,23.765 L116.27,23.765 L116.27,16.66 L116.83,16.66 C119.035,16.66 120.33,17.78 121.275,20.125 C121.905,21.77 122.395,23.03 122.85,23.765 L127.33,23.765 C126.525,22.26 125.93,20.405 125.405,19.11 C124.25,16.38 122.815,14.56 120.47,14.21 L127.26,6.72 L122.15,6.72 L116.9,13.79 L116.27,13.79 L116.27,6.72 L111.965,6.72 Z M128.275,6.72 L128.275,10.045 L133.385,10.045 L133.385,23.765 L137.69,23.765 L137.69,10.045 L142.8,10.045 L142.8,6.72 L128.275,6.72 Z M159.355,16.45 C159.425,16.065 159.495,15.435 159.495,14.63 C159.495,10.885 157.675,6.335 152.145,6.335 C146.685,6.335 143.815,10.78 143.815,15.505 C143.815,20.72 147.07,24.115 152.6,24.115 C155.05,24.115 157.08,23.66 158.55,23.03 L157.92,20.09 C156.59,20.545 155.19,20.86 153.195,20.86 C150.43,20.86 148.05,19.53 147.945,16.45 L159.355,16.45 Z M147.945,13.44 C148.12,11.69 149.24,9.275 151.9,9.275 C154.77,9.275 155.47,11.865 155.435,13.44 L147.945,13.44 Z" id="Combined-Shape"></path>
                    </g>
                </g>
            </g>
        </g>
    </g>
</svg>