<?xml version="1.0" encoding="UTF-8"?>
<svg width="150px" height="61px" viewBox="0 0 150 61" version="1.1" xmlns="http://www.w3.org/2000/svg" xmlns:xlink="http://www.w3.org/1999/xlink">
    <title>Group 23</title>
    <g id="Логистика-2" stroke="none" stroke-width="1" fill="none" fill-rule="evenodd">
        <g id="Desktop-HD-Copy-9" transform="translate(-142.000000, -760.000000)">
            <g id="Group-29" transform="translate(142.000000, 601.000000)">
                <g id="Group-23" transform="translate(0.000000, 159.344329)">
                    <rect id="Rectangle" x="0" y="0" width="150" height="60"></rect>
                    <g id="Group-27" transform="translate(8.294841, 9.000000)" fill-rule="nonzero">
                        <g id="Group" fill="#ED2025" transform="translate(-0.000000, -0.000000)">
                            <path d="M27.7442358,12.9053006 L22.9657624,5.58272856 C22.8919678,5.47278517 22.8376377,5.27257697 22.8376377,5.14338279 L22.8376377,1.30006989 C22.8376377,0.661585419 22.3997893,0.139675162 21.8070789,-1.09023281e-15 L21.1688083,-1.09023281e-15 C20.575884,0.139675162 20.1376078,0.661585419 20.1376078,1.30006989 L20.1376078,5.14338279 C20.1376078,5.27257697 20.0830639,5.47278517 20.0105526,5.58272856 L15.2310097,12.9053006 C15.1582845,13.0148161 15.1582845,13.1983403 15.249191,13.2881774 L16.4711882,14.9918721 C16.5443412,15.1013877 16.6906472,15.1013877 16.7631585,14.9918721 L19.9919435,10.4895405 C20.0648825,10.3798111 20.1376078,10.396709 20.1376078,10.5436566 L20.1376078,16.218789 C20.1376078,16.3456303 20.0287339,16.4557876 19.9003953,16.4557876 L19.3175242,16.4557876 C19.1712182,16.4557876 19.0800978,16.5653032 19.0800978,16.6944974 L19.0800978,17.7006719 C19.0800978,17.8283688 19.1712182,17.93874 19.3175242,17.93874 L23.6585769,17.93874 C23.7864877,17.93874 23.8957894,17.8283688 23.8957894,17.7006719 L23.8957894,16.6944974 C23.8957894,16.5653032 23.7864877,16.4557876 23.6585769,16.4557876 L23.0746363,16.4557876 C22.9471533,16.4557876 22.8376377,16.3456303 22.8376377,16.218789 L22.8376377,10.5436566 C22.8376377,10.4163876 22.9101491,10.396709 22.9839437,10.4895405 L26.2118731,14.9918721 C26.2850261,15.1013877 26.4140064,15.1013877 26.5038434,14.9918721 L27.7273379,13.2881774 C27.8000631,13.1983403 27.8171749,13.0148161 27.7442358,12.9053006" id="Fill-1"></path>
                            <path d="M14.2828014,13.6004679 L5.87320156,15.8896005 C5.74593246,15.9259631 5.52668738,15.9259631 5.39877658,15.8896005 L1.76871963,14.6988323 C1.05772386,14.4620477 0.291756389,14.8447105 0.0545438997,15.5599843 C0.027165001,15.6489657 0.00919759878,15.7390166 -9.33017717e-24,15.8284258 L-9.33017717e-24,16.1075622 C0.0526188209,16.6309698 0.400416393,17.1024002 0.930240864,17.2795074 L4.56008391,18.4510249 C4.68778081,18.5062104 4.87044939,18.6159399 4.9429607,18.7258833 L10.415532,25.5528545 C10.4880433,25.6444027 10.6709258,25.6989466 10.7802274,25.6444027 L12.7686199,25.0035653 C12.896103,24.9672027 12.9324656,24.839078 12.8597404,24.7295624 L9.5943789,20.2449844 C9.52165368,20.135041 9.55801632,20.0798554 9.68592711,20.135041 L15.0667362,21.8740288 C15.1946471,21.9292145 15.249191,22.0569114 15.2128284,22.185036 L15.0301598,22.7341113 C14.9937972,22.862236 15.0667362,23.0089697 15.1946471,23.0453324 L16.1432831,23.3563395 C16.2705522,23.39313 16.3986769,23.319977 16.4530069,23.1916383 L17.7851614,19.0550718 C17.8397053,18.9273749 17.7663385,18.7804272 17.6388554,18.7440646 L16.6906472,18.4326296 C16.5623086,18.396267 16.4168582,18.4692061 16.3804956,18.5973308 L16.197827,19.14662 C16.1614644,19.2747447 16.0158002,19.3481116 15.9058567,19.292926 L10.5244059,17.5543659 C10.3969229,17.499822 10.3969229,17.4446364 10.5244059,17.3892369 L15.7783737,15.7062902 C15.9058567,15.6699276 15.9422193,15.5407335 15.8694942,15.4310039 L14.647283,13.7472017 C14.5743439,13.6177936 14.4100705,13.5643192 14.2828014,13.6004679" id="Fill-2"></path>
                            <path d="M10.7802274,26.6689724 L10.3425929,35.4007021 C10.3425929,35.528399 10.269226,35.7298905 10.1965008,35.8396201 L7.93453319,38.951403 C7.49732638,39.5548083 7.64299071,40.3971372 8.24468477,40.836483 C8.84680662,41.2756148 9.68592711,41.1474902 10.1235617,40.5436571 L12.3857432,37.4323019 C12.4584684,37.3223585 12.6229557,37.193806 12.7504387,37.1574434 L20.9042169,34.0456605 C21.0316999,33.9911166 21.1232481,33.8441689 21.1050668,33.716472 L21.1232481,31.6299005 C21.1050668,31.4835945 20.9951235,31.4102276 20.8678543,31.4465902 L15.6327095,33.1855781 C15.5047987,33.2221546 15.468436,33.1673968 15.5411613,33.0574534 L18.8610666,28.4817549 C18.9524009,28.3713837 19.0982791,28.3350212 19.2075808,28.4265693 L19.6640384,28.7557578 C19.7729123,28.8477338 19.9373996,28.8113712 20.0105526,28.7014278 L20.5940653,27.8958893 C20.6667906,27.7861598 20.6486092,27.6398538 20.5393076,27.5664869 L17.0185523,25.0035653 C16.9090367,24.912231 16.7631585,24.9490214 16.6906472,25.0403557 L16.1067066,25.8640756 C16.0158002,25.973805 16.0521627,26.1207527 16.1614644,26.193264 L16.6174942,26.5408477 C16.7270098,26.6144285 16.7631585,26.7793436 16.6724659,26.8704639 L13.3525605,31.4647715 C13.2796214,31.5747149 13.2062545,31.5565336 13.2062545,31.4284089 L13.2426172,25.8822568 C13.2244359,25.7541321 13.1333154,25.662584 13.0056186,25.6989466 L11.017226,26.3586069 C10.889743,26.3949695 10.7802274,26.5226664 10.7802274,26.6689724" id="Fill-3"></path>
                            <path d="M22.0718842,34.0456605 L30.224379,37.1574434 C30.3338947,37.193806 30.4992376,37.3223585 30.5890745,37.4323019 L32.8335025,40.5436571 C33.2717788,41.1474902 34.1297223,41.2756148 34.7303468,40.836483 C35.3335382,40.3971372 35.4601656,39.5548083 35.0225311,38.951403 L32.7800281,35.8396201 C32.7073029,35.7298905 32.6343638,35.528399 32.6151131,35.4007021 L32.1939485,26.6689724 C32.1939485,26.5226664 32.0846469,26.3949695 31.9586612,26.3586069 L29.9687714,25.6989466 C29.8425718,25.662584 29.7332701,25.7541321 29.7332701,25.8822568 L29.7696326,31.4284089 C29.7503819,31.5565336 29.6969075,31.5747149 29.6040759,31.4647715 L26.2850261,26.8886453 C26.2118731,26.7793436 26.2313378,26.6144285 26.3406395,26.5408477 L26.8150645,26.193264 C26.9243662,26.1207527 26.9416919,25.973805 26.8685389,25.8640756 L26.2850261,25.0587509 C26.1951891,24.9490214 26.0493109,24.912231 25.9393675,25.0035653 L22.4179706,27.5664869 C22.3090967,27.6398538 22.2909154,27.7861598 22.3636406,27.8958893 L22.9657624,28.7196091 C23.0384876,28.8113712 23.183938,28.8477338 23.2936675,28.7557578 L23.7676647,28.4265693 C23.8776081,28.3350212 24.0232724,28.3713837 24.0959976,28.4817549 L27.415903,33.0574534 C27.5080929,33.1673968 27.4524795,33.2221546 27.3256382,33.1855781 L22.0900655,31.4465902 C21.9625825,31.4102276 21.8526391,31.4835945 21.8526391,31.6299005 L21.8526391,33.716472 C21.8526391,33.8441689 21.9437595,33.9911166 22.0718842,34.0456605" id="Fill-4"></path>
                            <path d="M32.5616386,25.5528545 L38.0132479,18.7258833 C38.1054378,18.6341212 38.2690695,18.5062104 38.3974081,18.4692061 L42.0454324,17.2795074 C42.7581394,17.0416532 43.1399467,16.2724773 42.9211294,15.5599843 C42.6852003,14.8447105 41.918805,14.4620477 41.2067398,14.6988323 L37.5760412,15.8896005 C37.4491998,15.9259631 37.2305964,15.9259631 37.1014023,15.8896005 L28.6922302,13.6004679 C28.5660306,13.5643192 28.4009016,13.6177936 28.3275347,13.7472017 L27.0879979,15.4310039 C27.0142032,15.5407335 27.0706722,15.6699276 27.1968718,15.7062902 L32.4497702,17.3892369 C32.5783226,17.4446364 32.5783226,17.5180033 32.4497702,17.5543659 L27.0706722,19.3111072 C26.9416919,19.3481116 26.8150645,19.2747447 26.7592372,19.14662 L26.5960333,18.5973308 C26.540206,18.4692061 26.4140064,18.396267 26.2850261,18.4326296 L25.3363901,18.7440646 C25.2101905,18.7986085 25.1370375,18.9273749 25.1738278,19.0550718 L26.5233081,23.2104614 C26.5596707,23.3381582 26.7057628,23.39313 26.8321763,23.3563395 L27.7808124,23.0453324 C27.9093648,23.0089697 27.98209,22.862236 27.9262627,22.7522926 L27.7442358,22.185036 C27.7072316,22.0569114 27.7808124,21.9292145 27.9093648,21.8922102 L33.2910296,20.135041 C33.4174431,20.0980367 33.4538057,20.1534362 33.3808666,20.2631657 L30.1150774,24.7295624 C30.0423521,24.839078 30.0787148,24.9672027 30.1880165,25.0035653 L32.1768367,25.6444027 C32.3034642,25.6989466 32.4688071,25.6444027 32.5616386,25.5528545" id="Fill-5"></path>
                        </g>
                        <g id="aeroexpress-Clipped" transform="translate(41.780817, 20.360351)" fill="#9D9D9D">
                            <g id="Group" transform="translate(0.000000, -0.000000)">
                                <path d="M22.5878401,1.1060498 C21.8668061,0.148484761 20.7440921,0.0845641854 20.1929326,0.0845641854 L18.2611384,0.0845641854 C18.0295818,0.0845641854 17.5831326,0.105456514 17.1814528,0.360890098 C17.0113295,0.48897997 16.6494446,0.765305877 16.5646317,1.29781153 L15.015366,10.1297946 C14.9957173,10.1728228 14.9957173,10.2151049 14.9957173,10.2367434 C14.9957173,10.6202668 15.2926868,10.9179825 15.6744692,10.9179825 C16.0139696,10.9179825 16.2905442,10.68369 16.3527238,10.3640871 L16.6917267,8.44870831 L18.6006388,8.44870831 C19.8962118,8.44870831 20.9564975,8.19352344 21.7822419,7.17203781 C22.545558,6.25700356 22.7798505,5.19248971 22.9499738,4.19214514 C23.034538,3.78797808 23.1193509,3.31989044 23.1193509,2.83016432 C23.1193509,2.23398681 22.9920072,1.61641953 22.5878401,1.1060498 Z M21.5273057,4.19214514 L21.5273057,4.19214514 C21.3380312,5.19248971 21.1258746,5.91650835 20.7440921,6.38484475 C20.3200276,6.894717 19.6611731,7.12900957 19.0247033,7.12900957 L16.904132,7.12900957 L17.9024868,1.51096302 C17.9223843,1.44679373 17.9024868,1.46793477 17.9450176,1.42565268 C17.9646664,1.42565268 17.9872997,1.40451164 18.0069484,1.40451164 C18.0295818,1.38337059 18.0295818,1.38337059 18.0295818,1.38337059 L20.2352147,1.38337059 C20.551833,1.38337059 20.8485538,1.46793477 21.1032412,1.59527849 C21.3380312,1.74426069 21.5074083,1.95766089 21.6121186,2.27701505 C21.6345033,2.42574854 21.6767854,2.59587178 21.6767854,2.83016432 C21.6767854,3.1497672 21.6345033,3.59646507 21.5273057,4.19214514 L21.5273057,4.19214514 Z" id="Fill-6"></path>
                                <path d="M68.720837,1.1060498 C68.0229335,0.148484761 66.8775862,0.0845641854 66.3455778,0.0845641854 L64.3948809,0.0845641854 C64.1625784,0.0845641854 63.738514,0.105456514 63.3345957,0.360890098 C63.1652183,0.48897997 62.8028359,0.765305877 62.698623,1.29781153 L61.1483625,10.1297946 C61.1483625,10.1728228 61.1483625,10.2151049 61.1483625,10.2367434 C61.1483625,10.6202668 61.4455809,10.9179825 61.8273632,10.9179825 C62.1469662,10.9179825 62.4210537,10.68369 62.4862176,10.3640871 L62.8257183,8.44870831 L64.7567661,8.44870831 C66.0287109,8.44870831 67.0894938,8.19352344 67.9149896,7.17203781 C68.6785547,6.25700356 68.9332417,5.19248971 69.1026192,4.19214514 C69.1682809,3.78797808 69.2528447,3.31989044 69.2528447,2.83016432 C69.2528447,2.23398681 69.14515,1.61641953 68.720837,1.1060498 Z M67.6610483,4.19214514 L67.6610483,4.19214514 C67.4909252,5.19248971 67.2792661,5.91650835 66.8775862,6.38484475 C66.4532731,6.894717 65.7949159,7.12900957 65.1808306,7.12900957 L63.057275,7.12900957 L64.0553809,1.51096302 C64.078014,1.44679373 64.0354832,1.46793477 64.0976631,1.42565268 C64.0976631,1.42565268 64.1401939,1.40451164 64.1625784,1.40451164 C64.1625784,1.38337059 64.1625784,1.38337059 64.1824761,1.38337059 L66.3883572,1.38337059 C66.6850785,1.38337059 67.0046814,1.46793477 67.2362376,1.59527849 C67.4712767,1.74426069 67.6610483,1.95766089 67.7456128,2.27701505 C67.7881436,2.42574854 67.8105281,2.59587178 67.8105281,2.83016432 C67.8105281,3.1497672 67.7682459,3.59646507 67.6610483,4.19214514 L67.6610483,4.19214514 Z" id="Fill-7"></path>
                                <path d="M7.21058914,0.744413553 C6.8713375,0.318856723 6.29754466,0.0845641854 5.70335688,0.0845641854 L2.20563293,0.0845641854 C1.84399668,0.0845641854 1.54702716,0.382031142 1.54702716,0.744413553 C1.54702716,1.1060498 1.84399668,1.38337059 2.20563293,1.38337059 L5.53397979,1.38337059 C5.81130058,1.38337059 5.98067765,1.51096302 6.02295975,1.59527849 C6.08513933,1.65994522 6.12791881,1.9153788 6.12791881,2.10614566 C6.12791881,2.17031495 6.12791881,2.25512785 6.1080214,2.2981561 L5.95854178,3.19204929 L2.86200025,3.19204929 C2.41803827,3.19204929 1.73928632,3.25596986 1.18837552,3.66013693 C0.443961976,4.21328619 0.212405337,5.04350751 0.0855590587,5.68221583 C0.0621795484,5.89511861 -3.50918687e-15,6.21422402 -3.50918687e-15,6.55496798 C0.0198974557,7.02305563 0.0855590587,7.59734591 0.509623579,8.00250785 C0.995867646,8.44870831 1.61219133,8.42756726 2.0561533,8.44870831 L5.02485365,8.44870831 C5.27954108,8.42756726 5.74613641,8.46984936 6.12791881,8.15099265 C6.5092038,7.83163843 6.59476289,7.38518927 6.63704499,7.17203781 L7.46552526,2.53244864 C7.48790989,2.34043819 7.53019199,2.10614566 7.53019199,1.85071207 C7.53019199,1.48907582 7.46552526,1.08490876 7.21058914,0.744413553 Z M5.27954108,7.04419668 L5.27954108,7.04419668 C5.27954108,7.08697616 5.27954108,7.08697616 5.27954108,7.08697616 C5.25939491,7.10811721 5.25939491,7.10811721 5.25939491,7.10811721 C5.23725899,7.12900957 5.17483072,7.15015063 5.09001782,7.12900957 L1.97109168,7.12900957 C1.73928632,7.12900957 1.58930925,7.04419668 1.5271297,6.93774529 C1.48484761,6.85268365 1.44256552,6.68256042 1.44256552,6.46965765 C1.44256552,6.27839337 1.46221425,6.04410079 1.50474507,5.83094932 C1.58930925,5.2989411 1.73928632,4.93730485 1.88603006,4.78857137 C1.99397375,4.68187126 2.22577911,4.49060697 2.56527944,4.49060697 L5.72623896,4.49060697 L5.27954108,7.04419668 L5.27954108,7.04419668 Z" id="Fill-8"></path>
                                <path d="M76.3788701,0.574041591 C75.7225026,0.148484761 74.8743736,0.0845641854 74.3224676,0.0845641854 C73.5166209,0.0845641854 72.4762328,0.19126429 71.6054701,0.829475174 C70.3556613,1.74426069 70.0785891,3.1497672 69.889066,4.2354221 C69.7816199,4.83085346 69.6771584,5.383754 69.6771584,5.89511861 C69.6771584,6.4059858 69.7617222,6.894717 70.0363075,7.34191235 C70.5673204,8.25719528 71.4783755,8.44870831 72.1367322,8.44870831 L75.6575872,8.44870831 C76.019721,8.44870831 76.3159439,8.15099265 76.3159439,7.78935639 C76.3159439,7.42747137 76.019721,7.12900957 75.6575872,7.12900957 L72.2842222,7.12900957 C71.8601577,7.12900957 71.6054701,7.00166583 71.4161956,6.81040155 C71.2460724,6.61839114 71.1388749,6.34181646 71.1192264,6.06524184 C71.0965926,6.02295974 71.0965926,5.9376494 71.0965926,5.87397756 C71.0965926,5.57551573 71.1615086,5.17159738 71.2037902,4.83085346 L75.6575872,4.83085346 C75.8918794,4.83085346 76.3358416,4.80971241 76.6984725,4.53313778 C77.1645706,4.17100409 77.2690321,3.57532402 77.3118121,3.34103148 C77.3540937,3.0855979 77.3762297,2.85130536 77.3762297,2.63890003 C77.3762297,1.36148339 76.6554445,0.744413553 76.3788701,0.574041591 Z M75.8918794,3.27735963 L75.8918794,3.27735963 C75.8694949,3.34103148 75.8495978,3.42634182 75.8269641,3.48951624 C75.7846819,3.55368554 75.8073156,3.53279321 75.7846819,3.53279321 L71.4589756,3.53279321 C71.5855731,2.9788978 71.7126677,2.57473073 72.0096375,2.21284576 C72.6237228,1.40451164 73.2820795,1.40451164 74.0687755,1.38337059 C74.4077784,1.38337059 74.7465321,1.40451164 75.0211174,1.46793477 C75.2984381,1.5529964 75.5100972,1.65994522 75.6802204,1.9153788 C75.8073156,2.10614566 75.934908,2.38272029 75.934908,2.80902327 C75.934908,2.95775675 75.9117771,3.10673895 75.8918794,3.27735963 L75.8918794,3.27735963 Z" id="Fill-9"></path>
                                <path d="M14.7183965,1.06351899 C14.1242087,0.255433584 13.2561822,0.0845641854 12.450584,0.0845641854 C12.450584,0.0845641854 9.50128372,0.0845641854 9.48113749,0.0845641854 C9.14238335,0.0845641854 8.84541382,0.382031142 8.84541382,0.744413553 C8.84541382,1.1060498 9.11950129,1.38337059 9.48113749,1.38337059 L12.3232403,1.38337059 C12.5550456,1.38337059 12.8522639,1.40451164 13.0868051,1.51096302 C13.3407464,1.59527849 13.5307671,1.74426069 13.6578621,2.08500461 C13.7424263,2.27701505 13.7854546,2.59587178 13.7854546,2.9366157 C13.7854546,3.0855979 13.7655571,3.25596986 13.7655571,3.40520078 L9.0150396,3.40520078 C8.65265721,3.40520078 8.35593643,3.70291646 8.35593643,4.06455271 C8.35593643,4.40529663 8.65265721,4.70276359 9.0150396,4.70276359 L13.5108697,4.70276359 C13.4036721,5.21363076 13.1912668,5.85209036 13.0218897,6.15055218 C12.577679,6.98002733 11.7914808,7.12900957 11.1781417,7.12900957 L8.14427723,7.12900957 C7.78463073,7.12900957 7.48790989,7.42747137 7.48790989,7.78935639 C7.48790989,8.15099265 7.78463073,8.44870831 8.14427723,8.44870831 L10.7117951,8.44870831 C11.5375395,8.44870831 12.7251689,8.38478772 13.7003929,7.38518927 C14.4868399,6.57610903 14.8452428,5.46906434 15.0802815,4.14936561 C15.1650944,3.59646507 15.2073765,3.1497672 15.2073765,2.76649246 C15.2073765,1.99969427 15.015366,1.46793477 14.7183965,1.06351899" id="Fill-10"></path>
                                <path d="M36.9072926,0.0845641854 L33.9577436,0.0845641854 C33.5961074,0.0845641854 33.2991378,0.382031142 33.2991378,0.744413553 C33.2991378,1.1060498 33.5961074,1.38337059 33.9356077,1.38337059 L36.7797002,1.38337059 C37.0115055,1.38337059 37.3089725,1.40451164 37.543265,1.51096302 C37.7979525,1.59527849 37.9867296,1.74426069 38.1148195,2.08500461 C38.1996324,2.27701505 38.2419145,2.59587178 38.2419145,2.9366157 C38.2419145,3.0855979 38.2419145,3.25596986 38.2217683,3.40520078 L33.4685149,3.40520078 C33.1098632,3.40520078 32.8128938,3.70291646 32.8128938,4.06455271 C32.8128938,4.40529663 33.1098632,4.70276359 33.4685149,4.70276359 L37.9867296,4.70276359 C37.8601321,5.21363076 37.6477267,5.85209036 37.5009829,6.15055218 C37.0343876,6.98002733 36.2484381,7.12900957 35.634353,7.12900957 C35.634353,7.12900957 32.6201372,7.12900957 32.6004884,7.12900957 C32.2383547,7.12900957 31.964516,7.42747137 31.964516,7.78935639 C31.964516,8.15099265 32.2383547,8.44870831 32.6004884,8.44870831 L35.1680063,8.44870831 C35.993502,8.44870831 37.1811314,8.38478772 38.1568528,7.38518927 C38.9430511,6.57610903 39.3022001,5.46906434 39.5372388,4.14936561 C39.621803,3.59646507 39.6640851,3.1497672 39.6640851,2.76649246 C39.6640851,1.99969427 39.4939618,1.46793477 39.174359,1.06351899 C38.5809174,0.255433584 37.7128909,0.0845641854 36.9072926,0.0845641854 Z" id="Fill-11"></path>
                                <path d="M31.9844134,3.000785 C31.9844134,2.2981561 31.8792056,1.53210407 31.3902257,0.957067605 C30.6269096,0.0845641854 29.4392802,-5.45116407e-16 28.4436613,-5.45116407e-16 C27.4458039,-5.45116407e-16 26.238277,0.105456514 25.2401709,0.914785516 C24.1570032,1.85071207 23.7978541,3.27735963 23.6486232,4.17100409 C23.5434154,4.66073021 23.5205333,5.08628705 23.5205333,5.46906434 C23.5205333,6.4485166 23.7757182,7.10811721 24.1147211,7.53392276 C24.9628502,8.51262885 26.365372,8.51262885 27.0446214,8.53451609 C27.7422759,8.53451609 29.1646953,8.4914878 30.2451271,7.57620486 C30.9039816,7.02305563 31.5596028,6.00181869 31.8792056,4.2777042 C31.9413852,3.91557051 31.9844134,3.46862392 31.9844134,3.000785 Z M30.4378837,4.2354221 L30.4378837,4.2354221 C30.32994,4.87313555 30.1180321,5.95879046 29.4619136,6.55496798 C28.8450924,7.15015063 27.9546813,7.23546096 27.171219,7.23546096 C26.4076541,7.23546096 25.5373892,7.12900957 25.1752555,6.59725008 C24.9854835,6.34181646 24.9006706,5.95879046 24.9006706,5.55437468 C24.9006706,5.10742809 24.9854835,4.66073021 25.047663,4.34112734 C25.1556068,3.68152669 25.3871634,2.51056144 26.0263691,1.93651985 C26.6205569,1.38337059 27.6151809,1.29781153 28.3165663,1.29781153 C29.037849,1.29781153 30.0130731,1.40451164 30.32994,1.89374032 C30.5000633,2.12728671 30.5846275,2.51056144 30.5846275,2.9366157 C30.5846275,3.40520078 30.5000633,3.89418074 30.4378837,4.2354221 L30.4378837,4.2354221 Z" id="Fill-12"></path>
                                <path d="M43.3545656,3.89418074 L46.6000893,1.25552944 C46.7702126,1.14907805 46.8746742,0.93592656 46.8746742,0.723023788 C46.8746742,0.360890098 46.6000893,0.0845641854 46.2382044,0.0845641854 C46.0914607,0.0845641854 45.9643657,0.12659756 45.856422,0.233546383 L42.5059392,2.89433361 C42.3559621,3.02192604 42.1661901,3.19204929 42.0169592,3.36217253 L42.440775,0.914785516 C42.4631596,0.871757264 42.4631596,0.808334129 42.4631596,0.765305877 C42.4631596,0.382031142 42.1661901,0.0845641854 41.7844077,0.0845641854 C41.4456535,0.0845641854 41.1683327,0.318856723 41.1061531,0.637464725 L39.8757443,7.64037415 C39.8757443,7.682905 39.8757443,7.72518704 39.8757443,7.76821533 C39.8757443,8.12935415 40.1729625,8.44870831 40.5547449,8.44870831 C40.8716119,8.44870831 41.1484352,8.21491318 41.2106148,7.89580777 L41.7423743,4.87313555 C41.8045538,5.00047927 41.9120001,5.15045634 42.0390951,5.27780005 L44.5844771,8.15099265 C44.7110747,8.32136457 44.90408,8.44870831 45.1356366,8.44870831 C45.5395549,8.44870831 45.856422,8.12935415 45.856422,7.72518704 C45.856422,7.53392276 45.7942424,7.38518927 45.6673961,7.25660201 L43.119527,4.36226839 C43.119527,4.36226839 43.0996295,4.31998629 43.0772449,4.2777042 C43.0573474,4.2354221 43.0573474,4.21328619 43.0573474,4.21328619 C43.0573474,4.19214514 43.0573474,4.19214514 43.0573474,4.19214514 C43.0573474,4.19214514 43.0573474,4.19214514 43.0573474,4.17100409 C43.0996295,4.08569375 43.246622,3.95810132 43.3545656,3.89418074" id="Fill-13"></path>
                                <path d="M61.3411195,0.595182636 C61.2341704,0.360890098 60.8944213,0.0845641854 60.3425156,0.0845641854 L56.1240064,0.0845641854 C55.5502135,0.0845641854 55.1910644,0.339749052 55.0408386,0.531759495 C54.7866486,0.829475174 54.7244691,1.21250119 54.6590562,1.46793477 L53.5758885,7.64037415 C53.5758885,7.682905 53.5758885,7.72518704 53.5758885,7.76821533 C53.5758885,8.12935415 53.872858,8.44870831 54.2573763,8.44870831 C54.5742433,8.44870831 54.8515641,8.19352344 54.9137436,7.89580777 L56.0389447,1.57413744 C56.0389447,1.51096302 56.0590909,1.44679373 56.0812268,1.40451164 C56.1011243,1.38337059 56.1240064,1.38337059 56.1240064,1.38337059 L60.0263948,1.38337059 C60.0263948,1.42565268 60.0263948,1.44679373 60.0263948,1.46793477 L58.9434758,7.66176395 C58.9434758,7.682905 58.9235783,7.72518704 58.9235783,7.76821533 C58.9235783,8.12935415 59.2399479,8.44870831 59.6015842,8.44870831 C59.9413332,8.44870831 60.2154206,8.19352344 60.2803361,7.87392053 L61.3834011,1.57413744 C61.4032987,1.42565268 61.4455809,1.25552944 61.4455809,1.08490876 C61.4455809,0.93592656 61.4256833,0.765305877 61.3411195,0.595182636" id="Fill-14"></path>
                                <path d="M53.8532093,0.744413553 C53.8532093,0.382031142 53.555991,0.0845641854 53.1941061,0.0845641854 C53.1742086,0.0845641854 50.9892193,0.0845641854 50.9892193,0.0845641854 C49.7165283,0.0845641854 48.8258684,0.531759495 48.2316807,1.0212369 C47.1942771,1.93651985 46.917205,3.25596986 46.7279305,4.31998629 C46.6199868,4.83085346 46.5578072,5.32008214 46.5578072,5.76752618 C46.5578072,6.32067541 46.6622689,6.85268365 46.9818718,7.3207713 C47.3835517,7.93833856 48.1471165,8.44870831 49.3145997,8.44870831 L52.1340691,8.44870831 C52.4964516,8.44870831 52.7702903,8.15099265 52.7702903,7.78935639 C52.7702903,7.42747137 52.4964516,7.12900957 52.1340691,7.12900957 L49.8239746,7.12900957 C49.5043717,7.12900957 49.0803072,7.10811721 48.7408068,6.95888635 C48.4244373,6.8315426 48.1695011,6.61839114 48.0623036,6.21422402 C48.0200215,6.10752394 48.0200215,5.91650835 48.0200215,5.70335688 C48.0200215,5.32008214 48.0623036,4.83085346 48.1269703,4.53313778 C48.1893986,4.17100409 48.4244373,3.1497672 48.571181,2.78788223 C48.9328173,1.95766089 49.6541,1.40451164 50.7768139,1.38337059 L53.1941061,1.38337059 C53.555991,1.38337059 53.8532093,1.1060498 53.8532093,0.744413553" id="Fill-15"></path>
                                <path d="M91.6929466,0.574539026 C91.6168384,0.293238749 91.3576741,0.0845641854 91.0564768,0.0845641854 L88.8709899,0.0845641854 C87.5788988,0.0845641854 86.6882391,0.531759495 86.1139485,1.0212369 C85.0536627,1.93651985 84.7795758,3.25596986 84.5873167,4.31998629 C84.5022545,4.83085346 84.4179392,5.32008214 84.4179392,5.76752618 C84.4179392,6.32067541 84.5251368,6.85268365 84.8420037,7.3207713 C85.2459219,7.93833856 86.009487,8.44870831 87.174732,8.44870831 L89.996191,8.44870831 C90.3553401,8.44870831 90.6525579,8.15099265 90.6525579,7.78935639 C90.6525579,7.42747137 90.3553401,7.12900957 89.996191,7.12900957 L87.7059941,7.12900957 C87.3672397,7.12900957 86.942429,7.10811721 86.6235723,6.95888635 C86.2840717,6.8315426 86.0293847,6.61839114 85.9249225,6.21422402 C85.9022894,6.10752394 85.8826409,5.91650835 85.8826409,5.70335688 C85.8826409,5.32008214 85.9249225,4.83085346 85.9871024,4.53313778 C86.0517692,4.17100409 86.2840717,3.1497672 86.4335515,2.78788223 C86.7927006,1.95766089 87.5366166,1.40451164 88.6593308,1.38337059 L91.0564768,1.38337059 C91.3576741,1.38337059 91.6168384,1.18912168 91.6929466,0.912795768 L91.6929466,0.574539026" id="Fill-16"></path>
                                <path d="M84.9064219,0.744413553 C84.9064219,0.382031142 84.609452,0.0845641854 84.247816,0.0845641854 L82.0620806,0.0845641854 C80.7694924,0.0845641854 79.8793298,0.531759495 79.3050392,1.0212369 C78.244754,1.93651985 77.9704173,3.25596986 77.7779096,4.31998629 C77.6935943,4.83085346 77.6314144,5.32008214 77.6314144,5.76752618 C77.6087813,6.32067541 77.7358765,6.85268365 78.0325972,7.3207713 C78.4370132,7.93833856 79.2005777,8.44870831 80.3655735,8.44870831 L83.1872817,8.44870831 C83.5499126,8.44870831 83.8458875,8.15099265 83.8458875,7.78935639 C83.8458875,7.42747137 83.5499126,7.12900957 83.1872817,7.12900957 L80.896587,7.12900957 C80.5578327,7.12900957 80.1332711,7.10811721 79.8144144,6.95888635 C79.4751623,6.8315426 79.2202268,6.61839114 79.1157647,6.21422402 C79.0933801,6.10752394 79.073483,5.91650835 79.073483,5.70335688 C79.073483,5.32008214 79.1356623,4.83085346 79.1779445,4.53313778 C79.2428599,4.17100409 79.4751623,3.1497672 79.6246421,2.78788223 C79.9837913,1.95766089 80.7272101,1.40451164 81.8499237,1.38337059 L84.247816,1.38337059 C84.609452,1.38337059 84.9064219,1.1060498 84.9064219,0.744413553" id="Fill-17"></path>
                            </g>
                        </g>
                    </g>
                </g>
            </g>
        </g>
    </g>
</svg>