<?xml version="1.0" encoding="UTF-8"?>
<svg width="150px" height="61px" viewBox="0 0 150 61" version="1.1" xmlns="http://www.w3.org/2000/svg" xmlns:xlink="http://www.w3.org/1999/xlink">
    <title>Sberbank_Logo_2020</title>
    <defs>
        <linearGradient x1="58.6446836%" y1="96.1916998%" x2="38.578107%" y2="0.0500985811%" id="linearGradient-1">
            <stop stop-color="#F1E813" offset="14%"></stop>
            <stop stop-color="#E6E418" offset="30%"></stop>
            <stop stop-color="#C9DA26" offset="58%"></stop>
            <stop stop-color="#A2CC39" offset="89%"></stop>
        </linearGradient>
        <linearGradient x1="8.71276577%" y1="58.6235676%" x2="94.8737844%" y2="38.8258833%" id="linearGradient-2">
            <stop stop-color="#0FA7DF" offset="6%"></stop>
            <stop stop-color="#0098F8" offset="54%"></stop>
            <stop stop-color="#0290EA" offset="92%"></stop>
        </linearGradient>
        <linearGradient x1="-2.01267543%" y1="57.2738432%" x2="95.2573572%" y2="44.0190564%" id="linearGradient-3">
            <stop stop-color="#A2CC39" offset="12%"></stop>
            <stop stop-color="#86C239" offset="28%"></stop>
            <stop stop-color="#219F38" offset="87%"></stop>
        </linearGradient>
        <linearGradient x1="-7.64936231%" y1="40.0003733%" x2="92.6297827%" y2="57.987633%" id="linearGradient-4">
            <stop stop-color="#0290EA" offset="6%"></stop>
            <stop stop-color="#0C89CA" offset="79%"></stop>
        </linearGradient>
        <linearGradient x1="7.81525765%" y1="39.5900764%" x2="100.373536%" y2="62.1813924%" id="linearGradient-5">
            <stop stop-color="#F1E813" offset="13%"></stop>
            <stop stop-color="#EAE616" offset="30%"></stop>
            <stop stop-color="#D8DF1F" offset="53%"></stop>
            <stop stop-color="#BAD52D" offset="80%"></stop>
            <stop stop-color="#A2CC39" offset="98%"></stop>
        </linearGradient>
        <linearGradient x1="36.6114983%" y1="103.769876%" x2="60.7167057%" y2="7.76906129%" id="linearGradient-6">
            <stop stop-color="#A2CC39" offset="7%"></stop>
            <stop stop-color="#81C45E" offset="26%"></stop>
            <stop stop-color="#0FA7DF" offset="92%"></stop>
        </linearGradient>
    </defs>
    <g id="Логистика-2" stroke="none" stroke-width="1" fill="none" fill-rule="evenodd">
        <g id="Desktop-HD-Copy-9" transform="translate(-1147.000000, -760.000000)">
            <g id="Group-29" transform="translate(142.000000, 601.000000)">
                <g id="Аэроэкспресс" transform="translate(0.000000, 159.344329)">
                    <g id="Sberbank_Logo_2020" transform="translate(1005.000000, 0.000000)">
                        <rect id="Rectangle-Copy-7" x="0" y="0" width="150" height="60"></rect>
                        <g id="Group" transform="translate(8.999990, 20.655645)" fill-rule="nonzero">
                            <path d="M18.4919688,4.06507103 C18.9823449,4.70760057 19.397495,5.40565403 19.7289754,6.14521612 L10.3256017,13.1702531 L6.39567827,10.6735954 L6.39567827,7.66999402 L10.3256017,10.1666517 L18.4919688,4.06507103 Z" id="Path" fill="#21A038"></path>
                            <path d="M2.38489331,10.4616066 C2.38489331,10.3268267 2.38813647,10.1929424 2.39462279,10.0598257 L0.0129771497,9.94154952 C0.00487080984,10.1140703 3.43790869e-06,10.2882542 3.43790869e-06,10.4640373 C-0.00100414621,11.8375509 0.265570591,13.1976952 0.784448092,14.4664937 C1.30332175,15.7353562 2.06428101,16.8878615 3.02367435,17.857931 L4.71303461,16.1466682 C3.974528,15.4012531 3.38866741,14.5152371 2.98912541,13.5396023 C2.58958342,12.5639676 2.38424084,11.5179045 2.38489331,10.4616066 Z" id="Path" fill="url(#linearGradient-1)"></path>
                            <path d="M10.3234268,2.416375 C10.4563516,2.416375 10.5884448,2.42130691 10.7197705,2.42787639 L10.8389422,0.0133614128 C10.6682125,0.00514598892 10.4963314,0.00102332577 10.3234268,0.00102332577 C8.96750438,-0.000636975238 7.62469527,0.269135519 6.37199105,0.794865235 C5.11928042,1.32059623 3.98138533,2.09193104 3.02363597,3.06457847 L4.71299623,4.77667285 C5.44855393,4.02798258 6.3228895,3.43402369 7.28573064,3.02896128 C8.24857185,2.62389888 9.28088191,2.41570974 10.3234268,2.416375 Z" id="Path" fill="url(#linearGradient-2)"></path>
                            <path d="M10.3234268,18.5070108 C10.190502,18.5070108 10.0583449,18.5070108 9.92625165,18.4963283 L9.80707987,20.9100199 C9.97838524,20.9187835 10.1505222,20.9232081 10.3234268,20.9232081 C11.6787735,20.9246045 13.020943,20.654661 14.2729819,20.1287829 C15.5250209,19.6029047 16.662174,18.8314548 17.6191941,17.8588266 L15.9330706,16.1475638 C15.1973786,16.8958574 14.3231326,17.4894773 13.3604833,17.8943926 C12.397834,18.2993079 11.3657159,18.5075226 10.3234268,18.5070108 Z" id="Path" fill="url(#linearGradient-3)"></path>
                            <path d="M14.7982204,3.82020923 L16.8053336,2.32089048 C14.9708051,0.81537966 12.6808269,-0.00416323078 10.3202284,0 L10.3202284,2.4161895 C11.9187162,2.41418091 13.4801028,2.90375099 14.7982204,3.82020923 Z" id="Path" fill="url(#linearGradient-4)"></path>
                            <path d="M20.6461872,10.4616066 C20.6474231,9.83306036 20.5931785,9.20560162 20.4839857,8.58684245 L18.2620691,10.2463554 C18.2620691,10.3178712 18.2620691,10.3893231 18.2620691,10.4616066 C18.2626448,11.5857102 18.0301223,12.6974041 17.5796621,13.7245968 C17.1291379,14.7517895 16.4706548,15.6715804 15.6469432,16.4243518 L17.249589,18.2194762 C18.3204715,17.2396836 19.1762309,16.0427847 19.761343,14.7063725 C20.3465192,13.3698961 20.6479348,11.9237153 20.6461872,10.4616066 Z" id="Path" fill="#21A038"></path>
                            <path d="M10.3234908,18.5070108 C9.21422764,18.5073947 8.11724628,18.2716738 7.10355077,17.8151367 C6.08990646,17.3585995 5.18214783,16.6913528 4.43908032,15.8567028 L2.66866024,17.480074 C3.6353075,18.5655412 4.81627841,19.4329427 6.13499729,20.0261148 C7.45370973,20.6192229 8.88070025,20.9248604 10.3234908,20.9231478 L10.3234908,18.5070108 Z" id="Path" fill="url(#linearGradient-5)"></path>
                            <path d="M5,4.49879734 L3.39819219,2.70372412 C2.32699618,3.68331204 1.47092981,4.88014693 0.88551059,6.21661039 C0.300099054,7.5530611 -0.00158973814,8.99930592 0,10.4615426 L2.38489971,10.4615426 C2.38440716,9.3375029 2.61694878,8.225809 3.06744102,7.19861634 C3.51793965,6.17145566 4.17634596,5.25163911 5,4.49879734 Z" id="Path" fill="url(#linearGradient-6)"></path>
                            <g transform="translate(26.211310, 3.643332)" fill="#21A038">
                                <polygon id="Path" points="33.3616486 2.33946358 36.3153552 0.159055585 26.4299213 0.159055585 26.4299213 13.2614167 36.3153552 13.2614167 36.3153552 11.0810151 29.2506391 11.0810151 29.2506391 7.72482398 35.2771602 7.72482398 35.2771602 5.54442236 29.2506391 5.54442236 29.2506391 2.33946358"></polygon>
                                <path d="M19.7783723,5.26328451 L16.3463795,5.26328451 L16.3463795,2.33860001 L21.8237381,2.33860001 L24.7756537,0.151564969 L13.5273248,0.151564969 L13.5273248,13.2539325 L19.4153558,13.2539325 C22.7164708,13.2539325 24.611001,11.7547864 24.611001,9.14030028 C24.611001,6.63910091 22.8950045,5.26328451 19.7783723,5.26328451 Z M19.28838,11.0728273 L16.3463795,11.0728273 L16.3463795,7.44234277 L19.28838,7.44234277 C21.0738453,7.44234277 21.91099,8.05073915 21.91099,9.25761699 C21.91099,10.4644308 21.0202404,11.0728273 19.28838,11.0728273 Z" id="Shape"></path>
                                <path d="M43.5818893,0.15718133 L38.2009299,0.15718133 L38.2009299,13.2594977 L41.021264,13.2594977 L41.021264,9.54783827 L43.5818893,9.54783827 C47.0150336,9.54783827 49.1387598,7.73774542 49.1387598,4.84551173 C49.1387598,1.95336119 47.0150336,0.15718133 43.5818893,0.15718133 Z M43.5223994,7.36577352 L41.021264,7.36577352 L41.021264,2.33925248 L43.5223994,2.33925248 C45.3282064,2.33925248 46.3248225,3.23237532 46.3248225,4.85350769 C46.3248225,6.47464004 45.3282064,7.36577352 43.5223994,7.36577352 Z" id="Shape"></path>
                                <path d="M9.2948407,10.167429 C8.56624907,10.5627491 7.74995781,10.7674456 6.92151264,10.7625841 C4.44187036,10.7625841 2.64303584,8.98882492 2.64303584,6.54634777 C2.64303584,4.10380673 4.44187036,2.32620308 6.92151264,2.32620308 C7.81571653,2.31098517 8.6913698,2.58267501 9.42053716,3.10162543 L11.3934277,1.6457855 L11.2599912,1.55079992 C10.109149,0.536963715 8.57143049,0 6.81129638,0 C4.90218163,0 3.17108886,0.643578609 1.93510577,1.81443623 C1.31014174,2.41729303 0.815927614,3.14275664 0.483103893,3.94555075 C0.150344134,4.74834486 -0.0138608472,5.61120462 0.000915686567,6.48039713 C-0.0123256188,7.35841724 0.151111745,8.23010449 0.48144073,9.04345326 C0.81176972,9.85680202 1.30220975,10.5950528 1.92352762,11.2142597 C3.1652678,12.4316282 4.89252251,13.1023291 6.78807612,13.1023291 C8.76870671,13.1023291 10.4998635,12.410263 11.6720068,11.1502921 L9.90605167,9.83211054 L9.2948407,10.167429 Z" id="Path"></path>
                                <path d="M60.3222257,5.26328451 L56.8916399,5.26328451 L56.8916399,2.33860001 L64.2639127,2.33860001 L64.2639127,0.151564969 L54.0706662,0.151564969 L54.0706662,13.2539325 L59.9512131,13.2539325 C63.2519443,13.2539325 65.1467175,11.7547864 65.1467175,9.14030028 C65.1543426,6.63910091 63.43873,5.26328451 60.3222257,5.26328451 Z M59.8322334,11.0728273 L56.8916399,11.0728273 L56.8916399,7.44234277 L59.8322334,7.44234277 C61.6175709,7.44234277 62.4542673,8.05073915 62.4542673,9.25761699 C62.4542673,10.4644308 61.5715138,11.0728273 59.8322334,11.0728273 Z" id="Shape"></path>
                                <polygon id="Path" points="97.2123741 13.23519 94.3530194 13.23519 94.3530194 0.132822445 97.2123741 0.132822445 97.2123741 5.6358961 98.7687073 5.6358961 102.971382 0.132822445 106.211984 0.132822445 101.226984 6.36576709 107.015417 13.23519 103.221496 13.23519 98.9670068 8.08214729 97.2123741 8.08214729"></polygon>
                                <path d="M75.5350141,10.7451849 L69.4862319,10.7451849 L68.4608304,13.2894985 L65.4178889,13.2894985 L71.0911809,0.187169369 L74.1334823,0.187169369 L79.7146609,13.2894985 L76.5604156,13.2894985 L75.5350141,10.7451849 Z M74.5876529,8.37115317 L72.5285339,3.282462 L70.4579011,8.37115317 L74.5876529,8.37115317 Z" id="Shape"></path>
                                <polygon id="Path" points="83.5642343 0.187169369 83.5642343 5.65847669 89.4812428 5.65847669 89.4812428 0.187169369 92.429512 0.187169369 92.429512 13.2894985 89.4812428 13.2894985 89.4812428 8.12673274 83.5642343 8.12673274 83.5642343 13.2894985 80.6159651 13.2894985 80.6159651 0.187169369"></polygon>
                            </g>
                        </g>
                    </g>
                </g>
            </g>
        </g>
    </g>
</svg>