<?xml version="1.0" encoding="UTF-8"?>
<svg width="150px" height="61px" viewBox="0 0 150 61" version="1.1" xmlns="http://www.w3.org/2000/svg" xmlns:xlink="http://www.w3.org/1999/xlink">
    <title>Group-7</title>
    <g id="Логистика-2" stroke="none" stroke-width="1" fill="none" fill-rule="evenodd">
        <g id="Desktop-HD-Copy-9" transform="translate(-946.000000, -760.000000)">
            <g id="Group-29" transform="translate(142.000000, 601.000000)">
                <g id="Аэроэкспресс" transform="translate(0.000000, 159.344329)">
                    <g id="Group-7" transform="translate(804.000000, 0.000000)">
                        <rect id="Rectangle-Copy-6" x="0" y="0" width="150" height="60"></rect>
                        <g id="Group" transform="translate(22.804847, 9.655671)" fill-rule="nonzero">
                            <g id="Group-9" transform="translate(0.000000, 28.941353)">
                                <path d="M22.6703332,10.8038139 C24.2114743,10.8038139 25.4450716,10.3760756 26.4138988,9.51974351 C27.3587727,8.74895912 27.9785655,7.76430552 28.316051,6.56578282 C28.6419876,5.41003397 28.5765436,4.42495267 28.077373,3.61182217 C27.5790579,2.79826393 26.5862773,2.37052563 25.0451362,2.37052563 C23.5035674,2.37052563 22.2703979,2.79826393 21.3131196,3.61182217 C20.3562691,4.42495267 19.7360485,5.41003397 19.4109674,6.56578282 C19.0734819,7.76473328 19.1389259,8.74895912 19.6492177,9.51974351 C20.1364116,10.3756478 21.1291922,10.8038139 22.6703332,10.8038139 L22.6703332,10.8038139 Z M23.2486354,8.74895912 C22.7781233,8.74895912 22.4406378,8.57786376 22.304617,8.14969774 C22.1561918,7.76473328 22.1724458,7.25059185 22.3653558,6.56578282 C22.5462891,5.92331994 22.8196139,5.41003397 23.1968791,4.98144019 C23.5621676,4.59647572 23.9954665,4.42495267 24.4668341,4.42495267 C24.937774,4.42495267 25.2748317,4.59604799 25.4232569,4.98144019 C25.5597054,5.41003397 25.5430236,5.92331994 25.3625181,6.56578282 C25.1696081,7.25101956 24.8962833,7.76473328 24.5309948,8.14969774 C24.1533019,8.57743605 23.720003,8.74895912 23.2486354,8.74895912 Z M99.269707,8.34260773 C98.8411136,8.34260773 98.5896032,8.17151238 98.4724028,7.82889401 C98.312001,7.4867034 98.3038739,7.05853733 98.4608541,6.5016221 C98.6178342,5.94470681 98.8787542,5.47462246 99.2196618,5.17435018 C99.5306276,4.83173178 99.908748,4.70341029 100.306545,4.66106421 C101.205651,4.66106421 101.495657,5.3030994 101.188541,6.5443959 C101.031989,7.10088342 100.782618,7.52904949 100.47208,7.87166786 C100.076421,8.21471394 99.6974456,8.34260773 99.269707,8.34260773 L99.269707,8.34260773 Z M96.572817,2.5634356 L93.5709501,13.2235294 L96.6532322,13.2235294 L97.6421627,9.71265345 C97.9629669,10.3974625 98.5515344,10.7400808 99.3218913,10.7400808 C100.263771,10.7400808 101.204368,10.4402363 102.168062,9.75499959 C102.64714,9.38224656 103.062468,8.93412611 103.397809,8.42815539 C103.745133,7.95721551 104.023163,7.27197878 104.2828,6.5016221 C104.596332,5.38864705 104.573662,4.40399349 104.203241,3.59043525 C103.833247,2.77687702 103.054335,2.34871098 101.855813,2.34871098 C101.384873,2.34871098 100.920777,2.47703247 100.389526,2.69132935 C99.8582751,2.9051985 99.4070109,3.29059071 99.0177695,3.76153057 L98.9745676,3.76153057 L99.3120535,2.56300787 L96.572817,2.56300787 L96.572817,2.5634356 L96.572817,2.5634356 Z M94.0324793,7.27069554 C94.4422529,5.81467441 94.4371199,4.61615168 93.8772105,3.71704579 C93.3600748,2.81751215 92.3360695,2.34700003 90.8809039,2.34700003 C89.6396071,2.34700003 88.5035343,2.73196449 87.4726851,3.5027489 C86.3994894,4.27353331 85.6821727,5.30096069 85.2963524,6.67100645 C84.934486,7.95507681 85.0735007,8.98293196 85.7364951,9.66731323 C86.3451671,10.3953238 87.276353,10.7375144 88.5608512,10.7375144 C89.5027309,10.7375144 90.4069696,10.5664191 91.3291736,10.1810269 C92.2509494,9.79606244 93.0003469,9.11082571 93.5777935,8.12617216 L90.6238328,8.12617216 C90.4779742,8.34046903 90.2585447,8.51156433 90.0083174,8.63988583 C89.8008643,8.76820734 89.5318173,8.81098114 89.2747462,8.81098114 C88.8465805,8.81098114 88.5407477,8.68265963 88.3251676,8.38281512 C88.1095875,8.08339831 88.0779349,7.74077994 88.2101057,7.26984007 L94.0324793,7.26984007 L94.0324793,7.27069554 L94.0324793,7.27069554 Z M88.6562369,5.68635291 C88.9094581,4.787247 89.5129965,4.3158794 90.4668532,4.27353331 C90.8398406,4.31630714 91.1465293,4.44462863 91.2881108,4.70169934 C91.4728936,4.95834232 91.5473199,5.30096069 91.4386742,5.68635291 L88.6562369,5.68635291 Z M78.2117232,10.5591476 L79.8153142,4.86509537 L77.1603423,4.86509537 L77.8113602,2.55316989 L86.2023024,2.55316989 L85.5521399,4.86509537 L82.8971686,4.86509537 L81.2940053,10.5591476 L78.2117232,10.5591476 Z M76.7569854,5.59267819 C76.9113987,4.43692934 76.6817031,3.58016953 76.0131486,3.06688358 C75.3321888,2.59551598 74.4625968,2.338873 73.4351698,2.338873 C72.1078975,2.338873 70.9838016,2.68149137 69.9533801,3.45227578 C68.9353627,4.18028636 68.2056414,5.25048758 67.8198211,6.62010558 C67.4459782,7.94737755 67.5845653,8.97480489 68.2364386,9.70281548 C68.8570865,10.3876245 69.7758683,10.7730167 71.0603665,10.7730167 C72.1305677,10.7730167 73.187937,10.515946 74.1028689,10.0022323 C74.5821954,9.73359417 75.0129438,9.38627721 75.3771015,8.97480489 C75.7543666,8.54706664 76.0276912,8.03335291 76.2821956,7.43366383 L73.199058,7.43366383 C73.0720412,7.74417664 72.8767229,8.0220963 72.6276,8.24679436 C72.3842166,8.50386507 72.0484421,8.63218653 71.66305,8.63218653 C71.1921101,8.63218653 70.8978261,8.46151893 70.7921749,8.075699 C70.6745467,7.73308063 70.6788238,7.26214076 70.8597573,6.62010558 C70.9200686,6.40623643 71.03513,6.14916571 71.1506196,5.89209499 C71.265681,5.63502428 71.3807424,5.37838132 71.5266015,5.16451217 C71.6724602,4.95021529 71.8918897,4.77911997 72.0993427,4.65037075 C72.3063681,4.52204926 72.5450461,4.4365016 72.8444632,4.4365016 C73.1866539,4.4365016 73.4073665,4.56482309 73.5185785,4.77869224 C73.6841134,4.94978755 73.6858242,5.25005982 73.6319291,5.59225048 L76.7569854,5.59225048 L76.7569854,5.59267819 L76.7569854,5.59267819 Z M61.7899944,8.97394942 C61.1047576,8.97394942 60.8228782,8.75965256 60.9435004,8.33191425 C61.0157881,8.07484353 61.1616467,7.86054666 61.3690998,7.73222516 C61.5765529,7.60390366 61.7720295,7.518356 62.0406494,7.4755822 C62.2788992,7.39003455 62.5907204,7.3472607 62.8597679,7.30448685 C63.183566,7.21851149 63.46459,7.13296384 63.7883876,7.04741613 C63.6741816,7.60390366 63.4680117,8.03206973 63.1459249,8.4174619 C62.7802086,8.80285412 62.3464821,8.97394942 61.7899944,8.97394942 L61.7899944,8.97394942 Z M66.2795354,10.5150905 L66.3158934,10.386769 C66.1499308,10.2156737 66.1122902,10.0445784 66.1178505,9.87305532 C66.1110066,9.74473386 66.1165674,9.57363851 66.1768787,9.35934164 L67.2256928,5.63459657 C67.3587196,5.16322898 67.478914,4.73549067 67.5139884,4.30732463 C67.5782768,3.95399128 67.5137799,3.58931794 67.3321995,3.27946951 C67.1598212,2.9800527 66.83474,2.76575582 66.326159,2.5946605 C65.8180062,2.42356518 65.1139486,2.33758979 64.172497,2.33758979 C62.7169033,2.33758979 61.531213,2.5946605 60.7257817,3.0223988 C59.9079458,3.4937664 59.4156193,4.17857541 59.1743751,5.03447974 L62.213883,5.03447974 C62.3956719,4.6922891 62.5847324,4.47799221 62.8349591,4.34924298 C63.1159831,4.26412306 63.2994828,4.2209215 63.5133521,4.2209215 C63.7272214,4.2209215 63.9295414,4.26412306 64.162231,4.34924298 C64.3525746,4.43521838 64.4325616,4.6063137 64.3910711,4.90615825 C64.2516282,5.24834887 63.8919003,5.4630735 63.3114598,5.54862115 C63.0419845,5.591395 62.730591,5.6341688 62.4187699,5.67694266 C62.064175,5.71928875 61.7100074,5.7620626 61.300662,5.84803796 C60.9580435,5.84803796 60.5914718,5.93358561 60.2556972,6.06190711 C59.8891255,6.14745477 59.4981727,6.31897783 59.1931954,6.48964542 C58.8882181,6.66031302 58.6016333,6.91781145 58.3462736,7.21765601 C58.0904861,7.51750053 57.8967208,7.90289275 57.7641217,8.37340486 C57.5472585,9.1441893 57.6777185,9.74345063 58.1259881,10.1288428 C58.51908,10.5570089 59.1132083,10.7281042 59.8407911,10.7281042 C60.4400524,10.7281042 60.9657429,10.6853304 61.4422435,10.5138073 C61.96109,10.342712 62.4739481,10.0432952 63.0103319,9.65790298 L62.9406104,10.5138073 L66.2795354,10.5138073 L66.2795354,10.5150905 L66.2795354,10.5150905 Z M39.7054386,10.5591476 L41.3090295,4.86509537 L38.6117117,4.86509537 L39.2627295,2.55316989 L47.6964454,2.55316989 L47.0454277,4.86509537 L44.3485378,4.86509537 L42.7449469,10.5591476 L39.7054386,10.5591476 Z M32.9548728,8.34260773 C32.5271345,8.34260773 32.2756244,8.17151238 32.1575686,7.82889401 C31.9971668,7.4867034 31.9890397,7.05853733 32.1460197,6.5016221 C32.3025719,5.94513457 32.56392,5.47462246 32.9052551,5.17435018 C33.2157932,4.83173178 33.5943415,4.70341029 33.9917104,4.66106421 C34.8908163,4.66106421 35.1808229,5.3030994 34.8737068,6.5443959 C34.7171546,7.10088342 34.4677831,7.52904949 34.1572451,7.87166786 C33.762015,8.21471394 33.3830389,8.34260773 32.9548728,8.34260773 L32.9548728,8.34260773 Z M30.2588383,2.5634356 L27.256971,13.2235294 L30.3396809,13.2235294 L31.3281841,9.71265345 C31.6489878,10.3974625 32.2375557,10.7400808 33.0083401,10.7400808 C33.9502198,10.7400808 34.8908163,10.4402363 35.854083,9.75499959 C36.333161,9.38224656 36.7484887,8.93412611 37.0838306,8.42815539 C37.4307263,7.95721551 37.709184,7.27197878 37.9692489,6.5016221 C38.282781,5.38864705 38.2601109,4.40399349 37.8901173,3.59043525 C37.5196959,2.77687702 36.7407845,2.34871098 35.5422618,2.34871098 C35.0713219,2.34871098 34.6072258,2.47703247 34.0759749,2.69132935 C33.5447239,2.9051985 33.09346,3.29059071 32.7037904,3.76153057 L32.6610166,3.76153057 L32.9985021,2.56300787 L30.2588383,2.56300787 L30.2588383,2.5634356 L30.2588383,2.5634356 Z M8.68500193,10.5591476 L11.724938,10.5591476 L13.3276734,4.86509537 L15.7683481,4.86509537 L14.1647572,10.5591476 L17.2474671,10.5591476 L19.5016479,2.55316989 L10.9391827,2.55316989 L8.68500193,10.5591476 Z M9.14139871,5.59267819 C9.29581221,4.43692934 9.06568902,3.58016953 8.39713408,3.06688358 C7.71660242,2.59551598 6.84701047,2.338873 5.81915536,2.338873 C4.49188342,2.338873 3.36864266,2.68149137 2.33779337,3.45227578 C1.31977623,4.18028636 0.590054691,5.25048758 0.204234751,6.62010558 C-0.169180781,7.94737755 -0.0305935732,8.97480489 0.620424113,9.70281548 C1.24107238,10.3876245 2.16028198,10.7730167 3.44435234,10.7730167 C4.51455355,10.7730167 5.57192261,10.515946 6.48685483,10.0022323 C6.96610379,9.7334796 7.39683398,9.38617721 7.76108721,8.97480489 C8.13835237,8.54706664 8.41167717,8.03335291 8.66618147,7.43366383 L5.58347157,7.43366383 C5.45662345,7.74426882 5.26128005,8.02222374 5.01201319,8.24679436 C4.7686301,8.50386507 4.43285554,8.63218653 4.04746333,8.63218653 C3.57652347,8.63218653 3.28223952,8.46151893 3.17658816,8.075699 C3.05896013,7.73308063 3.06323751,7.26214076 3.24417082,6.62010558 C3.30448192,6.40623643 3.41954352,6.14916571 3.53503285,5.89209499 C3.65009446,5.63502428 3.76515606,5.37838132 3.91101482,5.16451217 C4.05687358,4.95021529 4.27630332,4.77911997 4.4837564,4.65037075 C4.69120947,4.52204926 4.9294597,4.4365016 5.22930424,4.4365016 C5.5714949,4.4365016 5.79220784,4.56482309 5.90341978,4.77869224 C6.06895453,4.94978755 6.07023772,5.25005982 6.01677043,5.59225048 L9.14139871,5.59225048 L9.14139871,5.59267819 Z" id="Shape" fill="#004EA7"></path>
                                <polygon id="Path" fill="#FF0000" points="49.1892521 0.065443959 51.2941524 9.86450059 58.966066 1.29675237e-16 52.8506921 4.29663118"></polygon>
                                <path d="M48.5557717,2.55915822 L46.2759265,10.5381884 L50.2222401,10.5381884 L48.5557717,2.55915822 Z M58.2431886,2.55915822 L52.1492012,10.5381884 L55.963771,10.5381884 L58.2431886,2.55915822 L58.2431886,2.55915822 Z" id="Shape" fill="#004EA7"></path>
                            </g>
                            <g id="Group-8" transform="translate(32.439020, -0.000000)">
                                <polygon id="Path" fill="#FF0000" points="34.3076666 4.39838525 23.6600383 16.4728263 0 4.49982034 22.3658244 9.21532954"></polygon>
                                <path d="M2.1289146,28.1946887 L14.6066517,14.0444949 L42.3350922,28.0761441 L16.1232895,22.5491543 L2.1289146,28.1946887 L2.1289146,28.1946887 Z M21.6655557,0.0122345623 C19.6185224,0.177830388 18.0829419,1.98349705 18.2491488,4.03175243 C18.4153557,6.08000782 20.2210224,7.61497723 22.2680556,7.44877035 C24.316311,7.28317453 25.8512805,5.47750785 25.6850736,3.42986354 C25.5194778,1.38160816 23.7138111,-0.153361264 21.6655557,0.0122345623 L21.6655557,0.0122345623 Z" id="Shape" fill="#004EA7"></path>
                            </g>
                        </g>
                    </g>
                </g>
            </g>
        </g>
    </g>
</svg>