<?xml version="1.0" encoding="UTF-8"?>
<svg width="32px" height="31px" viewBox="0 0 32 31" version="1.1" xmlns="http://www.w3.org/2000/svg" xmlns:xlink="http://www.w3.org/1999/xlink">
    <title>Group</title>
    <g id="Логотип" stroke="none" stroke-width="1" fill="none" fill-rule="evenodd">
        <g id="Artboard" transform="translate(-351, -456)">
            <g id="Group" transform="translate(351, 456)">
                <path d="M17.6246628,30.299254 C21.6629714,30.299254 25.0707931,28.9026057 27.8481278,26.1093093 C30.4498839,23.5235149 31.750762,19.8204019 31.750762,14.9999703 C31.750762,10.4828109 32.8920231,4.58496493 30.290267,1.9991705 C27.5129322,-0.794125947 21.6629714,0.155594846 17.6246628,0.155594846 L14.224822,0.155594846 C10.1865134,0.155594846 6.77869174,1.55224307 4.00135698,4.34553952 C1.39960086,6.93133395 0.0987228012,10.4828109 0.0987228012,14.9999703 C0.0987228012,19.8204019 -0.64349597,26.229022 1.94229846,28.8148164 C4.73559491,31.6081129 10.1865134,30.299254 14.224822,30.299254 L17.6246628,30.299254 Z" id="Path" fill="#FFFFFF" fill-rule="nonzero"></path>
                <g id="Group-2" transform="translate(16.2184, 15.3788) rotate(-315) translate(-16.2184, -15.3788)translate(10.5062, 0)">
                    <polygon id="Triangle" fill="#C74923" points="5.93183851 1.15207908e-13 11.4242816 15.3788406 -3.12729934e-15 15.3788406"></polygon>
                    <polygon id="Triangle" fill="#1353A2" transform="translate(5.7121, 23.0683) scale(1, -1) translate(-5.7121, -23.0683)" points="5.93183851 15.3788406 11.4242816 30.7576812 -9.15768442e-16 30.7576812"></polygon>
                    <circle id="Oval" fill="#FFFFFF" cx="5.71214079" cy="15.3788406" r="1.53788406"></circle>
                </g>
            </g>
        </g>
    </g>
</svg>