<?xml version="1.0" encoding="UTF-8"?>
<svg width="78px" height="78px" viewBox="0 0 78 78" version="1.1" xmlns="http://www.w3.org/2000/svg" xmlns:xlink="http://www.w3.org/1999/xlink">
    <title>no foto</title>
    <defs>
        <linearGradient x1="50%" y1="0%" x2="50%" y2="100%" id="linearGradient-1">
            <stop stop-color="#A6B7D4" offset="0%"></stop>
            <stop stop-color="#9AABC7" offset="100%"></stop>
        </linearGradient>
    </defs>
    <g id="магазин-модулей" stroke="none" stroke-width="1" fill="none" fill-rule="evenodd">
        <g id="Логистика-Copy-24" transform="translate(-1141.000000, -192.000000)">
            <g id="Group-2-Copy-7" transform="translate(254.000000, 81.000000)">
                <g id="Group-Copy" transform="translate(0.000000, 40.000000)">
                    <g id="Group-6-Copy-2" transform="translate(872.000000, 56.000000)">
                        <g id="no-foto" transform="translate(15.000000, 15.000000)">
                            <rect id="Rectangle" fill="#FFFFFF" x="0" y="0" width="78" height="78"></rect>
                            <g id="фотоапарат" opacity="0.403529576" transform="translate(15.853330, 20.802421)">
                                <path d="M46.2562526,33.3800048 L46.263054,36.0066516 C46.2393005,36.1293827 46.186308,36.23874 46.1040767,36.3347234 C46.0218454,36.4307067 45.9066487,36.4976222 45.7584864,36.5354698 L0.572932857,36.5389411 C0.44557531,36.5086783 0.332856971,36.4548114 0.234777842,36.3773405 C0.136698712,36.2998695 0.0584394317,36.2023237 -2.09610107e-13,36.0847029 L-2.09610107e-13,33.3800048 L46.2562526,33.3800048 Z M46.2580569,9.19881275 L46.2536682,32.8613327 L0.00868452903,32.8645391 L0.00868452903,9.2003352 L46.2580569,9.19881275 Z M23.4138788,10.8514782 C17.9662801,10.8514782 13.5501288,15.2666787 13.5501288,20.7131044 C13.5501288,26.1595302 17.9662801,30.5747306 23.4138788,30.5747306 C28.8614775,30.5747306 33.2776288,26.1595302 33.2776288,20.7131044 C33.2776288,15.2666787 28.8614775,10.8514782 23.4138788,10.8514782 Z M23.4138788,12.9552918 C27.7477462,12.9552918 31.2610399,16.467829 31.2610399,20.8007633 C31.2610399,25.1336976 27.7477462,28.6462348 23.4138788,28.6462348 C19.0800114,28.6462348 15.5667177,25.1336976 15.5667177,20.8007633 C15.5667177,16.467829 19.0800114,12.9552918 23.4138788,12.9552918 Z M29.986522,0 C30.0984948,0 30.1896635,0.0154065548 30.2600281,0.0462196645 C30.3303927,0.0770327742 30.4024673,0.12945029 30.4762518,0.203472211 L35.2585349,5.41948053 L45.7584864,5.42028716 C45.9066487,5.45813478 46.0218454,5.52505027 46.1040767,5.62103363 C46.186308,5.71701699 46.2393005,5.82637426 46.263054,5.94910542 L46.2562526,8.57575216 L-2.09610107e-13,8.57575216 L-2.09610107e-13,5.87105407 C0.0584394317,5.75343333 0.136698712,5.65588749 0.234777842,5.57841653 C0.332856971,5.50094558 0.44557531,5.4470787 0.572932857,5.4168159 L11.6044683,5.41766336 L16.4828319,0.208691018 C16.5530557,0.131189892 16.6234299,0.0770327742 16.6939547,0.0462196645 C16.7644795,0.0154065548 16.8561901,0 16.9690865,0 Z M8.99102158,2.70394317 L9.18211219,2.87833982 L9.18211219,4.88285899 L4.88088278,4.90011568 L4.86548902,2.87833982 L5.05067601,2.70394317 L8.99102158,2.70394317 Z" id="Combined-Shape" fill="url(#linearGradient-1)"></path>
                                <ellipse id="Oval-5" fill="#FBFCFD" cx="33.4091454" cy="11.8595556" rx="1.09597222" ry="1.09573624"></ellipse>
                            </g>
                        </g>
                    </g>
                </g>
            </g>
        </g>
    </g>
</svg>