<svg width="37" height="40" viewBox="0 0 37 40" xmlns="http://www.w3.org/2000/svg">
    <g fill-rule="nonzero" fill="none">
        <path d="m36.04 7.515-.234.326c.14-.933-.047-2.24-.28-2.987-.327 1.214-.934 2.287-1.774 3.314l-.046-.607c-.98 1.54-2.194 2.8-3.548 3.407 0-.233-.046-.513-.14-.7-1.773 2.334-6.067 1.774-5.6 6.488.98-.14 1.446.84.606 1.774-.373 0-.747-.14-1.073-.327l.186-.28-.746-.373c.186-.047.373-.14.56-.234-1.12-.56-.747-1.633-2.054-2.193-.233-.234-.42-.56-.56-.887-.047-.234-.093-.514-.14-.794 0-.56 0-.887.14-1.12l.093.14c.327-.747.747-1.307 1.307-1.634 1.54.047 2.427-.046 2.707-.98-.093.047-.14.047-.186.047-.047-.093-.094-.14-.14-.187.373-.14.933.094 1.073.094-.047-.467-.233-.607-.327-.794l.514-.373c1.307.42 2.427-.56 3.22-.14l.28-.98c-1.166-.56-1.867.186-2.847.186.28-.606.327-1.167.094-1.727l-1.027-.326c-1.26.373-1.214 1.54-.747 2.333-.28.28-.56.42-.747.514l-.327.046s-.046-.42-.606-.56v-.28c.7-.56.746-1.12.606-1.447-.14-.326-.513-.513-.84-.42l-.466.14-.047-.093c.047-.047.047-.093.047-.14a.357.357 0 0 0-.094-.233h.047l-.047-.187.187.047v-.654l-.187.047.047-.187h-.654l.047.187-.187-.047v.654l.187-.047-.187.233h.094a.357.357 0 0 0-.094.234c0 .046 0 .14.047.186l-.047.094-.466-.14a.68.68 0 0 0-.84.42c-.14.326-.094.84.606 1.447v.373h-.513c-.56-.327-1.027-.887-1.167-1.587.373-.047.654-.187.887-.42v-.98c1.493-1.12 1.914-2.614.607-3.267-.747-.374-1.68-.047-2.147.326-.094-.14-.234-.28-.374-.326a.57.57 0 0 0-.186-.42h.093l-.093-.327.326.093V.233l-.326.094L18.63 0h-1.027l.093.327-.326-.094V1.26l.326-.093-.093.327h.093a.592.592 0 0 0-.186.42v.046c-.094.047-.234.187-.327.28-.467-.373-1.4-.7-2.1-.326-1.307.653-.887 2.147.606 3.267v.98c.234.233.56.373.887.42-.14.654-.607 1.214-1.167 1.587h-.513v-.42c.7-.56.747-1.12.607-1.447-.14-.327-.514-.513-.84-.42l-.467.14-.047-.093c.047-.047.047-.094.047-.14a.357.357 0 0 0-.094-.234h.047l-.047-.186.187.046v-.653l-.187.046.047-.186h-.653l.046.186-.186-.046v.653l.186-.046v.186h.094a.357.357 0 0 0-.094.234c0 .046 0 .14.047.186l-.047.094-.466-.14a.68.68 0 0 0-.84.42c-.14.326-.094.84.606 1.447v.28c-.56.14-.606.606-.606.606h-.234a4.211 4.211 0 0 1-.887-.653c.467-.84.467-1.867-.746-2.24l-1.074.233c-.233.56-.187 1.074.093 1.68-.98 0-1.68-.747-2.847-.186l.28.98c.794-.42 1.914.56 3.22.14l.514.373c-.186.234-.373.467-.42.887.327-.187.654-.233 1.167-.14-.187 0-.233.093-.233.14a.145.145 0 0 0 .093.047c-.047 0-.187-.047-.327-.047.28.887 1.214.98 2.754.933.56.28.934.84 1.307 1.634l.093-.14c.094.28.14.56.14 1.12 0 .327-.046.56-.14.794-.186.326-.373.653-.56.887-1.307.56-.933 1.633-2.053 2.147.186.14.326.233.56.233l-.747.373.187.28c-.327.187-.654.327-1.074.327-.887-.933-.42-1.867.607-1.774.467-4.714-3.827-4.107-5.601-6.487-.047.186-.093.466-.14.7C4.814 10.315 3.6 9.055 2.62 7.515l-.047.606C1.78 7.095 1.174 5.974.8 4.807.567 5.554.38 6.861.52 7.795l-.233-.327c-.467 1.774-.42 2.94.56 4.48.14.98.56 1.961 1.027 2.708-.28-.047-.467-.094-.747-.094.513.98 1.12 1.914 1.68 2.52l-.793.234c.7 1.074 1.493 1.774 2.427 2.38-.42.094-.607.234-.934.467.607.654 1.12.98 1.96 1.214-.653.233-.933.513-1.12 1.027.84.28 1.774.466 2.708.42-.56.327-1.074.7-1.354 1.213l-.187-.093c-.093-.047-.14-.047-.233-.047-.187 0-.42.14-.467.327 0 .047-.046.093-.046.093v.094c-.047.046-.14.093-.187.14l-.233-.094c-.094-.046-.187-.046-.28-.046a.606.606 0 0 0-.56.373c-.14.327 0 .654.28.84l.186.094h.047v.233l-.047.093c0 .047-.047.047-.047.094a.648.648 0 0 0 0 .42c.047.14.14.233.28.326l.374.187-.093-.046.186.093.654.327.046.046c-.466.56-1.026.887-1.68.887h-.327l-.14-.093h-.046c-.28-.047-.56-.14-.84-.28l-.327-.187.093.373c.187.887.98 1.774 2.194 2.567 1.167.7 2.427 1.12 3.5 1.12.56 0 1.027-.14 1.354-.373l.327-.233-.374-.093a2.79 2.79 0 0 1-.746-.374l-.187-.047-.14-.14c-.654-.606-.654-1.493-.467-2.147h.047l.653.327.187.093.047-.093 1.353.654c-.047 2.1-.7 3.407-1.914 4.76h-.046c-.187.047-.327.234-.374.42l-.14.14h-.046a.49.49 0 0 0-.42-.233c-.047 0-.094 0-.14.047l-.234.093a.478.478 0 0 0-.28.233c-.046.094-.046.187-.046.327-.047 0-.14.047-.187.047-.094-.187-.28-.327-.467-.327-.047 0-.093 0-.187.047l-.14.047c-.28.093-.42.326-.326.606-.607.187-1.214.42-1.774.56.093 1.447.56 2.66 1.494 3.781 1.447-.7 2.847-1.4 4.2-2.054.047.047.14.094.234.094.046 0 .093 0 .14-.047l.186-.047c.234-.093.514-.326.654-.56 1.96-.933 3.78-1.773 5.367-2.474.047.56.094 1.074.28 1.447.374-.14.7-.233 1.027-.513 0 .187.094.373.14.607l-.7.747.467.466.7-.653c.093.513.653 1.26.98 1.447.234-.187.84-.98.98-1.447l.7.653.467-.466-.7-.747c.093-.187.14-.374.14-.607.327.233.654.373 1.027.513.14-.373.233-.84.28-1.447l.187.094.093-.094 3.36 1.634.28.14.094.14.047.047h.046l.467.233.14.047c.14.233.513.84 1.167.793.14 0 .233-.046.327-.093l.466.233.187.094.047-.094 1.727.794-.047.093.187.094.653.326.187.094.047-.094.513.234c-.14 0-.047 0 0 0 .187 0 .42-.14.467-.327 0-.047.046-.093.046-.093v-.094c.047-.046.14-.046.187-.14h.047l.28.14a.592.592 0 0 0 .28.047c.233 0 .467-.14.56-.374.14-.326 0-.653-.28-.84l-.233-.14v-.233l.046-.047c.047-.046.047-.046.047-.093a.648.648 0 0 0 0-.42c-.047-.14-.187-.14-.28-.187l-.56-.28.046-.093-.186-.094-.654-.326-.186-.094.046-.093c.094-.233-.093-.513-.233-.56l-.234-.093c-.233-.094-.513 0-.606.233l-.047.093-.187-.093.047-.14c.093-.233 0-.514-.28-.654l-.233-.093c-.14-.047-.327 0-.42.047-1.4-1.494-2.147-2.754-2.24-4.388 2.193-.84 4.667-1.727 7.28-2.567a12.079 12.079 0 0 0-1.493-3.78l-.654.373-.56-1.073c-.28.186-.56.326-.887.513-.28-.28-.653-.56-1.026-.747.933.047 1.913-.14 2.707-.42-.234-.467-.514-.793-1.12-1.027.84-.233 1.4-.56 1.96-1.213-.327-.234-.514-.374-.934-.467.934-.607 1.68-1.307 2.427-2.38l-.793-.234c.56-.607 1.167-1.54 1.68-2.52-.28 0-.466 0-.747.093.514-.7.887-1.727 1.027-2.707.98-1.634 1.027-2.754.56-4.527zM22.456 27.958c-.047.047-.14.047-.187.093l.047-.326.14.233zm-4.62-21.19h.653c.28 1.073.933 1.82 1.867 2.427 0 0-.607.887-1.68 1.26.093.14.14.14.28.233-.374.327-.794 1.12-.794 1.12v.047-.046s-.42-.794-.793-1.12c.093-.094.186-.094.28-.234-1.074-.373-1.68-1.26-1.68-1.26.933-.607 1.633-1.354 1.866-2.427zm-3.781 21.237-.187-.047.14-.233.047.28zM6.915 24.55c.373-.047.746-.094 1.073-.187-.187.14-.373.373-.467.56l-.653-.28.047-.093zm3.594 9.055c.653-.747 1.26-1.54 1.633-3.034l1.727.793.28.14.094.14.046.047h.047l.233.14-1.633.793c-.794.28-1.68.654-2.427.98zm15.355.046-2.007-.933-.28-.14-.093-.14-.047-.047h-.046l-.98-.467c.56-.233 1.213-.466 1.866-.746.374.933.887 1.773 1.587 2.473zm2.708-9.055-.28-.28c.14.047.326.094.513.14-.093.047-.14.094-.233.14z" fill="#231F20" opacity=".7"/>
        <g fill="#FCD015">
            <path d="M12.282 8.821c-.42-.046-.887-.046-1.167.047-.373.093-.653.28-.793.747 1.167-.327 1.26.327 2.334.56-.327.14-1.167.14-1.634-.14.327.513.747.653 2.287.607-.513-.42-.233-1.354-1.027-1.82z"/>
            <path d="M11.255 9.895c.28.047.234.233.7.233-.093-.093-.513-.42-.7-.233zM23.95 8.821c.42-.046.888-.046 1.168.047.373.093.653.28.793.747-1.167-.327-1.26.327-2.334.56.327.14 1.167.14 1.634-.14-.327.513-.747.653-2.287.607.513-.42.28-1.354 1.027-1.82z"/>
            <path d="M25.024 9.895c-.28.047-.233.233-.7.233.094-.093.514-.42.7-.233z"/>
        </g>
        <path fill="#221F1F" d="m18.117 30.525 1.306 2.66-1.12.467-1.26-2.707zM16.903 36.64l-.56.56.187.186.513-.513c0-.094-.093-.187-.14-.234zM19.47 36.64a.364.364 0 0 1-.187.186l.514.514.186-.187-.513-.514z"/>
        <g transform="translate(12.271 .233)" fill="#FFC112">
            <path d="M.618 7.515v.28c.7-.047 1.26.046 1.913.093v-.373a6.571 6.571 0 0 0-1.913 0zM.711 5.974l-.187-.14c-.14 0-.28.094-.373.234-.42.513.14 1.073.42 1.307h.093c.14 0 .327-.047.467-.047 0-.56-.093-1.074-.42-1.354zM2.625 5.834l-.187.14c-.327.28-.373.794-.42 1.354.14 0 .327.047.467.047h.093c.28-.234.84-.794.42-1.307a.384.384 0 0 0-.373-.234z"/>
            <circle cx="1.598" cy="5.554" r="1"/>
            <path d="M1.271 7.281h.654c0-.607.093-1.167.466-1.447l-.466.14-.094-.14c-.046.047-.14.047-.186.047-.094 0-.14-.047-.187-.047l-.093.14-.467-.14c.28.327.373.887.373 1.447zM1.411 5.18h.327l-.047-.186.234.047v-.327l-.234.047.047-.187h-.327l.094.187-.234-.047v.327l.234-.047zM10.793 7.468h-.047a4.875 4.875 0 0 0-1.167 0h-.046c-.094 0-.187 0-.28.047v.373c.606 0 1.166-.14 1.866-.093v-.28c-.14-.047-.233-.047-.326-.047zM11.586 6.021c-.093-.14-.233-.187-.373-.233l-.187.186c-.327.28-.373.794-.42 1.354.14 0 .327.047.467.047h.093c.28-.234.84-.794.42-1.354zM9.3 5.974l-.187-.14c-.14 0-.28.047-.42.234-.42.513.14 1.073.42 1.307h.093c.14 0 .327-.047.467-.047 0-.56-.047-1.074-.374-1.354z"/>
            <circle cx="10.139" cy="5.554" r="1"/>
            <path d="m9.86 6.021-.467-.14c.373.28.466.84.466 1.447h.654c0-.607.093-1.167.466-1.447l-.466.14-.094-.14c-.046.047-.14.047-.186.047-.094 0-.14-.047-.187-.047l-.187.14zM10 5.18h.326l-.093-.186.233.047v-.327l-.233.047.093-.187h-.327l.047.187-.233-.047v.327l.233-.047zM3.185 2.8v.28l.233.094V2.94zM5.845 4.34c-1.26 0-2.287.327-2.287.7v.608c.374-.374 1.354-.514 2.287-.514.934 0 1.867.187 2.287.514V5.04c0-.374-1.026-.7-2.287-.7zM7.012 3.08c.187-.793.84-1.213 1.494-1.353-.7-.14-1.494.187-1.774.653-.14.234-.233.514-.327.747a.91.91 0 0 1 .607-.046zM4.678 3.08c.234-.046.42-.046.607.047-.093-.28-.186-.56-.327-.793-.28-.42-1.073-.794-1.773-.654.653.187 1.307.607 1.493 1.4z"/>
            <path d="M3.652 5.834c.14.14.373.28.7.374.046-.234.046-.467.093-.747-.373.093-.653.233-.793.373zM5.985 5.274h-.28c0 .374-.046.747-.14 1.074h.56c-.046-.327-.093-.654-.14-1.074zM7.292 5.46c0 .281.047.514.094.748.326-.094.56-.234.7-.374-.14-.14-.42-.28-.794-.373z"/>
            <circle cx="5.845" cy="1.68" r="1"/>
            <path d="M5.565 1.074h.514l-.14-.42.42.14V.28l-.42.14.14-.42h-.514l.187.42-.467-.14v.513l.467-.14zM8.319 3.174l.233-.093V2.8l-.186.14z"/>
            <path d="M9.3 2.24c-.094-.186-.234-.28-.42-.373-.701.047-1.494.42-1.681 1.354v.093l-.093-.047c-.28-.093-.514-.046-.747.094-.047.186-.094.326-.094.42-.046.186-.233.28-.373.28-.14 0-.327-.14-.373-.28 0-.047-.047-.187-.094-.374-.186-.14-.467-.14-.747-.093l-.093.047v-.094c-.187-.933-.933-1.307-1.68-1.353a3.02 3.02 0 0 0-.42.373c-.654.98.607 2.147 1.073 2.52.327-.42 1.354-.606 2.334-.606 1.027 0 2.054.233 2.334.606.42-.42 1.68-1.586 1.073-2.567zm-6.208.98-.094-.046V2.52l.28.14.234.094.093.046v.654l-.28-.14-.233-.093zm.42 1.12c-.094 0-.14-.046-.14-.14 0-.093.046-.14.14-.14.093 0 .14.047.14.14 0 .047-.047.14-.14.14zm.7-.28c-.094 0-.14-.046-.14-.14 0-.093.046-.14.14-.14.093 0 .14.047.14.14 0 .047-.094.14-.14.14zm.7-.186c-.094 0-.14-.047-.14-.14 0-.093.046-.14.14-.14.093 0 .14.047.14.14 0 .093-.047.14-.14.14zm1.913 0c-.093 0-.14-.047-.14-.14 0-.093.047-.14.14-.14.094 0 .14.047.14.14 0 .093-.093.14-.14.14zm.7.187c-.093 0-.14-.047-.14-.14 0-.094.047-.14.14-.14.094 0 .14.046.14.14 0 .046-.046.14-.14.14zm.7.28c-.093 0-.14-.047-.14-.14 0-.094.047-.14.14-.14.094 0 .14.046.14.14 0 .046-.046.14-.14.14zm-.093-.887V2.8l.094-.046.233-.094.28-.14v.654l-.093.047-.234.093-.28.14z"/>
            <circle cx="5.845" cy="3.641" r="1"/>
            <path d="M5.565 3.314c.094-.093.187-.093.28-.093a.5.5 0 0 1 .28.093c.047-.28.187-.7.42-1.074 0 0 0-.046.047-.046 0-.14-.093-.234-.233-.327-.094.187-.28.373-.56.373a.606.606 0 0 1-.56-.373.315.315 0 0 0-.187.28c0 .047.047.047.047.093.28.42.42.794.466 1.074z"/>
        </g>
        <g fill="#E0E0E0">
            <path d="M31.045 23.477c-4.62 2.474-8.681 4.761-12.835 6.815l.093.14v.046c4.2-1.82 8.635-3.827 13.209-6.114a3.228 3.228 0 0 0-.467-.887zM16.903 31.039l-.047-.094c-.933.467-1.913.887-2.847 1.307.934-.373 1.914-.747 2.894-1.213zM32.165 24.27c-4.387 2.194-9.054 4.341-13.768 6.395l1.073 2.24c4.667-1.96 9.428-3.827 14.002-5.367-.186-1.167-.653-2.24-1.307-3.267zM8.688 34.492l.234.7c.046.14-.094.28-.094.467.047.654-.373 1.12-.373 1.12l-.233.187-.094-.28-.607-1.773c0 .046-.046.046-.093.046l.374 1.074c.14.466-.094 1.12-.14 1.12l-.094.187-.187-.047s-.466-.327-.7-.934c-.046-.093-.14-.093-.186-.186l-.234-.747c-.046 0-.093.047-.186.047l.56 1.68.093.28h-.28c-.047 0-.56 0-.98-.607-.047-.093-.28-.046-.327-.187l-.233-.746c-.56.186-1.074.373-1.634.56.187 1.26.607 2.38 1.354 3.267 1.307-.653 2.66-1.307 4.06-1.96 0-.047.047-.14.094-.234l.56-.933s-.094-.28-.047-.607c.42.093.747.28.887.56a.797.797 0 0 1-.047.56 201.535 201.535 0 0 1 7.888-3.5l-1.027-2.38c-2.753 1.166-5.554 2.286-8.308 3.266z"/>
        </g>
        <path d="M8.128 30.945s-.046 0 0 0a11.006 11.006 0 0 1-1.307-.187l.047-.186c.327.093.653.14 1.027.186-.654-.606-.747-1.493-.514-2.38l-1.82-.887c-.56.794-1.307 1.12-2.194.98.794.84 1.68 1.494 2.754 1.867l-.046.187c-1.167-.42-2.147-1.12-2.988-2.1-.28-.047-.56-.187-.84-.327.467 2.194 5.088 4.387 6.721 3.22a3.502 3.502 0 0 1-.84-.373z" fill="#E2E2E2"/>
        <g fill="#A5A5A5">
            <path d="m4.441 24.69-.233-.093c-.234-.093-.467 0-.56.187-.094.233 0 .467.186.56l.187.094c.093-.187.233-.28.42-.28a.795.795 0 0 1 0-.467zM32.866 38.226l-.234-.14c-.093.14-.233.28-.42.28a.424.424 0 0 1 0 .467l.28.14c.234.093.467 0 .56-.187a.449.449 0 0 0-.186-.56z"/>
        </g>
        <g fill="#939393">
            <path d="m29.803 38.883 1.265-2.655.674.321-1.265 2.655zM7.658 28.298l1.265-2.654.674.32-1.264 2.656zM4.728 26.94l1.264-2.655.674.32-1.264 2.656zM11.302 26.791l3.034 4.714.467.234c.14-.047.233-.094.373-.187l-2.707-4.2-1.167-.56zM16.763 29.405l.7 1.073c.187-.093.42-.186.607-.28l-.14-.233-1.167-.56zM19.563 33.046l.094.186-.187.094-.14.046.42.7 1.12.56-1.073-1.68a.357.357 0 0 1-.234.094zM22.177 31.972l3.034 4.714.467.233c-.14-.373 0-.653.046-.7l-2.38-3.687-1.167-.56zM28.572 35.006l-.187-.047-.84 1.914-.094-.094-.373.794.653.327.374-.794c-.047-.187-.187-.653 0-1.027l.467-1.073z"/>
        </g>
        <g fill="#DBDBDB">
            <path d="m8.688 28.285-.186.326 5.414 2.568-.42-.607zM12.609 29.172l-3.547-1.727-.327.653 4.574 2.194zM11.675 27.725l-2.24-1.074-.28.654 3.267 1.54zM11.162 26.884l-.047-.046-1.446-.7-.14.326 1.96.934zM4.068 26.044l-.047.047c-.093.187 0 .373.187.467l.373.186.14-.326-.467-.234c-.046-.046-.093-.093-.186-.14zM5.618 27.233l.16-.337 1.897.903-.161.337zM4.208 25.53c-.094.188 0 .374.186.468l.467.233.28-.653-.467-.234c-.186-.046-.42 0-.466.187zM5.854 26.734l.301-.632 1.897.903-.301.632zM4.628 24.737c-.094.187 0 .374.186.467l.42.187.28-.654-.42-.14c-.186-.093-.373-.046-.466.14zM6.235 25.88l.301-.633 1.896.903-.3.632zM4.954 24.364c.094 0 .14 0 .234.047l.42.186.14-.326-.374-.187c-.186-.093-.373 0-.466.187.046.046.046.046.046.093zM6.612 25.085l.16-.337 1.897.904-.16.337zM20.73 34.026l.327.513.047.047 3.687 1.773-.373-.606zM27.959 37.863l.16-.337 1.728.823-.16.337zM16.95 30.012l-.374-.514-.046-.093-3.641-1.727.373.607zM32.399 36.966l-.56-.28-.14.327.653.327c.094.046.14.093.187.14l.047-.047c.093-.187 0-.373-.187-.467zM31.465 39.113l-.606-.28-.187.327.513.233c.187.094.374 0 .467-.186 0-.047 0-.047.047-.094-.094.047-.187.047-.234 0zM31.839 38.32l-.607-.28-.28.653.607.28c.186.094.373 0 .466-.187.047-.186 0-.373-.186-.466zM32.259 37.526l-.654-.326-.28.653.654.327c.186.093.373 0 .467-.187.093-.187 0-.373-.187-.467zM15.13 31.132l.466.233c.28-.14.56-.233.84-.373l-2.007-.98.7 1.12zM13.45 28.565l.7 1.12 2.473 1.167c.233-.094.42-.187.653-.327l-.14-.233-3.687-1.727zM18.957 33.559l.373.187-.187-.28zM22.037 32.065c-.14.047-.28.094-.467.14l.794.374-.327-.514zM22.55 32.905l-1.213-.56c-.28.14-.56.234-.887.374l2.8 1.353-.7-1.167zM23.484 34.352l-3.267-1.54c-.093.047-.14.047-.233.093l.513.84 3.64 1.728-.653-1.12zM27.125 34.866l.186-.327-3.547-1.68.374.607zM27.078 35.1l-2.707-1.354.7 1.12 2.007.933c0-.14.047-.28.047-.373-.047-.14-.14-.187-.047-.327zM25.258 35.193l.56.886c.327-.28.793-.233.793-.233l-.14.467.14.28.607.28.14-.234a1.494 1.494 0 0 1-.233-.606l-1.867-.84zM26.985 37.34l.14-.28-.374-.187zM29.785 35.706l-.187-.093-.186.373.233.093zM29.552 36.22l-.187-.094-.093.187c-.047.093-.14 0-.327.373l.28.14.327-.607zM30.299 37.34l.28-.56c-.047.046-.187 0-.234.093-.093.14-.28.327-.327.327l.28.14zM29.318 37.433h-.28l.094-.28.046-.093-.28-.187c-.233.28-.606.513-.606.513l1.68.794.28-.654-.42-.186c-.28.046-.467.093-.514.093z"/>
        </g>
        <path d="M18.21 34.4a1.355 1.355 0 0 0 0 2.706 1.355 1.355 0 0 0 0-2.707zm.327.84c.093 0 .093-.094.046-.14.047-.094.094 0 .094.046 0 0 .093 0 .093.047 0 .046-.047.046-.047.14 0 0-.093-.047-.046 0 0 0-.047 0-.047-.047s.047-.047.047-.093c0-.047-.094-.047-.094-.047.047.047.047.14-.046.093 0 .047 0 0 0 0zm-.14.466h-.327c.093-.093 0-.327-.187-.327-.047 0-.047.047-.047.047v-.047c0-.093.234-.046.327-.093 0 .047-.046.093-.046.093.046.047.093.14.14.28 0-.14.046-.233.14-.28-.047 0-.094-.046-.047-.093.093.047.327 0 .327.093v.047s0-.047-.047-.047c-.233 0-.373.234-.233.327zm.14-.233h-.094l.047-.047s.047 0 .047.047zm-.28.56s.046-.047.046 0c0 .046-.046.046-.046.046l-.094-.28h.047s.047-.046.093 0v.047-.047.094c.047 0 .047 0 .047.046 0-.046-.047-.046-.047-.046-.046.093-.046.093-.046.14zm-.14-.094s0 .047 0 0c0 0-.047 0 0 0l-.047-.046s.047 0 .047.046c0-.046.046-.046.046-.046-.046 0-.093 0-.093-.047l.047-.047v-.046l.14.373h-.14s-.047 0-.047-.047v-.046s.047-.047.047-.094zm-.14-.466h-.094c0-.047 0-.047.047-.047 0 0 .046 0 .046.047zm.466-.42v.093-.093zm-.233-.14.047.046-.047.047-.047-.047.047-.046zm-.28.14v.093-.093zm0 .093h.093c.047 0 .047 0 .047.047a.1.1 0 0 0 .093-.094l-.046-.046c-.047-.047 0-.094.046-.094l.047.094.047-.094c.046 0 .093.047.046.094l-.046.046a.1.1 0 0 0 .093.094c0-.047 0-.047.047-.047l.046.047.047-.047c.047 0 .047 0 .047.047l-.047.046h-.093c-.094 0-.14-.046-.14-.093h-.094c0 .047-.046.093-.14.093h-.093s0-.046-.047-.046 0-.047.047-.047zm-.234 0c.047-.047.094-.14.094-.047-.047.047-.047.14.046.14-.093 0-.093-.046-.093-.093 0 0-.093 0-.093.047 0 .046.046.046.046.093 0 0 0 .047-.046.047 0-.047-.047-.047-.047 0 .047-.094-.047-.094-.047-.14.047-.047.14 0 .14-.047zm-.326.467c.046 0 .093 0 .046-.047-.046-.047-.093-.14-.046-.187 0 0 .14.047.093 0-.047-.093-.047-.186 0-.233 0 .047.187.28.373.42 0 0-.046.047-.046.093a.1.1 0 0 0 .093.094h.093v.14c0-.047-.093-.094-.14-.094 0 .047-.046.094-.046.14-.047.047-.094.047-.14 0 0 0 .046-.093 0-.046-.047.046-.094 0-.14-.047.046 0 .046-.047 0-.047-.047 0-.14 0-.14-.093 0 0 .093-.047.046-.047 0 .094-.046.047-.046-.046zm1.307.746c-.047 0-.094 0-.094-.046-.046-.047-.093-.047-.186-.047.046-.047-.047-.093-.094-.047-.046 0-.046.047-.046.094.093 0 .233.093.233.14 0 .046 0 .046-.047.046 0-.093-.046-.093-.046 0 0 .047-.047.047-.047.094 0-.094-.047-.094-.047 0 0 .046-.046.046-.046.046l-.047-.046c0-.094-.047-.094-.047 0-.046 0-.046-.047-.046-.094 0-.093-.047-.093-.047 0-.047 0-.047-.046-.047-.046.047-.047.14-.14.234-.14 0-.047-.047-.094-.047-.094-.047-.046-.093 0-.093.047-.047 0-.14 0-.14.047l.046.046-.047-.046h-.046c-.047 0-.047-.047-.047-.047v-.047l-.187-.14h-.046s-.094 0-.094-.046h.047s-.047-.047 0-.047h.093v-.047c.047 0 .047.094.047.094s.047 0 0 .046l.187.187h.046c.047 0 .14 0 .14-.047-.093-.14 0-.233.047-.233v.093c0 .047.047.047.047.047h.047c.046 0 .093.047.093.047s.047-.047.093-.047h.047c.047 0 .047-.047.047-.047v-.093c.093 0 .186.093.046.233l.094.047c0-.047 0-.047.046-.047l.047.047.047-.047c.046 0 .046.047.046.094-.093 0-.14.046-.186.046zm-.047-.233h.093-.093zm.42-.513c0 .046-.047.14-.093.14-.094 0 0 .046.046.046 0 .047-.046.094-.14.094-.046 0-.046.046 0 .046-.046.047-.093.047-.14.047-.046 0 0 .047 0 .047-.046.046-.093.046-.14 0-.046-.047-.046-.094-.046-.14-.047 0-.094 0-.14.093v-.14h.093a.1.1 0 0 0 .093-.093c0-.047 0-.047-.046-.094.186-.093.326-.373.373-.42.047.047.047.14 0 .234-.047.046.093 0 .093 0 .047.046 0 .14-.046.186-.047-.046.046-.046.093-.046z" fill="#D0D2D3"/>
        <path d="M10.135 5.928c-.373.093-.513.14-.747.233-.42 1.027.374 2.194 1.307 2.754.187-.094.56-.28.98-.234-1.073-.653-1.96-1.586-1.54-2.753zM26.144 5.928c.374.093.514.14.747.233.374 1.027-.373 2.194-1.307 2.754-.186-.094-.56-.28-.98-.234 1.12-.653 1.96-1.586 1.54-2.753zM9.388 7.935c-.793 0-1.867-.794-2.707-.28l.187.653c.887-.373 1.68.56 2.987.233-.187-.233-.327-.42-.467-.606z" fill="#1FC150"/>
        <path d="M10.415 7.375c.094.186.28.373.467.513.467-.607.327-1.82-.56-1.96v.046c-.093.187-.093.374-.14.514.28.233.327.56.233.887z" fill="#099163"/>
        <path d="M26.891 7.935c-.14.186-.28.42-.466.56 1.306.326 2.1-.607 2.987-.234l.186-.653c-.84-.467-1.913.327-2.707.327z" fill="#1FC150"/>
        <path d="M25.864 7.375c-.093-.28-.046-.654.234-.887 0-.14-.047-.327-.14-.514v-.046c-.887.14-.98 1.353-.56 1.96.186-.187.373-.327.466-.513z" fill="#099163"/>
        <path d="M15.783 9.055c1.213-.654 1.96-1.774 2.007-3.547-.327 0-.654.046-.934.093 0 1.167-.373 1.96-1.073 2.474.186-.047.326-.094.467-.14l.466-.234-.233.467c-.187.467-.42.747-.7.887zM20.45 9.055c-.233-.14-.513-.42-.7-.84l-.233-.467.466.233c.14.047.28.094.467.14-.7-.513-1.073-1.307-1.073-2.473-.28-.047-.56-.094-.934-.094.094 1.727.84 2.894 2.007 3.5z" fill="#1FC150"/>
        <path d="m21.617 17.596-.187-.14v-.513h-.466l-.14-.234c-.514-.98-1.494-1.586-2.567-1.586h-.234c-1.073 0-2.1.606-2.567 1.586l-.14.234h-.42v.513l-.187.14c-1.307.98-2.053 2.474-2.053 4.061 0 1.587.746 3.08 2.053 4.06l.187.14v.514h.42l.14.233c.513.98 1.494 1.587 2.567 1.587h.234c1.073 0 2.1-.606 2.567-1.587l.14-.233h.466v-.513l.187-.14c1.307-.98 2.054-2.474 2.054-4.061 0-1.587-.747-3.034-2.054-4.06zm-1.634 8.495H16.25v-.793h.28v-.42h.186v-.374h.327v-2.52h-.467v-1.307h.467v-.234h-.187v-.326h-.186v-.7h.186v-.327h.234v-.234c-.327-.326-.654-.933-.327-1.353.327-.42.98-.14.98-.14v-.233h-.047l.047-.094-.093.047v-.747l.093.047-.047-.094h.747l-.046.094.093-.047v.747l-.093-.047.046.094h-.046v.233s.7-.28.98.14c.326.467 0 1.027-.28 1.353v.234h.233v.327h.233v.7h-.186v.326h-.187v.234h.467v1.307h-.467v2.52h.327v.373h.186v.42h.28v.794z" fill="#099163"/>
        <g transform="translate(16.436 16.336)" fill="#FFD400">
            <path d="M.793 2.287h.467c0-.42-.093-.933-.327-1.167L.793.98c-.14 0-.233.047-.326.187-.28.42.093.933.326 1.12zM.607 2.847h2.147v1H.607z"/>
            <path d="M.42 3.174h2.474v1H.42z"/>
            <path d="M.84 4.014h1.727v1H.84zM.84 2.427h1.68v1H.84zM2.52 2.287c.234-.233.607-.7.327-1.073-.093-.14-.187-.187-.327-.187l-.14.14c-.233.187-.326.747-.326 1.167h.466v-.047zM1.54.513h.28L1.774.327l.14.046V.14l-.14.047L1.82 0h-.28l.047.187L1.4.14v.233l.187-.046z"/>
            <circle cx="1.68" cy=".793" r="1"/>
            <path d="M1.4 2.287h.514c0-.467.093-1.027.373-1.26l-.373.14-.047-.14c-.047.047-.093.047-.187.047-.046 0-.14 0-.186-.047l-.047.14-.373-.14c.28.233.326.793.326 1.26zM.607 3.687h2.147v1H.607zM.467 8.355h2.38v1H.467z"/>
            <path d="M.28 8.681h2.8v1H.28z"/>
            <path d="M0 9.102h3.361v1H0zM2.567 8.215v-2.66H.84v2.613h1.727v.047zm-.42-2.38h.14V7.84h-.14V5.834zm-.513 0h.14V7.84h-.14V5.834zm-.514 0h.14V7.84h-.14V5.834zM1.167 5.076h.047v-.108z"/>
            <path d="M.327 4.48v1.083h2.66V4.48H.327zm.513.812c-.047 0-.093 0-.14-.054V5.13h.047l.046.054H.84c.047 0 .093 0 .093-.054s0-.054-.093-.054H.793c.047 0 .047 0 .047-.054s-.047-.054-.047-.054H.747v.054H.7v-.108c.047 0 .093-.055.14-.055.093 0 .14.055.14.109s0 .108-.047.108c.047 0 .047.054.047.108s-.093.108-.14.108zm.607-.054H1.26v-.054h.047L1.26 5.13h-.14v.054h.047v.054h-.14v-.054h.046l.14-.379h.047l.187.433zm.42.054h-.14l-.14-.216v.108h.047v.054h-.187v-.054h.047v-.325h-.047v-.054h.187v.054h-.047v.163l.093-.163v-.054h.14v.054h-.046l-.094.109.14.216.047.108c0-.054 0-.054 0 0zm.187 0c-.14 0-.187-.108-.187-.216 0-.162.047-.217.187-.217s.186.109.186.217-.093.216-.186.216zm.606 0h-.186v-.054h.046v-.162h-.14v.108h.047v.054H2.24v-.054h.047v-.325H2.24v-.054h.187v.054H2.38v.109h.14v-.109h-.046v-.054h.186v.054h-.046v.325l.046.108c0-.054 0-.054 0 0z"/>
            <path d="M2.054 4.86c-.047 0-.094.054-.094.162 0 .108.047.162.094.162.046 0 .093-.108.093-.162-.047-.054-.047-.163-.093-.163z"/>
        </g>
        <g fill="#FFE000">
            <path d="M28.618 34.82c.047 0 .047 0 0 0a.595.595 0 0 0-.186-.28c0 .046.046.14 0 .186l.186.093zM15.55 34.82c0 .42.046.84.14 1.26.326-.14.653-.28.933-.514.047-.467.327-.887.747-1.12.046-.14.093-.327.14-.467l-1.96.84zM18.07 33.699l-.327.14c-.047.14-.093.327-.14.467.187-.047.373-.094.56-.094.187 0 .374.047.56.094l-.14-.56-.42.186-.093-.233zM19.003 34.4c.42.232.7.653.747 1.12.28.233.607.42.934.513.093-.467.186-.887.14-1.26l-2.007-.98c.046.233.093.42.186.606zM17.51 37.153c.14.327.373.793.653 1.027.28-.234.56-.7.7-1.027-.233.233-1.073.233-1.353 0zM9.435 36.173l.187.887-.234-.327-.466.793c-.14.187-.047.327.14.234l.186-.047c.187-.047.467-.28.56-.513l.094-.14c.42-.7-.467-.887-.467-.887zM5.795 36.5l.42-.047-.374-1.12c-.046-.187-.233-.28-.42-.234l-.14.047c-.187.047-.28.233-.233.42l.233.747c.047.093.28.046.327.186.327.607.84.607.84.607l-.14-.467-.513-.14zM8.735 35.146l-.187-.607c-.046-.187-.233-.28-.42-.233l-.14.046c-.187.047-.28.234-.233.42l.327 1.027.466-.42-.373.654.047.093.14.467s.42-.56.326-1.027c-.093-.14.094-.233.047-.42zM7.195 34.913a.317.317 0 0 0-.374-.187l-.233.093a.317.317 0 0 0-.187.374l.28.84.654.326h-.42c.093.42.326.607.606.794 0 0 .234-.56.094-.98l-.42-1.26zM26.798 34.072l.56.28a.584.584 0 0 1 .653-.233l.14.047h.047c-1.027-1.214-1.68-2.38-1.82-3.874l-1.867.747c.093.28.233.56.373.84l.514-.607.14.14-.56.653.28.42.42-.513.14.14-.467.56c.093.14.187.28.327.374l.42-.467.14.14-.42.513c.233.327.56.607.98.84zM8.268 34.12c.14 0 .28.092.374.186l1.307-.514c.233-.14.42-.326.606-.513l-.466-.56.14-.14.466.56c.094-.14.187-.233.327-.374l-.607-.606.14-.14.467.606.28-.42-.607-.746.14-.14.56.653c.28-.56.467-1.073.514-1.54l-1.914-.887c0 1.774-.607 3.22-1.727 4.574zM1.78 9.242v-.514l.327.42c.28.374.56.7.84.98a4.673 4.673 0 0 1-.373-1.493C1.734 7.42 1.034 6.255.8 5.368c-.513 2.427.14 4.06 1.214 5.367a5.01 5.01 0 0 1-.233-1.493zM6.261 17.783c-.046-.047-.046-.093-.093-.14l-.28-.42.467.14c.326.093.7.14 1.12.14-.747-.187-1.494-.56-2.007-1.4-1.307-.607-2.614-1.587-3.454-2.754-.327-.233-.654-.467-.934-.794.56 2.428 2.94 4.528 5.181 5.228z"/>
            <path d="M6.961 15.823a3.48 3.48 0 0 1-1.68-1.447c-.98-.514-2.1-1.354-2.8-2.567-.42-.327-.794-.7-1.214-1.167.093 2.38 2.054 4.2 4.06 5.18-.046-.046-.046-.093-.093-.186l-.186-.42.42.187c.513.233 1.027.326 1.493.42zM5.421 12.555c-.047-.14-.047-.28-.093-.42l-.047-.42.327.234c.373.28.747.466 1.12.653-.327-.28-.607-.747-.653-1.4-1.634-.794-2.38-1.774-3.408-2.987.14 2.147 1.354 3.36 2.754 4.34zM8.875 21.284c.187-.28.42-.514.7-.654-.42.047-.84.047-1.26.047-1.354 0-2.567-.28-3.594-.794-.327.094-.607.187-.887.374.934 1.027 2.847 1.447 5.041 1.027z"/>
            <path d="M10.322 21.75h-.373c-.327 0-.654-.046-1.027-.093l-.28-.047.093-.14a8.594 8.594 0 0 1-1.54.14c-.467 0-.887-.046-1.307-.093-.654.187-1.12.42-1.307.84 2.1.607 3.874.28 5.74-.607zM10.042 20.35h-.047c-.56 0-1.26-.093-2.1-.28l-.28-.047.14-.233c.046-.093.14-.187.187-.28-2.054-.093-3.734-.84-5.041-2.24-.234.046-.42.14-.56.14 1.773 2.8 4.667 3.36 7.7 2.94z"/>
            <path d="M8.128 19.323c.094-.093.187-.186.28-.233-.84-.187-1.493-.56-1.913-1.074-.934-.233-1.96-.746-2.848-1.493a9.236 9.236 0 0 1-1.633-1.68c-.233-.047-.467-.094-.607-.094 1.4 2.847 3.547 4.48 6.721 4.574z"/>
            <path d="M7.241 12.695c1.867.84 3.641 1.26 3.874 3.268-.793-2.614-3.127-2.194-5.6-3.874.093.98.793 1.633 1.866 2.053 1.354.467 2.708.887 3.22 2.24-1.446-2.1-3.686-1.493-5.46-2.846a3.195 3.195 0 0 0 2.66 2.287c1.167.28 1.774.466 2.38 1.353-1.26-1.307-3.126-.933-4.807-1.633 1.027 2.38 3.454 1.633 4.855 2.613-1.214-.56-2.894-.28-3.921-.606.513.793 1.353 1.213 2.287 1.4.513-.327 1.073-.327 1.68-.374.234 0 .514-.046.747-.046-.7-.747-.56-2.054.653-2.007.14-4.294-3.827-4.014-5.367-5.881-.14 1.167.42 1.773.933 2.053zM14.336 9.008c.467.187 1.447.28 2.007-.887-.42.234-.98.234-1.447.187-.653-.047-1.307-.187-2.007-.14-.187 0-.513.187-.56.42 1.213-.233 1.54.234 2.007.42zM17.09 11.669c0 .373 0 .746-.187 1.026l-.233.374-.094-.42-.14-.42c-.093.28-.186.56-.373.793l-.28.42-.047-.513c0-.093 0-.14-.047-.234-.046.187-.14.374-.28.56l-.046.094c-.047.327-.094.653-.14.84.42-.093.933-.653 1.12-1.12.093.28.28.653.467.793.326-.373.42-.84.513-1.4.187.28.42.374.84.42.42-.046.654-.187.84-.42.047.56.187 1.027.514 1.4.14-.14.373-.513.466-.793.187.42.7 1.027 1.12 1.12-.046-.187-.093-.513-.14-.84l-.046-.047a1.577 1.577 0 0 1-.28-.56c0 .047 0 .14-.047.234l-.093.466-.28-.42c-.187-.233-.28-.513-.374-.793l-.14.42-.093.42-.233-.374c-.187-.28-.187-.653-.187-1.026-.233.233-.513.42-.747.56-.046.233-.186.466-.326.653-.14-.187-.234-.467-.327-.653-.187-.14-.467-.327-.7-.56z"/>
            <path d="M15.69 9.148c-.794.42-1.447.094-1.82-.186-.468-.327-.934-.327-1.401-.234.887.56.56 1.587 1.167 1.867.28.187.933.607 1.213 1.354.14-.234.28-1.074-.466-2.007.186.093.42.373.42.373.466.28.84.607 1.073.98.093-.56-.187-1.073-.653-1.633.746.886 1.587.933 2.147.746-.654-.046-1.354-.7-1.68-1.26zm-2.801-.28c.14 0 .42-.046.84.187-.14.14-.467.373-.84-.187z"/>
            <path d="M15.923 10.548c.093.234.14.514.093.84l-.093.514-.28-.42a2.5 2.5 0 0 0-.7-.7c.186.56.14.98.046 1.26.14.373.234.794.234 1.167.28-.42.373-.84.373-1.307.14.327.233.653.28 1.027.28-.42.42-.84.467-1.307.187.327.327.653.373.98.234-.327.14-.933.094-1.447.326.374.84.84 1.166.98-.186-.513-.56-.98-.933-1.353-.047-.047-.7.047-1.12-.234zM14.43 15.263c-1.168.606-1.12 1.773-1.728 2.007.14.046.234.093.374.093.14-.14.233-.327.326-.513.374-.56.794-1.26 1.914-1.54 0-.047-.047-.094-.047-.14-.186.046-.326.093-.466.093h-.374zM7.381 14.376c-.933-.374-1.54-.887-1.82-1.54-.933-.56-1.727-1.26-2.334-2.148-.466-.42-.84-.886-1.26-1.4 0 2.38 1.54 3.92 3.174 4.808-.047-.14-.14-.327-.187-.467l-.14-.56.42.327c.7.513 1.4.746 2.147.98z"/>
            <path d="M1.08 10.688v-.56l.374.42c.327.42.653.7.98.98l-.56-.7a6.725 6.725 0 0 1-1.26-2.427l-.28-.56c-.514 2.474.373 3.688 1.4 4.901a4.442 4.442 0 0 1-.654-2.054zM9.855 25.158c-.233.14-.467.233-.747.326l.607.28c0-.14.093-.373.14-.606zM10.929 26.511l.186.093.14-.093.327.14v-.84c-.187.233-.42.513-.653.7zM12.562 27.118l.234.093.14.234.373.186a5.488 5.488 0 0 1-.14-1.26c-.187.28-.373.514-.607.747zM5.935 24.037l.653.327c1.447-.047 2.614-.653 3.78-1.4v-.047c0-.42.28-.933.514-1.26-1.214.653-2.287 1.027-3.36 1.167-.747.373-1.354.747-1.587 1.213zM34.172 9.148l.327-.42v.514a5.01 5.01 0 0 1-.233 1.493c1.073-1.307 1.727-2.94 1.213-5.367-.233.886-.933 2.053-1.773 3.267a5.011 5.011 0 0 1-.374 1.493l.84-.98zM30.765 16.15c-.513.84-1.26 1.166-2.007 1.4.42-.047.84-.047 1.12-.14l.467-.14-.28.42c-.047.046-.047.093-.093.14 2.24-.7 4.62-2.8 5.134-5.181-.327.28-.654.56-.934.793-.793 1.167-2.1 2.1-3.407 2.707z"/>
            <path d="M30.952 15.87c2.007-1.027 3.967-2.848 4.06-5.182-.373.467-.793.84-1.213 1.167-.7 1.214-1.867 2.007-2.8 2.567-.327.607-.887 1.12-1.68 1.447.513-.093.98-.186 1.493-.373l.42-.187-.187.42c-.046 0-.046.094-.093.14zM29.505 12.602c.373-.187.747-.373 1.12-.653l.327-.234-.047.42c0 .14-.046.28-.093.42 1.447-.933 2.614-2.193 2.707-4.294-.98 1.214-1.727 2.194-3.407 2.988 0 .606-.28 1.073-.607 1.353zM27.965 20.677c-.374 0-.794 0-1.26-.047.233.14.466.374.7.654 2.193.42 4.107.046 5.04-.98-.28-.187-.56-.327-.886-.374-1.027.467-2.24.747-3.594.747z"/>
            <path d="M30.392 21.517c-.42.093-.84.093-1.307.093a8.594 8.594 0 0 1-1.54-.14l.093.14-.28.047c-.373.093-.7.093-1.027.093h-.373c1.82.887 3.64 1.214 5.694.607-.14-.42-.607-.653-1.26-.84zM28.338 19.51c.047.093.14.187.187.28l.14.233-.28.047c-.84.187-1.54.28-2.1.28h-.047c2.987.42 5.927-.14 7.701-2.894-.14-.046-.373-.093-.56-.14-1.354 1.354-3.034 2.1-5.04 2.194z"/>
            <path d="M32.679 16.57a8.815 8.815 0 0 1-2.847 1.493c-.467.513-1.12.887-1.914 1.074.093.093.187.14.28.233 3.174-.14 5.321-1.774 6.768-4.527-.14 0-.373.046-.607.093-.513.56-1.027 1.12-1.68 1.633z"/>
            <path d="M25.211 18.53c.28.046.513.046.747.046.607.047 1.167.047 1.68.374.934-.187 1.774-.607 2.287-1.4-1.027.326-2.66.046-3.92.606 1.4-.98 3.827-.233 4.807-2.52-1.68.7-3.547.327-4.808 1.634.607-.887 1.214-1.074 2.38-1.354 1.681-.28 2.428-1.447 2.661-2.287-1.773 1.354-4.014.747-5.46 2.847.56-1.4 1.866-1.82 3.22-2.24 1.073-.42 1.774-1.074 1.867-2.054-2.474 1.68-4.808 1.26-5.601 3.874.233-2.007 2.054-2.474 3.874-3.267.513-.327 1.027-.934.933-2.054-1.54 1.82-5.507 1.587-5.367 5.881 1.307-.14 1.447 1.167.7 1.914zM21.944 9.008c.467-.233.793-.653 2.007-.42-.047-.233-.327-.42-.56-.42-.7-.047-1.354.093-2.007.14-.467.047-1.027.047-1.447-.187.56 1.167 1.54 1.074 2.007.887zM19.423 11.155c-.046.514-.14 1.12.094 1.447.093-.327.233-.7.373-.98.047.467.187.887.467 1.307.047-.374.14-.7.28-1.027 0 .467.093.934.373 1.307 0-.42.047-.794.234-1.167-.094-.28-.14-.7.046-1.26-.28.187-.513.467-.7.7l-.28.42-.093-.513c-.047-.28 0-.56.093-.84-.42.233-1.073.186-1.167.186-.373.374-.7.84-.933 1.354.42-.14.887-.56 1.213-.934zM21.85 15.263l-.186.046h-.14c-.14 0-.327-.046-.467-.093 0 .047-.047.093-.047.14 1.12.233 1.54.933 1.914 1.54.093.187.233.374.327.514.14 0 .233-.047.373-.094-.653-.28-.607-1.447-1.774-2.053z"/>
            <path d="M31.139 14.096c1.633-.934 3.173-2.474 3.173-4.808-.42.56-.84.98-1.26 1.4-.56.934-1.4 1.634-2.287 2.194-.28.654-.887 1.12-1.773 1.494h-.047c.7-.187 1.447-.42 2.1-.934l.42-.326-.14.56c-.046.093-.14.233-.186.42z"/>
            <path d="M33.846 11.529c.326-.28.653-.607.98-.98l.373-.42v.56c-.046.746-.233 1.493-.606 2.147 1.026-1.26 1.913-2.428 1.4-4.901l-.28.56c-.234.887-.654 1.68-1.26 2.427l-.607.607zM30.112 23.757c-.28-.326-.794-.606-1.354-.933-1.073-.14-2.147-.514-3.36-1.167.28.327.513.84.513 1.26v.047c1.027.653 2.054 1.167 3.267 1.307a5.98 5.98 0 0 1 .934-.514zM26.985 25.438l-.56-.28c.046.186.046.373.093.513.187-.047.327-.14.467-.233zM25.258 26.418l-.56-.56a2.52 2.52 0 0 1 0 .84l.56-.28zM22.924 27.631c.28-.14.56-.326.887-.466-.234-.28-.467-.514-.654-.794-.046.514-.093.934-.233 1.26zM28.291 24.737a4.944 4.944 0 0 0-.466-.56c-.747-.233-1.4-.653-2.1-1.073h-.281c-.42 0-.886-.14-1.26-.374 0 .094-.047.14-.047.234.887 1.027 1.82 1.914 3.081 2.38.373-.233.747-.42 1.073-.607zM26.331 25.811c0-.233-.047-.467-.14-.747-.793-.467-1.493-1.12-2.1-1.867l-.28.84a6.073 6.073 0 0 0 1.633 2.287c.28-.186.607-.326.887-.513zM24.464 25.578a5.515 5.515 0 0 1-.747-1.354 4.736 4.736 0 0 1-.886 1.26c.28.56.653 1.074 1.12 1.587l.56-.28c.047-.327 0-.747-.047-1.213zM22.924 26.091a1.892 1.892 0 0 1-.233-.42c-.187.187-.374.373-.607.513v.84l.56.7c.233-.373.327-.933.28-1.633zM21.384 27.071c-.14.187-.234.42-.42.56.14.234.326.514.513.747.14-.093.28-.14.42-.233.093-.234.187-.467.233-.794a1.418 1.418 0 0 1-.233-.326h-.513v.046zM20.824 27.771c-.28.28-.607.56-.98.747l.56.42c.233-.14.513-.233.746-.373 0-.14-.046-.234-.093-.374-.093-.14-.14-.28-.233-.42zM20.123 29.078v-.093a3.27 3.27 0 0 1-.466-.374c-.327.14-.7.234-1.12.28.14.28.28.514.466.747l1.12-.56zM18.35 28.892H17.93c-.094.233-.28.466-.374.7l.514.233a.865.865 0 0 0 .093-.327c.047.187.094.327.14.514l.56-.28c-.186-.28-.373-.56-.513-.84zM16.156 29.032l.327.14.093-.047.747.373c.14-.186.28-.42.373-.606a4.923 4.923 0 0 1-1.12-.28c-.093.093-.28.326-.42.42zM16.436 28.518c-.373-.187-.7-.42-.98-.747-.093.14-.14.28-.233.374 0 .093-.094.28-.094.326l.887.42c.094-.046.28-.28.42-.373zM14.896 27.071h-.467c-.093.094-.14.234-.233.327 0 .233.047.56.093.7l.607.28c.14-.187.373-.56.467-.747-.187-.186-.327-.373-.467-.56zM14.243 26.885v-.7c-.234-.187-.42-.374-.607-.56-.094.14-.187.326-.28.466-.047.653 0 1.307.186 1.68l.094.047c.186-.233.42-.607.56-.84v-.093h.047zM12.609 24.177c-.233.467-.467.934-.794 1.4-.046.467-.093.887-.046 1.214l.607.28c.466-.513.84-1.027 1.12-1.587a5.877 5.877 0 0 1-.887-1.307zM12.189 23.15c-.654.747-1.354 1.447-2.147 1.914-.093.327-.187.7-.187.98l.934.42c.793-.653 1.353-1.633 1.727-2.52-.14-.233-.234-.513-.327-.793z"/>
            <path d="M12.142 22.917c0-.046-.046-.14-.046-.187-.42.234-.84.42-1.307.42h-.28c-.654.42-1.354.794-2.1 1.074-.234.28-.56.607-.748.84l.934.467c1.494-.513 2.614-1.494 3.547-2.614zM28.338 19.93c-1.213-1.867-2.754-.56-4.62-1.727-.14.093-.327.093-.56.14a5.5 5.5 0 0 1 .98 2.287c.606.934 1.866 1.074 3.08.84-.42-.7-.98-.933-1.634-1.073-.746-.234-1.353-.514-1.54-1.307.654 1.353 2.614 1.167 4.294.84zM25.678 22.917c0-.467-.374-1.12-.654-1.307-.373-.14-.606-.326-.793-.606.047.233.047.466.047.653 0 .28-.047.607-.094.887.514.28 1.027.42 1.494.373zM11.209 21.61c-.28.234-.607.84-.654 1.307.514.047.98-.093 1.494-.42-.047-.28-.047-.56-.047-.84 0-.233 0-.513.047-.747-.187.327-.42.514-.84.7zM10.602 20.397c-.653.14-1.214.42-1.634 1.073 1.26.234 2.567.094 3.174-.933.14-.794.514-1.54.98-2.194-.233 0-.42-.047-.56-.14-1.82 1.167-3.407-.14-4.62 1.727 1.68.373 3.64.56 4.247-.84-.233.793-.84 1.073-1.587 1.307zM22.084 17.13c.373.28.7.653.98.98.28 0 .513-.047.747-.187-1.26-.233-1.027-2.054-2.94-2.427l-.047.047c.186.186.373.42.513.7H22.084V17.129zM13.262 18.156c.28-.373.607-.7.98-.98v-.887h.654c.14-.28.327-.513.513-.7l-.046-.046c-1.914.42-1.68 2.193-2.94 2.427.28.14.513.186.84.186zM15.456 15.123l.14.28c.187-.187.373-.327.607-.467-.047-.093-.047-.234-.047-.374-.233.28-.467.467-.7.56zM20.17 14.61c0 .14-.047.28-.047.373.234.14.42.28.607.466l.14-.28a2.067 2.067 0 0 1-.7-.56zM17.51 14.47h.186c0-.048-.046-.14-.046-.188-.047.047-.094.14-.14.187zM18.77 14.47a1.02 1.02 0 0 1-.14-.234c0 .093-.047.14-.047.186.047.047.14.047.187.047z"/>
            <path d="M21.01 14.376c-.373-.094-.793-.467-1.027-.84a2.072 2.072 0 0 1-.373.513l-.14.14-.14-.14c-.28-.327-.42-.747-.513-1.167-.187.374-1.26.374-1.4 0a2.153 2.153 0 0 1-.514 1.167l-.14.14-.14-.14c-.14-.093-.233-.28-.373-.513-.28.373-.7.793-1.027.84l-.14.046a2.786 2.786 0 0 1-.42.7c.513.094 1.26-.373 1.633-1.073 0 .373 0 .607.047.84.28-.14.56-.28.887-.327a1.9 1.9 0 0 0 .42-.98c.093.467.14.7.233.887h.467c.093-.187.14-.467.233-.887a1.9 1.9 0 0 0 .42.98c.327.094.607.187.887.327.047-.187.047-.42.047-.84.42.7 1.12 1.167 1.633 1.074a2.786 2.786 0 0 1-.42-.7l-.14-.047z"/>
            <path d="M21.244 26.885h.653v-.794c1.354-1.027 2.24-2.614 2.24-4.434 0-1.774-.886-3.407-2.24-4.434v-.794h-.653a3.369 3.369 0 0 0-2.987-1.82h-.234a3.369 3.369 0 0 0-2.987 1.82h-.607v.794c-1.353 1.027-2.24 2.614-2.24 4.434 0 1.774.887 3.407 2.24 4.434v.794h.607a3.369 3.369 0 0 0 2.987 1.82h.234a3.369 3.369 0 0 0 2.987-1.82zm-2.987 1.54h-.234c-1.167 0-2.194-.654-2.754-1.68l-.093-.14h-.513v-.607l-.094-.094a5.239 5.239 0 0 1-2.1-4.2c0-1.634.793-3.174 2.1-4.201l.094-.093v-.654h.513l.093-.14c.56-1.027 1.587-1.68 2.754-1.68h.234c1.166 0 2.193.653 2.753 1.68l.094.14h.513v.607l.093.093a5.239 5.239 0 0 1 2.1 4.201c0 1.634-.793 3.174-2.1 4.2l-.093.094v.607h-.513l-.094.14c-.56 1.073-1.587 1.727-2.753 1.727zM21.104 9.755c-.467.56-.747 1.074-.654 1.634.234-.374.56-.7 1.074-.98 0 0 .233-.327.42-.374-.747.934-.607 1.727-.467 2.007.28-.793.934-1.213 1.214-1.354.606-.28.28-1.353 1.166-1.866-.513-.094-.98-.094-1.4.233-.373.28-1.027.607-1.82.187-.327.513-1.027 1.213-1.634 1.306.514.094 1.354.047 2.1-.793zm2.287-.887c-.374.514-.654.28-.84.187.42-.187.653-.14.84-.187zM26.425 36.546l-.28.28.28-.887s-.934.094-.56.887l.046.14c.093.234.327.467.514.56l.14.094c.186.093.28 0 .186-.234l-.326-.84zM30.672 35.426l-.14-.047c-.187-.093-.374 0-.467.187l-.513 1.073.42.094-.514.093-.186.467s.513.093.886-.513c.094-.14.28-.047.327-.14l.327-.747c.093-.187.047-.374-.14-.467zM28.291 34.82c.094-.188 0-.374-.186-.468l-.14-.093c-.187-.093-.374 0-.467.187l-.28.56c-.093.187.093.28 0 .467-.14.466.233 1.026.233 1.026l.187-.466.047-.094-.28-.653.42.42.466-.887zM29.552 35.286c.046-.14 0-.327-.14-.373l-.234-.094c-.14-.046-.326 0-.373.14l-.514 1.167c-.186.42 0 1.027 0 1.027.28-.187.514-.373.654-.747l-.373-.047.653-.233.327-.84z"/>
        </g>
    </g>
</svg>
