<svg width="41" height="40" viewBox="0 0 41 40" xmlns="http://www.w3.org/2000/svg">
    <g fill="none" fill-rule="evenodd">
        <path d="M20.165 33.228a13.113 13.113 0 0 1-7.076-2.068l-.502.613c.333.386.612.797.835 1.23 2.82.02 4.946 1.13 6.067 3.055v-.02c0-.374.303-.68.676-.685a.688.688 0 0 1 .677.685v.02c1.12-1.926 3.246-3.035 6.067-3.056a6.28 6.28 0 0 1 .834-1.229l-.502-.613a13.113 13.113 0 0 1-7.076 2.068zm0 6.772a.688.688 0 0 1-.676-.685v-.69l-.226-.031c-2.354 1.518-5.97 1.201-8.235-1.055.1-.056.2-.11.299-.163a6.823 6.823 0 0 1-2.312-.635.826.826 0 0 1-.347.091l-2.52.144c-.69.05-1.002-.23-1.033-.744l-.192-2.521c.007-.56.258-.826.673-.897-2.207-.94-3.975-3.26-4.105-5.951.174.04.345.083.513.13C.332 25.333-.472 22.606.323 20.09c.153.1.302.202.446.307-1.159-2.257-1.05-5.383.617-7.68.155.211.3.424.436.638-.266-2.62 1.244-5.551 3.931-6.848.018.099.034.196.049.293a6.68 6.68 0 0 1 .457-1.032.767.767 0 0 1-.282-.55c-.417-.107-.641-.363-.673-.77-.342.033-.428-.192-.257-.672l.369-1.058 1.218-.192c.444-.049.513.09.529.256.352.123.534.395.545.817.098.022.185.05.261.087a7.154 7.154 0 0 1 3.48-1.606c-.015.13-.032.257-.05.384 1.454-1.721 3.9-2.77 6.378-2.384a10.243 10.243 0 0 1-1.057 1.823 6.778 6.778 0 0 1 1.878.584 9.993 9.993 0 0 1-1.817 1.64c.667.219 1.306.546 1.885.99-1.108.82-2.237 1.343-3.34 1.572a.848.848 0 0 1-1.61.327c-.3.394-.614.752-.94 1.073l.552.7a13.113 13.113 0 0 1 6.837-1.919c2.504.003 4.845.704 6.837 1.92l.552-.7c-.326-.322-.64-.68-.94-1.074a.848.848 0 0 1-1.61-.327c-1.103-.229-2.231-.752-3.34-1.573a6.371 6.371 0 0 1 1.885-.99 9.992 9.992 0 0 1-1.817-1.64 6.778 6.778 0 0 1 1.878-.583A10.243 10.243 0 0 1 22.553.08c2.477-.386 4.924.663 6.379 2.384a11.877 11.877 0 0 1-.051-.384 7.154 7.154 0 0 1 3.48 1.606c.077-.036.164-.065.262-.087.01-.422.192-.694.545-.817.015-.166.084-.305.528-.256l1.218.192.369 1.058c.171.48.085.705-.256.673-.032.406-.257.662-.674.769a.767.767 0 0 1-.282.55c.183.333.336.679.457 1.032.015-.097.031-.194.049-.293 2.688 1.297 4.197 4.228 3.931 6.848.136-.214.282-.427.437-.639 1.667 2.298 1.775 5.424.616 7.68.144-.104.293-.206.446-.306.795 2.517-.008 5.244-1.68 6.902.167-.046.338-.09.513-.13-.13 2.693-1.899 5.012-4.106 5.952.415.07.666.337.674.897l-.193 2.52c-.03.514-.342.795-1.032.745l-2.52-.144a.826.826 0 0 1-.347-.09c-.74.348-1.527.566-2.313.634.1.053.2.107.3.163-2.266 2.256-5.882 2.573-8.236 1.055l-.225.031v.69c0 .374-.304.68-.677.685zm11.38-10.69-.98-1.186a13.12 13.12 0 0 0 2.765-8.075c0-3.234-1.166-6.197-3.1-8.49l.85-1.026a9.64 9.64 0 0 0 .698 1.468.846.846 0 0 0 .796 1.138h.014c.45.521.953.952 1.502 1.287-.29 2.124.033 3.96.883 5.37v.188l-.013-.013c-.958 1.812-1.25 3.568-.912 5.12-1.41 1.293-2.25 2.742-2.504 4.219zm-.168-19.136.022-.026.04.028-.062-.002zm-5.063 24.71-.157.003c.072-.099.14-.2.206-.303-.019.1-.035.2-.05.3zm-5.472 2.821v-.102l.067.003a6.973 6.973 0 0 0-.067.1zM8.786 29.31l.979-1.186A13.12 13.12 0 0 1 7 20.05c0-3.234 1.167-6.197 3.101-8.49l-.85-1.026a9.64 9.64 0 0 1-.698 1.468.846.846 0 0 1-.797 1.138h-.013c-.45.521-.954.952-1.503 1.287.29 2.124-.033 3.96-.883 5.37v.188l.013-.013c.959 1.812 1.25 3.568.912 5.12 1.41 1.293 2.25 2.742 2.504 4.219zm.167-19.136-.022-.026a2.6 2.6 0 0 0-.039.028l.061-.002zm5.064 24.71.156.003c-.071-.099-.14-.2-.206-.303.02.1.036.2.05.3zm5.472 2.821v-.102a7.326 7.326 0 0 1-.067.003l.067.1z" fill="#151616"/>
        <path d="M20.165 31.59c-4.813-.005-8.936-2.959-10.662-7.151h2.223c.076.29.34.505.653.505h.171c.165.273.437.49.77.613v.955c0 .305.25.554.554.554h1.471c.305 0 .555-.25.555-.554v-.675H24.43v.675c0 .305.25.554.554.554h1.471c.305 0 .555-.25.555-.554v-.955c.332-.123.604-.34.769-.613h.17a.678.678 0 0 0 .654-.505h2.224c-1.726 4.192-5.85 7.146-10.663 7.152" fill="#DC2B1C"/>
        <path d="M11.726 24.439H9.503a11.504 11.504 0 0 1-.866-4.39c0-1.514.293-2.96.823-4.285h5.019l-.302.178 1.479.91-3.564 4.018c-.14.202-.266.429-.303.833v.835c0 .334.072.643.323.822a.677.677 0 0 0-.408.62v.29a.67.67 0 0 0 .022.169zm16.878 0h2.224c.557-1.354.865-2.836.865-4.39 0-1.514-.292-2.96-.823-4.285h-5.018l.301.178-1.478.91 3.563 4.018c.14.202.266.429.304.833v.835c0 .334-.073.643-.324.822.24.104.408.343.408.62v.29a.67.67 0 0 1-.022.169z" fill="#00A2D3"/>
        <path d="m20.165 10.147-.756 1.435-1.44-1.023-.228 1.668-1.706-.493.34 1.744-1.63.19.91 1.402-1.176.694h-5.02c1.701-4.248 5.853-7.25 10.706-7.256 4.853.005 9.005 3.008 10.705 7.256h-5.018l-1.177-.694.91-1.403-1.63-.19.34-1.743-1.705.493-.228-1.668-1.44 1.023-.757-1.435z" fill="#FEFEFE"/>
        <path d="M12.235 23.798h4.769v.532h-4.769v-.532zm15.86 0h-4.768v.532h4.768v-.532zm-7.087-8.58h-1.685v.907h1.685v-.908zm2.291 1.426h.505l1.138-.634-1.142-.65c.003.024.004.048.004.073v.404c0 .334-.327.72-.505.807zm.473-1.434.767-1.03-1.34-.202.273-1.355-1.326.331-.259-1.369-1.067.793-.655-1.1-.655 1.1-1.067-.793-.26 1.37-1.325-.332.274 1.355-1.34.201.766 1.031a.81.81 0 0 1 .776-.584h5.663a.81.81 0 0 1 .775.584zm3.515 5.593-.983-1.162H14.026l-.983 1.162 3.862-.008.63.583h5.26l.63-.583 3.862.008zm-1.45-1.714-1.781-2.108h-2.563v.827h-2.656v-.827h-2.562l-1.783 2.108h11.346zm-3.092 2.739a.207.207 0 0 0-.207.207v1.26c0 .114.093.208.207.208a.208.208 0 0 0 .207-.207v-1.261a.207.207 0 0 0-.207-.207zm-.571 0a.207.207 0 0 0-.207.207v1.26c0 .114.093.208.207.208a.208.208 0 0 0 .207-.207v-1.261a.208.208 0 0 0-.207-.207zm-.572 0a.207.207 0 0 0-.206.207v1.26c0 .114.093.208.206.208a.208.208 0 0 0 .207-.207v-1.261a.207.207 0 0 0-.207-.207zm-.571 0a.208.208 0 0 0-.207.207v1.26c0 .114.093.208.207.208a.208.208 0 0 0 .207-.207v-1.261a.207.207 0 0 0-.207-.207zm-.571 0a.207.207 0 0 0-.207.207v1.26c0 .114.093.208.207.208a.207.207 0 0 0 .206-.207v-1.261a.207.207 0 0 0-.206-.207zm2.256 2.03h-5.101v.984h5.1v-.985zm1.95-2.503a.946.946 0 1 0 0 1.892.946.946 0 0 0 0-1.892zm2.227 0a.946.946 0 1 0 0 1.892.946.946 0 0 0 0-1.892zm-9.862-4.711h-.505l-1.138-.634 1.142-.65a.813.813 0 0 0-.004.073v.404c0 .334.327.72.505.807zm.554 5.184c.114 0 .207.093.207.207v1.26a.208.208 0 0 1-.207.208.208.208 0 0 1-.207-.207v-1.261c0-.114.093-.207.207-.207zm.571 0c.114 0 .207.093.207.207v1.26a.208.208 0 0 1-.207.208.208.208 0 0 1-.206-.207v-1.261c0-.114.093-.207.206-.207zm.572 0c.114 0 .207.093.207.207v1.26a.208.208 0 0 1-.207.208.208.208 0 0 1-.207-.207v-1.261c0-.114.093-.207.207-.207zm.571 0c.114 0 .207.093.207.207v1.26a.208.208 0 0 1-.207.208.208.208 0 0 1-.207-.207v-1.261c0-.114.093-.207.207-.207zm.572 0c.114 0 .207.093.207.207v1.26a.208.208 0 0 1-.207.208.208.208 0 0 1-.207-.207v-1.261c0-.114.093-.207.207-.207zm-4.207-.473a.946.946 0 1 1 0 1.892.946.946 0 0 1 0-1.892zm-2.227 0a.946.946 0 1 1 0 1.892.946.946 0 0 1 0-1.892z" fill="#FEFEFE"/>
        <path d="M17.449 15.217h1.355v.908h-1.355c-.206 0-.375-.158-.375-.352v-.203c0-.194.169-.353.375-.353" fill="#00A2D3"/>
        <path d="M20.165 32.936a.586.586 0 0 1 0-1.172.586.586 0 0 1 0 1.172zM32.13 7.849l.019-.027.019-.028.018-.03.018-.03.018-.032.017-.033.017-.033.016-.035.016-.036.016-.036.016-.038.015-.038.02-.056-.949-.28.497.95.016-.01.023-.016.023-.016.022-.018.021-.02.021-.02.021-.02.02-.023.02-.024.02-.025.02-.026zm2.407 25.084h.02l.063.004.06.007.057.01.053.012.05.015.048.017.044.02.04.022.038.025.036.027.032.03.03.033.028.037.025.04.023.043.021.049.018.052.016.058.012.062.01.067.006.072.003.073-.006.071-.006.08-.006.078-.006.079-.006.078-.018.237-.006.079-.006.078-.006.08-.006.078-.006.079-.018.236-.006.079-.006.079-.006.078-.006.08-.006.078-.018.236-.006.079-.018.236-.006.08-.018.235-.003.045-.005.04-.006.04-.008.037-.009.035-.01.034-.011.032-.013.03-.014.03-.016.027-.016.026-.018.024-.02.023-.02.022-.022.02-.024.02-.026.018-.027.017-.03.016-.03.015-.034.013-.036.013-.038.01-.04.01-.043.009-.045.006-.047.006-.05.003-.052.002h-.055l-.057-.002-.062-.003-.079-.005-.079-.004-.078-.005-.08-.004-.078-.005-.079-.004-.078-.005-.08-.004-.078-.005-.079-.004-.079-.005-.078-.004-.08-.005-.078-.004-.079-.005-.078-.004-.08-.005-.078-.004-.079-.005-.079-.004-.078-.005-.08-.004-.078-.005-.079-.004-.078-.005-.08-.004-.078-.005-.079-.004-.079-.005-.078-.004-.08-.005-.076-.004-.053-.004-.047-.007-.046-.01-.043-.012-.042-.014-.039-.018-.037-.019-.035-.022-.033-.023-.03-.026-.03-.029-.026-.03-.024-.033-.023-.035-.02-.037-.018-.04-.015-.042-.013-.044-.01-.047-.008-.05-.004-.052-.002-.054.002-.057.005-.059.008-.061.001-.005.33.402 2.785.167.461-.419.168-2.723-.297-.36zm-5.4-2.94 2.67.2-.184 2.403-.005.067.067.006 2.384.224-.22 2.67-2.628-.238.183-2.405.005-.068-.068-.005-2.404-.204.2-2.65zm-.608.66-.629.503.524.607.105-1.11zm1.173 2.597 1.005 1.215.105-1.11-1.11-.105zm2.597-2.2 1.048 1.237-1.153-.084.105-1.152zm-2.388-1.55.629-.544.544.628-1.173-.083zm.471 1.195a.744.744 0 1 0 0 1.487.744.744 0 0 0 0-1.487zm2.242 2.702a.744.744 0 1 0 0 1.487.744.744 0 0 0 0-1.487zm1.016-.084-.168 1.823-1.83-.169.168-1.822 1.83.168zm-2.242-2.702-.167 1.822-1.83-.168.167-1.822 1.83.168zm-1.048-2.216 1.373 1.653-2.645-.197-.068-.005-.005.069-.198 2.63-1.31-1.554a13.258 13.258 0 0 0 2.853-2.596zm1.586 1.91 2.026 2.44-2.197-.206.17-2.234zm2.26 2.722.324.39-.189 2.41-.293.23-2.43-.188-.339-.402 2.637.24.069.006.006-.07.214-2.616zm-3.108 2.225-2.077-2.465 2.25.19-.173 2.275zm-.949-23.8 1.145-1.38c-.554-.347-1.243-.487-2.062-.459-.108-.822-.434-1.596-1.009-2.14l-1.093 1.39a13.252 13.252 0 0 1 3.019 2.589zm1.56-2.97-.018-.048-.052.005c-.523.049-.948-.032-1.253-.272-.304-.239-.493-.64-.545-1.235l-.005-.05-.05-.01-1.094-.244-.083-.019v.645l.06.008.699.09c.061.674.291 1.092.63 1.345.336.25.774.333 1.26.34l.25.662.02.055.058-.012.558-.104-.435-1.156zm-.11.098.366.946-.35.07-.246-.65-.017-.045h-.047c-.477-.003-.906-.077-1.225-.314-.317-.237-.53-.639-.58-1.301l-.004-.056-.056-.007-.694-.09V6.78l.962.214c.062.608.267 1.025.593 1.281.325.255.764.347 1.299.305zm1.018 2.978-.2.043-.03.008-.029.009-.028.01-.029.012-.027.012-.027.014-.026.015-.026.016-.025.017-.024.018-.023.02-.023.02-.021.02-.02.022-.02.023-.02.024-.017.024-.017.025-.016.026-.014.026-.014.027-.012.028-.011.028-.01.03-.009.029-.007.03-.007.03-.005.032-.003.031-.002.032v.069l.003.036.004.036.007.034.007.035.01.033.011.033.013.033.014.031.016.03.017.03.018.03.02.027.021.027.023.026.023.024.025.024.026.022.026.021.028.02.03.019.029.017.03.015.032.015.032.012.033.011.034.01.034.008.035.006.035.005.036.002.035.001.126-.006.108-.019.095-.028.081-.038.071-.047.061-.055.053-.064.046-.072.038-.082.031-.09.025-.098.016-.106.01-.112.004-.118-.003-.122-.009-.125-.014-.128-.02-.13-.023-.13-.028-.132-.032-.13-.034-.127-.037-.126-.04-.121-.04-.118-.04-.112-.042-.107-.042-.1-.04-.09-.04-.084-.036-.073-.037-.067-.148-.284-.05-.095-.05-.094-.048-.095-.05-.094-.05-.095-.147-.284-.05-.094-.05-.095-.048-.094-.05-.095-.05-.094-.147-.284-.05-.094-.049-.095-.05-.094-.049-.095-.05-.094-.048-.095-.05-.094-.05-.095-.049-.094-.049-.095-.05-.094-.049-.095-.023-.045-.063-.02-.117-.038-.117-.038-.117-.038-.116-.038-.35-.114-.118-.038-.35-.113-.117-.038-.35-.114-.117-.038-.117-.038-.117-.038-.116-.038-.117-.038-.35-.113-.117-.038-.35-.114-.118-.038-.346-.113-.066-.017-.074-.017-.08-.016-.085-.015-.09-.013-.093-.012-.096-.01-.1-.008-.1-.005-.103-.003h-.104l-.104.002-.104.006-.103.009-.101.013-.1.016-.096.02-.093.023-.09.028-.085.032-.08.036-.075.04-.069.045-.062.048-.056.052-.05.057-.042.062-.036.067-.029.072-.021.08-.013.087-.005.096v.035l.003.036.005.036.006.035.008.034.01.034.01.033.014.032.014.031.015.031.018.03.018.029.02.027.02.027.023.026.024.025.024.023.026.023.027.02.028.02.029.019.03.017.03.016.031.014.033.013.033.01.033.01.035.008.034.007.036.004.036.003H25.885l.033-.002.034-.004.032-.006.032-.007.032-.008.03-.01.03-.01.03-.013.03-.013.027-.015.028-.017.027-.017.025-.018.025-.02.024-.02.024-.022.022-.023.02-.023.02-.025.02-.025.018-.027.016-.027.016-.028.014-.028.013-.03.012-.03.01-.03.009-.031.007-.032.006-.032.025-.178.287.051.145.033.14.039.137.044.132.05.128.055.123.06.119.066.114.07.11.075.106.08.1.084.098.088.092.092.088.095.084.1.08.102.074.106.071.109.067.111.063.115.058.116.054.12.05.12.047.124.043.125.038.127.035.128.03.13.027.13.023.133.002.01H29.505l.14.004.138.007.136.012.132.015.13.019.129.022.125.027.122.031.12.035.118.04.115.043.112.048.11.052.106.056.104.061.101.066.098.07.095.074.092.079.09.083.086.088.083.093.08.097.076.102.074.106.07.111.068.116.064.12.061.125.127.283zM32.51 7.3l.017-.008.028-.014.028-.015.026-.015.024-.015.024-.016.021-.017.02-.016.02-.017.018-.017.017-.018.016-.018.015-.018.014-.019.014-.02.012-.019.011-.02.01-.02.01-.02.01-.022.008-.022.008-.022.007-.023.006-.023.005-.024.005-.025.004-.025.004-.025.003-.026.003-.039-2.206-.68-.05.013-.039.013-.037.012-.036.014-.034.014-.033.015-.03.015-.03.016-.028.016-.026.017-.024.018-.023.018-.021.019-.02.019-.018.02-.017.02-.015.02-.014.022-.013.022-.012.023-.01.023-.009.025-.007.026-.007.027-.005.028-.003.03-.003.03v.017l.945.307 1.417.419zm.51-.71.03-.01.036-.014.035-.014.034-.015.031-.016.03-.016.029-.016.026-.017.026-.017.024-.018.022-.017.021-.019.02-.018.018-.019.018-.019.016-.02.015-.019.014-.02.013-.02.013-.021.01-.021.011-.022.01-.022.009-.023.008-.023.007-.024.007-.024.005-.024.006-.026.004-.025.004-.027.006-.057-2.181-.69-.084.028-.035.012-.034.012-.033.013-.032.014-.031.013-.03.014-.028.015-.027.015-.026.015-.024.016-.024.016-.021.017-.02.017-.02.017-.017.018-.017.018-.015.018-.013.02-.013.019-.01.02-.01.02-.01.022-.007.022-.007.024-.005.024-.004.026-.002.027-.001.029v.03l.002.031.008.068 2.214.683zm.688-.766.028-.013.035-.016.034-.017.031-.017.03-.017.028-.018.027-.018.025-.018.024-.018.022-.019.021-.018.02-.02.018-.018.017-.02.016-.02.015-.019.014-.02.012-.02.012-.02.011-.021.01-.021.01-.021.008-.022.007-.022.007-.022.006-.023.005-.023.005-.024.004-.024.003-.024.008-.077L32 4.464l-.042.016-.035.014-.034.014-.032.015-.03.015-.03.016-.028.016-.027.017-.025.017-.024.018-.022.018-.021.018-.02.019-.02.019-.017.02-.017.019-.015.02-.015.02-.013.022-.012.022-.012.022-.01.022-.01.023-.008.024-.008.025-.006.025-.006.025-.005.027-.004.027-.003.028-.002.028v.014l2.262.715zm.684-.76.027-.01.03-.011.03-.012.029-.013.027-.014.026-.014.025-.015.024-.015.022-.016.022-.016.02-.018.02-.017.018-.019.018-.019.016-.02.016-.02.015-.021.013-.022.013-.023.013-.024.01-.024.011-.025.01-.027.008-.027.008-.028.007-.03.006-.03.005-.03.004-.033.006-.061-2.18-.69-.097.022-.035.01-.034.01-.032.01-.032.012-.03.012-.028.013-.027.013-.025.014-.025.014-.023.015-.021.016-.02.016-.02.017-.018.017-.018.018-.016.018-.014.019-.014.02-.013.02-.013.021-.01.022-.01.023-.01.024-.009.024-.007.026-.006.026-.006.028-.004.028-.004.03-.002.03-.002.04 2.306.715zm.644-.752.028.002h.043l.019-.002.016-.002.014-.003.012-.004.01-.004.007-.004.007-.004.005-.004.004-.004.005-.005.004-.006.004-.008.004-.009.003-.01.003-.014.003-.015.002-.018v-.067l-.003-.026-.004-.029-.006-.03-.007-.033-.008-.035-.01-.036-.011-.039-.013-.04-.015-.042-.011-.033-.023-.066-.012-.033-.011-.033-.024-.066-.011-.033-.012-.034-.023-.066-.011-.033-.012-.033-.011-.033-.012-.033-.011-.033-.012-.033-.023-.066-.011-.033-.012-.033-.011-.033-.012-.033-.011-.033-.012-.033-.023-.066-.011-.034-.012-.033-.007-.021-.033-.005-.038-.006-.038-.006-.038-.006-.038-.006-.039-.006-.038-.006-.038-.006-.038-.006-.038-.006-.038-.006-.038-.006-.038-.006-.038-.006-.038-.006-.038-.006-.038-.006-.038-.006-.038-.006-.038-.006-.038-.006-.039-.006-.038-.006-.038-.006-.038-.006-.038-.006-.038-.006-.038-.006-.038-.006-.034-.006-.035-.003-.035-.003-.033-.002H33.49l-.024.002-.021.002-.02.003-.016.004-.015.003-.013.004-.012.004-.009.004-.008.004-.006.004-.005.004-.004.003-.004.004-.003.003-.003.004-.003.004-.002.005-.003.005-.002.007-.003.007-.002.008-.002.009-.002.01-.002.01-.001.012-.001.012.661 1.177 1.071.34zm-1.824-1.4-.028.01-.027.011-.026.012-.025.012-.024.013-.023.014-.022.014-.021.015-.02.015-.019.016-.018.017-.017.017-.017.018-.016.02-.014.019-.015.02-.013.02-.013.023-.011.022-.012.024-.01.025-.01.025-.009.026-.008.028-.007.028-.006.03-.006.03-.005.031-.004.033-.003.033-.002.034-.001.024 1.013.32-.561-.999zM20.165 8.254a.586.586 0 0 0 0-1.172.586.586 0 0 0 0 1.172zm8.72 2.475a.586.586 0 1 0 0 1.172.586.586 0 0 0 0-1.172zm3.614 8.694a.586.586 0 1 0 0 1.172.586.586 0 0 0 0-1.172zm-3.614 8.726a.586.586 0 1 0 0 1.173.586.586 0 0 0 0-1.173zM8.2 7.85l-.019-.027-.018-.028-.019-.03-.018-.03-.017-.032-.017-.033-.017-.033-.017-.035-.016-.036-.016-.036-.015-.038-.015-.038-.022-.056.95-.28-.496.95-.017-.01-.023-.016-.022-.016-.022-.018-.022-.02-.021-.02-.02-.02-.021-.023-.02-.024-.02-.025-.02-.026zM5.793 32.933h-.02l-.063.004-.06.007-.056.01-.054.012-.05.015-.047.017-.044.02-.041.022-.038.025-.035.027-.033.03-.03.033-.028.037-.025.04-.023.043-.02.049-.02.052-.015.058-.012.062-.01.067-.006.072-.002.073.005.071.006.08.006.078.006.079.006.078.018.237.006.079.006.078.006.08.006.078.006.079.018.236.006.079.006.079.006.078.006.08.006.078.018.236.006.079.018.236.006.08.018.235.003.045.005.04.006.04.008.037.009.035.01.034.012.032.012.03.015.03.015.027.017.026.017.024.02.023.02.022.023.02.023.02.026.018.027.017.03.016.03.015.034.013.036.013.038.01.04.01.043.009.045.006.047.006.05.003.053.002h.054l.058-.002.061-.003.08-.005.078-.004.079-.005.078-.004.08-.005.078-.004.079-.005.079-.004.078-.005.08-.004.078-.005.079-.004.078-.005.08-.004.078-.005.079-.004.079-.005.078-.004.08-.005.078-.004.079-.005.078-.004.08-.005.078-.004.079-.005.079-.004.078-.005.08-.004.078-.005.079-.004.078-.005.078-.004.052-.004.048-.007.045-.01.044-.012.041-.014.04-.018.036-.019L9 36.59l.033-.023.031-.026.029-.029.026-.03.025-.033.022-.035.02-.037.018-.04.015-.042.013-.044.01-.047.008-.05.005-.052.001-.054-.002-.057-.005-.059-.008-.061-.001-.005-.33.402-2.785.167-.461-.419-.168-2.723.297-.36zm5.4-2.94-2.67.2.184 2.403.005.067-.067.006-2.383.224.219 2.67 2.629-.238-.184-2.405-.005-.068.068-.005 2.404-.204-.2-2.65zm.609.66.628.503-.523.607-.105-1.11zm-1.173 2.597-1.006 1.215-.105-1.11 1.11-.105zm-2.598-2.2-1.047 1.237 1.152-.084-.105-1.152zm2.388-1.55-.628-.544-.545.628 1.173-.083zm-.471 1.195a.744.744 0 1 1 0 1.487.744.744 0 0 1 0-1.487zm-2.242 2.702a.744.744 0 1 1 0 1.487.744.744 0 0 1 0-1.487zm-1.015-.084.167 1.823 1.83-.169-.167-1.822-1.83.168zm2.24-2.702.169 1.822 1.83-.168-.168-1.822-1.83.168zm1.049-2.216-1.373 1.653 2.645-.197.068-.005.006.069.197 2.63 1.31-1.554a13.258 13.258 0 0 1-2.853-2.596zm-1.585 1.91-2.026 2.44 2.196-.206-.17-2.234zm-2.26 2.722-.324.39.188 2.41.293.23 2.43-.188.34-.402-2.638.24-.069.006-.005-.07-.215-2.616zm3.107 2.225 2.077-2.465-2.25.19.173 2.275zm.95-23.8-1.146-1.38c.554-.347 1.244-.487 2.062-.459.108-.822.434-1.596 1.009-2.14l1.094 1.39a13.25 13.25 0 0 0-3.02 2.589zm-1.56-2.97.018-.048.051.005c.523.049.948-.032 1.253-.272.305-.239.494-.64.546-1.235l.004-.05.05-.01 1.094-.244.084-.019v.645l-.06.008-.7.09c-.06.674-.291 1.092-.63 1.345-.336.25-.774.333-1.259.34l-.25.662-.021.055-.057-.012-.559-.104.435-1.156zm.108.098-.365.946.35.07.246-.65.017-.045h.047c.477-.003.906-.077 1.225-.314.317-.237.53-.639.58-1.301l.004-.056.056-.007.694-.09V6.78l-.962.214c-.062.608-.267 1.025-.593 1.281-.324.255-.764.347-1.299.305zm-1.016 2.978.199.043.03.008.029.009.029.01.028.012.028.012.026.014.027.015.025.016.025.017.024.018.023.02.023.02.021.02.021.022.02.023.019.024.017.024.017.025.016.026.015.026.013.027.012.028.012.028.01.03.008.029.008.03.006.03.005.032.003.031.002.032.001.032v.037l-.003.036-.005.036-.006.034-.008.035-.01.033-.01.033-.014.033-.014.031-.015.03-.018.03-.018.03-.02.027-.02.027-.023.026-.024.024-.024.024-.026.022-.027.021-.028.02-.029.019-.03.017-.03.015-.032.015-.032.012-.033.011-.033.01-.035.008-.035.006-.035.005-.036.002-.035.001-.125-.006-.109-.019-.094-.028-.082-.038-.07-.047-.062-.055-.053-.064-.045-.072-.039-.082-.031-.09-.024-.098-.017-.106-.01-.112-.004-.118.003-.122.01-.125.013-.128.02-.13.024-.13.028-.132.031-.13.035-.127.036-.126.04-.121.04-.118.04-.112.042-.107.042-.1.04-.09.04-.084.037-.073.036-.067.149-.284.05-.095.048-.094.05-.095.05-.094.049-.095.148-.284.049-.094.05-.095.049-.094.05-.095.048-.094.149-.284.049-.094.05-.095.049-.094.049-.095.05-.094.049-.095.05-.094.048-.095.05-.094.05-.095.049-.094.049-.095.023-.045.064-.02.116-.038.117-.038.117-.038.117-.038.35-.114.117-.038.35-.113.117-.038.35-.114.117-.038.117-.038.117-.038.117-.038.116-.038.35-.113.118-.038.35-.114.117-.038.346-.113.066-.017.075-.017.08-.016.084-.015.09-.013.093-.012.097-.01.099-.008.101-.005.103-.003h.103l.104.002.104.006.103.009.101.013.1.016.096.02.094.023.09.028.084.032.08.036.075.04.07.045.062.048.056.052.049.057.043.062.035.067.03.072.02.08.014.087.005.096-.001.035-.003.036-.005.036-.006.035-.008.034-.01.034-.01.033-.013.032-.014.031-.016.031-.017.03-.019.029-.02.027-.02.027-.023.026-.023.025-.025.023-.026.023-.027.02-.028.02-.028.019-.03.017-.03.016-.032.014-.032.013-.033.01-.034.01-.034.008-.035.007-.036.004-.036.003H14.445l-.033-.002-.033-.004-.033-.006-.032-.007-.031-.008-.031-.01-.03-.01-.03-.013-.029-.013-.028-.015-.028-.017-.026-.017-.026-.018-.025-.02-.024-.02-.023-.022-.022-.023-.021-.023-.02-.025-.02-.025-.017-.027-.017-.027-.015-.028-.015-.028-.013-.03-.011-.03-.01-.03-.01-.031-.007-.032-.006-.032-.025-.178-.287.051-.145.033-.14.039-.137.044-.132.05-.127.055-.124.06-.118.066-.115.07-.11.075-.105.08-.101.084-.097.088-.093.092-.088.095-.083.1-.08.102-.075.106-.071.109-.067.111-.062.115-.059.116-.054.12-.05.12-.047.124-.042.125-.039.127-.034.128-.03.13-.028.13-.023.133-.001.01H10.825l-.14.004-.138.007-.135.012-.133.015-.13.019-.128.022-.125.027-.123.031-.12.035-.118.04-.115.043-.112.048-.11.052-.106.056-.104.061-.1.066-.099.07-.095.074-.092.079-.09.083-.085.088-.083.093-.08.097-.077.102-.074.106-.07.111-.068.116-.064.12-.061.125-.126.283zM7.819 7.3l-.016-.008-.03-.014-.027-.015-.026-.015-.024-.015-.023-.016L7.65 7.2l-.02-.016-.02-.017-.018-.017-.017-.018-.016-.018-.015-.018-.014-.019-.013-.02-.012-.019-.012-.02-.01-.02-.01-.02-.01-.022-.008-.022-.007-.022-.007-.023-.006-.023-.006-.024-.005-.025-.004-.025-.004-.025-.003-.026-.003-.039 2.207-.68.05.013.038.013.038.012.035.014.035.014.032.015.031.015.03.016.027.016.026.017.025.018.022.018.022.019.02.019.018.02.016.02.016.02.014.022.013.022.01.023.011.023.009.025.008.026.006.027.005.028.004.03.002.03v.017l-.944.307-1.418.419zm-.51-.71-.029-.01-.037-.014-.035-.014-.033-.015-.032-.016-.03-.016-.028-.016-.027-.017-.025-.017-.024-.018-.023-.017-.02-.019-.02-.018-.019-.019-.017-.019-.017-.02-.015-.019-.014-.02-.013-.02-.012-.021-.012-.021-.01-.022-.01-.022-.009-.023-.008-.023-.007-.024-.006-.024-.006-.024-.005-.026-.005-.025-.003-.027-.007-.057 2.181-.69.084.028.035.012.034.012.034.013.031.014.031.013.03.014.028.015.027.015.026.015.025.016.023.016.022.017.02.017.02.017.017.018.016.018.015.018.014.02.012.019.011.02.01.02.009.022.008.022.006.024.005.024.004.026.003.027v.059l-.002.031-.007.068-2.214.683zm-.688-.766-.028-.013-.035-.016-.033-.017-.032-.017-.03-.017-.028-.018-.027-.018-.025-.018-.024-.018-.022-.019-.02-.018-.02-.02-.019-.018-.017-.02-.016-.02-.015-.019-.013-.02-.013-.02-.012-.02-.01-.021-.01-.021-.01-.021-.008-.022-.008-.022-.007-.022-.006-.023-.005-.023-.005-.024-.003-.024-.004-.024-.007-.077 2.222-.69.041.016.035.014.034.014.032.015.03.015.03.016.028.016.027.017.025.017.024.018.023.018.02.018.02.019.02.019.017.02.017.019.015.02.015.02.013.022.013.022.01.022.011.022.01.023.008.024.008.025.007.025.005.025.005.027.004.027.003.028.002.028v.014l-2.262.715zm-.684-.76-.026-.01-.031-.011-.03-.012-.028-.013-.028-.014-.026-.014-.025-.015-.023-.015-.023-.016-.022-.016-.02-.018-.02-.017-.018-.019-.017-.019-.017-.02-.016-.02-.014-.021-.014-.022-.013-.023-.012-.024-.011-.024-.01-.025-.01-.027-.01-.027-.007-.028-.007-.03-.006-.03-.005-.03-.004-.033-.006-.061 2.18-.69.097.022.035.01.034.01.033.01.03.012.03.012.029.013.027.013.026.014.024.014.023.015.022.016.02.016.02.017.018.017.017.018.016.018.015.019.014.02.013.02.012.021.011.022.01.023.01.024.008.024.007.026.007.026.005.028.005.028.003.03.003.03.002.04-2.307.715zm-.644-.752-.027.002h-.044l-.019-.002-.016-.002-.014-.003-.011-.004-.01-.004-.008-.004-.006-.004-.005-.004-.005-.004-.004-.005-.004-.006-.004-.008-.004-.009-.004-.01-.003-.014-.003-.015-.002-.018V4.156L5.1 4.13l.003-.026.004-.029.005-.03.007-.033.009-.035.01-.036.01-.039.014-.04.014-.042.012-.033.023-.066.011-.033.012-.033.023-.066.011-.033.012-.034.023-.066.011-.033.012-.033.011-.033.012-.033.012-.033.011-.033.023-.066.012-.033.011-.033.012-.033.011-.033.012-.033.011-.033.023-.066.012-.034.011-.033.008-.021.033-.005.038-.006.038-.006.038-.006.038-.006.038-.006.038-.006.038-.006.038-.006.038-.006.038-.006.038-.006.038-.006.038-.006.038-.006.038-.006.039-.006.038-.006.038-.006.038-.006.038-.006.038-.006.038-.006.038-.006.038-.006.038-.006.038-.006.038-.006.038-.006.034-.006.035-.003.036-.003.033-.002H6.839l.024.002.021.002.02.003.017.004.015.003.013.004.01.004.01.004.008.004.006.004.005.004.005.003.003.004.003.003.003.004.003.004.003.005.002.005.003.007.002.007.002.008.002.009.002.01.002.01.001.012.002.012-.662 1.177-1.07.34zm1.825-1.4.028.01.027.011.026.012.025.012.024.013.022.014.022.014.021.015.02.015.02.016.017.017.018.017.016.018.016.02.015.019.014.02.013.02.013.023.012.022.011.024.01.025.01.025.009.026.008.028.007.028.007.03.006.03.004.031.004.033.003.033.003.034v.024l-1.013.32.562-.999zm4.327 7.817a.586.586 0 1 1 0 1.172.586.586 0 0 1 0-1.172zm-3.614 8.694a.586.586 0 1 1 0 1.172.586.586 0 0 1 0-1.172zm3.614 8.726a.586.586 0 1 1 0 1.173.586.586 0 0 1 0-1.173z" fill="#FCC800"/>
        <path d="M20.165 39.862a.55.55 0 0 1-.539-.547v-3.277a.55.55 0 0 1 .54-.548.55.55 0 0 1 .538.548v3.277a.55.55 0 0 1-.539.547zM27.432 4.17l-.04-.012-.265-.066-.268-.055-.272-.044-.274-.032-.277-.021-.278-.01-.28.002-.28.014-.28.025-.28.038-.278.049-.277.061-.275.074-.273.086-.269.098-.265.11-.261.123-.256.135-.251.148-.245.161-.086.062.115.083.27.181.27.17.271.158.27.146.271.134.27.122.27.11.27.098.268.087.268.075.267.063.026.005c.1-1.096 1.864-1.003 2.577-.806l.704.23a9.617 9.617 0 0 1-.193-.295L23.63 5.19l4.155-.04a11.368 11.368 0 0 1-.473-.967l.119-.015zm1.548-1.408-.027-.036-.18-.219-.192-.212-.202-.203-.211-.196-.221-.188-.23-.178-.239-.17-.246-.16-.254-.15-.261-.14-.268-.13-.274-.118-.28-.107-.284-.095-.29-.083-.294-.071-.297-.058L24.428.2 24.124.17l-.306-.018-.31-.004-.31.011-.311.026-.112.015.064.135.157.306.164.296.17.284.176.274.182.262.09.121c.524-.07 1.05-.08 1.567-.034l-1-.697 1.391.742c1.256.18 2.437.688 3.363 1.453-.045-.19-.084-.383-.119-.581zm.18.831-.091-.082-.218-.176-.228-.167-.236-.157-.244-.148-.252-.136-.26-.127-.265-.115-.272-.105-.277-.093-.283-.082-.286-.07-.29-.058-.294-.047-.297-.034-.298-.021-.3-.01-.302.005-.302.017-.301.03-.302.045-.3.057-.299.072-.296.086-.294.1-.291.115-.103.046.1.111.24.248.241.236.245.223.248.21.25.199.253.185.176.12c.84-.25 1.718-.33 2.566-.25l-2.543-.829 5.55 1.103c-.052-.163-.1-.33-.144-.5zm-.382.548-2.594-.516 1.134.37c.162.041.32.088.477.141.33-.021.659-.02.983.005zm-.914 1.15-1.866.018 2.005.218a10.035 10.035 0 0 1-.139-.236zm5.17 2.848-.023-.02-.214-.177-.222-.167-.176-.12c-.11.24-.249.428-.433.535l.243.464.42.13a11.343 11.343 0 0 1-.113-.747c.175.027.348.062.518.102zm-6.215-1.37-.067.019-.07.022a.842.842 0 0 1-.01.045l.063.084.208.264.212.252.216.24.22.23.053.05.467-.593a2.784 2.784 0 0 0-1.292-.613zm6.086 3.217.022-.003a9.504 9.504 0 0 1-.159-.556l-.203-.091.337.645.003.005zm1.574-2.824-.054-.183-.095-.276-.108-.272-.12-.268-.135-.264-.022-.04a1.502 1.502 0 0 1-.233.113.81.81 0 0 1-.168.442c.345.368.646.77.89 1.2.012-.15.027-.3.045-.452zM32.221 3.77l-.207-.167-.25-.183-.258-.174-.266-.163-.274-.15-.282-.14-.289-.128-.295-.114-.302-.101-.309-.088-.314-.073-.114-.021.02.153.057.35.067.343.077.333.087.324.096.315.05.148a7.349 7.349 0 0 1 1.55.462l-.763-1.001 1.073 1.108c.092-.206.279-.363.575-.466.006-.248.097-.437.271-.567zm2.196 4.133-.075-.143-.146-.25-.159-.242-.17-.236-.182-.229-.194-.222-.056-.058c-.096.08-.22.148-.38.201-.017.238-.102.447-.311.6l1.663.925c0-.114.004-.23.01-.346zM31.322 4.98l-.002-.001-.28-.127-.287-.116-.292-.104-.298-.09-.302-.08-.306-.065-.31-.052-.313-.038-.316-.024-.319-.01-.32.006-.322.02-.116.013.064.141.156.32.163.307.17.297.177.285.183.274.082.114 1.337.434.144.028a.595.595 0 0 1 .211-.407l-1.085-.786 1.232.686c.085-.046.184-.084.295-.114-.059-.43.228-.639.64-.77a.92.92 0 0 1 .014-.141zm3.084 3.444-1.815-1.01a1.279 1.279 0 0 1-.113.048l-.021.056c.195.13.381.268.56.416l.443.32c.328.102.645.227.95.373a8.958 8.958 0 0 1-.004-.203zm-1.747.52-.356-.112.155.297.268.12c-.024-.1-.046-.202-.067-.305zm4.168 4.52-.085-.14-.15-.226-.161-.219-.172-.213-.182-.206-.191-.2-.2-.192-.21-.184-.217-.176-.226-.168-.233-.158-.241-.15-.247-.139-.254-.129-.26-.118-.265-.108-.27-.097-.081-.025c.148.414.28.928.292 1.383l2.739 1.851c.067-.232.143-.467.228-.703.133.1.262.206.386.316zm-5.202-3.138-.072-.005-.292-.007-.078.094.016.043.12.305.127.296.135.286.141.277.13.233a.849.849 0 0 1 .56-.389c-.203-.475-.466-.85-.787-1.133zm1.139 2.799.127.14.191.196.197.184.202.174.207.164.213.153.217.142.223.132.228.12.232.11.237.1.242.088.246.078.25.066.167.036c.034-.197.075-.397.122-.598l-2.593-2.239c-.024.487-.212.876-.708.954zm5.55.549.027-.175.03-.28.015-.28.002-.284-.012-.284-.024-.285-.038-.286-.05-.285-.064-.284-.076-.282-.089-.28-.1-.277-.114-.274-.125-.27-.136-.266-.149-.261-.16-.255-.17-.25-.182-.242-.193-.235-.203-.227-.214-.22-.225-.21-.234-.2-.245-.19-.254-.18-.264-.169-.273-.157-.102-.052-.024.149-.045.344-.034.34-.022.333-.01.328.001.322.006.153c.475.242.917.535 1.32.87l-.432-1.153.732 1.414c1.133 1.048 1.902 2.43 2.118 3.86l.012-.02zm-.135.235-.037-.27-.053-.275-.066-.274-.08-.272-.094-.269-.106-.266-.119-.262-.13-.258-.143-.253-.155-.249-.166-.242-.177-.237-.187-.23-.198-.222-.207-.215-.218-.206-.226-.199-.236-.188-.244-.18-.253-.17-.26-.158-.269-.147-.275-.136-.283-.125-.289-.111-.295-.099-.302-.085-.307-.071-.112-.02.02.149.056.343.066.334.076.326.085.317.094.308.103.299.078.2c.841.274 1.616.71 2.275 1.262l-1.638-2.145 4.236 4.362.036-.066zm-.11.205-2.508-2.583.73.957c.185.212.355.434.508.665l1.06 1.388c.065-.143.135-.285.21-.427zm-1.897-.122-1.73-1.169 1.66 1.433c.022-.087.046-.175.07-.264zm1.602 6.028-.003-.041-.03-.277-.043-.277-.055-.276-.067-.274-.078-.273-.09-.27-.1-.267-.113-.264-.122-.26-.134-.254-.144-.25-.155-.244-.165-.238-.175-.23-.184-.224-.195-.216-.204-.207-.213-.198-.222-.189-.231-.179-.24-.168-.249-.157-.257-.145-.095-.048-.018.146-.033.336-.021.331-.011.326v.32l.01.313.02.307.03.301.04.295.051.289.06.282.07.275.08.268.09.262.1.254.108.248.118.24.128.232.136.226.146.218.154.21.164.202.172.195.182.187.19.178.2.17.05.04c.091-.166.19-.33.295-.495l-1.762-4.536 2.118 4.017c.143-.196.297-.39.46-.585.083.123.162.248.237.374zm1.495.595.122-.215.13-.259.118-.266.107-.273.096-.28.084-.284.072-.29.06-.294.05-.299.036-.301.024-.304.013-.307v-.308l-.013-.308-.025-.31-.038-.308-.05-.307-.064-.306-.077-.304-.089-.302-.103-.297-.115-.294-.13-.29-.142-.284-.156-.28-.17-.272-.065-.095-.089.125-.195.294-.183.295-.17.296-.157.295-.144.296-.064.143c.308.445.565.921.769 1.417l.14-1.259.005 1.64c.49 1.4.568 2.918.2 4.267.07-.058.14-.115.213-.172zm-.421.347.012-.035.078-.278.065-.282.052-.286.04-.29.027-.294.013-.296.002-.298-.011-.3-.024-.3-.037-.3-.048-.3-.062-.298-.073-.297-.086-.295-.098-.291-.11-.288-.121-.284-.134-.28-.146-.273-.158-.268-.169-.262-.18-.254-.193-.247-.204-.238-.216-.23-.226-.219-.239-.21-.089-.071-.05.146-.105.34-.093.338-.08.334-.07.33-.055.327-.045.322-.022.22a7.115 7.115 0 0 1 1.432 2.227l-.472-2.735 1.721 5.87c.057-.053.115-.104.174-.155zm-.296.268-1.01-3.448.21 1.22c.067.28.116.564.146.848l.101.586c.154.311.283.63.386.956l.167-.162zm-1.567-.872-1.012-1.92.842 2.168c.055-.083.112-.165.17-.248zm-.28 5.356.006-.031.037-.265.025-.268.014-.27.002-.271-.009-.273-.02-.273-.033-.273-.043-.273-.055-.271-.067-.27-.078-.267-.09-.265-.1-.261-.113-.257-.124-.253-.136-.248-.147-.243-.159-.236-.17-.23-.182-.223-.193-.216-.074-.074-.063.124-.137.291-.126.29-.113.287-.102.286-.09.284-.08.282-.067.28-.056.277-.045.275-.033.272-.022.27-.01.266v.264l.011.26.023.258.033.254.045.25.028.124c.175.38.309.77.403 1.166l.065.134.12.223.132.219.005.007c.146-.131.3-.26.459-.386l-.196-4.558.68 4.2c.258-.178.53-.349.816-.512l.03.124zm1.308 1.37.17-.157.195-.199.187-.208.177-.219.17-.227.16-.235.15-.244.14-.25.13-.259.119-.264.109-.27.097-.276.087-.28.075-.285.062-.289.051-.292.038-.295.026-.297.012-.3v-.3l-.015-.302-.028-.302-.043-.301-.056-.302-.072-.3-.03-.107-.123.083-.276.198-.264.204-.252.208-.24.213-.23.216-.104.107c.145.5.233 1.012.266 1.523l.531-1.08-.517 1.47c.012 1.354-.364 2.68-1.072 3.742.121-.043.245-.084.37-.123zm-.613.214.078-.108.15-.231.14-.24.13-.246.118-.254.107-.26.096-.267.085-.272.073-.276.061-.281.05-.285.038-.287.026-.29.014-.292.002-.294-.011-.294-.024-.295-.036-.294-.048-.293-.062-.292-.075-.29-.088-.288-.1-.284-.115-.281-.128-.277-.141-.272-.156-.267-.06-.093-.093.114-.207.27-.194.272-.181.272-.169.273-.156.274-.144.274-.09.19c.368.782.577 1.627.626 2.466l.43-2.604-.258 5.728a9.25 9.25 0 0 1 .312-.126zm-.462.192.15-3.33-.192 1.162a6.205 6.205 0 0 1-.12.746c.085.486.113.974.09 1.454a8.09 8.09 0 0 1 .072-.032zm-1.202-1.3-.318-1.961.091 2.128a9.98 9.98 0 0 1 .227-.167zm-2.322 5.384.114-.157.145-.222.136-.229.126-.236.117-.242.106-.249.097-.254.086-.258.075-.264.065-.267.053-.27.043-.274.03-.276.02-.278.008-.28-.004-.28-.017-.28-.028-.28-.042-.28-.054-.278-.067-.277-.08-.275-.093-.272-.107-.27-.043-.094-.103.094-.229.225-.218.228-.206.23-.195.233-.183.235-.172.238-.16.239-.149.24-.137.243-.125.244-.115.245-.102.246-.091.248-.08.248-.068.25-.056.25-.045.25-.005.033.863 1.045 1.16-3.608-.794 4.051.056.068c.1-.022.199-.042.3-.062-.01.126-.024.25-.041.374l.21.255zm.999 1.208.09-.032.255-.106.252-.12.247-.13.243-.144.237-.154.232-.166.225-.176.218-.187.212-.197.203-.206.196-.216.187-.224.179-.233.168-.242.16-.249.148-.256.138-.264.127-.27.116-.276.103-.283.091-.287.079-.293.064-.298.052-.302.037-.307.008-.11-.144.034-.327.091-.318.1-.31.107-.299.116-.29.124-.135.064a7.026 7.026 0 0 1-.278 1.52l.873-.828-.995 1.199c-.44 1.222-1.203 2.295-2.175 3.043l.13.158zm-.225-.272.04-.03.213-.175.207-.187.2-.197.19-.207.182-.217.174-.225.164-.234.155-.242.146-.25.135-.256.125-.263.114-.27.103-.274.092-.28.08-.285.069-.288.056-.292.043-.296.03-.298.018-.3.004-.302-.01-.303-.024-.303-.039-.305-.053-.304-.024-.108-.127.075-.288.182-.276.187-.264.192-.253.198-.241.202-.23.208-.151.146a6.733 6.733 0 0 1-.268 2.531l1.307-2.294-1.954 4.634.355.43zm-.46-.557.963-2.285-.583 1.024a6.19 6.19 0 0 1-.405.71l-.175.309.2.242zm-.95-1.151.322-1.648-.472 1.468.15.18zm-4.43 4.703.084-.065.21-.179.202-.19.195-.198.187-.208.18-.217.17-.225.079-.113-.844-1.031-1.094 1.906c.276.04.557.092.843.156a6.58 6.58 0 0 1-.211.364zm-.513-3.62-.03.035-.172.212-.16.217-.15.222-.14.226-.113.205h.017c-.121.41-.284.8-.48 1.166l-.021.074-.06.255-.049.258-.018.13c.22.003.445.013.673.033l1.515-2.04-.812-.992zm.903 5.356.274-.018.287-.033.287-.046.285-.06.284-.072.283-.085.28-.098.276-.11.177-.08c-.206-.19-.293-.51-.192-.911l-.075-.091a6.716 6.716 0 0 1-2.488 1.452c.107.048.215.099.322.152zm-.54-.247.076-.02.272-.088.269-.101.265-.114.26-.127.257-.14.251-.151.246-.163.239-.175.233-.186.226-.196.015-.015-.845-1.033-2.108 2.37c.114.044.23.09.344.139zm4.873-5.836.002-.021-.016.003.014.018zm-3.322 3.068-.04.057.05-.045-.01-.012zm-2.048 2.573 2.163-2.433-.008-.01-.83.736c-.2.202-.412.39-.634.562l-.37.328c-.192.255-.4.493-.622.716.1.031.2.065.3.101zm-.136-1.835.985-1.717-1.252 1.686.267.031zm-6.649 2.503.1.004.258-.004.259-.016.259-.029.259-.041.257-.054.257-.066.255-.078.252-.09.25-.1.246-.112.242-.122.238-.134.233-.144.228-.154.222-.164.215-.173.21-.183.2-.192.195-.202.185-.21.177-.218.167-.226.158-.235.148-.242.137-.25.126-.257.114-.264.103-.27.032-.1-.14.001-.32.012-.315.022-.308.03-.3.042-.294.05-.287.06-.28.068-.272.078-.264.087-.257.095-.25.105-.242.113-.234.121-.226.13-.218.139-.21.146-.203.155-.193.163-.186.17-.177.18-.168.186-.16.194-.152.202-.142.21-.134.217-.124.224v.4l4.632-2.656-4.558 3.382zm.518 1.174.194.104.248.118.254.106.261.093.267.082.27.07.276.058.28.045.282.034.286.021.287.01.289-.004.29-.015.29-.028.289-.04.289-.052.287-.065.285-.076.283-.09.28-.101.276-.115.271-.126.267-.139.26-.151.256-.164.249-.177.24-.189.235-.201.08-.077-.129-.07-.303-.154-.302-.14-.301-.13-.3-.115-.297-.104-.144-.044c-.377.36-.791.673-1.23.937l1.204-.025-1.543.216c-1.344.71-2.878.972-4.276.698zm-.241-.205.102.026.268.054.271.04.275.028.276.015h.279l.28-.01.28-.025.281-.038.28-.05.28-.061.277-.075.276-.086.272-.099.27-.11.266-.122.261-.134.256-.145.251-.156.245-.167.238-.178.231-.19.224-.199.215-.21.206-.22.197-.231.186-.241.177-.25.165-.261.055-.097-.144-.03-.335-.06-.33-.047-.325-.036-.32-.024-.315-.013-.31-.002-.21.007a6.735 6.735 0 0 1-1.902 1.69l2.51-.815-5.46 2.522zm-.107-.828-.055.077-.045.07.496-.162a5.33 5.33 0 0 1-.396.015zm-.244.828 3.504-1.618-1.12.364a6.192 6.192 0 0 1-.779.252l-1.605.522v.48zm0-1.085 2.674-1.985-2.674 1.534v.45zM12.899 4.169l.04-.012.264-.066.268-.055.272-.044.274-.032.277-.021.278-.01.28.002.28.014.28.025.28.038.279.049.277.061.275.074.272.086.269.098.265.11.261.123.257.135.25.148.246.161.085.062-.114.083-.27.181-.271.17-.27.158-.272.146-.27.134-.27.122-.27.11-.27.098-.268.087-.268.075-.266.063-.026.005c-.1-1.096-1.865-1.003-2.577-.806l-.705.23c.066-.097.13-.195.194-.295l4.464-.485-4.155-.04c.168-.305.327-.628.473-.967L12.9 4.17zM11.35 2.761l.027-.036.181-.219.192-.212.201-.203.212-.196.22-.188.23-.178.239-.17.246-.16.254-.15.261-.14.268-.13.274-.118.28-.107.284-.095.29-.083.294-.071.298-.058.301-.046.304-.031.307-.018.308-.004.31.011.312.026.112.015-.064.135-.157.306-.163.296-.17.284-.176.274-.182.262-.091.121a7.119 7.119 0 0 0-1.566-.034l1-.697-1.392.742c-1.256.18-2.436.688-3.362 1.453.044-.19.084-.383.118-.581zm-.18.831.091-.082.219-.176.227-.167.236-.157.245-.148.252-.136.259-.127.266-.115.271-.105.278-.093.282-.082.286-.07.29-.058.295-.047.296-.034.298-.021.3-.01.302.005.302.017.302.03.301.045.3.057.3.072.296.086.294.1.29.115.103.046-.1.111-.24.248-.241.236-.245.223-.248.21-.25.199-.253.185-.175.12a6.821 6.821 0 0 0-2.567-.25l2.543-.829-5.55 1.103c.052-.163.1-.33.145-.5zm.382.548 2.595-.516-1.135.37c-.161.041-.32.088-.477.141a6.987 6.987 0 0 0-.983.005zm.914 1.15 1.867.018-2.005.218c.047-.078.093-.156.138-.236zm-5.17 2.848.023-.02.214-.177.223-.167.175-.12c.11.24.25.428.433.535l-.242.464-.42.13c.045-.243.083-.492.113-.747a6.734 6.734 0 0 0-.519.102zm6.215-1.37.067.019.07.022.01.045-.062.084-.208.264-.212.252-.216.24-.22.23-.053.05-.467-.593a2.784 2.784 0 0 1 1.291-.613zM7.426 9.985l-.022-.003c.057-.18.11-.366.158-.556l.203-.091-.336.645-.003.005zM5.85 7.161l.054-.183L6 6.702l.108-.272.121-.268.134-.264.023-.04c.067.04.144.079.232.113a.81.81 0 0 0 .169.442 6.434 6.434 0 0 0-.892 1.2 10.64 10.64 0 0 0-.044-.452zM8.11 3.77l.207-.167.25-.183.258-.174.266-.163.275-.15.281-.14.289-.128.296-.114.302-.101.308-.088.314-.073.115-.021-.02.153-.058.35-.067.343-.077.333-.086.324-.096.315-.051.148a7.349 7.349 0 0 0-1.55.462l.763-1.001-1.073 1.108c-.091-.206-.279-.363-.574-.466-.007-.248-.097-.437-.272-.567zM5.913 7.903l.075-.143.146-.25.159-.242.17-.236.183-.229.193-.222.056-.058c.096.08.22.148.38.201.018.238.102.447.311.6l-1.662.925a9.657 9.657 0 0 0-.01-.346zM9.008 4.98l.003-.001.28-.127.287-.116.292-.104.297-.09.302-.08.306-.065.31-.052.313-.038.316-.024.319-.01.32.006.322.02.116.013-.064.141-.156.32-.163.307-.17.297-.177.285-.183.274-.082.114-1.337.434a7.11 7.11 0 0 0-.144.028.595.595 0 0 0-.21-.407l1.085-.786-1.233.686a1.367 1.367 0 0 0-.294-.114c.058-.43-.23-.639-.641-.77a.92.92 0 0 0-.014-.141zM5.924 8.424l1.815-1.01c.035.017.073.033.113.048l.021.056a6.44 6.44 0 0 0-.559.416l-.444.32a6.93 6.93 0 0 0-.95.373c.002-.067.004-.135.004-.203zm1.747.52.357-.112-.155.297-.268.12c.023-.1.045-.202.066-.305zm-4.167 4.52.084-.14.15-.226.162-.219.171-.213.182-.206.191-.2.2-.192.21-.184.218-.176.225-.168.234-.158.24-.15.248-.139.253-.129.26-.118.265-.108.27-.097.081-.025c-.148.414-.28.928-.291 1.383l-2.74 1.851a12.069 12.069 0 0 0-.228-.703 6.688 6.688 0 0 0-.385.316zm5.202-3.138.071-.005.292-.007.078.094-.015.043-.12.305-.128.296-.135.286-.14.277-.13.233a.849.849 0 0 0-.56-.389c.202-.475.466-.85.787-1.133zm-1.14 2.799-.127.14-.19.196-.197.184-.202.174-.208.164-.212.153-.218.142-.223.132-.227.12-.233.11-.237.1-.241.088-.246.078-.25.066-.167.036a10.309 10.309 0 0 0-.123-.598l2.593-2.239c.024.487.212.876.709.954zm-5.55.549-.027-.175-.029-.28-.015-.28-.002-.284.011-.284.025-.285.037-.286.051-.285.064-.284.076-.282.088-.28.101-.277.113-.274.125-.27.137-.266.148-.261.16-.255.17-.25.182-.242.193-.235.204-.227.214-.22.224-.21.235-.2.244-.19.254-.18.264-.169.274-.157.101-.052.024.149.046.344.033.34.022.333.01.328v.322l-.007.153a7.183 7.183 0 0 0-1.32.87l.432-1.153-.731 1.414c-1.134 1.048-1.903 2.43-2.119 3.86a3.945 3.945 0 0 1-.011-.02zm.135.235.037-.27.053-.275.067-.274.08-.272.093-.269.106-.266.119-.262.13-.258.144-.253.154-.249.166-.242.177-.237.187-.23.198-.222.208-.215.217-.206.227-.199.235-.188.245-.18.252-.17.26-.158.27-.147.275-.136.282-.125.29-.111.295-.099.301-.085.307-.071.112-.02-.02.149-.056.343-.066.334-.075.326-.085.317-.095.308-.103.299-.077.2a6.883 6.883 0 0 0-2.275 1.262l1.637-2.145-4.236 4.362a10.9 10.9 0 0 0-.036-.066zm.11.205 2.508-2.583-.73.957a6.327 6.327 0 0 0-.508.665l-1.059 1.388a9.729 9.729 0 0 0-.21-.427zm1.897-.122 1.73-1.169-1.66 1.433a11.168 11.168 0 0 0-.07-.264zM2.556 20.02l.003-.041.03-.277.044-.277.055-.276.066-.274.078-.273.09-.27.1-.267.113-.264.123-.26.133-.254.145-.25.154-.244.165-.238.175-.23.185-.224.194-.216.204-.207.213-.198.222-.189.232-.179.24-.168.248-.157.257-.145.095-.048.019.146.032.336.021.331.011.326v.32l-.01.313-.02.307-.03.301-.04.295-.05.289-.061.282-.07.275-.08.268-.09.262-.1.254-.108.248-.118.24-.127.232-.137.226-.145.218-.155.21-.164.202-.172.195-.182.187-.19.178-.199.17-.05.04a9.31 9.31 0 0 0-.296-.495l1.762-4.536-2.118 4.017a11.086 11.086 0 0 0-.46-.585 6.565 6.565 0 0 0-.237.374zm-1.495.595L.94 20.4l-.13-.259-.119-.266-.107-.273-.095-.28-.084-.284-.073-.29-.06-.294-.049-.299-.037-.301-.024-.304-.012-.307v-.308l.013-.308.025-.31.038-.308.05-.307.064-.306.076-.304.09-.302.102-.297.116-.294.129-.29.142-.284.156-.28.17-.272.065-.095.089.125.195.294.183.295.17.296.157.295.145.296.064.143a7.485 7.485 0 0 0-.77 1.417l-.14-1.259-.004 1.64c-.491 1.4-.569 2.918-.2 4.267-.07-.058-.141-.115-.214-.172zm.421.347-.011-.035-.079-.278-.065-.282-.052-.286-.04-.29-.026-.294-.014-.296-.001-.298.01-.3.025-.3.036-.3.049-.3.06-.298.074-.297.086-.295.098-.291.11-.288.122-.284.134-.28.145-.273.158-.268.17-.262.18-.254.193-.247.204-.238.215-.23.227-.219.238-.21.09-.071.05.146.105.34.092.338.081.334.068.33.057.327.044.322.022.22a7.114 7.114 0 0 0-1.431 2.227l.471-2.735-1.721 5.87a9.432 9.432 0 0 0-.174-.155zm.296.268 1.011-3.448-.21 1.22c-.067.28-.116.564-.147.848l-.1.586c-.155.311-.284.63-.387.956a8.783 8.783 0 0 0-.167-.162zm1.567-.872 1.012-1.92-.842 2.168a10.094 10.094 0 0 0-.17-.248zm.28 5.356-.006-.031-.036-.265-.026-.268-.013-.27-.003-.271.01-.273.02-.273.032-.273.043-.273.055-.271.067-.27.078-.267.09-.265.1-.261.113-.257.124-.253.136-.248.147-.243.16-.236.17-.23.181-.223.194-.216.073-.074.063.124.138.291.125.29.113.287.103.286.09.284.079.282.067.28.056.277.045.275.033.272.022.27.011.266v.264l-.012.26-.022.258-.034.254-.045.25-.027.124c-.176.38-.31.77-.404 1.166l-.065.134-.12.223-.132.219-.005.007c-.146-.131-.299-.26-.459-.386l.197-4.558-.681 4.2a10.943 10.943 0 0 0-.815-.512 6.56 6.56 0 0 0-.03.124zm-1.308 1.37-.17-.157-.195-.199-.186-.208-.178-.219-.17-.227-.159-.235-.15-.244-.14-.25-.13-.259-.12-.264-.108-.27-.098-.276-.087-.28-.074-.285-.063-.289-.05-.292-.04-.295-.025-.297-.012-.3v-.3l.015-.302.028-.302.043-.301.057-.302.071-.3.031-.107.122.083.276.198.264.204.252.208.241.213.229.216.105.107a7.029 7.029 0 0 0-.266 1.523l-.532-1.08.517 1.47c-.011 1.354.364 2.68 1.073 3.742a10.172 10.172 0 0 0-.371-.123zm.613.214-.078-.108-.15-.231-.14-.24-.13-.246-.117-.254-.108-.26-.096-.267-.084-.272-.074-.276-.061-.281-.05-.285-.038-.287-.026-.29-.014-.292-.001-.294.01-.294.024-.295.036-.294.049-.293.061-.292.075-.29.088-.288.101-.284.114-.281.128-.277.142-.272.155-.267.06-.093.094.114.206.27.194.272.181.272.17.273.155.274.144.274.09.19a6.735 6.735 0 0 0-.626 2.466l-.43-2.604.258 5.728a9.25 9.25 0 0 0-.312-.126zm.462.192-.15-3.33.192 1.162c.025.252.065.502.12.746a6.734 6.734 0 0 0-.09 1.454 7.622 7.622 0 0 0-.072-.032zm1.203-1.3.318-1.961-.092 2.128a9.98 9.98 0 0 0-.226-.167zm2.32 5.384-.113-.157-.145-.222-.136-.229-.126-.236-.116-.242-.107-.249-.096-.254-.086-.258-.076-.264-.064-.267-.054-.27-.042-.274-.031-.276-.02-.278-.008-.28.005-.28.016-.28.029-.28.041-.28.054-.278.067-.277.08-.275.093-.272.107-.27.043-.094.103.094.23.225.217.228.206.23.195.233.183.235.172.238.16.239.149.24.137.243.126.244.114.245.102.246.092.248.08.248.067.25.057.25.045.25.004.033-.863 1.045-1.159-3.608.793 4.051-.056.068a11.83 11.83 0 0 0-.3-.062c.01.126.025.25.042.374l-.21.255zm-.997 1.208-.09-.032-.256-.106-.252-.12-.247-.13-.243-.144-.237-.154-.231-.166-.226-.176-.218-.187-.211-.197-.204-.206-.196-.216-.187-.224-.178-.233-.17-.242L2.615 30l-.149-.256-.138-.264-.127-.27-.116-.276-.103-.283-.091-.287-.078-.293-.065-.298-.051-.302-.037-.307-.008-.11.143.034.328.091.318.1.309.107.299.116.29.124.135.064c.037.52.132 1.03.279 1.52l-.873-.828.994 1.199c.44 1.222 1.204 2.295 2.175 3.043l-.13.158zm.224-.272-.039-.03-.214-.175-.207-.187-.199-.197-.19-.207-.183-.217-.174-.225-.164-.234-.155-.242-.146-.25-.135-.256-.125-.263-.114-.27-.103-.274-.092-.28-.08-.285-.068-.288-.056-.292-.044-.296-.03-.298-.018-.3-.003-.302.01-.303.024-.303.038-.305.053-.304.025-.108.127.075.287.182.276.187.264.192.253.198.242.202.23.208.15.146a6.733 6.733 0 0 0 .268 2.531l-1.306-2.294 1.953 4.634-.355.43zm.46-.557-.962-2.285.583 1.024c.12.247.255.485.404.71l.176.309-.2.242zm.951-1.151-.322-1.648.471 1.468-.149.18zm4.428 4.703-.082-.065-.21-.179-.202-.19-.196-.198-.187-.208-.18-.217-.17-.225-.078-.113.843-1.031 1.094 1.906c-.276.04-.557.092-.843.156.067.124.138.246.211.364zm.514-3.62.03.035.172.212.161.217.15.222.139.226.113.205h-.017c.122.41.284.8.48 1.166l.022.074.06.255.048.258.019.13a9.15 9.15 0 0 0-.674.033l-1.515-2.04.812-.992zm-.903 5.356-.274-.018-.287-.033-.286-.046-.286-.06-.284-.072-.282-.085-.28-.098-.276-.11-.178-.08c.206-.19.293-.51.193-.911l.075-.091a6.716 6.716 0 0 0 2.487 1.452c-.107.048-.214.099-.322.152zm.54-.247-.076-.02-.272-.088-.269-.101-.265-.114-.26-.127-.257-.14-.25-.151-.246-.163-.24-.175-.232-.186-.226-.196-.016-.015.846-1.033 2.107 2.37c-.114.044-.229.09-.344.139zm-4.873-5.836-.002-.021.017.003-.015.018zm3.322 3.068.04.057-.05-.045.01-.012zm2.049 2.573-2.164-2.433.009-.01.83.736c.2.202.412.39.634.562l.37.328c.191.255.4.493.621.716-.1.031-.2.065-.3.101zm.136-1.835-.986-1.717 1.252 1.686-.266.031zm6.648 2.503-.099.004-.258-.004-.26-.016-.259-.029-.258-.041-.258-.054-.257-.066-.254-.078-.253-.09-.25-.1-.245-.112-.242-.122-.238-.134-.234-.144-.227-.154-.222-.164-.216-.173-.209-.183-.201-.192-.194-.202-.186-.21-.177-.218-.167-.226-.158-.235-.148-.242-.137-.25-.126-.257-.114-.264-.102-.27-.032-.1.139.001.321.012.315.022.307.03.301.042.294.05.286.06.28.068.272.078.265.087.257.095.25.105.241.113.234.121.226.13.219.139.21.146.202.155.194.163.185.17.177.18.169.186.16.194.15.202.143.21.134.217.125.224v.4l-4.632-2.656 4.557 3.382zm-.518 1.174-.193.104-.248.118-.255.106-.26.093-.267.082-.271.07-.276.058-.28.045-.282.034-.285.021-.288.01-.288-.004-.29-.015-.29-.028-.29-.04-.288-.052-.288-.065-.285-.076-.283-.09-.28-.101-.275-.115-.272-.126-.266-.139-.261-.151-.256-.164-.248-.177-.242-.189-.233-.201-.081-.077.13-.07.303-.154.302-.14.3-.13.3-.115.298-.104.143-.044c.377.36.791.673 1.23.937l-1.203-.025 1.542.216c1.344.71 2.879.972 4.276.698zm.241-.205-.101.026-.268.054-.272.04-.274.028-.277.015h-.279l-.28-.01-.28-.025-.28-.038-.28-.05-.28-.061-.278-.075-.275-.086-.273-.099-.27-.11-.265-.122-.262-.134-.256-.145-.25-.156-.246-.167-.238-.178-.23-.19-.224-.199-.215-.21-.206-.22-.197-.231-.187-.241-.176-.25-.166-.261-.055-.097.144-.03.335-.06.33-.047.325-.036.32-.024.315-.013.31-.002.21.007a6.735 6.735 0 0 0 1.902 1.69l-2.51-.815 5.46 2.522zm.107-.828.055.077.046.07-.497-.162c.132.01.264.015.396.015zm.245.828-3.504-1.618 1.12.364c.255.101.515.186.778.252l1.606.522v.48zm0-1.085-2.675-1.985 2.675 1.534v.45z" fill="#FCC800"/>
        <path d="M22.881 15.217h-1.354v.908h1.354c.206 0 .375-.158.375-.352v-.203c0-.194-.169-.353-.375-.353" fill="#DC2B1C"/>
    </g>
</svg>
