<svg width="34" height="40" viewBox="0 0 34 40" xmlns="http://www.w3.org/2000/svg">
    <g fill="none" fill-rule="evenodd">
        <path d="M0 0h33.675v31.514l-.015.316-.016.315-.032.316-.047.3-.063.3-.079.299-.079.268-.094.284-.11.268-.127.268-.142.237-.142.252-.173.237-.174.22-.19.205-.204.206-.205.189-.237.19-.237.173-.252.157-.268.142-.268.142-.284.126-.316.11-.3.095-.33.095-.332.079-.362.047-.347.063-.379.032-.379.016-.394.015h-4.18l-.268.016h-.268l-.252.032-.253.015-.236.032-.237.047-.237.032-.22.047-.221.047-.221.064-.22.063-.206.063-.19.063-.204.079-.19.079-.189.079-.173.094-.19.079-.173.095-.158.094-.173.095-.158.11-.158.11-.157.111-.158.11-.142.11-.142.127-.142.126-.142.11-.126.127-.284.268-.268-.268-.142-.126-.142-.11-.142-.127-.142-.126-.142-.11-.158-.11-.157-.111-.158-.11-.158-.111-.158-.095-.173-.094-.19-.095-.173-.079-.173-.094-.19-.08-.189-.078-.205-.08-.19-.062-.22-.063-.205-.063-.205-.064-.221-.047-.237-.047-.236-.032-.237-.047-.236-.032-.253-.015-.252-.032h-.268l-.268-.016h-4.18l-.395-.015-.378-.016-.379-.032-.363-.063-.347-.047-.33-.079-.332-.095-.315-.094-.284-.11-.3-.127-.284-.142-.252-.142-.253-.157-.236-.174-.237-.19-.205-.188-.205-.206-.19-.205-.173-.22-.173-.237-.142-.252-.142-.237-.126-.268-.11-.268-.096-.284-.094-.268-.063-.3-.063-.3-.048-.3-.031-.315L0 31.83V0" fill="#161413"/>
        <path d="M.19.205h33.265v31.31c0 3.375-2.161 5.756-6.357 5.756h-3.912c-3.012 0-4.937 1.041-6.356 2.445-1.42-1.404-3.36-2.445-6.357-2.445H6.562c-4.196 0-6.373-2.381-6.373-5.757V.205" fill="#CE273F"/>
        <path d="M7.445 28.454c.252-.946.836-1.435 1.798-1.593.93-.157 1.956-.678 3.076-1.199.473-.346.536-.189.189.49l-.536.615c-.284.315-.347.646.047.962.536.268.757.52.678.741-.583-.158-1.12-.079-1.577.347-.331-.095-.726-.047-1.278.22-.284-.157-.599-.173-.978-.062-.094-.237-.362-.3-.82-.221-.126-.142-.331-.237-.6-.3zm6.451 0c-.568-.583-.63-1.104.016-1.545.363-.253.899-.836 1.561-1.72.442-.031.836-.126 1.278-.189 1.766-.22 3.438-.6 4.78-1.34.252-.08.44-.032.551.157l1.041 1.372-.3.11.79.6c-.143.11-.048.19.125.252-.094.142-.031.284.11.269.064.189.206.473-.204.078-.253-.126-.284 0-.08.395l.427.615c.031.284.142.52.362.725l.348.71c0 .11.063.221.094.316.047.268.11.41.331.441-.22.426-.504.82-.978 1.073-.93.505-1.671.3-1.593-.93.048-.663.174-1.215.19-1.893.268-1.057.015-1.594-.9-1.657-.473.016-.835.016-1.104.205-.252.174-.615.11-1.104-.173-.946-.71-1.656-1.088-2.129-1.088.457.52.584 1.04.22 1.561.38.174.364.347-.015.52-.915.032-1.94-.157-3.013-.457-.347-.063-.41 0-.173.19.789.315 1.214.788 1.214 1.45-.504.016-.93.048-1.167.095-.22.142-.457.126-.678-.142zm8.943 5.095c-.268.142-.33.3-.079.457.174.11.269.127.3.048.316-.063-.126-.237-.22-.505zm-8.249-.694c-.173.126-.252.268-.158.457l.347.3c.142-.126.11-.315-.047-.442-.079-.063-.126-.173-.142-.315zm-4.038-1.656c.253.11.253.347-.063.489-.237-.095-.22-.3.063-.49zm-4.606-9.37c1.136 1.31 1.341 2.793.41 4.512-.346.836-.3 1.372.158 1.624.126-.284.237-.725.3-1.183.095-.71.552-.63 1.151-1.246.647-.662.458-1.356.395-2.46-.11-2.366.378-3.738 1.072-4.511-1.766-.49-2.839.82-3.486 3.265zm1.12-19.573c-.205.031-.284.173-.252.41l1.404 1.987c.047.095.142.19.126.268-.11.268-.158.442.079.678l.473.458c.047.331.11.6.22.694-.11.22.032.426.222.63.047.064.063.143.142.206l.078.678c-.662.552-.993.962-1.056 1.215-.032.142-.063.252.031.33l.93-.094c.08.047.174.063.206.126a.678.678 0 0 1-.552.915c-1.152.284-1.988.678-1.656 1.451.425.552.205 1.041-.52 1.483-.174.158-.253.363-.222.63-.205.174-.362.443-.504.742-.11.316-.11.458.11.426 1.609-.536 3.186-.757 4.306.174.552.457.458.694 1.325.74-.095.364 0 .569.315.632l.048.41c-.347.079-.742.079-1.089.173-.394.095-.772.253-1.12.253-.3-.237-.646-.379-.93-.552-1.451-.9-2.666-.947-3.723.284-.552.646-1.056 1.53-1.466 2.886-.08.237-.269.331-.647.11-.757-.615-.9-1.167-.52-1.53.536-.504.74-.205.457.064l.016.063c.41 0 .567.284.725.583.347-.899.158-1.514-.331-2.003l-.11-.016.047.773c-.836-.173-1.294.473-1.357 1.073-.047.583.221 1.104.978 1.546.426.141.552.63.221 1.12-.82 1.198-.694 2.476.047 4.116l.095-.047c.158-1.798.536-2.713 1.136-2.887.189-.063.362-.189.52-.394.174-.268.268-.237.395.047.33.757.3 1.483-.158 2.209-1.041 1.687-1.089 2.98.394 4.006l.047.126-.394.505c-.126.205-.031.457.316.741.252.3.378.789.457 1.404-.126.19-.142.426-.063.694.22.315.757.489 1.514.41.079-.016.063-.079.063-.158.063-.347-.173-.6-.426-1.025-.741-.662-.899-1.293-.662-1.908l.11-.174c.584.205 1.325.442 2.003.536-.284.584-.252 1.31 0 1.735.474.82.978 1.199 1.94 1.12 1.278-.11 1.909-1.167 1.436-2.602.457-.253.757-.237.915.047-.016.647.268.442.284 1.073-.758.662-1.041 1.23-.221 1.593.426.425.189.583-.363.615-.584-.142-1.01-.11-1.088.363-.537.031-.694.347-.678.851.157-.378.457-.41.615-.315.283-.016.583.063.836-.048.236-.11.504-.11.804.016.158 0 .268.063.347.19.379.394.331-.048 1.167.457.205.016.552 0 .615.331l.08-.3c.062-.11.03-.236-.095-.346-.268-.316.157-.332.899-.19.394.174.757.253 1.04.205.332-.331.41-.126.474.316.236-.647.079-.994-.568-1.025.11-.348.158.173.394-.253.205-.095.41 0 .616.205.047-.315-.142-.505-.553-.6-.094-.267-.3-.283-.583-.015-1.199-.315-1.325-1.041-.647-1.183.363-.095.505.284.789.394.22.08.331.048.63.08.332.015.632.078.837.22l.236.079c.126-.095.253-.079.41.063.174.252.347.284.505.079.473-.379 1.183-.379 1.136-.142-.016.347.047.473.173.442.11.015.158.157.158.41-.457-.016-.773.063-.773.394-.426.126-.41.426-.22.82-.048-.757.599-.142 1.23-.552l.441-.047c.048.22.253.315.647.3.142-.064.363-.064.505-.095.773-.205 1.388-.158 1.845.473a.56.56 0 0 0-.047-.584c.536-.362 1.12-.22.773.363.315-.157.63-.962.22-.946.174-.473.884-.079.679.268.3-.158.347-.394-.016-.694-.047-.268-.268-.347-.662-.237-.221-.378-.505-.394-.884-.063-.378.174-.678.19-.867-.063-.205-.331-.158-.489.126-.378.142.047.205-.126.379-.458.063-.142.189-.252.283-.441.41-.063.742-.426 1.168-1.152.3-.142.441-.725.457-1.64.126.063.284.016.489-.11-.142-.016-.205-.064-.205-.426h.394c.158-.063.221-.127.205-.205 0-.064-.157-.048-.268-.221-.047-.221-.173-.442-.41-.663l-.378-.615c-.269-.852-.584-1.34-.978-1.025l-.11-.063c-.3-.331-.521-.773-.695-1.262.016-.6-.615-.63-.946-.063l-.095-.473-.158.252-.993-1.435c.11-.016.3-.126.41-.142 1.214-.095 2.429-.458 3.675-1.152l.883-.268c.395-.158.52-.031.726.174l.899.93c.173.19.173.363.079.552-.095.19.126.442.441.71.284.316.316.741.063 1.278-.141.347-.11.568.095.678l.615.442c.41.33.615.22.6-.363a2.18 2.18 0 0 0-.3-.883c-.205-.363-.347-.71-.363-1.073-.016-.726-.11-1.104-.41-1.356a5.027 5.027 0 0 1-.883-1.12c-.08-.237-.142-.379-.268-.442-.032-.757-.584-1.136-.931-.93-.3.063-.584.094-.9.047v-.174c.395-.22 1.073-.915 1.752-1.672.252-.315.378-.189.63.063l.979 1.026c-.032.504.047.836.394.804.237.41.347.804.126.978-.22.19-.394.315-.394.584.047.394.505.804 1.01.993.046.016.125-.015.157-.079.142-.347.158-.757.016-1.167l-.174-.583c-.031-.237 0-.426.016-.6.047-.457.063-.71-.426-1.057a11.791 11.791 0 0 1-1.561-1.955c.015-.9-.758-1.136-1.246-.158l-.947.662c-.237.158-.394-.094-.394-.347-.095-1.183-.9-2.129-1.783-3.044-.473-1.435-1.12-2.634-1.356-3.738.9.095 1.577.268 1.845.536.395.426.9.647 1.026.347.047-.094-.237-.268-.379-.41.158 0 .363.142.584.363.394 0 .52-.3.41-.71.047-.331.031-.583-.11-.694l-.332-.19c-.552-.598-1.01-1.198-1.388-1.86a.382.382 0 0 1-.063-.205c0-.269-.079-.505-.347-.742l.126-.063-.016-.094.284.063-.284-.474c-.157-.583-.694-.678-1.498-.441-.11.031-.252-.095-.394-.253-.505-.488-1.041-.757-.852-.394.032.063.19.237.016.221l-.868-.142c-.19-.032-.22.032-.173.126.157.174.315.331.378.52l-1.104.064c-.22.016-.41.11-.615.094-.6-.504-1.34-.126-2.114.458l-.11-.047-.016-.9h.095l-.079-.583h.063c.063-.883-.11-1.451-.442-1.846-.063-.268.206-.236.269-.315.252-.316.236-.678.236-.867-.047-.38-.173-.505-.363-.38h-.22c-.237-.03-.426-.11-.52-.22-.253-.174-.49-.174-.727-.016-1.135.284-1.34 1.167-2.728.568-.158-.016-.19.047-.126.174.236.315.567.52.93.678-.126.094-.378.11-.789.079.237.315.694.473 1.404.457.268.158.584.095.93-.047.19-.11.206-.048.08.205-.363.3-.615.883-.663 1.94-.142.22-.22.457-.268.725-.52-.142-.978-.236-1.167-.079l-.205-.015c-.458-.347-.9-.332-1.262-.095l-.804.615c-.3.205-.552.221-.6-.031l-.331-.71c.016-.505-.173-.741-.52-.773a.89.89 0 0 1-.3-.505l-.237-.3c.08-.268-.031-.362-.22-.362-.206 0-.395-.032-.505-.11l-1.64-2.02z" fill="#161413"/>
        <path d="m29.836 25.615.224-.331c.112-.11.202-.11.27-.016l.538.347c-.113.079-.36.079-.539.11l.18.206-.18.063-.067.173c-.336-.189-.538-.363-.426-.552zm.471-1.135c.067 0 .134.142.134.3 0 .157-.067.299-.134.299-.09 0-.135-.142-.135-.3 0-.157.045-.3.135-.3zm-.314-1.278c.045-.032.157.032.224.11.09.095.112.19.067.205-.044.016-.156-.031-.224-.126-.09-.094-.112-.173-.067-.189zM31.007 21.656c-.057-.047-.114-.031-.17.016-.208.205-.246.363-.132.505l.415.268c.132.095.283.047.208-.047l-.151-.174c.094.032.17.11.264.11.075 0 .094-.094 0-.157-.151-.127-.189-.174-.095-.253.038-.031.038-.063-.018-.094l-.321-.174zm0-1.467c-.19-.189-.151-.3.094-.284-.227-.3.019-.362.245-.047.114.142.133.426.095.757-.02.095-.151.126-.189 0a1.443 1.443 0 0 0-.245-.426zm.15 1.246.095-.362c.019-.095.057-.08.113 0 .151.157.284.315.321.583.038.11.02.174-.075.19-.113.015-.208-.032-.302-.11-.132-.127-.17-.206-.151-.3zM25.49 17.398c.015-.663.094-1.2.094-1.688 0-.205.142-.205.142.031.031.52-.032 1.057-.095 1.61 0 .078-.142.22-.142.047zm.92 2.634c.035 0 .053.031.053.063 0 .031-.018.063-.053.063-.036 0-.053-.032-.053-.063 0-.032.017-.063.053-.063zm-1.568-2.335.064-.047c.015-.016.047-.016.063.016l.236.3c.016.015.016.047 0 .062l-.063.048c-.016.016-.047.016-.063-.016l-.252-.3c-.016-.015-.016-.047.015-.063zm2.272 1.688.094-.615-.11.22c-.095 0-.11-.094-.126-.283-.016-.221 0-.3.126-.253l.079.205.063-.142c.11-.063.126 0 .079.19l-.032.678c-.063.095-.11.268-.173 0zm1.672-1.94c-.095-.126-.11-.284 0-.394a.251.251 0 0 1 .347-.048c.094.048.126.11.126.158l-.19.063.237.063c.126.11.016.316-.094.142-.095-.094-.205-.11-.316-.047 0 .142-.031.173-.11.063zm-2.287 1.104c.031-.016.094.047.142.126.031.079.047.158 0 .174-.032.031-.095-.032-.127-.11-.047-.08-.047-.174-.015-.19zm-1.451-.126c.031-.016.094.031.142.11.047.095.047.174.015.19-.031.015-.094-.032-.142-.127-.047-.079-.047-.157-.015-.173zm.425-.773c.11-.016.253.11.284.284.048.19-.031.347-.142.378-.126.016-.252-.094-.3-.284-.03-.189.032-.347.158-.378zm.205 1.04c-.063-.299.032-.346.142-.062.174.41.269.93.253 1.561 0 .237-.19.253-.205.032-.063-.552-.08-1.073-.19-1.53zm1.83.49c.016-.3.079-.615.19-.915.047-.142.11-.158.189-.079.284-.457.22-.205.094.142l.08.047c.346-.646.204-.126.173.158-.253.316-.426.379-.505.158l-.079.41c-.063.19-.11.22-.142.079zM6.057 30.158c-.11.426-.584.205-.347-.174.583-.946 1.151-1.892 1.262-3.17.031-.457.315-.662.678-.868.773-.425 1.04-1.15 1.025-1.971-.173-3.565.82-5.126 2.35-5.742l-.047.142c-1.372.836-1.94 2.445-1.956 4.638-.016.489-.063.993 0 1.53l.047-.11c.048-1.294.048-2.398.206-3.155.173-.836.441-1.341.71-1.704.094-.126.173-.284.267-.378.127-.126.269-.158.379-.268l-.016.11c-.52.52-.962 1.183-1.167 2.05-.22.994-.237 2.146-.158 3.344a1.211 1.211 0 0 1-.11.442l.063-.032c.095-.189.142-.41.142-.678-.11-1.451 0-2.918.52-3.943.363-.71.584-.978 1.594-1.546l-.032.11c-.852.584-1.656 1.262-1.814 3.565l.047-.047c.158-1.75.79-3.044 1.956-3.517.41-.174.9-.142 1.436-.142l-.095.078c-.82-.078-1.53.206-2.145.852l.094.032c.584-.6 1.262-.93 2.114-.742l-.063.127c-.6-.095-1.104.126-1.577.489v.063c.536-.363 1.025-.537 1.498-.442.158.016.205.142.158.331l-.095.868c-.016.836-.063 1.656-.268 2.397l-.079.063.079-1.45-.331 1.797c-.032.205-.174.174-.142-.015.079-.379.205-.9.284-1.452-.08.016-.142.064-.158.174-.095.773-.22 1.404-.394 1.624.11-.488.173-.977.189-1.466l-.095.078-.236 1.373c.173.094-.048.236-.11.063l.078-.757-.063-.016-.331 1.215.11-.836-.284.836h-.11l.142-.71-.473 1.293c-.142.032-.158-.016-.048-.237l.3-.883-.095.016c-.189.647-.33 1.104-.567 1.246l-.08.016c.332-.584.38-.868.395-1.152-.173.552-.347.947-.662 1.278-.048-.047.015-.19.205-.536l.173-.458c-.079-.094-.126-.063-.173.08-.11.393-.221.662-.426.914l.205-.773-.032-.094c-.142.457-.33.851-.6 1.088l.127.063c.426-.284 1.01-.19 1.609-.457.126-.064.252-.095.331-.032l-.11.3-.11-.174c-.064.237-.158.458-.285.552l-.047-.347c-.252.552-.426.852-.441.584l.047-.331c-.19.189-.316.41-.363.678-.095-.016-.11-.205-.079-.473l-.158.583c-.142.032-.173-.126-.094-.473-.126.315-.237.536-.284.568-.063-.095-.079-.253-.032-.458l-.157.3c0 .221-.064.3-.158.284.047-.331.047-.457-.016-.379l-.19.505c-.11.063-.141-.063-.125-.347-.174.095-.127.442-.253.584-.094-.063-.11-.221-.094-.395-.08.269-.158.426-.269.442l-.031-.52c-.047.236-.11.425-.205.583l-.142-.378-.063.362c-.11.064-.205-.031-.268-.268-.016.49-.063.9-.379 1.104.032.127-.11.458-.3.836l.505-.74c.11-.032.158.03.11.267l-.52.852c-.079.095-.173.063-.268 0-.11.426-.3.725-.489 1.01.22-.143.363-.442.536-.852.032-.127.174.031.126.284l-.126.11.016.19-.158.015v.252l-.142.064c.142.346-.031.567-.378.394zM9.022 18.28l.615-.11-.031.127-.584-.016M3.28 23.092c.08-.3.285-.474.49-.836.126-.206.173-.064.157.126-.268.394-.473.6-.646.71" fill="#FFF"/>
        <path d="M9.732 17.997c-1.01-.9-2.003-1.372-2.745-1.215-1.403.316-2.082 1.61-2.492 2.84.237-.41.442-.679.694-.758-.694 1.104-1.088 2.224-1.151 3.518a.858.858 0 0 1-.252.41c-.442.331-.41.6-.49.867.095-.063.206-.268.348-.441.189-.237.41-.49.504-.9.142-.551.205-1.103.316-1.514.158-.536.315-.899.6-1.372.504-.836 1.15-1.593 1.892-1.908v.063c-.726.394-1.246.993-1.83 1.924a4.65 4.65 0 0 0-.363.789c-.126.3-.252.646-.284 1.04-.094.853-.3 1.405-.536 1.736-.252.331-.41.473-.457.63-.032.08-.095.222-.079.38.552-1.042.804-.947 1.041-1.688.331-1.136.11-2.303 1.625-3.96h.11c-.726.836-1.215 1.625-1.467 3.313-.047.284-.094.678-.22.915-.19.362-.584.646-.695 1.01l.08-.017c.188-.189.567-.63.709-.93.457-.883.3-2.067.883-3.013.757-1.246 1.341-1.893 2.272-2.255l.11-.016c-1.278.678-1.498 1.167-2.05 1.924-.19.253-.332.505-.49.978-.142.41-.236 1.041-.315 1.53a2.59 2.59 0 0 1-.584 1.325c-.142.173-.252.252-.362.41-.095.142-.19.41-.237.6l.079-.032c.347-.93.552-.726.804-1.041.142-.19.363-.568.426-1.01.095-.914.284-1.608.6-2.208.33-.662.851-1.388 1.435-1.877.268-.22.473-.347.836-.457h.079c-.426.284-.71.363-1.041.678-.537.505-1.057 1.262-1.31 1.909-.268.615-.41 1.293-.488 1.987.015-.095.063.047.094-.032.284-1.64.868-2.791 1.61-3.533.41-.426.898-.741 1.356-.852l.3-.015c-.695.189-1.357.52-1.862 1.293l.095-.016c.615-.662 1.23-.962 1.83-1.104l.094.016c-.41.142-.789.3-1.025.52l.031.095c.458-.3 1.152-.457 1.972-.536zM3.423 24.89a.749.749 0 0 1-.11-.395c.015-.189.157-.173.189-.047.031.237-.08.252-.08.442M5.252 26.577l.158-.173c.079-.047.174-.063.237-.032-.016.08-.19.158-.395.205M5.11 27.066l.206-.22c.11-.08.236-.095.33-.048-.03.095-.252.205-.536.268M5.126 27.319l.237-.205c.11-.063.252-.08.347-.016-.032.079-.3.173-.584.22M5.19 27.54l.22-.19a.355.355 0 0 1 .331-.016c-.047.095-.284.174-.552.206M5.3 27.776l.142-.158c.079-.047.173-.063.236-.031-.015.063-.189.142-.378.19M6.104 25.263l.126-.088c.063-.034.142-.017.174.018-.016.052-.158.07-.3.07M5.9 25.52l.267-.126c.126-.015.253 0 .316.08-.063.078-.3.094-.584.047M6.057 24.874l.205-.158a.301.301 0 0 1 .284 0c-.048.08-.253.126-.49.158M6.215 24.495l.205-.047c.094 0 .189.047.22.11-.047.048-.236.016-.425-.063M5.773 28.754l.142-.093a.254.254 0 0 1 .173.018c-.015.057-.157.094-.315.075M6.215 28.25l-.347.047c-.142.063-.253.189-.269.3.11.03.363-.127.616-.348M6.057 28.092h-.268c-.126.031-.221.11-.237.205.079.031.3-.063.505-.205M7.287 29.385l.158-.331a.44.44 0 0 1 .347-.174c0 .11-.22.331-.505.505M7.997 29.054l.284-.11c.142 0 .268.047.331.126h-.016c-.016.094-.205.268-.441.394l.142-.268a.682.682 0 0 1 .11-.095h-.095a1.61 1.61 0 0 1-.33.268l.11-.22c.015-.032.047-.048.063-.064-.048-.015-.095-.015-.158-.031M9.37 29.101c.094-.047.425.032.378.142-.016.095-.221.268-.442.426l.126-.284c.032-.047.063-.063.095-.095h-.11a1.446 1.446 0 0 1-.316.268l.095-.236c.015-.016.047-.032.063-.047-.032 0-.063-.016-.08-.016a1.033 1.033 0 0 1-.236.189l.063-.158c.11-.142.19-.126.363-.189M11.404 29.054c0-.268.205-.426.6-.474.457-.063 1.009.032.851.237h-.047l-.08.19-.173.315.11-.347.048-.174c-.047-.015-.126-.047-.205-.063l-.142.142-.237.268.19-.315.079-.126c-.032 0-.064-.016-.095-.016l-.142.142-.237.268.19-.3.079-.126h-.127l-.094.142-.221.284.158-.331.047-.08a2.6 2.6 0 0 0-.174.048l-.11.268.047-.252c-.142.063-.268.142-.315.3M9.921 29.275v-.032h.032l.394-.252c.268-.127.6-.174.552.047 0 .016-.031.047-.094.063 0 .079.015.174.015.268l-.11-.236h-.063c0 .126 0 .252.016.378l-.158-.347c-.032.016-.047.016-.079.016.016.173.016.363.016.552l-.221-.458v-.031c-.032.095-.047.205-.079.3l-.047-.316c-.048.126-.11.284-.158.442l-.016-.331v-.08.016z" fill="#FFF"/>
        <path d="m5.41 18.612.678-.678c-.268.11-.504.331-.678.678M9.133 30.946c-.064-.157-.142-.3 0-.662.126-.331.284-.426.378-.41.11.126-.031.378.032.694l-.253-.22.08.425-.19-.205-.047.378zM11.372 31.357c-.031-.064-.079-.095-.094-.095-.032.016 0 .079.031.142.048.063.095.095.11.095.016-.016 0-.08-.047-.142M11.372 31.64c-.063-.094-.126-.141-.157-.126-.032.016 0 .095.063.19.063.094.126.142.157.126.016-.016 0-.095-.063-.19M11.23 31.909c-.047-.08-.094-.127-.11-.127-.032.016-.016.095.016.174.047.063.094.126.11.11.032 0 .016-.079-.016-.157M11.088 32.177c-.031-.126-.11-.221-.142-.205-.031.015-.031.126.016.252.032.11.095.205.126.205.048-.016.048-.126 0-.252M9.243 32.066c.095.016.158.048.158.08-.016.015-.095.03-.174.015-.079-.016-.158-.047-.142-.063 0-.032.08-.047.158-.032M9.164 31.861c.11.016.19.063.19.095 0 .031-.095.047-.206.031-.11-.031-.189-.063-.189-.094 0-.032.095-.047.205-.032M9.117 31.609c.126.031.22.079.22.11-.015.048-.126.063-.252.032-.126-.016-.236-.063-.22-.11 0-.032.11-.048.252-.032M13.218 28.928c-.095-.316.252-.426.615-.269.284.11.63.158 1.088.064.221-.048.458-.048.694-.016.237.126.221.236-.047.284-.505.473-.883.962-.946 1.435-.174-.237.189-.836.757-1.577-.347.268-.663.615-.962 1.01.063-.253.268-.6.552-.979-.616.458-1.041 1.136-.978 2.398-.237-.757-.08-1.483.41-2.193l-.679.71.616-.946-.379.126.032-.142-.237.11v-.157l-.315.252.063-.268c-.11-.063-.19.031-.284.158M13.502 30.71a.812.812 0 0 0 .142.63c.047.048.11-.015.078-.125-.11-.095-.173-.284-.22-.505" fill="#FFF"/>
        <path d="M14.29 30.805c.032 0 .063.078.063.189 0 .11-.031.205-.063.205-.031 0-.063-.095-.063-.205 0-.11.032-.19.063-.19M15.016 30c.016.016.016.095-.016.174-.047.094-.095.157-.126.142-.032 0-.016-.095.016-.174.047-.095.094-.158.126-.142M15.19 29.622c.031.031 0 .094-.048.157-.047.08-.11.126-.126.11-.016-.015 0-.094.047-.157.048-.079.11-.11.126-.11M21.104 30.237c.268.094.3.473.158.93a2.055 2.055 0 0 0-.158-.93M19.744 32.177a.698.698 0 0 0-.107-.237l.054.284.053-.047zM16.64 27.413c.032 0 .08 0 .127.016l.126.205a.459.459 0 0 1-.142-.031l-.11-.19M16.388 28.786c.032.015.079.094.095.173.016.079 0 .126-.032.11-.031-.015-.079-.078-.094-.157-.016-.08 0-.126.031-.126M16.625 28.77c.016-.016.063.047.079.126.031.079.047.142.031.158-.031 0-.063-.048-.094-.126-.032-.095-.048-.158-.016-.158M16.909 28.723c.031 0 .094.094.11.205.016.094.032.142-.047.142-.063.015-.048-.032-.063-.142-.016-.095-.016-.205 0-.205M17.177 28.628c.016 0 .079.079.126.205.032.11.047.22.016.22-.032.017-.08-.062-.126-.189-.032-.126-.048-.22-.016-.236M17.46 28.628c.048-.016.095.095.127.22.032.143.016.253-.016.269-.031 0-.094-.11-.11-.237-.032-.142-.032-.252 0-.252M17.776 28.675c.032-.016.126.142.142.268.032.127.047.19-.047.205-.11.016-.08-.047-.11-.189-.016-.126-.016-.284.015-.284M17.981 28.612c.048-.016.095.095.142.237.032.142.032.268 0 .268-.031.016-.094-.095-.126-.237s-.047-.268-.016-.268M18.313 28.533c.031 0 .078.142.078.316 0 .173-.031.315-.078.315-.032 0-.08-.142-.08-.315 0-.174.032-.316.08-.316M18.58 28.628c.032 0 .064.126.064.268 0 .158-.032.268-.063.268-.048 0-.064-.11-.064-.268 0-.142.016-.268.064-.268M18.849 28.549c.031 0 .063.142.063.315 0 .174-.032.316-.063.316-.032 0-.063-.142-.063-.316 0-.173.031-.315.063-.315M19.133 28.47c.047.016.063.158.047.363-.032.173-.063.331-.11.331-.032 0-.048-.158-.032-.347.016-.19.047-.347.095-.347M19.511 28.454c.048 0 .048.158.016.347-.032.19-.079.332-.126.332-.032 0-.047-.158-.016-.347.032-.19.095-.332.126-.332M19.81 28.28c.048 0 .127.237.095.458-.047.237-.11.426-.157.41-.047-.015-.016-.205.016-.425.031-.237.015-.458.047-.442M18.202 30.063c.016-.016.047.048.079.11a.477.477 0 0 1 .032.158c-.016.016-.064-.047-.08-.11-.03-.079-.047-.158-.03-.158M18.423 29.984c.031 0 .079.08.11.174.032.094.032.142-.016.158-.063.031-.047-.032-.078-.127-.032-.078-.032-.189-.016-.205M20.552 29.322v.11l.142-.094c.032-.284.032-.552.016-.773a7.007 7.007 0 0 1-.158.757" fill="#FFF"/>
        <path d="M20.395 29.669c-.08.41-.095.536-.253.678.063-.252.032-.442.032-.489-.048.016-.08.032-.11.032v.047a.804.804 0 0 1-.174.615c-.016-.22.079-.426.079-.647-.048.016-.08.032-.127.048v.22c-.015.095-.11.332-.126.348.016 0 .08-.458.032-.553-.032.016-.079.016-.11.032v.063c-.016.047-.016.095-.048.095-.016 0-.031-.032-.031-.08-.016-.015-.016-.046-.032-.062-.016 0-.047 0-.079.016v.015c.016.048.016.08 0 .095-.016 0-.047-.047-.079-.095-.031 0-.063.016-.079.016.016.079.016.11-.047.142-.079.032-.079-.047-.095-.126-.047.016-.094.016-.141.031.015.064 0 .11-.016.11-.016.017-.048-.03-.08-.094h-.125c.015.063.015.095 0 .11-.016 0-.048-.03-.08-.094l-.015.016c0-.016 0-.016.016-.016-.016-.016-.016-.047-.032-.079-.047-.095-.063-.19-.047-.205.032-.016.079.047.126.158a.291.291 0 0 1 .032.11.293.293 0 0 1 .11-.031c0-.032 0-.048-.016-.063-.031-.127-.031-.237 0-.253.032-.015.08.08.11.205 0 .016.017.048.017.08.047-.017.078-.032.126-.048-.016-.079-.016-.11-.016-.158 0-.063 0-.094.016-.094.015-.016.094.094.126.22.031-.016.047-.016.079-.031-.016-.016-.016-.016-.016-.032-.032-.094-.032-.126-.032-.19-.015-.046-.015-.062 0-.078.016-.016.095.11.127.22 0 .017 0 .032.015.048.032-.016.048-.016.08-.031v-.252c0-.064.015-.095.03-.095.017 0 .032.031.048.079.016.063.032.142.047.22.032 0 .064-.015.095-.031v-.126c.016-.048.016-.08.032-.08.015-.015.047.08.063.159.047-.016.078-.032.126-.048v-.173c0-.048.016-.095.031-.095.016-.016.032.016.032.063a.466.466 0 0 1 .031.158c.032-.016.064-.016.095-.047 0-.095.016-.19.016-.253.016-.063.031-.11.047-.11.016-.016.032.016.032.079.015.063.015.142.015.236a.224.224 0 0 1 .095-.031c.11-.442.252-1.041.252-1.578-.031-.063-.063-.11-.094-.173-.032.6-.079 1.104-.268 1.435.094-.489.11-1.01-.016-1.609h-.047c.015.647.015 1.183-.158 1.546a3.748 3.748 0 0 0-.158-1.688c-.031-.015-.063-.031-.094-.031.141.126.11.63.047.71-.095-.3-.016-.395-.284-.6h-.079c.142.158.158.395.126.584a1.864 1.864 0 0 0-.33-.505H19.1c.205.237.205.284.174.473-.08-.205-.395-.347-.52-.441-.064 0-.08.015-.143.015.158.08.379.363.3.458-.11-.126-.347-.253-.442-.426-.063 0-.031.032-.094.032.031.094 0 .157.015.268-.142-.032-.22-.048-.394-.237-.032 0-.095-.016-.095 0 .016.047.08.158.095.205-.032-.047-.363-.22-.394-.268-.016-.016.063-.016-.126-.032.015.048.126.3.142.347a6.31 6.31 0 0 0-.3-.33c-.08-.017-.142-.017-.221-.032l-.142-.237c.71.047 1.498.016 2.445-.158l.883-.173c.3-.095.505.063.568.52l.047.505c.19.268.268.6.08 1.057.078.331.267.615.551.852.253.236.284.567-.016 1.04-.268.695-.646 1.12-.978 1.578 0 .016-.031.032-.031.047-.016.016-.032.032-.047.063.015-.031.031-.047.047-.079l-.047-.236c.047.063.063.11.078.173l.142-.236a7.332 7.332 0 0 1-.047-.253c.032.063.063.11.095.174.031-.063.079-.126.11-.19-.031-.078-.047-.173-.079-.267.048.063.08.126.11.189.048-.08.095-.158.127-.237-.016-.079-.047-.158-.063-.236.031.047.063.094.094.157.048-.142.08-.252.095-.347l-1.625 1.01c.142-.126.3-.237.442-.363l-.016.016c-.016-.095-.031-.205-.047-.3.047.079.079.174.11.252.032-.031.08-.063.11-.094-.015-.126-.03-.253-.047-.379.064.11.095.221.127.316.047-.032.094-.08.142-.11-.016-.158-.032-.332-.063-.505.078.141.126.283.157.425.048-.047.08-.078.126-.11-.015-.22-.047-.473-.078-.71.11.221.189.426.189.6.031-.032.063-.048.094-.08a6.887 6.887 0 0 0-.094-.772c.126.236.205.473.22.662 0-.015.032-.031.048-.047 0-.252-.047-.6-.095-.915.158.3.237.584.205.789l.095-.095c-.016-.457-.174-.867-.315-1.293-.064.22-.064.3-.127.284.032-.253.016-.363-.031-.395-.032.347-.11.568-.221.679l.063-.568h-.094z" fill="#FFF"/>
        <path d="M18.975 30.663c0 .094 0 .173-.063.173-.063-.016-.047-.095-.032-.173h.095M19.148 30.49c.032.015.048.046.048.157 0 .11 0 .189-.08.189-.094-.016-.078-.11-.046-.205.031-.11.047-.142.078-.142M19.37 30.52c0 .174 0 .3-.064.285-.063-.016-.063-.142-.031-.284h.094M19.354 30.3c.021 0 .021.042.043.106h-.107c.022-.064.043-.106.064-.106M19.559 30.268c.031 0 .047.063.047.205s0 .268-.11.253c-.111-.016-.08-.142-.048-.284.047-.126.063-.174.11-.174M18.47 25.741c.395.095.805.426 1.215.773.063.11.031.142-.063.095-.284-.095-.694-.568-1.152-.868M19.984 26.767c.08.047.11.094.095.11-.016.032-.079.016-.158-.031-.063-.048-.11-.11-.094-.127.015-.015.078 0 .157.048M16.01 27.35l.425.048.095.157-.016-.015c-.047 0 .142.504-.11-.032-.032-.063-.126-.047-.205-.079-.079-.031-.047-.047-.19-.079M14.038 34.164c.079 0 .158.032.158.063 0 .016-.048.048-.127.048-.094 0-.157-.016-.157-.048-.016-.031.047-.063.126-.063M14.243 34.559c.126-.032.268-.048.284-.016.032.031-.063.079-.19.126-.126.031-.252.031-.283 0-.016-.032.063-.079.189-.11M14.37 34.685c.141-.032.283-.048.315-.016.015.031-.08.095-.221.126-.158.047-.284.047-.316.016-.031-.032.063-.095.221-.126M14.559 34.827c.094-.032.189-.032.205 0 .015.015-.048.063-.142.094-.11.016-.205.016-.221-.016-.016-.015.063-.063.158-.078M14.685 34.953c.094 0 .157.031.157.063.016.031-.047.047-.126.047s-.157-.016-.157-.047c0-.032.047-.063.126-.063M16.372 34.322c.127-.047.253-.047.269.016.031.047-.064.142-.19.189-.126.047-.252.047-.268-.016-.016-.047.063-.126.19-.19M16.152 34.18c.094-.047.189-.047.205 0 .015.047-.048.11-.142.142-.095.047-.19.031-.205 0-.032-.047.047-.11.142-.142M15.947 33.896c.078-.031.141-.016.157 0 .016.047-.031.095-.11.11-.079.032-.142.032-.158 0-.016-.031.032-.078.11-.11M13.66 32.587c-.016-.079-.095-.079-.127-.016-.016.11.016.252.126.316.127.063.158-.064.095-.11a.311.311 0 0 1-.095-.19M13.439 32.476c.015-.094-.064-.142-.127-.063-.078.11-.11.284-.015.395.11.142.205.015.173-.063-.047-.11-.063-.174-.031-.269M24.448 25.394c-.095.142-.126.679.347 1.325.174.221-.031.379.221.41.095-.015.158-.094.174-.236l-.158-.079h.22l-.236-.158c.079-.016.268.032.252-.047-.015-.095-.236-.11-.347-.158l.269-.063c.015-.079-.142-.142-.395-.22l.252-.064-.283-.173.22-.063-.347-.174.19-.095-.205-.063.189-.094c-.158-.063-.22-.205-.363-.048M24.07 25.804c-.095-.205-.11-.378-.063-.536.11-.284.22-.363.315-.363.19.205-.126.332-.19.49-.047.031-.062.141-.062.41M23.99 24.827c.08-.08.174-.127.206-.095.031.032-.016.11-.095.205-.079.079-.173.142-.205.11-.031-.031.016-.126.095-.22M23.912 25.836c.047 0 .095.047.095.11a.102.102 0 0 1-.095.095c-.063 0-.11-.047-.11-.095 0-.063.047-.11.11-.11M24.117 26.152c.063.015.079.094.031.173-.031.079-.094.126-.141.095-.064-.016-.08-.095-.032-.174.032-.079.095-.126.142-.094M24.338 26.483c.079.031.094.11.031.205a.247.247 0 0 1-.236.11c-.08-.031-.095-.126-.048-.205.048-.079.158-.142.253-.11M24.574 26.846c.048.063.016.126-.063.157a.172.172 0 0 1-.205-.047c-.031-.047-.016-.11.063-.142.08-.032.158-.016.205.032M25.71 27.035c.032-.048.032-.126-.047-.142-.08-.016-.127-.016-.174-.095-.063-.19.032-.284.19-.331.126 0 .173.047.141.126l-.078.063c.142.048.236.095.283.174-.078 0-.126.016-.141.079.268-.048.252.378.015.3-.158-.048-.236.015-.158.283.064.316.284.394.269.063-.032-.157.504-.189.568.158l-.206-.079c.048.252.253.142.284.363l-.173.016c.205.142.363.315.442.52-.221-.031-.237-.268-.442-.268.268.363.583.284.741.647-.22-.016-.489-.19-.788-.473.268.378.441.694.378.851-.394-.173-.473-.757-.63-.93 0 .3.22.473.141.804-.158-.19-.236-.489-.236-.962.157.032.22-.079.22-.347-.031-.284-.173-.268-.142 0 0 .205-.142.268-.567.016-.064.063.031.142.268.284l-.016.236.126-.205.047.663c-.015.173-.063.142-.11-.032l-.047-.331c0 .236-.032.347-.11.331l-.064-.615-.173.22-.048-.346-.157.126v-.426c-.11.063-.237.016-.363-.173.173.047.284.015.426-.063-.08-.316.063-.474.331-.505M21.956 28.96c.016-.143.047-.19-.095-.38-.063-.063-.11-.078-.094 0 .031.127.158.253.189.38M21.704 27.997c.205.11.3.126.41.426.031.11.016.19-.063.094-.126-.141-.19-.378-.347-.52M21.735 27.382c.268.19.379.22.505.662.031.174-.016.268-.11.126-.158-.22-.205-.552-.395-.788M21.861 26.94c.3.095.52.458.52.773 0 .173-.078.284-.125.126-.063-.22-.174-.678-.395-.899M21.988 26.704a.9.9 0 0 1 .536.583c.016.158 0 .237-.11.11-.064-.236-.221-.473-.426-.693M23.849 34.511c.063-.158.3-.315.583-.19.127.032.11.19.11.3-.078-.078-.157-.173-.236-.078-.22-.174-.3-.08-.457-.032M22.997 34.574c.063 0 .11.032.11.095 0 .047-.047.079-.11.079-.047 0-.095-.032-.095-.08 0-.062.048-.094.095-.094M22.445 34.574c.032-.015.079.048.11.126.016.08.016.158-.015.158-.032.016-.08-.031-.11-.126-.017-.079-.017-.158.015-.158M22.636 34.543c.017 0 .05.031.067.094.017.048.017.095-.017.11-.016 0-.05-.03-.067-.094-.017-.047-.017-.094.017-.11M22.682 32.508c-.016.016-.032.032-.032.047-.063.063-.126.11-.142.08-.031-.017-.016-.095.032-.159l.063-.063c-.016-.015-.016-.031-.032-.047-.016.016-.016.032-.031.047-.063.08-.142.127-.174.095-.031-.016-.016-.11.047-.19.016-.03.048-.047.064-.062-.016-.016-.016-.032-.032-.032-.063.079-.142.11-.174.095-.031-.032-.015-.11.048-.19 0-.015.016-.031.031-.031-.031-.032-.031-.047-.047-.063-.047.031-.079.047-.11.031-.016-.015 0-.079.047-.142-.032-.063-.047-.126 0-.157.095-.08.142.031.237.236.031.08 0 .126.047.174.031.063.126.094.158.142.11.173.094.315.078.331-.031.016-.015-.016-.078-.142" fill="#FFF"/>
        <path d="M22.682 32.666c.047.031.015.126-.063.22-.08.095-.158.142-.19.111-.047-.032-.016-.126.048-.22.078-.095.173-.143.205-.111M24.622 31.735c.015 0 0 .095-.032.19-.031.094-.094.157-.126.141-.016 0 0-.094.032-.189.047-.095.094-.158.126-.142M24.385 31.64c.032.016.016.142-.047.284-.08.127-.158.237-.205.221-.048-.016-.032-.142.047-.284.063-.142.158-.236.205-.22M23.833 31.42c.032.015.016.11-.032.236-.047.11-.11.19-.142.174-.031-.016-.015-.11.032-.221.047-.126.11-.205.142-.19M8.533 4.763c.047-.22.19-.33.347-.347l.347.063c.126.095.11.127-.031.142-.284-.047-.442.016-.52.205-.111.158-.159.174-.143-.063M9.637 5.426c.032 0 .08.031.08.094 0 .048-.048.095-.08.095-.047 0-.079-.047-.079-.095 0-.063.032-.094.08-.094" fill="#FFF"/>
        <path d="M8.486 5.11c-.11.142-.079.3.11.49l.253.315c.22.158.33.126.3-.11-.032-.158.015-.221.157-.221a.278.278 0 0 0 .205-.142c.032-.127.016-.19-.094-.221a1.451 1.451 0 0 1-.521.236c.19-.126.331-.22.378-.3.048-.047.11-.062.206-.03 0-.08-.032-.159-.142-.19-.221 0-.442.158-.647.378.126-.268.315-.425.6-.425.015-.08 0-.142-.08-.205a.69.69 0 0 0-.489.141l-.236.284M9.763 7.066c.521.505.963 1.104 1.31 1.783v.583l-.19-.662c.016.457 0 .757-.047.662l-.158-.946-.11.41-.095-.584c-.079-.063-.094.3-.079.805-.142-.142-.126-.552-.11-1.01l-.158.442c-.094-.237-.047-.552 0-.852-.094-.079-.157.079-.189.552-.11-.315-.079-.568-.032-.867l-.11.236-.032-.552M13.628 2.618c.173.126.41.158.647.158l.015.126c.379 0 .773-.173 1.168-.441-.016-.016-.095-.032-.174 0-.284.142-.252.047.284-.221.079-.048.142.016.268-.032l.347-.079a13.73 13.73 0 0 1-.883.742c-.442.252-.836.315-1.199.189a3.372 3.372 0 0 1-.6-.363c-.047-.079-.094-.126.127-.079M15.805 2.697c.047 0 .078.032.078.063 0 .032-.031.063-.078.063a.068.068 0 0 1-.064-.063c0-.031.032-.063.064-.063M16.278 3.644c.031-.048.063-.064.094-.032.032.016.032.063 0 .095-.031.047-.078.063-.094.047-.032-.016-.032-.063 0-.11M17.398 3.218c.047-.016.094-.016.11.015.016.032 0 .095-.063.11-.047.032-.095.032-.11-.015-.032-.031 0-.079.063-.11M17.145 3.044c.048-.031.095-.047.11-.016.032.016.016.08-.015.11-.047.032-.095.048-.11.017-.016-.016-.016-.064.015-.11M15.426 3.375c.047-.015.095 0 .11.032 0 .031-.031.079-.078.079-.048.016-.095 0-.11-.032 0-.031.03-.063.078-.079M16.041 4.543c.063-.032.142-.032.158 0 .016.031-.016.078-.095.11-.063.016-.142.016-.157-.016-.016-.031.015-.079.094-.094M14.022 3.47c.174-.016.41-.079.726-.22l.363-.174c.173-.08.205-.063.063.079-.158.157-.363.236-.505.347-.142.094-.347.22-.694.126-.174-.048-.11-.142.047-.158" fill="#FFF"/>
        <path d="M15.126 3.312c.205-.189.332-.236.615-.362.269-.11.537-.142.805-.142.19-.174.363.063.158.252-.063.063-.142.095-.221.142-.205.158-.426.22-.647.284-.284.079-.315.047-.079-.11.08-.064.142-.111.221-.158.174-.11.363-.142.536-.158-.268-.174-.788.095-1.309.347-.158.079-.205.031-.079-.095" fill="#FFF"/>
        <path d="M16.546 2.492c.11-.031.205-.016.331-.016.205.063.3.174.316.316-.048.142-.11.22-.205.252-.048-.252-.142-.394-.284-.441-.063-.016-.095-.016-.158-.016v-.095M16.31 2.555c.062-.031.078-.047.141-.063v.095l-.126.031c-.063.016-.126-.031-.016-.063M16.025 2.397c.142-.126.3-.236.49-.252.189-.016.394-.016.599.016.394.142.236.268-.016.173-.158-.094-.347-.078-.568 0-.016.158-.284.032-.442.142-.11.048-.126.016-.063-.079M17.177 2.445c.126 0 .22.016.236.126.016.142-.015.252-.11.315.047-.3-.095-.268-.126-.441M17.524 2.366c.031.047.047.173 0 .378l-.126.237c-.032.11 0 .142.079.11a.378.378 0 0 0 .189-.347c0-.236.016-.347.094-.425-.141-.237-.283-.205-.236.047M16.514 3.754c0 .158.363.19.41.016.08-.19-.063-.332-.015-.52-.237.062-.395.236-.395.504M16.42 4.164c.079-.142.205-.19.394-.173.142 0 .22.031.22.173s.017.3-.015.426c-.047.126-.063.11-.22.126-.174 0-.237-.079-.427.032.11-.269-.015-.379.048-.584M17.098 3.549c-.079-.126.016-.174.095-.079.094.079.157.19.157.3.016.11-.11.205-.189.11-.079-.095.016-.19-.063-.331M17.177 4.148c-.048-.157.016-.173.205-.094.126.11.142.189.079.252.126.126.126.3.016.505-.08-.063-.174-.032-.237-.126-.016-.064-.063-.032-.032-.269a.4.4 0 0 0-.031-.268M17.398 5.442c.079 0 .126.047.126.094 0 .048-.063.08-.126.063-.08 0-.127-.047-.127-.094 0-.032.064-.063.127-.063M16.42 5.3c.079 0 .142.047.126.094 0 .048-.063.095-.142.08-.079 0-.142-.048-.126-.095 0-.048.063-.095.142-.08" fill="#FFF"/>
        <path d="M17.619 5.126c-.095-.158-.332-.268-.679-.315-.22-.032-.52.031-.836.11-.173.19-.236.473-.205.852l.142.031-.126.095h.173l-.11.158.095.031-.08.205.095.063-.047.127.126.015-.031.127.094.015-.031.127.094.031c.064.095.174.174.3.253.095.047.19.047.3.031.19-.142.236-.268.394-.442.047-.015.063-.11.063-.252.095-.047.126-.126.126-.237l.08-.11v-.378c-.095.031-.158.047-.237.031l-.221-.095-.063.49c0 .094-.048.236-.158.189l-.268-.127c-.063-.031-.047-.126.031-.157l.095-.016v-.426c-.158.047-.331.063-.489-.047-.063-.032-.126-.032-.189-.032a.635.635 0 0 1 .173-.22l-.094-.143c.031 0 .094.016.142.016.22-.016.331-.047.394.016s.11.11.174.142l.015-.11c.048-.127.142-.158.284-.11l-.031.315.505-.158v-.095zM16.45 6.42c.142-.032.3-.032.442 0 .252.063.268.157.031.3-.142 0-.3 0-.457-.048.047-.079.095-.11-.016-.252zm.19.11c.063-.047.157-.047.252 0 .047.032.031.079-.016.11a.325.325 0 0 1-.173 0c-.048-.047-.016-.078-.063-.11z" fill="#FFF"/>
        <path d="M16.694 6.041c.035 0 .053.021.053.064 0 .02-.018.042-.053.042-.018 0-.053-.021-.053-.042 0-.043.035-.064.053-.064M16.94 5.315c0-.031.016-.063.016-.11.079-.079.11-.126.11-.047 0 .063 0 .11-.015.157h-.11M16.846 6.088c.015-.205.047-.378.078-.63h.11c-.015.173-.03.362-.094.662-.031.063-.063.031-.094-.032M15.631 5c-.016-.126.11-.11.126 0 .032.22 0 .394-.11.505-.08.047-.19 0-.126-.095.11-.158.142-.268.11-.41M15.536 5.9c-.031-.143.064-.19.095-.033.11.426.3.836.726 1.23.173.143-.016.269-.174.127-.426-.363-.552-.868-.647-1.325M17.114 7.192c-.016-.126.031-.252.173-.362.095-.063.126.047.08.11-.096.11-.174.11-.253.252M12.997 8.943c.016-.11.031-.19.095-.268a.477.477 0 0 1-.11-.079c-.08.174-.19.316-.348.52.11-.33.221-.583.458-.835a2.98 2.98 0 0 1-.095.284c.031.031.079.063.11.094.032-.031.063-.063.08-.094 0 .047 0 .094-.016.142h.015l-.015.047-.016-.016a.599.599 0 0 1-.158.205M12.808 9.227a.37.37 0 0 1 .11-.22c-.016.11-.031.141-.11.22M13.644 9.353c.015-.063.031-.126.047-.173l.032-.032a.12.12 0 0 1 .031-.063c.032-.031.063-.079.095-.11-.016.189-.063.252-.205.378M13.612 9.81c-.047-.157 0-.267.19-.362 0 .237-.016.3-.19.363zM13.99 9.669c.158-.379.174-.552.127-1.025.173.441.142.567-.126 1.025M16.562 11.104c.079-.331.11-.647.094-.978-.031.016-.047.016-.079.032a2.44 2.44 0 0 1-.157.63c.047-.204.079-.41.063-.614a.224.224 0 0 1-.095.031 2.92 2.92 0 0 1-.126.505c.032-.174.047-.331.047-.49-.047 0-.094.017-.142.017a8.152 8.152 0 0 1-.094.71c0-.237-.016-.474-.016-.695h-.158c0 .237-.031.474-.079.805-.015-.284-.015-.552-.031-.82-.048-.016-.095-.016-.158-.032 0 .253-.032.505-.079.852-.016-.3-.031-.584-.031-.868l-.142-.047c-.016.237-.063.473-.126.789 0-.284 0-.537.015-.82l-.142-.048c-.015.316-.047.6-.063.93-.047-.41-.079-.693-.047-.977-.047-.016-.095-.032-.126-.063-.08.378-.11.71-.08 1.088-.11-.489-.125-.773-.015-1.12-.031-.031-.063-.047-.095-.063a2.779 2.779 0 0 1-.22.426c.079-.158.11-.316.157-.457-.047-.032-.11-.064-.157-.095-.032.205-.127.41-.284.694.205-.505.22-.978.236-1.577.048.236.08.425.08.599.062.032.11.047.173.079.031-.268.047-.52.047-.82.079.347.11.599.063.836.047.015.095.047.142.047.016-.032.047-.079.079-.126l-.047.142c.031 0 .078.015.11.015.032-.094.047-.205.095-.33 0 .125-.016.236-.016.362.047 0 .079.016.126.016 0-.08.016-.174.016-.268.031.11.031.189.047.284.047 0 .11.015.158.015v-.363c.031.142.063.253.079.363a.77.77 0 0 0 .189.016c0-.126 0-.237.016-.379.031.142.047.269.079.38h.157v-.569c.063.221.095.395.11.552.048 0 .095-.015.143-.015 0-.127-.032-.269-.048-.41.064.141.11.268.127.394.031 0 .063-.016.094-.016-.016-.142-.047-.284-.063-.442.063.158.11.284.142.41.032 0 .063 0 .095-.015-.032-.221-.048-.458-.095-.726.363.9.363 1.31.032 2.224zM17.003 10.063l.063.142.221-.205c.063-.079.126-.063.174.047l.015-.252c.08-.047.142-.016.206.063.047-.063.047-.142.015-.237l.032-.315c-.126-.205-.22-.331-.363-.379a.552.552 0 0 1 .032.442c-.016-.205-.11-.347-.269-.426.064.126.095.253.064.379a.473.473 0 0 0-.158-.142l.031.19-.094.062.031.631zM18.454 8.943c0 .064 0 .106-.031.106-.032 0-.063-.042-.11-.106h.141M18.36 8.675c.031.079.063.142.063.19h-.174a1.377 1.377 0 0 1-.094-.158c-.016 0-.016-.016-.016-.032h.22M18.076 8.375c.047 0 .158.095.237.237h-.206c-.063-.126-.078-.237-.031-.237M17.981 8.927c.016-.015.08.048.142.142.048.095.063.174.048.19-.016.015-.08-.048-.127-.142-.063-.095-.079-.19-.063-.19M17.682 8.864c.015-.015.094.063.173.174.063.126.095.22.063.236-.016.016-.095-.063-.173-.173-.063-.126-.095-.22-.063-.237M12.587 8.25c.047.03.079.062.11.078l.08-.079c-.017.11-.048.142-.127.221.016-.047.031-.095.047-.126-.031-.032-.063-.063-.11-.095M11.183 24.07l-.063.205-.063-.032.031-.173h.095M6.293 31.025c.205-.079.253.016.316.253.173.157.284.284.284.41.363.3.3.426-.19.378-.157-.047-.252-.157-.252-.378l-.158-.663M6.372 32.24c-.126.19-.094.426.063.615a.39.39 0 0 0 .316.142l-.063-.174.189.127c0-.095-.079-.205-.252-.332l.236.064c0-.127-.11-.237-.3-.332h.158c-.079-.22-.22-.284-.347-.11M6.987 32.35c.064-.016.11.063.127.158.015.095-.016.174-.08.19-.047.015-.11-.064-.125-.158 0-.095.031-.19.078-.19M10.19 21.546c0-.505.22-.994.504-1.483-.205.505-.378.994-.505 1.483M11.325 18.612c-.19.079-.205-.079-.063-.19.3-.252.63-.346 1.01-.346h.662c.252 0 .22.252-.016.236h-.473c-.426-.015-.773.11-1.12.3" fill="#FFF"/>
        <path d="M12.76 18.375c.174 0 .316.032.316.064 0 .047-.142.063-.316.063-.173 0-.315-.016-.315-.063 0-.032.142-.064.315-.064M14.054 15.032c-.032-.032-.11.078-.221.22-.095.127-.158.253-.142.253.016.015.11-.079.205-.221.11-.126.173-.252.158-.252M12.95 16.12c-.08.142-.048.22.11.284.631.19 1.246-.016 1.861-.363l.773-.363c.142-.173.11-.22-.079-.158l-.378.19.094-.316a1.507 1.507 0 0 0-.426.49l-.063-.158a.598.598 0 0 0-.205.33l-.079-.173a.48.48 0 0 0-.189.205l.032-.22c-.063-.048-.158.063-.284.315l.063-.237c-.047-.047-.126.048-.237.284l.253-.757c-.127.016-.3.3-.49.805-.078.015-.11-.016-.094-.08l.284-.551c-.142-.016-.3.189-.489.552l.22-.631-.41.536V15.9a.577.577 0 0 0-.267.221zM13.028 26.388c-.063-.063.048-.126.08-.095l.189.174c.047.047-.063.126-.11.095l-.159-.174M13.17 26.262c-.031-.047.048-.11.08-.079l.157.158c.047.047-.047.11-.079.079l-.158-.158zM13.265 26.12c-.063-.063.047-.142.095-.095l.189.19c.047.047-.079.126-.11.078l-.174-.173M13.344 25.883c-.063-.079.079-.189.158-.142l.284.284c.079.08-.11.205-.158.142l-.284-.284M13.644 25.63c-.095-.094.031-.22.11-.14l.347.299c.095.079-.047.22-.126.157l-.331-.315zM13.849 25.473c-.08-.079.016-.189.094-.126l.3.252c.079.08-.047.19-.11.142l-.284-.268zM14.117 25.379c-.063-.063.016-.158.079-.11l.252.22c.063.063-.047.174-.095.126l-.236-.236M12.855 23.596c0-.079-.126-.047-.142.016l-.032.284c0 .063.142.032.142-.016l.032-.284zM12.445 23.99c-.016-.126-.142-.062-.142.016l.031.221c0 .11.158.048.142-.016l-.031-.22M11.972 24.29c-.016-.11-.095-.079-.095 0l-.016.205c-.015.11.11.063.11 0v-.205M12.571 23.896c.032 0 .063.032.063.079s-.031.079-.063.079c-.016 0-.047-.032-.047-.08 0-.046.031-.078.047-.078M12.13 24.18c.047 0 .078.047.078.095 0 .063-.031.094-.079.094-.047 0-.078-.031-.078-.094 0-.048.031-.095.078-.095M11.735 24.464c0-.095-.126-.095-.126-.016v.19c0 .094.142.078.142.015l-.016-.19M15.158 12.54c.047 0 .079.047.079.11s-.032.126-.08.126c-.03 0-.062-.063-.062-.126s.031-.11.063-.11M15.347 12.84c-.031 0-.047-.08-.047-.174 0-.11.016-.19.047-.19.032 0 .063.08.063.19 0 .094-.031.173-.063.173M15.647 12.76c.079 0 .142.032.142.063 0 .016-.063.048-.142.048-.063 0-.126-.032-.126-.048 0-.031.063-.063.126-.063M15.805 13.028c.031 0 .063.032.063.064 0 .047-.032.078-.063.078-.016 0-.048-.031-.048-.078 0-.032.032-.064.048-.064M16.057 13.013h.584c.189 0 .22.094.094.268.063.315-.331.52-.315.016-.032-.095-.142-.142-.363-.142-.095-.032-.095-.127 0-.142M15.142 16.72c.047 0 .079.03.079.078 0 .047-.032.095-.079.095-.031 0-.063-.048-.063-.095s.032-.079.063-.079M14.89 16.798c.047 0 .094.047.094.11a.102.102 0 0 1-.094.095c-.063 0-.095-.047-.095-.094 0-.064.032-.11.095-.11M15.205 16.972c.205-.142.41-.237.442-.19.031.048-.11.205-.331.363-.221.142-.41.221-.458.174-.016-.048.126-.205.347-.347M15.962 16.483c.126-.11.253-.174.268-.158.032.031-.063.142-.189.252-.126.095-.252.174-.268.142-.032-.031.063-.142.19-.236M15.473 17.681c.048-.11.095-.22.158-.315l-.031-.016c.031-.19.173-.331.362-.426l.032.016a.887.887 0 0 1 .236-.158c-.047.08-.078.158-.126.221l.048.032a1 1 0 0 1 .41-.253c-.095.127-.19.221-.3.316l.095.063c.142-.126.315-.22.457-.284-.11.11-.22.237-.347.347l.11.063c.142-.11.316-.19.474-.22-.08.062-.158.125-.221.189.11-.032.236-.032.394-.048-.205.095-.331.126-.489.19l.126.078a.957.957 0 0 1 .474-.142c-.11.064-.237.142-.363.206l.11.063a.802.802 0 0 1 .458-.095 2.324 2.324 0 0 0-.347.158l.063.047c.142-.063.284-.095.426-.095-.127.048-.221.11-.332.158l.095.047a.728.728 0 0 1 .363-.031c-.095.031-.19.047-.284.094l.331.206-.063.031-.505-.173c-.031 0-.047.015-.063.031 0-.016.016-.031.032-.047l-.127-.032c-.063.032-.141.08-.22.11.047-.062.079-.11.126-.141l-.126-.048c-.063.032-.142.08-.221.11.031-.046.079-.11.126-.157l-.126-.047c-.095.063-.174.126-.268.173.047-.079.094-.142.157-.205l-.173-.063c-.079.079-.158.142-.237.205a.496.496 0 0 1 .127-.236l-.158-.063c-.079.078-.174.157-.268.236.047-.095.094-.19.157-.268l-.252-.095c-.079.095-.19.19-.3.268M13.707 18.17c-.205.41-.41 1.041-.552 2.319-.08.568-.127 1.136-.016 1.72.063.315.205.425.347.41l2.35-.38c.174-.03.347-.173.268-.33l-.094-.19-.08.268-.125-.22-.095.252-.142-.315-.11.378-.142-.3-.08.316-.078-.268-.095.33-.11-.299-.095.363-.126-.347-.095.252-.11-.205-.079.19-.11-.158a.405.405 0 0 0-.332 0l-.047.079-.063-.08c-.173-.046-.363-.078-.536-.11l.22-.11c0-.079-.078-.11-.22-.095l.236-.173-.252-.047.237-.142c0-.063-.064-.126-.253-.205l.253-.08v-.062l-.253-.032.268-.126c.032-.063-.047-.11-.22-.174l.22-.063c-.015-.063-.031-.142-.189-.205l.19-.063-.19-.142.237-.094c0-.08-.032-.11-.174-.174l.253-.11c-.016-.048-.08-.126-.237-.174l.237-.079-.19-.126.221-.095-.173-.063.205-.126c.047-.047-.032-.094-.205-.11l.236-.095.016-.094-.22.031.11-.095-.142-.11.33-.079.032-.063-.236-.063.19-.11c-.032-.095-.096-.127-.19-.127zm.362.332.048-.016c-.205 1.12-.3 2.192-.142 3.154-.079-1.498.11-3.091.394-3.36l.047.111c-.33 1.199-.362 2.271-.141 3.234-.142-1.64-.016-2.587.268-3.092v.158c-.221 1.151-.237 2.082-.032 2.839l.063-.047a9.171 9.171 0 0 1 .126-3.06l.11.016c-.22 1.214-.22 2.16-.062 3.028l.063-.063c-.126-1.246-.11-2.114.079-2.902l.094.015c-.173 1.2-.189 2.145-.031 2.918l.063-.015c-.126-1.31-.063-2.24.11-2.934l.063.063a11.25 11.25 0 0 0 0 2.823l.064-.031c-.032-1.136-.095-2.035.047-2.697l.079-.095c-.11.836-.11 1.767.031 2.808h.063c-.11-1.23-.079-2.161.048-2.918l.063.047c-.063.994-.063 1.893.015 2.886l.064-.016c-.064-1.356-.016-2.286.126-2.839.126-.047.126.11.015.284-.078.82-.11 1.64 0 2.54l.095.015c-.095-1.309-.016-2.066.126-2.807.08-.079.158.016.063.205-.11.915-.173 1.561-.078 2.602h.11c.126.048.142.095.016.142-.773.158-1.514.3-2.224.348-.142.015-.19-.064-.19-.269a9.596 9.596 0 0 1 .347-3.075zm2.603.646.095-.473c.11-.063.157-.031.142.095l-.205.394-.032-.016zm-.173-.504c-.11.788-.11 1.261-.19 2.082l.063.142c.016-.915.142-1.499.269-2.193.047-.126-.08-.158-.142-.031zm-.237-.032c.047-.063.126-.047.11.032a14.639 14.639 0 0 0-.22 2.397h-.048c-.047-.883-.016-1.672.158-2.429zm-3.28 5.158a1.99 1.99 0 0 1 .11-.789c.031-.11.142-.173.33-.19l2.114-.315c.11-.015.127.048.11.19-.03.205-.062.394-.157.552-.079.063-.095-.205-.079-.615-.157.378-.094.772-.347.836-.11-.174.063-.505.095-.758-.237.221-.158.49-.363.773-.079.016-.063-.252-.016-.678-.11.316-.205.568-.315.678-.063-.094-.063-.33-.048-.583-.094.41-.205.694-.3.741a2.43 2.43 0 0 1 .017-.678l-.048-.047c-.063.394-.126.63-.22.74a.9.9 0 0 1 .031-.725h-.095c-.063.205-.094.379-.189.442-.126-.016-.19-.158-.19-.394-.11.441-.267.678-.44.82z" fill="#FFF"/>
        <path d="M16.972 19.306c-.126.095-.174.205.079.19-.174.157-.19.268-.048.315-.315.394-.315.505-.015.331-.347.442-.3.505-.064.426-.3.363-.252.41-.157.426-.205.284-.205.426-.016.41-.158.063-.268.19-.3.442-.063.252-.741.536-.173.772.173.095.315.332.426.742.047.22.142.236.33.157.159-.047.316-.063.474-.079.3.032.315-.3-.016-.346.032-.127-.079-.19-.252-.11.142-.238-.032-.174-.095-.206.095-.047.08-.158-.173-.016l-.032-.079c.142-.047.19-.126.205-.22l-.426.142c.127-.11.19-.19.174-.269l-.3.064c.316-.221.442-.379.426-.458l-.331.095c.236-.19.394-.347.378-.442l-.284.11c0-.094.127-.189.363-.252.19-.095.284-.22.253-.394l-.426.205c.347-.316.63-.6.71-.789-.032-.11-.379.126-.836.505v-.079c.441-.3.773-.647 1.025-1.041l-.836.647.757-.9c-.047-.11-.268.016-.694.458l.031-.095.395-.425c.3-.174.489-.395.615-.663.079-.205-.19.063-.6.426-.094.095-.204.142-.315.252l.962-1.01.016-.125c-.095-.095-.71.63-1.23.883zm-1.136 3.896c-.173-.11.016-.363.142-.252l.473.347c.142.11 0 .3-.11.22l-.505-.315zm.19-.3c-.174-.11.031-.33.141-.236l.253.252c.142.126.047.237-.08.174l-.315-.19zm1.009.947c-.126-.063-.19.031-.11.094.204.174.425.316.662.426.236.126.489.142.726.142.173 0 .252-.11.031-.158-.41-.11-.82-.236-1.31-.504zm.126-.016c-.079-.095-.063-.174.047-.237l.568-.047c.11 0 .205.063.3.19l.268.299c.11.142.016.252-.095.22a6.487 6.487 0 0 1-1.088-.425z" fill="#FFF"/>
        <path d="M17.729 22.334a.81.81 0 0 1 .442-.378c.536-.079 1.072-.19 1.577-.379.157-.11.22-.078.205.095-.047.489-.11.9-.252 1.025v-.851l-.064.015c-.047.426-.11.742-.22.868l.031-.789h-.079l-.173.773.047-.678c0-.095-.031-.11-.079-.063-.11.788-.252 1.12-.41 1.23.158-.505.158-.852.126-1.152l-.047-.031c-.047.41-.11.804-.252 1.104-.158-.237.142-.647.079-1.04h-.032l-.284.977c-.095 0-.063-.126.032-.379l.031-.552-.047.032c-.079.3-.158.52-.268.71l.047-.726-.205.52.016-.425-.221.094zm2.334-.599c.016-.173.205-.126.126.047l-.094.221h-.047l.015-.268zm-.032.647c.023 0 .045.047.045.11s-.022.11-.045.11c-.022 0-.044-.047-.044-.11s.022-.11.044-.11zm.064-.237c.031 0 .047.016.047.063 0 .032-.016.063-.047.063a.068.068 0 0 1-.063-.063c0-.047.031-.063.063-.063zm-.016-.962c.047 0 .079.063.095.142.015.079.015.158-.032.158-.016.015-.063-.048-.079-.127-.015-.078 0-.157.016-.173zm-.237-.457c.142.142.158.268.142.378-.015.158-.142.268-.142.158-.015-.142 0-.3-.11-.49-.063-.078.047-.11.11-.046zm-1.151-.284c.016-.158.142-.032.142.063l-.047.252c-.048.047-.063.016-.11-.079l.015-.236zm-.552.82c-.126.079-.126.142.016.19l.063-.017v.016c0 .063.031.11.063.11s.063-.047.063-.11v-.047l.142-.032v.316c-.047.016-.095.016-.158.031 0-.031-.031-.047-.047-.047a.068.068 0 0 0-.063.063s.016.016.016.032c-.032.015 0 .015.063.063l1.057-.237c.315 0 .394-.237.315-.615.047-.126.016-.174-.095-.158l-.236-.031.142-.095c.189-.095.189-.142.031-.142l-.331-.047.268-.047c.079-.016.11-.11-.016-.158l-.284-.032.221-.047c.142-.11.063-.19-.205-.221.095-.11.08-.19-.031-.19-.048-.11-.19-.188-.142.017l.063 1.04c.031.111-.016.19-.142.237l-.773.158zm.6-.41c.047 0 .078.031.078.079 0 .047-.031.079-.079.079-.031 0-.063-.032-.063-.08 0-.047.032-.078.063-.078zm.646.331c.022 0 .044.021.044.043 0 .042-.022.063-.044.063-.023 0-.045-.021-.045-.063 0-.022.022-.043.045-.043zm-.079-.205c.063-.016.11 0 .126.032.016.047-.031.078-.094.094s-.11 0-.127-.047c-.015-.016.032-.063.095-.079zm-.709.678h.043v-.315l-.107.031.064.284zm.157-.047c.032 0 .047-.016.079-.016v-.3l-.142.032.063.284zm.198-.063c.023-.016.045-.016.067-.032v-.252l-.089.016.022.268zm.133-.063s.032 0 .048-.016c.11-.126.11-.19-.016-.22h-.032v.236zM21.53 6.577c-1.309-.11-1.94.316-2.287.757-.3.379-.457.805-.489 1.278.032.079.174-.095.379-.363l-.126-.047c.031-.095.078-.174.141-.268.032-.048.032-.126.11-.174.095-.047.159-.142.159-.173h-.11c.362-.442.867-.552 1.435-.537.157.016.3.032.441.048a.287.287 0 0 0 .205-.048c.048-.031.063-.078-.016-.078a3.987 3.987 0 0 0-1.498.063c.363-.237.883-.253 1.625-.221.3.016.315-.205.031-.237zM19.243 15c.047.032.063.126.032.237-.032.094-.11.173-.158.157-.063-.015-.079-.126-.047-.22.047-.11.11-.19.173-.174zm-1.13.457c.018 0 .053.08.053.158 0 .095-.035.158-.053.158-.035 0-.053-.063-.053-.158 0-.079.018-.158.053-.158zm.09.553c.046-.3.188-.568.44-.742.222-.158.269-.11.095.11-.157.206-.252.458-.378.679-.047.094-.19.205-.158-.047zm.662-1.2a.898.898 0 0 0-.505.427c-.08.189-.047.205.094.063.142-.158.316-.253.474-.379.063-.047.126-.157-.064-.11zm-1.357 1.058c-.11.142-.095.189.095.11.3-.458.504-.757.678-.852l.536-.473c.41-.095.647-.536.726-1.278l-.032-.094c-.205.52-.441.899-.757 1.104-.284.205-.52.457-.741.757-.095.095-.095.205-.174.331-.094.126-.252.253-.33.395zm-.126-.332c-.095.174-.016.237.079.095.362-.505.615-.852.993-1.167.347-.268.852-.757 1.057-1.404.126-.379-.016-.489-.11-.252-.205.567-.442 1.072-.82 1.372-.426.347-.884.741-1.2 1.356zm-.047-.52c-.08.142-.095.252-.032.331.3-.11.205-.584.946-.962.095-.126.064-.174-.094-.126l-.694.504c.236-.378.473-.678.82-.757a.999.999 0 0 0 .615-.33c.079-.174.047-.222-.079-.143-.426.284-.788.395-1.12.647-.3.252-.504.568-.583.93l.22-.094zm-.048-.915c.126-.268.473-.442.962-.6.332-.11.6-.346.836-.63.253-.158.205-.016.126.157-.094.158-.157.206-.315.3-.19.158-.473.3-.694.394-.268.095-.52.253-.757.537-.142.11-.205.063-.158-.158zm.742-.9c.236-.141.441-.283.599-.52.22-.315.315-.33.252 0-.063.269-.252.553-.646.694-.332.127-.426-.031-.205-.173zm.993-.725.11-.567c.016-.221.095-.426.237-.6l.174-.473c.047-.19.126-.174.126.063l-.11.3c.094.047.047.142-.016.236-.016.11-.016.237-.126.268-.032.426-.08.773-.205.884-.19.236-.253.205-.19-.11zm-.757-.079.252-.615c.064-.22.174-.347.316-.362l.347-.332c.079-.094.126.032.079.11l-.252.41c-.048.332-.174.632-.474.979-.063.063-.173.063-.11-.032l.3-.6-.379.521c-.11.142-.126.032-.079-.079zm-.442.253c.142-.379.19-.584.332-.71.173-.173.22-.158.11.047-.079.158-.19.379-.19.773 0 .316-.393.253-.252-.11zm-.031-.505c.016.126.031.095.095 0l.142-.394c.157-.142.378-.3.583-.552.095.142.268.016.536-.347.332-.158.49-.41.584-.726.079-.268.032-.315-.142-.142-.252.331-.442.458-.536.694-.3.095-.537.426-.884.584-.094.063-.126.158-.126.284-.142.094-.236.252-.252.6zm.031-.773c.032-.047.095-.063.127-.047.031.031.031.095-.016.142-.032.063-.095.079-.142.047-.016-.031-.016-.094.031-.142zm1.751-2.697c.221-.268.49-.457.742-.568.3-.126.284.11.079.11-.158 0-.38.143-.742.6-.094.126-.205.016-.079-.142zm-2.082 3.218c-.047-.568.08-.9.347-1.089.726-.441.978-1.088 1.215-1.072.236-.41.6-.836 1.025-1.23.316-.221.379-.174.205.173-.457.647-.915 1.42-1.325 1.64-.19.016-.331.127-.442.3l.284-.142c.142-.016.158.032.064.126-.237.126-.631.742-.726.347-.158.3-.426.253-.442.552l-.031.395c-.063.11-.11.11-.174 0zM20.3 7.76c.142.016.205.063.095.19-.347.142-.679.41-.994.788.031.142-.032.268-.19.363 0 .237-.141.347-.378.379l-.347.441c.079.11-.047.284-.3.537-.157.173-.22.126-.189-.158.19-.52.552-1.278.726-1.278.094 0 .094-.031.126-.205.015-.126.142-.095.11 0-.016.126.016.142.095.047.394-.646.82-.978 1.246-1.104zm-1.057.158c.284-.331.773-.552 1.688-.536.19.015.158.205-.016.189-.142-.016-.3.047-.442.079-.173.047-.362.063-.52.158-.316.173-.6.457-.852.851-.094.048-.11.016-.063-.094.316-.568.694-.868 1.088-.9l.016-.03c-.22-.048-.489.046-.883.41-.047.047-.063 0-.016-.127zm.347-.489c.347-.22.741-.347 1.199-.284.284.032.284.205.126.19-.442-.064-.867-.048-1.293.157-.158.079-.127 0-.032-.063zM21.783 6.244c-.11-.216-.032-.336.157-.312.49.144.915.24 1.183.577.158.168.032.336-.079.216l-.33-.265c.015.217-.111.12-.3-.12-.127.193-.284.096-.458-.192l.11.48c.016.097-.047.097-.078.025l-.205-.409zm.678.385c-.063.072.016.24.063.312.063.096.142.048.11-.096-.015-.144-.11-.288-.173-.216zM23.47 6.782c-.047-.031-.157-.079-.016-.11-.157-.095-.094-.22.016-.237.426-.015.757-.252 1.246.016l.221.252c.142.332.016.49-.173.253-.095-.142-.016-.268-.253-.379.126.237.221.473.221.742.363.347.032.425-.063.205l-.142-.647c.032.315.047.552 0 .552-.11 0-.047-.22-.095-.489-.031-.11-.063-.315-.126-.331-.268-.095-.52-.016-.725 0 .347-.016.583 0 .662.094.11.158.126.332.079.49-.079.126-.126.094-.126-.064l-.047-.205c-.016-.11-.142-.126-.316-.11-.11.016-.237.047-.363-.032M19.085 18.565c.505.836 1.089 1.64 1.751 2.397.08.095.016-.19.08-.079.141.3.362.584.456.679.095-.08-.205-.347-.252-.663l.9 1.041c.078-.142-.442-.757-.868-1.293l.063-.063 1.025 1.34.047-.015c-.157-.442-.63-.978-.946-1.467l.031-.11c.19.236.442.599.647.898.3.426.568.805.647.836.378.095-.9-1.246-1.483-2.366l.016-.063c.694 1.057 1.31 2.02 1.987 2.46.08.048.142-.046.063-.141-.615-.726-1.34-1.514-1.782-2.224l.032-.063c.662.789 1.01 1.687 2.271 2.445.079.047.126.126.205.063.284-.221-1.088-.552-2.145-2.335l.016-.126c.394.536.457.694.82 1.073.505.552 1.293 1.198 1.42 1.104.126-.11-1.136-.978-1.814-2.035l.031-.031c.536.74 1.293 1.64 2.398 2.208.157.079.094.063.283.063.49.031-1.088-.773-1.908-1.672l.016-.079c.236.205.536.473.867.741.395.284.805.537 1.136.726.3.158.536.252.647.205.283-.142-1.089-.63-1.436-.994.205.11.41.19.584.268.6.3 1.025.505 1.12.395.063-.08-.253-.253-.805-.458-.063-.063-.015-.078.142-.047.631.252.994.426 1.073.379.205-.064-.126-.206-.505-.442.473.205.883.394 1.104.331.08-.016-.268-.205-.568-.473.426.268 1.436.63.474-.047l.063-.032c.362.268.82.379.268-.063h.079c.315.252.489.442.252-.079.316.458.631.631.205-.031l.49.378c-.174.079-.159.126 0 .221.41.268.44.22.362 0 .047-.426-.11-.71-.394-.883-.316-.205-.3.031.063.6a1.413 1.413 0 0 1-.332-.364.399.399 0 0 0-.362-.205c-.742.016-1.467.158-2.161.253-.537.078-.947 0-1.136-.127-.19-.157-.252-.22-.158-.394.063-.142 0-.252-.094-.3l-.505-1.009c.063.11.142.158.205.252.205.332.347.6.394.584-.079-.22-.347-.71-.552-1.262.395.694.742 1.294.836 1.215-.047-.269-.363-.789-.678-1.325.095.094.126.126.19.205.125.157.236.3.299.268-.252-.52-.52-.852-.804-.947-.442-.157-.71-.22-.647.064l-.22-.253-.238-.031c-.078.031.032.157.19.426l-.048.031-.268-.426c-.079-.047-.19-.094-.205 0l.142.284-.3-.331c-.141-.079-.3-.11-.3-.047l.442.725c-.078-.11-.205-.22-.315-.378-.174-.237-.316-.41-.52-.442-.206-.016.205.315.488.994l-.678-.978c-.063-.048-.331-.095-.347 0l.789 1.135c-.363-.41-.726-.757-.93-1.151-.048-.047-.095-.047-.143-.047-.031-.016-.063 0-.094.031l.962 1.246a5.49 5.49 0 0 1-.52-.536c-.206-.284-.395-.473-.553-.726-.063-.078-.19-.047-.205-.015-.079.11.726.93 1.073 1.42a7.837 7.837 0 0 1-1.215-1.42c-.158-.08-.268-.08-.315 0-.048.094.978 1.072 1.372 1.687-.536-.568-1.057-1.104-1.483-1.687-.063-.08-.252-.08-.252 0 0 .157.883.962 1.593 1.94-.52-.568-1.151-1.325-1.42-1.483-.126-.016.316.536 1.325 1.688a13.534 13.534 0 0 1-1.388-1.467c-.126.11.426.804 1.23 1.688l-1.261-1.325c-.174-.11-.205-.095-.11.063zm5.363-.3c-.11-.158.048-.237.174-.047.252.426.489.788.662 1.198.08.19-.031.237-.11.064-.205-.458-.458-.82-.726-1.215zm-.489-.158c-.079-.126.126-.205.284.016.363.505.678 1.01.93 1.53.143.315 0 .394-.141.11-.3-.615-.694-1.151-1.073-1.656z" fill="#FFF"/>
        <path d="M21.704 7.445c-.016.284.142.647.441.883 0-.047-.142-.268-.236-.457-.095-.221-.142-.395-.205-.426zm.978 9.842c-.032-.457-.284-.789-.789-1.167.016.11.331.378.52.71.19.315.19.394.269.457zm-.016-.473c-.063-.047-.11-.22-.268-.473-.158-.268-.426-.537-.442-.615.41.3.678.725.71 1.088zm-.063-.6c-.048-.047-.095-.173-.205-.362-.127-.205-.332-.41-.347-.473.33.22.536.536.552.836zm-.063-.615c0-.205-.158-.426-.379-.552.016.048.142.174.237.316.079.126.11.205.142.236zm-.237-8.643c-.079.268 0 .647.252.962.016-.063-.078-.3-.142-.52-.047-.206-.063-.41-.11-.442zm-2.792 10.158c-.236.015-.284-.032-.3-.269.11.11.206.158.3.269zm-.315-.41c.158.157.315.252.473.425a.22.22 0 0 0 .236-.031c-.252-.268-.488-.426-.757-.694l.048.3zm-.063-.442c.33.331.583.536.883.852.095.047.158.047.205 0-.363-.458-.694-.805-1.057-1.262-.031.142-.031.284-.031.41zm.063-.505c.41.473.804.883 1.23 1.404.126.063.22.063.268.016-.41-.537-.93-1.12-1.404-1.704-.031.079-.047.142-.079.205-.015.032-.015.048-.015.08zm.11-.394c.536.615 1.025 1.167 1.593 1.845a.224.224 0 0 0 .221.016c-.063-.063-.442-.52-.505-.6-.457-.567-.725-.867-1.246-1.498a1.315 1.315 0 0 1-.063.237zm.095-.331c.568.63.773.914 1.388 1.64.063.095.394.426.457.505.08.157.347.157.221.047-.11-.126 0-.032-.158-.237-.504-.615-1.34-1.624-1.845-2.255-.016.11-.047.205-.063.3zm.079-.379c.015-.095.031-.174.047-.252.473.599 1.404 1.719 1.94 2.381.284.347.268.332.426.505 0 .079-.063.047-.174.016-.142-.158-.126-.142-.268-.331-.662-.773-1.388-1.672-1.971-2.319zm.047-.331c.032-.11.032-.237.047-.347.505.788 1.23 1.624 2.035 2.366-.063-.316-1.073-1.183-1.688-2.003a7.693 7.693 0 0 1-.315-.6c.016-.094.016-.173.031-.284.426.868 1.105 1.672 2.05 2.492-.11-.284-1.087-1.072-1.608-1.908-.19-.331-.331-.6-.41-.82v-.142c.426.852 1.167 1.735 2.05 2.492-.094-.284-1.104-1.104-1.593-1.909a6.995 6.995 0 0 1-.425-.836v-.157c.41.82 1.325 1.924 2.16 2.65-.094-.269-1.23-1.262-1.703-2.035a6.02 6.02 0 0 1-.426-.868v-.22c.347.82 1.23 1.908 2.098 2.618-.095-.268-1.183-1.167-1.625-1.909a5.024 5.024 0 0 1-.441-.915c0-.078 0-.173.015-.236.3.836 1.136 1.845 2.02 2.523-.095-.236-1.105-1.056-1.515-1.75-.268-.458-.394-.757-.489-.978 0-.095 0-.174.016-.268.252.82 1.041 1.813 1.924 2.508-.063-.237-1.01-.978-1.42-1.64-.299-.506-.394-.837-.488-1.058v-.047c.015-.095.015-.205.031-.3.174.82.93 1.877 1.83 2.603-.063-.205-.93-.947-1.293-1.562-.347-.583-.426-.93-.537-1.12.268-2.27 1.23-3.612 2.634-3.848l.032.016c-.047.268 0 .599.158.914.031-.063-.048-.378-.063-.646V6.86l.126.032c.015.315.126.615.268.646-.11-.173-.126-.394-.126-.583l.173.047c0 .331.11.694.268.71-.142-.19-.142-.442-.126-.647l.032.016c.031.126.079.252.142.315.063-.078.031-.236-.016-.41.173-.094.378-.079.6.063.078.095.047.142-.064.142h-.11l.252.11c.016.032.063.064-.079.08l-.094.079.33.031c.111.047.095.079.064.126l-.079.095c.284 0 .584.063.946.252-.015.126-.157.11-.425-.031.063.158.315.173.3.268-.032.173-.41.016-.584.236l.425.016c.095.063.064.11-.078.11.22.269.394.348.457.158.063-.142.126-.142.19 0 .267.158.315.174.157.205l-.252.048.3.047c.078.032.078.095.031.142-.205.032-.22.063.158.079.157.079.22.158.157.22-.33.016-.315.064.08.095.094.048.126.11.11.158-.205.047-.174.095.079.095.031.047.063.079.015.126-.236.063-.205.094.095.094.016.11.19.095.252.237.253-.047.363.126.142.126l-.015.048c.362.015.52.11.473.33-.032.096-.52-.188-.316.569l.08.078c.141.032-.017-.346.22-.315.031.016.063.126.016.315-.048.174-.158.253-.331.143-.158-.11-.253-.221-.237-.348l.016-.236c-.174.016-.205-.095-.221-.268 0-.032-.063-.016-.048-.063-.283-.048-.41.047-.488.252-.016.079-.08.016-.11-.063.015-.047-.096.016-.159-.016-.047 0-.031-.11-.078-.095-.032 0-.032.048-.095.048-.047-.016-.032-.126-.126-.032-.063.063-.08.063-.095-.031.016-.08.079-.237-.095-.016-.063.031-.078.031-.11-.047-.095-.268-.158-.284-.19-.048-.046.095-.094.11-.094-.031-.094-.41-.11-.41-.079-.016-.015.173-.063.158-.157-.047-.11-.332-.158.031-.237-.126-.11-.19-.032-.458-.22-.537l.11.552c0 .08-.127.095-.142-.031-.064-.363-.3-.994-.253-.789l.142.757c.016.063-.158.032-.19-.063l-.188-.946c-.048-.268-.048.504.063.836 0 .047-.126.047-.11-.016 0-.079-.143-.978-.19-.93-.11.11.19 1.009-.047.867-.032-.016-.11-.915-.142-.93-.016 0 0 .867-.032.851-.252-.315.016-1.167-.158-1.215-.031 0-.11 1.041-.141 1.01.11.804.757.836.71 1.073l-.458-.237c.126.237.315.489.442.757-.142.047.015.237.11.331-.142-.016-.11.08.158.331.063.048.079.095.063.142-.331-.079-.363-.079.173.347-.33-.047-.347-.015.032.237a.423.423 0 0 1 .158.237c.015.063-.048.031-.08.031-.062-.031-.157-.094-.189-.11-.094-.016-.031.11.41.441.11.095.158.174.08.205-.537-.33-.505-.252.078.253.142.22.158.315.11.347-.473-.395-.788-.647.032.173.142.142.174.237.063.253-.82-.615-.378-.205.174.362.031.032 0 .08-.032.064-.788-.584-.82-.442.016.425.032.08.079.142.047.205-.015.032-.078 0-.11-.015-.568-.537-.52-.426.126.457.095.142.142.268-.016.19-.71-.805-.93-.979-.015.252.094.158.11.236-.016.189-.647-.883-.663-.773-.032.174.048.11.048.126 0 .11-.583-.71-.757-.883-.031.158.094.189.079.22-.016.126-.71-.883-.726-.773-.032.142.064.11.095.173-.015.126-.82-.93-.82-.9-.032.11.016.253.016.237-.142.11-.079-.094-.079-.173-.158-.252-.504-.615-.567-.567.032.221-.063.063-.142.063-.237-.016-.52-.678-.568-.678-.157-.031l-.284-.047a.706.706 0 0 0-.158-.205c-.489-.474-.663-.52-.174.094.016.016-.031.032-.015.048l-.552-.095a.27.27 0 0 1-.205-.11c-.237-.41-.379-.568-.773-.947.031.142.331.394.568.789.063.252-.221.142-.316.094-.173-.236-.236-.268-.489-.567-.71-.836-1.467-1.783-2.082-2.445zm1.909-6.625c.047.032.11.237.236.473.126.253.316.49.331.568-.378-.3-.583-.71-.567-1.04zm-.237.253c.063.063.11.268.252.552.158.284.41.567.41.662-.41-.347-.662-.82-.662-1.215zm-.22.283c.078.064.125.3.299.616.173.315.473.646.489.741-.49-.379-.789-.915-.789-1.357zm-.19.284c.016.49.363 1.089.899 1.515-.016-.11-.379-.474-.568-.836-.205-.347-.252-.6-.331-.679zm-.174.3c.032.536.41 1.183 1.026 1.672-.032-.126-.442-.536-.663-.93-.22-.395-.284-.663-.363-.742zm-.157.3c.047.583.473 1.293 1.135 1.814-.031-.142-.504-.568-.741-1.01-.253-.426-.3-.71-.394-.804zm-.158.3c.063.646.552 1.403 1.262 1.971-.032-.158-.552-.63-.836-1.104-.253-.457-.316-.757-.426-.868zm-.126.3c.063.693.599 1.513 1.372 2.128-.047-.173-.615-.678-.915-1.183-.284-.504-.347-.82-.457-.946zm-.11.315c.062.74.646 1.624 1.482 2.287-.063-.19-.678-.742-1.01-1.294-.315-.536-.362-.867-.473-.993zm-.127.3c.11.788.773 1.797 1.656 2.507-.063-.205-.788-.852-1.135-1.435-.332-.584-.395-.915-.52-1.073zm2.082-3.108c.047.016.11.19.174.363.063.157.157.331.157.378-.252-.205-.362-.504-.33-.741zm4.117 4.164c-.174-.173-.284.032-.047.252.205.19.425.127.362.063l-.315-.315zm-1.278-1.956c-.031 0 .016.19.032.284 0 .095.031.158.094.237.064.079.095.094.08.063-.064-.174-.127-.331-.143-.473 0-.063-.031-.095-.063-.11zm-.22-.236c-.032 0 .015.22.015.33 0 .095.032.19.095.285.063.079.094.11.079.079-.063-.221-.126-.395-.126-.568a.22.22 0 0 0-.064-.126zm-.237-.237c-.032-.016.016.237.016.363s.015.236.094.347c.063.094.095.126.08.079-.048-.237-.127-.442-.127-.647 0-.095-.016-.126-.063-.142zm-.221-.237c-.032-.031 0 .269 0 .41a.71.71 0 0 0 .079.395c.079.11.11.142.094.094-.047-.283-.11-.52-.11-.74 0-.111-.031-.143-.063-.159zm-.22-.252c-.032-.016 0 .316-.017.473a.792.792 0 0 0 .08.426c.062.142.11.174.094.126-.047-.315-.11-.583-.095-.836 0-.11-.031-.157-.063-.189zm-.237-.237c-.032-.031 0 .332-.016.52a.84.84 0 0 0 .079.474c.063.158.094.19.094.142-.047-.347-.11-.647-.094-.93.016-.127-.016-.174-.063-.206zm-.205.016c-.016-.031-.016.268-.032.41a.677.677 0 0 0 .063.395c.047.126.079.157.079.11-.032-.284-.079-.52-.063-.741.016-.11-.016-.142-.047-.174zm-.173 0c-.032-.016-.032.221-.048.331a.496.496 0 0 0 .032.3c.049.11.065.126.065.095-.016-.221-.049-.41-.016-.584.016-.079-.016-.11-.033-.142z" fill="#FFF"/>
        <path d="M7.082 2.57c.473.585.915 1.137 1.42 1.799 0 .11-.048.174-.174.174-.52-.742-.915-1.341-1.309-1.909-.079-.11.016-.126.063-.063zm2.382 4.055c.047.126-.047.189-.142.063-.205-.237-.158-.537.063-.805.237-.284.536-.284.804-.079.158.127.11.142-.078.142-.537 0-.742.268-.647.679zm.552-.253c-.221-.079-.284.016-.237.253 3.155 4.448 7.934 10.946 13.565 18.612l-.031.11.473.268-.158-.63-.095.062c-4.337-6.056-9.369-13.186-13.517-18.675z" fill="#E2B700"/>
        <path d="M17.666 7.54c0-.111.41-.395.946-.758.237-.189.458-.252.663-.252a.758.758 0 0 0 .284.016c.126.079.078.142-.064.173-.063-.047-.126-.063-.189-.031-.142.031-.158.126-.252.157l-.063-.094c-.19.126-.316.473-.458.647l-.031-.174c-.095.016-.158.22-.3.331.016-.126-.016-.19-.063-.19-.237.159-.41.238-.473.174zm-6.262 8.264c.142 0 .268.048.268.095 0 .063-.126.11-.268.11-.158 0-.284-.047-.284-.11 0-.047.126-.095.284-.095zm1.072-.22c.095-.142.205-.205.237-.174.032.047-.016.19-.095.316-.094.142-.205.22-.236.173-.032-.031.016-.173.094-.315zm-.347.189c.064-.11.142-.174.174-.142.031.032 0 .142-.063.252-.08.11-.158.174-.19.142-.031-.031 0-.142.08-.252zm-.315.063c.063-.095.126-.142.142-.126.031.031 0 .126-.047.22-.063.08-.126.127-.158.111-.016-.031 0-.126.063-.205zm-5.252-1.12-.064.174c.08.015.142-.095.221-.142l-.063.284c.095.015.316-.221.473-.332l-.11.284c.142 0 .237-.205.347-.315l-.063.3c.173-.016.284-.237.426-.363l-.032.284c.126-.016.221-.19.347-.3l.063.205c.11.016.174-.142.268-.205l.048.19.236-.237.048.205.268-.095.079.11.22-.11-.015.237.3-.127.031.158.22-.126V15l.253-.063.016.19.379-.159-.127.284.332-.205-.048.221.363-.158-.205.332c.237.015.316-.158.473-.237l-.11.3c.236-.048.441-.237.647-.49.047.08.015.206-.158.474.252-.11.378-.284.473-.473l-.079.331c.158-.016.316-.142.458-.363l-.016.316a.86.86 0 0 0 .284-.379c.157.063.33-.031.394-.284.095-.236.032-.315-.174-.236-.678.473-1.577.599-2.902.205-.852-.237-1.735-.268-2.618-.3-.394-.016-.726.047-.883.41zm2.003-3.391c.063-.11.189-.205.347-.3l.031.142.379-.126.031.126.41-.22c-.236.299-.283.425-.205.425.064 0 .363-.347.458-.252-.205.315-.016.22.331-.063.095.031-.126.252-.095.284.032.031.158-.063.41-.237.064-.047.206-.205.237-.126.016.095-.079.142-.126.205-.252.3-.19.252.252-.031.064-.032.158-.11.221-.08-.3.395-.173.316.268.048.063-.032.142-.142.221-.063-.552.489-.457.552.252.205-.33.378-.252.394.269.063.047-.016.11 0 .173-.032-.236.237-.268.41-.158.347.174-.078.395-.173.505-.142-.22.221-.205.316.079.269.095.031 0 .142-.284.33-.047.08-.095 0-.142-.188-.031.11-.079.11-.126.047l-.063.41-.095-.016v-.236c-.047-.063-.094-.063-.142 0l-.079.315-.142-.079a.677.677 0 0 1-.22.3c-.095-.126-.158-.095-.19.016-.063.015-.094-.032-.157-.016-.048.142-.095.173-.174.079a1.9 1.9 0 0 0-.363.284l-.063-.158c-.11.158-.205.252-.268.22l-.11-.11-.174.284-.284.08c0 .078.11.078.3.046a8.15 8.15 0 0 0 1.057-.236c.315-.095.662-.142 1.04-.3.3-.142.647-.394.994-.568.08.063.016.221-.646.742l-.316-.095.174.237c-.079.079-.142.11-.221.094l-.284-.142.095.3c-.205 0-.3-.252-.49-.142l.08.237-.426-.127.079.284-.363-.157-.08.157c-.11 0-.173.032-.188.08.836.141 1.75-.158 2.697-.616.047-.016.063.016.063.095-.079.378-.347.71-.773 1.01l.126-.506c-.284.127-.6.742-.836.82l.253-.662-.742.615c-.063-.079.032-.252.19-.473-.221 0-.6.52-.663.49-.158-.08.126-.237.19-.348-.206-.016-.348.174-.521.268-.016-.094.094-.205.284-.378l-.615.284c0-.11.236-.205.284-.363-.284.19-.537.315-.6.3l.19-.3-.537.284.331-.347-.567.268.157-.3-.41.268.174-.33c-.205.173-.395.283-.505.283.11-.142.19-.252.173-.331-.189.158-.378.268-.457.268l.079-.268a1.327 1.327 0 0 1-.52.331l.189-.315c.031-.048.015-.11-.048-.063l-.425.346c.094-.173.141-.283.078-.33l-.3.157.032-.173-.347.378c-.047-.016.016-.11.063-.284l-.362.237c.189-.379.504-.631.93-.757.505-.158.9-.174 1.215-.221.552-.079.899-.126 1.34-.331a2.36 2.36 0 0 0 .694-.379c.127-.095.08-.126-.063-.11l-.567.031v-.252l-.221.3-.048-.3-.189.52-.079-.599-.142.647-.079-.631-.236.725-.063-.757-.142.773-.142-.789-.095.79-.158-.742-.063.71-.205-.726-.016.757-.236-.725-.047.646-.158-.63-.063.567-.127-.52-.078.567c-.237-.441-.332-.804-.174-1.009.237-.268.552-.331.868-.284zm1.798-1.72c.047 0 .095.064.126.174.032.11.032.205.016.205-.047.016-.095-.063-.126-.173-.032-.095-.032-.19-.016-.205zm-1.609-.189c.237-.362.426-.473.552-.189.158-.505.331-.552.552-.11.3 0 .363.457.316 1.135l-.284-.757v.49c-.19-.837-1.404-.348-1.136-.569zm5.237-2.744c.347.031.694.158 1.025.347.016.047.031.079-.032.047-.126-.094-.236-.142-.33-.142.03.142.015.205-.048.19-.126-.221-.237-.253-.331-.206-.032.016-.048.032-.08.016-.094-.205-.141-.205-.189-.126-.094-.079-.094-.126-.015-.126zm-1.783.095c-.079.047-.079.078-.015.094.11-.094.22-.11.362.032 0-.205.08-.19.253.063-.063-.253 0-.316.268.063 0-.205.016-.237.19.11.046.063.094.063.11.032-.095-.363-.048-.347.157.031.063.08.095.08.095.032-.016-.252.094-.205.331.142.063.079.095.11.11.031-.047-.205.048-.189.253.064.158-.016.378.11.662.362.032.048.063.063.095.048-.158-.284.032-.174.284 0 .158-.08.173-.127.079-.158-.536-.19-.978-.394-1.294-.631-.362-.284-.52-.205-.946-.473-.363-.158-.694-.079-.994.158zm-.773.504c-.189.063-.189.142-.015.174a.45.45 0 0 0 .205 0c.11-.016.158 0 .205.094.079.158.173.221.252.174.047-.047-.3-.3-.126-.3h.095c.268.253.52.395.504.347l-.11-.284c-.032-.094.11-.047.173.016l.363.316c.048.063 0-.048-.063-.253-.031-.063.063-.063.126 0 .221.221.49.6.49.458V7.87c0-.063.078-.063.125 0 .127.157.3.3.284.236l-.031-.126c-.016-.079.047-.079.142 0l.378.316c.08.063.142.031.11-.016l-.062-.095c-.048-.079-.016-.094.079-.031l.33.236c.064.047.064-.016-.03-.158h.188c.032.11.11.142.3.221.047.032.063-.031.158-.063l.457-.142c.142-.047.126-.142 0-.11-.662.173-1.356-.158-2.098-.568-.977-.52-1.766-.52-2.429-.3zm6.499.363c.031.032 0 .079-.047.142-.048.047-.11.063-.142.047-.016-.031 0-.094.047-.142.063-.047.11-.063.142-.047zm.505.126c-.11-.079-.158.11.031.048l.268-.237c.127-.22.048.063.127.047.094-.031.236-.315.205-.426l.22-.11c.127-.11.095-.158-.079-.142a2.83 2.83 0 0 0-.583.568l-.19.252z" fill="#0092D0"/>
    </g>
</svg>
