<svg width="160" height="50" viewBox="0 0 160 50" xmlns="http://www.w3.org/2000/svg">
    <g fill-rule="nonzero" fill="none">
        <path d="M160 43.302a4.6 4.6 0 0 1-4.607 4.601H4.613A4.608 4.608 0 0 1 0 43.302V6.607A4.614 4.614 0 0 1 4.613 2h150.778A4.608 4.608 0 0 1 160 6.607v36.695z" fill="#FFF"/>
        <path d="M160 44.988c0 1.33-.486 2.606-1.35 3.546-.864.94-2.036 1.467-3.257 1.466H4.613C2.07 50.003.003 47.76 0 44.988V5.018C.003 2.247 2.068.002 4.613 0h150.778c1.223 0 2.395.529 3.259 1.47.864.941 1.35 2.218 1.35 3.549v39.969z" fill="#000"/>
        <path d="M35.136 24.7c-.035-3.873 3.171-5.757 3.318-5.844-1.816-2.647-4.63-3.009-5.62-3.037-2.363-.25-4.656 1.414-5.86 1.414-1.228 0-3.083-1.39-5.081-1.35-2.572.04-4.978 1.529-6.297 3.84-2.723 4.713-.692 11.64 1.917 15.449 1.305 1.867 2.83 3.949 4.826 3.876 1.953-.08 2.682-1.244 5.039-1.244 2.335 0 3.02 1.244 5.055 1.197 2.096-.033 3.416-1.874 4.675-3.757 1.508-2.137 2.114-4.244 2.138-4.353-.048-.016-4.07-1.552-4.11-6.192zm-3.845-11.388c1.05-1.313 1.768-3.1 1.569-4.912-1.52.067-3.421 1.051-4.516 2.335-.969 1.132-1.834 2.987-1.61 4.732 1.707.127 3.46-.862 4.557-2.155zM63.421 38.78h-2.73l-1.494-4.696H54l-1.424 4.696H49.92l5.149-15.988h3.18L63.42 38.78zm-4.675-6.667-1.352-4.175c-.143-.426-.412-1.43-.806-3.012h-.048c-.159.68-.412 1.685-.76 3.012l-1.329 4.175h4.295zm17.892.76c0 1.961-.533 3.511-1.599 4.649-.954 1.013-2.14 1.519-3.554 1.519-1.528 0-2.626-.545-3.293-1.636v6.05H65.63V31.04a78.67 78.67 0 0 0-.095-3.789h2.253l.143 1.828h.048c.855-1.377 2.151-2.066 3.891-2.066 1.36 0 2.496.537 3.405 1.613.907 1.077 1.363 2.493 1.363 4.248zm-2.61.094c0-1.122-.253-2.047-.76-2.776-.554-.758-1.298-1.138-2.23-1.138-.633 0-1.207.212-1.72.629-.515.42-.851.97-1.008 1.65-.07.253-.11.515-.12.779v1.923c0 .838.258 1.545.772 2.124.514.577 1.183.867 2.005.867.965 0 1.716-.374 2.253-1.115.538-.744.807-1.724.807-2.943zm15.873-.093c0 1.96-.532 3.51-1.598 4.648-.956 1.013-2.14 1.519-3.556 1.519-1.528 0-2.626-.545-3.293-1.636v6.05h-2.562V31.04a78.67 78.67 0 0 0-.095-3.789h2.253l.143 1.828h.048c.854-1.377 2.15-2.066 3.892-2.066 1.359 0 2.494.537 3.405 1.613.906 1.077 1.363 2.493 1.363 4.248zm-2.611.093c0-1.122-.254-2.047-.761-2.776-.554-.758-1.296-1.138-2.228-1.138-.632 0-1.207.212-1.722.629-.514.42-.85.97-1.007 1.65-.078.316-.12.575-.12.779v1.923c0 .838.258 1.545.77 2.124.514.576 1.182.867 2.007.867.966 0 1.717-.374 2.253-1.115.538-.744.808-1.724.808-2.943zm17.44 1.328c0 1.361-.476 2.468-1.421 3.322-1.041.932-2.494 1.4-4.357 1.4-1.72 0-3.1-.332-4.14-.996l.592-2.135c1.123.665 2.357.997 3.701.997.966 0 1.717-.219 2.253-.652.537-.435.809-1.017.809-1.743 0-.65-.225-1.194-.666-1.637-.443-.442-1.176-.854-2.206-1.233-2.8-1.044-4.201-2.57-4.201-4.58 0-1.311.495-2.385 1.483-3.225.987-.839 2.297-1.258 3.927-1.258 1.455 0 2.668.253 3.63.76l-.643 2.087c-.906-.49-1.928-.735-3.073-.735-.903 0-1.612.222-2.12.664a1.901 1.901 0 0 0-.642 1.45c0 .63.246 1.154.736 1.565.426.378 1.202.79 2.324 1.232 1.378.555 2.39 1.202 3.037 1.944.653.743.977 1.669.977 2.773zm8.493-5.122h-2.824v5.598c0 1.423.497 2.133 1.495 2.133.458 0 .837-.038 1.138-.118l.07 1.945c-.504.188-1.169.283-1.992.283-1.012 0-1.802-.309-2.373-.926-.569-.618-.855-1.652-.855-3.108v-5.811H106.2v-1.923h1.682v-2.11l2.517-.76v2.87h2.824v1.927zm12.716 3.748c0 1.772-.507 3.227-1.518 4.364-1.06 1.172-2.468 1.756-4.223 1.756-1.695 0-3.042-.561-4.047-1.682-1.004-1.124-1.507-2.539-1.507-4.246 0-1.787.52-3.25 1.554-4.388 1.037-1.139 2.434-1.708 4.19-1.708 1.692 0 3.05.562 4.08 1.684.982 1.089 1.471 2.494 1.471 4.22zm-2.655.059c0-1.057-.229-1.962-.687-2.72-.537-.916-1.306-1.374-2.302-1.374-1.026 0-1.813.458-2.35 1.374-.458.758-.687 1.68-.687 2.768 0 1.057.229 1.965.688 2.72.554.916 1.326 1.374 2.327 1.374.98 0 1.748-.467 2.303-1.396.47-.776.708-1.688.708-2.746zm10.987-3.476a4.46 4.46 0 0 0-.808-.071c-.9 0-1.598.339-2.088 1.021-.426.6-.64 1.36-.64 2.277v6.049h-2.562v-7.898a80.99 80.99 0 0 0-.074-3.63h2.232l.093 2.206h.071c.272-.758.697-1.37 1.281-1.827a3.099 3.099 0 0 1 1.852-.618c.237 0 .45.017.64.047l.003 2.444zm11.458 2.966c.007.39-.024.779-.093 1.162h-7.686c.028 1.139.4 2.011 1.115 2.612.647.536 1.485.805 2.514.805 1.138 0 2.176-.18 3.11-.545l.401 1.777c-1.091.476-2.38.713-3.866.713-1.788 0-3.192-.526-4.213-1.577-1.02-1.05-1.53-2.464-1.53-4.233 0-1.737.475-3.185 1.425-4.34.995-1.232 2.34-1.849 4.032-1.849 1.662 0 2.92.617 3.775 1.85.676.976 1.016 2.187 1.016 3.625zm-2.443-.664c.018-.76-.15-1.416-.497-1.97-.444-.713-1.126-1.069-2.04-1.069-.838 0-1.52.348-2.04 1.044-.427.554-.68 1.22-.758 1.992l5.335.003z" fill="#FFF"/>
        <g fill="#FFF">
            <path d="M57.247 14.966c-.3.128-.775.22-1.222.22-1.36 0-2.145-.858-2.145-2.218 0-1.479.903-2.263 2.154-2.263.502 0 .912.11 1.204.237l.238-.895c-.229-.118-.749-.273-1.488-.273-1.88 0-3.294 1.223-3.294 3.249 0 1.88 1.186 3.102 3.139 3.102.748 0 1.332-.146 1.597-.273l-.183-.886zM58.343 11.58v4.445h1.122v-1.853h.146c.575 0 .913.292 1.16.904.163.429.291.757.41.949h1.168c-.21-.392-.365-.876-.502-1.214-.301-.712-.675-1.186-1.287-1.277l1.77-1.953h-1.332l-1.369 1.843h-.164v-1.843h-1.122zM66.42 13.36c0-.976-.412-1.88-1.835-1.88-.703 0-1.278.192-1.606.393l.219.73a2.354 2.354 0 0 1 1.195-.329c.785 0 .904.484.904.776v.073c-1.643-.01-2.638.566-2.638 1.68 0 .674.502 1.322 1.396 1.322.585 0 1.05-.246 1.315-.593h.027l.082.493h1.013c-.055-.274-.073-.666-.073-1.068V13.36zm-1.096 1.104c0 .083 0 .165-.027.247a.922.922 0 0 1-.886.611c-.356 0-.638-.2-.638-.639 0-.675.757-.84 1.551-.83v.611zM67.55 11.58v1.552c0 1.031.585 1.533 1.488 1.533.41 0 .867-.118 1.15-.3h.018v1.724h1.123V11.58h-1.123v2.035a1.334 1.334 0 0 1-.757.237c-.575 0-.776-.31-.776-.83V11.58h-1.122zM75.974 13.36c0-.976-.41-1.88-1.834-1.88-.703 0-1.278.192-1.606.393l.219.73a2.354 2.354 0 0 1 1.195-.329c.785 0 .904.484.904.776v.073c-1.643-.01-2.638.566-2.638 1.68 0 .674.502 1.322 1.396 1.322.584 0 1.05-.246 1.315-.593h.027l.082.493h1.013c-.055-.274-.073-.666-.073-1.068V13.36zm-1.095 1.104c0 .083 0 .165-.027.247a.922.922 0 0 1-.886.611c-.356 0-.639-.2-.639-.639 0-.675.758-.84 1.552-.83v.611zM76.668 11.58v.868H78v3.577h1.122v-3.577h1.333v-.867zM81.148 11.58v4.418c.402.045.877.073 1.351.073.666 0 1.506-.1 2.035-.502a1.32 1.32 0 0 0 .548-1.114c0-1.186-1.077-1.524-2.1-1.524-.236 0-.52.019-.711.055v-1.405h-1.123zm1.114 2.173c.155-.028.31-.046.51-.046.494 0 1.187.146 1.187.794 0 .62-.648.794-1.177.794-.228 0-.374-.01-.52-.027v-1.515zM87.865 11.58v4.445h1.123v-3.577h1.67v3.577h1.131v-4.444zM92.985 17.832h1.122v-2.3h.019c.228.356.693.593 1.25.593 1.013 0 2.026-.775 2.026-2.381 0-1.388-.849-2.264-1.871-2.264-.675 0-1.195.283-1.524.785h-.018l-.055-.684h-.986c.019.42.037.894.037 1.478v4.773zm1.122-4.353c0-.091.019-.192.037-.283.119-.493.547-.83 1.013-.83.72 0 1.104.638 1.104 1.423 0 .876-.42 1.47-1.132 1.47-.483 0-.876-.33-.994-.785-.019-.1-.028-.201-.028-.31v-.685zM98.314 11.58v4.445h1.342c.383-.73.794-1.533 1.132-2.19.219-.43.365-.749.584-1.278h.036c-.045.84-.073 1.168-.073 1.88v1.588h1.068v-4.444h-1.36l-1.086 2.08c-.237.466-.365.794-.602 1.315h-.037c.037-.621.064-1.096.064-1.798V11.58h-1.068zM103.845 11.58v1.79c0 .857-.037 1.368-.365 1.651a.913.913 0 0 1-.475.21l.119.876c.53 0 .858-.118 1.113-.365.53-.392.657-1.177.657-2.336v-.958h1.214v3.577h1.123v-4.444h-3.386zM110.434 11.48c-1.342 0-2.3.895-2.3 2.355 0 1.433.977 2.29 2.227 2.29 1.131 0 2.281-.73 2.281-2.363 0-1.35-.885-2.282-2.208-2.282zm-.028.812c.767 0 1.077.804 1.077 1.497 0 .904-.447 1.524-1.086 1.524-.675 0-1.104-.648-1.104-1.506 0-.739.32-1.515 1.113-1.515zM113.026 11.58l1.642 1.963c-.575.082-.94.529-1.168 1.159-.173.456-.32.93-.52 1.323h1.104c.137-.246.247-.584.402-1.013.228-.593.529-.84 1.04-.84h.119v1.853h1.077v-1.853h.118c.466 0 .803.238 1.022.84.137.41.256.776.393 1.013h1.131c-.2-.383-.346-.867-.52-1.323-.219-.63-.593-1.077-1.168-1.16l1.643-1.961h-1.26l-1.213 1.852h-.146v-1.852h-1.077v1.852h-.146l-1.223-1.852h-1.25zM123.776 14.118c.018-.1.036-.265.036-.475 0-.976-.474-2.163-1.916-2.163-1.424 0-2.172 1.16-2.172 2.391 0 1.36.849 2.245 2.29 2.245.64 0 1.169-.118 1.552-.283l-.164-.766a3.58 3.58 0 0 1-1.232.2c-.721 0-1.342-.346-1.37-1.15h2.976zm-2.975-.785c.046-.456.338-1.086 1.031-1.086.748 0 .931.675.922 1.086H120.8zM124.707 11.58v4.445h1.122v-1.87h1.716v1.87h1.123v-4.444h-1.123v1.697h-1.716v-1.697zM129.854 11.58v4.445h1.341c.384-.73.794-1.533 1.132-2.19.22-.43.365-.749.584-1.278h.037c-.046.84-.073 1.168-.073 1.88v1.588h1.067v-4.444h-1.36l-1.085 2.08c-.238.466-.365.794-.603 1.315h-.036c.036-.621.064-1.096.064-1.798V11.58h-1.068zM138.907 14.118c.018-.1.036-.265.036-.475 0-.976-.474-2.163-1.916-2.163-1.424 0-2.172 1.16-2.172 2.391 0 1.36.849 2.245 2.29 2.245.64 0 1.169-.118 1.552-.283l-.164-.766a3.58 3.58 0 0 1-1.232.2c-.721 0-1.342-.346-1.37-1.15h2.976zm-2.975-.785c.045-.456.337-1.086 1.031-1.086.748 0 .93.675.922 1.086h-1.953zM141.727 16.025c.264.01.858.055 1.423.055.886 0 2.492-.128 2.492-1.342 0-.62-.447-.985-1.114-1.086v-.018c.475-.1.913-.42.913-.986 0-1.022-1.341-1.122-2.09-1.122-.611 0-1.296.055-1.624.11v4.389zm1.104-3.742c.164-.018.31-.036.538-.036.658 0 .968.191.968.547 0 .43-.475.584-1.04.584h-.466v-1.095zm-.01 1.77h.475c.703 0 1.196.165 1.196.658 0 .53-.62.657-1.132.657-.219 0-.356 0-.538-.018v-1.296z"/>
        </g>
    </g>
</svg>
