<?xml version="1.0" encoding="UTF-8"?>
<svg width="160px" height="50px" viewBox="0 0 160 50" version="1.1" xmlns="http://www.w3.org/2000/svg" xmlns:xlink="http://www.w3.org/1999/xlink">
    <title>download-on-the-app-store-apple-logo-svgrepo-com copy 2</title>
    <g id="Логистика-2" stroke="none" stroke-width="1" fill="none" fill-rule="evenodd">
        <g id="раздерл-скачать-мобильное-приложение" transform="translate(-513, -1575)" fill-rule="nonzero">
            <g id="Group-33-Copy" transform="translate(0, 1382)">
                <g id="Group-27" transform="translate(143, 35)">
                    <g id="download-on-the-app-store-apple-logo-svgrepo-com-copy-2" transform="translate(370, 158)">
                        <path d="M160,43.301942 C160,44.5231384 159.514425,45.6942478 158.650229,46.5573132 C157.786033,47.4203787 156.614108,47.9046031 155.392588,47.9033303 L4.61342026,47.9033303 C2.06862155,47.9059834 0.00331647542,45.8460659 0,43.301942 L0,6.60739274 C0.00331472098,4.06229759 2.06764877,2.00066063 4.61342026,2 L155.391387,2 C156.613556,2 157.785652,2.48545864 158.649744,3.34954694 C159.513835,4.21363524 160,5.3855467 160,6.60739274 L160,43.301942 Z" id="Path" fill="#FFFFFF"></path>
                        <path d="M160,44.9879581 C160,46.318141 159.514425,47.5937666 158.650229,48.5338569 C157.786033,49.4739472 156.614108,50.0013864 155.392588,50 L4.61342026,50 C2.06862155,50.00289 0.00331647542,47.7591339 0,44.9879581 L0,5.01858222 C0.00331472098,2.24634855 2.06764877,0.00071958653 4.61342026,0 L155.391387,0 C156.613556,0 157.785652,0.52878368 158.649744,1.46998805 C159.513835,2.41119242 160,3.68769181 160,5.01858222 L160,44.9879581 Z" id="Path" fill="#000000"></path>
                        <path d="M56.8956743,32.3293692 L54.3427883,25.4346056 L51.8022231,32.3293692 L56.8932101,32.3293692 L56.8956743,32.3293692 Z M48,37.444998 L53.2905852,23.5840096 L55.4097763,23.5840096 L60.7003616,37.444998 L58.7462703,37.444998 L57.4821481,33.8867283 L51.2403911,33.8867283 L49.9762689,37.444998 L48,37.444998 L48,37.444998 Z M64.2931298,35.8876389 L64.2931298,41.4 L62.585456,41.4 L62.585456,27.0486407 L64.2931298,27.0486407 L64.2931298,28.6183206 C64.6528994,27.9998125 65.1063078,27.54394 65.6533548,27.2482389 C66.2077943,26.9426811 66.8608009,26.7923664 67.619767,26.7923664 C68.8838891,26.7923664 69.9089862,27.2950583 70.6975224,28.3029061 C71.4934512,29.3008973 71.8901835,30.6216955 71.8901835,32.2603723 C71.8901835,33.8990491 71.4934512,35.2075264 70.6975224,36.2178385 C69.9089862,37.2158297 68.8838891,37.7160573 67.619767,37.7160573 C66.863265,37.7160573 66.2102585,37.570671 65.6533548,37.2725057 C65.1063078,36.9669479 64.6553636,36.5036829 64.2931298,35.8901031 L64.2931298,35.8876389 Z M70.1085844,32.2579081 C70.1085844,31.0011785 69.8473818,30.0155082 69.3249766,29.2984331 C68.8173564,28.581358 68.1126021,28.2215883 67.2057855,28.2215883 C66.2989688,28.2215883 65.5843578,28.581358 65.0619526,29.2984331 C64.5469399,30.0155082 64.2882014,31.0011785 64.2882014,32.2579081 C64.2882014,33.5146377 64.5469399,34.500308 65.0619526,35.2173832 C65.5843578,35.9270658 66.2989688,36.2843712 67.2057855,36.2843712 C68.1126021,36.2843712 68.8173564,35.9270658 69.3249766,35.2173832 C69.8473818,34.500308 70.1085844,33.5146377 70.1085844,32.2579081 Z M76.3725191,35.8876389 L76.3725191,41.4 L74.6525244,41.4 L74.6525244,27.0486407 L76.3725191,27.0486407 L76.3725191,28.6183206 C76.7322887,27.9998125 77.1807687,27.54394 77.7204232,27.2482389 C78.2748627,26.9426811 78.9327976,26.7923664 79.6966921,26.7923664 C80.9534217,26.7923664 81.9760546,27.2950583 82.7645909,28.3029061 C83.5605196,29.3008973 83.9572519,30.6216955 83.9572519,32.2603723 C83.9572519,33.8990491 83.5605196,35.2075264 82.7645909,36.2178385 C81.9760546,37.2158297 80.9534217,37.7160573 79.6966921,37.7160573 C78.9327976,37.7160573 78.2748627,37.570671 77.7204232,37.2725057 C77.1807687,36.9669479 76.7298246,36.5036829 76.3725191,35.8901031 L76.3725191,35.8876389 Z M82.178117,32.2579081 C82.178117,31.0011785 81.9169144,30.0155082 81.3945092,29.2984331 C80.886889,28.581358 80.1821347,28.2215883 79.2753181,28.2215883 C78.3685014,28.2215883 77.6538905,28.581358 77.1314852,29.2984331 C76.623865,30.0155082 76.3700549,31.0011785 76.3700549,32.2579081 C76.3700549,33.5146377 76.623865,34.500308 77.1314852,35.2173832 C77.6538905,35.9270658 78.3685014,36.2843712 79.2753181,36.2843712 C80.1821347,36.2843712 80.886889,35.9270658 81.3945092,35.2173832 C81.9169144,34.500308 82.178117,33.5146377 82.178117,32.2579081 Z M96.2485603,35.4662649 L96.2485603,31.7453596 L93.1929825,31.7453596 L93.1929825,30.2003214 L98.109013,30.2003214 L98.109013,36.1586983 C97.3845453,36.673711 96.5836882,37.0630508 95.7089059,37.3267176 C94.841516,37.585456 93.9149859,37.711129 92.9243873,37.711129 C90.7534485,37.711129 89.0580956,37.0778358 87.8334003,35.8137137 C86.6160975,34.5495915 86.0074461,32.7877059 86.0074461,30.5231284 C86.0074461,28.258551 86.6185617,26.4966653 87.8334003,25.2325432 C89.0580956,23.9610285 90.7583769,23.322807 92.9243873,23.322807 C93.8287398,23.322807 94.6838088,23.4386233 95.48713,23.6628633 C96.3077005,23.8797107 97.0592741,24.2099103 97.7467792,24.6460694 L97.7467792,26.64698 C97.0543458,26.0531137 96.3175573,25.6095621 95.5364136,25.3113968 C94.7552699,25.0132316 93.9346993,24.8678452 93.0796304,24.8678452 C91.3867417,24.8678452 90.1127628,25.3385027 89.2527655,26.282282 C88.4100174,27.2334539 87.9886434,28.6478907 87.9886434,30.5182001 C87.9886434,32.3885094 88.4075532,33.7980179 89.2527655,34.7417972 C90.1127628,35.6855765 91.3892058,36.1562341 93.0796304,36.1562341 C93.7424936,36.1562341 94.33636,36.0995581 94.8587652,35.9935985 C95.373778,35.8827106 95.837043,35.7052899 96.2485603,35.4638007 L96.2485603,35.4662649 Z M107.825258,32.2086246 L106.129905,32.2086246 C104.747502,32.2086246 103.791402,32.3663319 103.261604,32.6891389 C102.731807,33.0020892 102.465676,33.5417437 102.465676,34.3056381 C102.465676,34.9167537 102.66281,35.3997322 103.06447,35.7570376 C103.461203,36.1094148 104.003321,36.2843712 104.69329,36.2843712 C105.644462,36.2843712 106.405893,35.9467792 106.975117,35.2789875 C107.546806,34.6087318 107.830186,33.714236 107.830186,32.5955002 L107.830186,32.2110888 L107.825258,32.2110888 L107.825258,32.2086246 Z M109.532932,31.5063345 L109.532932,37.4425338 L107.825258,37.4425338 L107.825258,35.860533 C107.435918,36.4938262 106.950475,36.9620196 106.373858,37.2675773 C105.787384,37.5657426 105.075238,37.711129 104.230025,37.711129 C103.167966,37.711129 102.320289,37.4129637 101.68946,36.8190974 C101.06356,36.2178385 100.755538,35.412053 100.755538,34.4066693 C100.755538,33.2460426 101.144877,32.3614035 101.923557,31.7601446 C102.712093,31.1662783 103.880112,30.868113 105.435007,30.868113 L107.825258,30.868113 L107.825258,30.7054774 C107.825258,29.9169412 107.566519,29.3058256 107.051507,28.8795232 C106.536494,28.4507567 105.812026,28.2388376 104.875639,28.2388376 C104.281773,28.2388376 103.70762,28.3102986 103.143324,28.4482925 C102.581492,28.5862863 102.036909,28.805598 101.514504,29.0889782 L101.514504,27.5069774 C102.140404,27.2654881 102.746592,27.0880675 103.340458,26.9673229 C103.926932,26.8416499 104.493692,26.7800455 105.048132,26.7800455 C106.553743,26.7800455 107.679871,27.1693853 108.419124,27.9480648 C109.160841,28.736601 109.528003,29.9169412 109.528003,31.5014062 L109.532932,31.5063345 Z M113.054239,37.4425338 L113.054239,23 L114.761912,23 L114.761912,37.4425338 L113.054239,37.4425338 Z M118.334967,37.4425338 L118.334967,23 L120.042641,23 L120.042641,37.4425338 L118.334967,37.4425338 Z M132.459622,31.8118923 L132.459622,32.6546404 L124.606294,32.6546404 C124.677755,33.8226597 125.025204,34.7220838 125.660962,35.3455203 C126.299183,35.9566359 127.186286,36.2572653 128.319807,36.2572653 C128.972814,36.2572653 129.608571,36.1784117 130.217222,36.0231686 C130.843123,35.860533 131.454239,35.6190438 132.055498,35.298701 L132.055498,36.9152002 C131.444382,37.1739387 130.818481,37.3710727 130.170403,37.5139949 C129.532182,37.6445962 128.879175,37.711129 128.216312,37.711129 C126.560386,37.711129 125.249444,37.2281505 124.268702,36.2597295 C123.302745,35.3011651 122.817303,33.9976162 122.817303,32.3490826 C122.817303,30.7005491 123.278104,29.2910406 124.199705,28.3004419 C125.118843,27.2950583 126.363252,26.7899022 127.920611,26.7899022 C129.320262,26.7899022 130.421749,27.2408464 131.232463,28.1501272 C132.048105,29.044623 132.457158,30.2668542 132.457158,31.8118923 L132.459622,31.8118923 Z M124.653114,31.3215214 L130.751949,31.3215214 C130.737164,30.3875988 130.471033,29.6384894 129.95602,29.0741931 C129.4484,28.5197536 128.77568,28.2413017 127.930467,28.2413017 C126.979296,28.2413017 126.215401,28.5098969 125.63632,29.0495514 C125.064631,29.5892058 124.741824,30.3457078 124.653114,31.3190572 L124.653114,31.3215214 Z M141.214839,26.8835409 L141.22716,28.638034 C141.03249,28.5271461 140.823035,28.4482925 140.593866,28.3916164 C140.364698,28.3349404 140.123209,28.3078345 139.857078,28.3078345 C138.891121,28.3078345 138.144476,28.6257131 137.62207,29.2540779 C137.107058,29.8799786 136.848319,30.7794027 136.848319,31.9572787 L136.848319,37.4376055 L135.140646,37.4376055 L135.140646,27.0437123 L136.848319,27.0437123 L136.848319,28.6602116 C137.208089,28.0269184 137.676282,27.5587251 138.255364,27.2531673 C138.834445,26.940217 139.531807,26.7849739 140.352377,26.7849739 C140.470658,26.7849739 140.601259,26.7972948 140.749109,26.8194723 C140.887103,26.8268649 141.047275,26.8465783 141.217303,26.8786126 L141.214839,26.8835409 Z M151.91429,27.0461765 L147.350636,38.4010982 C146.867658,39.6405785 146.394536,40.4537565 145.936199,40.8332396 C145.475398,41.2102585 144.861819,41.3950716 144.097924,41.3950716 L142.727843,41.3950716 L142.727843,39.9683139 L143.733226,39.9683139 C144.20142,39.9683139 144.568582,39.8524977 144.834713,39.6282577 C145.093451,39.4114102 145.376831,38.8840766 145.689782,38.0462569 L146.00766,37.2725057 L141.791456,27.0412482 L143.605089,27.0412482 L146.857801,35.1631713 L150.098192,27.0412482 L151.911825,27.0412482 L151.91429,27.0461765 Z" id="AppGallery-2" fill="#FFFFFF"></path>
                        <g id="Group" transform="translate(10, 10)">
                            <rect id="Rectangle" fill="#E14459" x="0" y="0" width="30" height="30" rx="7"></rect>
                            <path d="M7.31286476,1.96143111 C6.84090332,1.96143111 6.46028927,2.34204517 6.46028927,2.81146917 C6.46028927,3.28089317 6.84344075,3.66150723 7.31286476,3.66150723 C7.78482619,3.66150723 8.16544024,3.28089317 8.16544024,2.81146917 L8.16544024,2.81146917 C8.16544024,2.33950774 7.78228876,1.96143111 7.31032733,1.96143111 L7.31032733,1.96143111 L7.31286476,1.96143111 Z M22.5780259,1.96143111 C22.1060645,1.96143111 21.7254504,2.34204517 21.7254504,2.81146917 C21.7254504,3.28089317 22.1086019,3.66150723 22.5805633,3.66150723 C23.0525247,3.66150723 23.4331388,3.28089317 23.4331388,2.81146917 L23.4331388,2.81146917 C23.4331388,2.33950774 23.0499873,1.96143111 22.5780259,1.96143111 L22.5780259,1.96143111 Z" id="Shape" fill="#C73148"></path>
                            <path d="M7.27734078,2.69474753 C6.98046181,2.70997209 6.99555463,3.14133469 6.99555463,3.14133469 C8.58919056,6.24714539 11.5249937,7.76960162 14.9099213,7.76960162 C18.2897742,7.76452677 21.253489,6.22430855 22.8469931,3.12611012 C22.8469931,3.12611012 22.9104288,2.5425019 22.2887592,2.74549607 C20.6571936,5.4503933 17.914235,7.05150977 14.9124588,7.05658462 C11.9056077,7.05658462 9.17279878,5.47323014 7.53615834,2.76325806 C7.4295864,2.71250952 7.34585131,2.69474753 7.27734078,2.69728495 L7.27734078,2.69728495 L7.27734078,2.69474753 Z M18.0664806,14.7602131 L17.1606191,17.4600355 L16.2775945,14.7602131 L15.4148693,14.7602131 L16.8053793,18.6856128 L17.4752601,18.6856128 L18.383659,16.1075869 L19.2920579,18.6856128 L19.9695509,18.6856128 L21.3575235,14.7602131 L20.5176351,14.7602131 L19.6320731,17.4600355 L18.7262116,14.7602131 L18.0664806,14.7602131 Z M13.250444,14.7602131 L11.4920071,18.6856128 L12.3192083,18.6856128 L12.6592235,17.9269221 L12.6845978,17.8685613 L14.5115453,17.8685613 L14.8693225,18.6856128 L15.7193606,18.6856128 L13.9761482,14.78305 L13.9609236,14.7602131 L13.2529815,14.7602131 L13.250444,14.7602131 Z M25.9934027,14.7602131 L25.9934027,18.6830754 L26.7926922,18.6830754 L26.7926922,14.7602131 L25.9934027,14.7602131 Z M3.06521188,14.7602131 L3.06521188,18.6881502 L3.8746511,18.6881502 L3.8746511,17.0921086 L5.70413601,17.0921086 L5.70413601,18.6856128 L6.51611266,18.6856128 L6.51611266,14.7576757 L5.70667343,14.7576757 L5.70667343,16.3410302 L3.87718853,16.3410302 L3.87718853,14.7576757 L3.06521188,14.7576757 L3.06521188,14.7602131 Z M10.2689673,14.7602131 L10.2689673,17.0083735 C10.2689673,17.6478051 9.94671403,17.9878204 9.36056838,17.9878204 C8.77442274,17.9878204 8.44709465,17.6376554 8.44709465,16.9804618 L8.44709465,14.7627506 L7.63511799,14.7627506 L7.63511799,17.0083735 C7.63511799,18.1121543 8.25932504,18.746511 9.34788125,18.746511 C10.4364375,18.746511 11.0758691,18.1020046 11.0758691,16.975387 L11.0758691,14.7602131 L10.2664298,14.7602131 L10.2689673,14.7602131 Z M22.0147171,14.7602131 L22.0147171,18.6830754 L25.0317178,18.6830754 L25.0317178,17.9675209 L22.8140066,17.9675209 L22.8140066,16.9956864 L24.2882517,16.9956864 L24.2882517,16.2801319 L22.8140066,16.2801319 L22.8140066,15.478305 L24.9530576,15.478305 L24.9530576,14.7627506 L22.0147171,14.7627506 L22.0147171,14.7602131 Z M13.5955341,15.7498097 L14.1740675,17.0641969 L14.2146663,17.1555443 L12.9890891,17.1555443 L13.0271505,17.0641969 L13.5980716,15.7498097 L13.5955341,15.7498097 Z" id="Shape" fill="#FFFFFF"></path>
                        </g>
                        <g id="Group-8">
                            <path d="M160,44.9879581 C160,46.318141 159.514425,47.5937666 158.650229,48.5338569 C157.786033,49.4739472 156.614108,50.0013864 155.392588,50 L4.61342026,50 C2.06862155,50.00289 0.00331647542,47.7591339 0,44.9879581 L0,5.01858222 C0.00331472098,2.24634855 2.06764877,0.00071958653 4.61342026,0 L155.391387,0 C156.613556,0 157.785652,0.52878368 158.649744,1.46998805 C159.513835,2.41119242 160,3.68769181 160,5.01858222 L160,44.9879581 Z" id="Path" fill="#FFFFFF" opacity="0.90312"></path>
                            <g id="Скоро-появится" transform="translate(30.174, 19.41)" fill="#000000">
                                <path d="M6.986,7.966 C6.524,8.162 5.796,8.302 5.11,8.302 C3.024,8.302 1.82,6.986 1.82,4.9 C1.82,2.632 3.206,1.428 5.124,1.428 C5.894,1.428 6.524,1.596 6.972,1.792 L7.336,0.42 C6.986,0.238 6.188,0 5.054,0 C2.17,0 0,1.876 0,4.984 C0,7.868 1.82,9.744 4.816,9.744 C5.964,9.744 6.86,9.52 7.266,9.324 L6.986,7.966 Z" id="Path"></path>
                                <path d="M8.666,2.772 L8.666,9.59 L10.388,9.59 L10.388,6.748 L10.612,6.748 C11.494,6.748 12.012,7.196 12.39,8.134 C12.642,8.792 12.838,9.296 13.02,9.59 L14.812,9.59 C14.49,8.988 14.252,8.246 14.042,7.728 C13.58,6.636 13.006,5.908 12.068,5.768 L14.784,2.772 L12.74,2.772 L10.64,5.6 L10.388,5.6 L10.388,2.772 L8.666,2.772 Z" id="Path"></path>
                                <path d="M18.858,2.618 C16.8,2.618 15.33,3.99 15.33,6.23 C15.33,8.428 16.828,9.744 18.746,9.744 C20.482,9.744 22.246,8.624 22.246,6.118 C22.246,4.046 20.888,2.618 18.858,2.618 Z M18.816,3.864 C19.992,3.864 20.468,5.096 20.468,6.16 C20.468,7.546 19.782,8.498 18.802,8.498 C17.766,8.498 17.108,7.504 17.108,6.188 C17.108,5.054 17.598,3.864 18.816,3.864 Z" id="Shape"></path>
                                <path d="M23.66,12.362 L25.382,12.362 L25.382,8.834 L25.41,8.834 C25.76,9.38 26.474,9.744 27.328,9.744 C28.882,9.744 30.436,8.554 30.436,6.09 C30.436,3.962 29.134,2.618 27.566,2.618 C26.53,2.618 25.732,3.052 25.228,3.822 L25.2,3.822 L25.116,2.772 L23.604,2.772 C23.632,3.416 23.66,4.144 23.66,5.04 L23.66,12.362 Z M25.382,5.684 C25.382,5.544 25.41,5.39 25.438,5.25 C25.62,4.494 26.278,3.976 26.992,3.976 C28.098,3.976 28.686,4.956 28.686,6.16 C28.686,7.504 28.042,8.414 26.95,8.414 C26.208,8.414 25.606,7.91 25.424,7.21 C25.396,7.056 25.382,6.902 25.382,6.734 L25.382,5.684 Z" id="Shape"></path>
                                <path d="M34.944,2.618 C32.886,2.618 31.416,3.99 31.416,6.23 C31.416,8.428 32.914,9.744 34.832,9.744 C36.568,9.744 38.332,8.624 38.332,6.118 C38.332,4.046 36.974,2.618 34.944,2.618 Z M34.902,3.864 C36.078,3.864 36.554,5.096 36.554,6.16 C36.554,7.546 35.868,8.498 34.888,8.498 C33.852,8.498 33.194,7.504 33.194,6.188 C33.194,5.054 33.684,3.864 34.902,3.864 Z" id="Shape"></path>
                                <polygon id="Path" points="42.63 2.772 42.63 9.59 44.352 9.59 44.352 4.102 46.914 4.102 46.914 9.59 48.65 9.59 48.65 2.772"></polygon>
                                <path d="M53.578,2.618 C51.52,2.618 50.05,3.99 50.05,6.23 C50.05,8.428 51.548,9.744 53.466,9.744 C55.202,9.744 56.966,8.624 56.966,6.118 C56.966,4.046 55.608,2.618 53.578,2.618 Z M53.536,3.864 C54.712,3.864 55.188,5.096 55.188,6.16 C55.188,7.546 54.502,8.498 53.522,8.498 C52.486,8.498 51.828,7.504 51.828,6.188 C51.828,5.054 52.318,3.864 53.536,3.864 Z" id="Shape"></path>
                                <path d="M63.938,2.828 C63.336,2.744 62.468,2.674 61.516,2.674 C60.606,2.674 59.696,2.8 59.108,3.108 C58.506,3.416 58.072,3.906 58.072,4.676 C58.072,5.754 59.024,6.286 59.85,6.37 L59.85,6.412 C59.5,6.482 59.234,6.65 59.024,6.86 C58.506,7.336 58.268,8.232 58.016,8.82 C57.89,9.114 57.75,9.38 57.596,9.59 L59.43,9.59 C59.542,9.38 59.626,9.226 59.71,9.03 C59.934,8.442 60.102,7.714 60.536,7.336 C60.774,7.07 61.11,6.888 61.586,6.888 L62.23,6.888 L62.23,9.59 L63.938,9.59 L63.938,2.828 Z M62.23,5.796 C62.006,5.81 61.782,5.81 61.376,5.81 C60.704,5.81 59.85,5.502 59.85,4.788 C59.85,4.018 60.62,3.766 61.376,3.766 C61.754,3.766 61.992,3.794 62.23,3.822 L62.23,5.796 Z" id="Shape"></path>
                                <path d="M65.758,9.59 C66.164,9.604 67.074,9.674 67.942,9.674 C69.3,9.674 71.764,9.478 71.764,7.616 C71.764,6.664 71.078,6.104 70.056,5.95 L70.056,5.922 C70.784,5.768 71.456,5.278 71.456,4.41 C71.456,2.842 69.398,2.688 68.25,2.688 C67.312,2.688 66.262,2.772 65.758,2.856 L65.758,9.59 Z M67.452,3.85 C67.704,3.822 67.928,3.794 68.278,3.794 C69.286,3.794 69.762,4.088 69.762,4.634 C69.762,5.292 69.034,5.53 68.166,5.53 L67.452,5.53 L67.452,3.85 Z M67.438,6.566 L68.166,6.566 C69.244,6.566 70,6.818 70,7.574 C70,8.386 69.048,8.582 68.264,8.582 C67.928,8.582 67.718,8.582 67.438,8.554 L67.438,6.566 Z" id="Shape"></path>
                                <path d="M73.15,2.772 L73.15,9.59 L75.208,9.59 C75.796,8.47 76.426,7.238 76.944,6.23 C77.28,5.572 77.504,5.082 77.84,4.27 L77.896,4.27 C77.826,5.558 77.784,6.062 77.784,7.154 L77.784,9.59 L79.422,9.59 L79.422,2.772 L77.336,2.772 L75.67,5.964 C75.306,6.678 75.11,7.182 74.746,7.98 L74.69,7.98 C74.746,7.028 74.788,6.3 74.788,5.222 L74.788,2.772 L73.15,2.772 Z" id="Path"></path>
                                <polygon id="Path" points="80.5 2.772 80.5 4.102 82.544 4.102 82.544 9.59 84.266 9.59 84.266 4.102 86.31 4.102 86.31 2.772"></polygon>
                                <path d="M92.162,8.106 C91.826,8.246 91.392,8.372 90.804,8.372 C89.628,8.372 88.718,7.574 88.718,6.174 C88.704,4.928 89.488,3.962 90.804,3.962 C91.42,3.962 91.826,4.088 92.106,4.228 L92.414,2.926 C92.022,2.758 91.378,2.618 90.748,2.618 C88.354,2.618 86.954,4.2 86.954,6.244 C86.954,8.358 88.34,9.73 90.468,9.73 C91.322,9.73 92.036,9.548 92.4,9.38 L92.162,8.106 Z" id="Path"></path>
                                <path d="M99.232,2.828 C98.63,2.744 97.762,2.674 96.81,2.674 C95.9,2.674 94.99,2.8 94.402,3.108 C93.8,3.416 93.366,3.906 93.366,4.676 C93.366,5.754 94.318,6.286 95.144,6.37 L95.144,6.412 C94.794,6.482 94.528,6.65 94.318,6.86 C93.8,7.336 93.562,8.232 93.31,8.82 C93.184,9.114 93.044,9.38 92.89,9.59 L94.724,9.59 C94.836,9.38 94.92,9.226 95.004,9.03 C95.228,8.442 95.396,7.714 95.83,7.336 C96.068,7.07 96.404,6.888 96.88,6.888 L97.524,6.888 L97.524,9.59 L99.232,9.59 L99.232,2.828 Z M97.524,5.796 C97.3,5.81 97.076,5.81 96.67,5.81 C95.998,5.81 95.144,5.502 95.144,4.788 C95.144,4.018 95.914,3.766 96.67,3.766 C97.048,3.766 97.286,3.794 97.524,3.822 L97.524,5.796 Z" id="Shape"></path>
                            </g>
                        </g>
                        <g id="Скачать-приложение-в" transform="translate(52.6936, 11.7737)" fill="#FFFFFF">
                            <path d="M4.55387159,5.19269125 C4.25271375,5.32045518 3.778162,5.41171513 3.33098823,5.41171513 C1.97121495,5.41171513 1.18637937,4.55387159 1.18637937,3.19409831 C1.18637937,1.71568709 2.08985289,0.930851506 3.34011423,0.930851506 C3.84204396,0.930851506 4.25271375,1.04036345 4.54474559,1.16812738 L4.78202146,0.273779855 C4.55387159,0.155141918 4.03368986,0 3.29448425,0 C1.41452925,0 0,1.22288335 0,3.24885428 C0,5.12880928 1.18637937,6.35169263 3.13934234,6.35169263 C3.88767394,6.35169263 4.47173763,6.20567671 4.73639149,6.07791278 L4.55387159,5.19269125 Z" id="Path"></path>
                            <path d="M5.648991,1.80694704 L5.648991,6.25130669 L6.77148841,6.25130669 L6.77148841,4.39872967 L6.91750433,4.39872967 C7.49244203,4.39872967 7.83010385,4.69076151 8.07650572,5.30220319 C8.24077363,5.73112496 8.36853756,6.05966079 8.4871755,6.25130669 L9.65530288,6.25130669 C9.44540499,5.85888889 9.29026307,5.37521115 9.15337315,5.03754933 C8.85221531,4.32572171 8.4780495,3.85116996 7.86660783,3.75991001 L9.63705089,1.80694704 L8.3046556,1.80694704 L6.93575632,3.65039806 L6.77148841,3.65039806 L6.77148841,1.80694704 L5.648991,1.80694704 Z" id="Path"></path>
                            <path d="M13.7254967,3.5865161 C13.7254967,2.61003462 13.3148269,1.7065611 11.8911717,1.7065611 C11.1884701,1.7065611 10.6135324,1.89820699 10.2849965,2.09897889 L10.5040204,2.8290585 C10.8051783,2.6374126 11.261478,2.50052267 11.6995258,2.50052267 C12.4843614,2.50052267 12.6029993,2.98420042 12.6029993,3.27623226 L12.6029993,3.34924022 C10.9603202,3.34011423 9.96558672,3.91505192 9.96558672,5.02842333 C9.96558672,5.70374698 10.4675165,6.35169263 11.361864,6.35169263 C11.9459277,6.35169263 12.4113534,6.10529076 12.6760073,5.75850295 L12.7033853,5.75850295 L12.7855192,6.25130669 L13.7985047,6.25130669 C13.7437487,5.97752683 13.7254967,5.58510904 13.7254967,5.18356525 L13.7254967,3.5865161 Z M12.6303773,4.69076151 C12.6303773,4.77289547 12.6303773,4.85502943 12.6029993,4.93716338 C12.4934874,5.25657321 12.1740775,5.54860506 11.7177778,5.54860506 C11.361864,5.54860506 11.0789581,5.34783316 11.0789581,4.9097854 C11.0789581,4.23446175 11.8364157,4.07019384 12.6303773,4.07931984 L12.6303773,4.69076151 Z" id="Shape"></path>
                            <path d="M14.8571201,1.80694704 L14.8571201,3.35836622 C14.8571201,4.38960367 15.4411838,4.89153341 16.3446573,4.89153341 C16.7553271,4.89153341 17.2116269,4.77289547 17.4945327,4.59037557 L17.5127847,4.59037557 L17.5127847,6.31518865 L18.6352821,6.31518865 L18.6352821,1.80694704 L17.5127847,1.80694704 L17.5127847,3.84204396 C17.3302648,3.97893389 17.038233,4.07931984 16.7553271,4.07931984 C16.1803894,4.07931984 15.9796175,3.769036 15.9796175,3.24885428 L15.9796175,1.80694704 L14.8571201,1.80694704 Z" id="Path"></path>
                            <path d="M23.2804137,3.5865161 C23.2804137,2.61003462 22.8697439,1.7065611 21.4460886,1.7065611 C20.743387,1.7065611 20.1684493,1.89820699 19.8399135,2.09897889 L20.0589374,2.8290585 C20.3600952,2.6374126 20.816395,2.50052267 21.2544427,2.50052267 C22.0392783,2.50052267 22.1579163,2.98420042 22.1579163,3.27623226 L22.1579163,3.34924022 C20.5152371,3.34011423 19.5205037,3.91505192 19.5205037,5.02842333 C19.5205037,5.70374698 20.0224334,6.35169263 20.9167809,6.35169263 C21.5008446,6.35169263 21.9662704,6.10529076 22.2309242,5.75850295 L22.2583022,5.75850295 L22.3404362,6.25130669 L23.3534216,6.25130669 C23.2986656,5.97752683 23.2804137,5.58510904 23.2804137,5.18356525 L23.2804137,3.5865161 Z M22.1852942,4.69076151 C22.1852942,4.77289547 22.1852942,4.85502943 22.1579163,4.93716338 C22.0484043,5.25657321 21.7289945,5.54860506 21.2726947,5.54860506 C20.9167809,5.54860506 20.6338751,5.34783316 20.6338751,4.9097854 C20.6338751,4.23446175 21.3913327,4.07019384 22.1852942,4.07931984 L22.1852942,4.69076151 Z" id="Shape"></path>
                            <polygon id="Path" points="23.9739893 1.80694704 23.9739893 2.67391658 25.3063846 2.67391658 25.3063846 6.25130669 26.428882 6.25130669 26.428882 2.67391658 27.7612773 2.67391658 27.7612773 1.80694704"></polygon>
                            <path d="M28.4548529,1.80694704 L28.4548529,6.2239287 C28.8563967,6.26955868 29.3309484,6.29693666 29.8055002,6.29693666 C30.4716978,6.29693666 31.3112894,6.19655071 31.8405971,5.79500693 C32.1691329,5.54860506 32.3881568,5.19269125 32.3881568,4.68163552 C32.3881568,3.49525615 31.3112894,3.15759433 30.2891779,3.15759433 C30.0519021,3.15759433 29.7689962,3.17584632 29.5773503,3.2123503 L29.5773503,1.80694704 L28.4548529,1.80694704 Z M29.5682243,3.97893389 C29.7233662,3.9515559 29.8785082,3.93330391 30.0792801,3.93330391 C30.5720838,3.93330391 31.2656594,4.07931984 31.2656594,4.72726549 C31.2656594,5.34783316 30.6177138,5.52122707 30.088406,5.52122707 C29.8602562,5.52122707 29.7142402,5.51210108 29.5682243,5.49384909 L29.5682243,3.97893389 Z" id="Shape"></path>
                            <polygon id="Path" points="35.1715854 1.80694704 35.1715854 6.25130669 36.2940828 6.25130669 36.2940828 2.67391658 37.9641399 2.67391658 37.9641399 6.25130669 39.0957633 6.25130669 39.0957633 1.80694704"></polygon>
                            <path d="M40.2912686,8.05825373 L41.413766,8.05825373 L41.413766,5.75850295 L41.432018,5.75850295 C41.6601679,6.11441676 42.1255937,6.35169263 42.6822794,6.35169263 C43.6952648,6.35169263 44.7082503,5.57598304 44.7082503,3.9698079 C44.7082503,2.58265663 43.8595327,1.7065611 42.8374213,1.7065611 C42.1620976,1.7065611 41.6419159,1.98946695 41.3133801,2.49139668 L41.2951281,2.49139668 L41.2403721,1.80694704 L40.2547647,1.80694704 C40.2730166,2.22674282 40.2912686,2.70129457 40.2912686,3.28535826 L40.2912686,8.05825373 Z M41.413766,3.70515404 C41.413766,3.61389408 41.432018,3.51350814 41.45027,3.42224819 C41.568908,2.92944445 41.9978297,2.59178263 42.4632555,2.59178263 C43.1842091,2.59178263 43.5675009,3.23060229 43.5675009,4.01543787 C43.5675009,4.89153341 43.1477051,5.48472309 42.4358775,5.48472309 C41.9521998,5.48472309 41.559782,5.15618727 41.441144,4.69988751 C41.422892,4.59950156 41.413766,4.49911561 41.413766,4.38960367 L41.413766,3.70515404 Z" id="Shape"></path>
                            <path d="M45.6208498,1.80694704 L45.6208498,6.25130669 L46.9623711,6.25130669 C47.3456629,5.52122707 47.7563327,4.7181395 48.0939945,4.06106785 C48.3130184,3.63214607 48.4590343,3.31273624 48.6780582,2.78342852 L48.7145622,2.78342852 C48.6689322,3.62302008 48.6415542,3.9515559 48.6415542,4.66338353 L48.6415542,6.25130669 L49.7092956,6.25130669 L49.7092956,1.80694704 L48.3495224,1.80694704 L47.2635289,3.88767394 C47.0262531,4.35309969 46.8984891,4.68163552 46.6612133,5.20181724 L46.6247093,5.20181724 C46.6612133,4.58124957 46.6885912,4.10669782 46.6885912,3.4039962 L46.6885912,1.80694704 L45.6208498,1.80694704 Z" id="Path"></path>
                            <path d="M51.1512029,1.80694704 L51.1512029,3.59564209 C51.1512029,4.45348564 51.1146989,4.96454137 50.7861631,5.24744722 C50.6766511,5.34783316 50.5032572,5.42996712 50.3116113,5.45734511 L50.4302493,6.33344064 C50.959557,6.33344064 51.2880928,6.2148027 51.5436207,5.96840084 C52.0729284,5.57598304 52.2006923,4.79114746 52.2006923,3.63214607 L52.2006923,2.67391658 L53.4144497,2.67391658 L53.4144497,6.25130669 L54.5369471,6.25130669 L54.5369471,1.80694704 L51.1512029,1.80694704 Z" id="Path"></path>
                            <path d="M57.7401714,1.7065611 C56.3986501,1.7065611 55.4404206,2.60090862 55.4404206,4.06106785 C55.4404206,5.49384909 56.4169021,6.35169263 57.6671634,6.35169263 C58.7987868,6.35169263 59.9486622,5.62161302 59.9486622,3.98805989 C59.9486622,2.6374126 59.0634407,1.7065611 57.7401714,1.7065611 Z M57.7127934,2.51877466 C58.479377,2.51877466 58.7896608,3.32186224 58.7896608,4.01543787 C58.7896608,4.91891139 58.3424871,5.53947906 57.7036674,5.53947906 C57.0283438,5.53947906 56.599422,4.89153341 56.599422,4.03368986 C56.599422,3.29448425 56.9188318,2.51877466 57.7127934,2.51877466 Z" id="Shape"></path>
                            <path d="M60.331954,1.80694704 L61.9746331,3.769036 C61.3996954,3.85116996 61.0346556,4.29834372 60.8065058,4.92803739 C60.6331119,5.38433715 60.4870959,5.85888889 60.286324,6.25130669 L61.3905695,6.25130669 C61.5274594,6.00490482 61.6369713,5.667243 61.7921132,5.23832122 C62.0202631,4.64513154 62.321421,4.39872967 62.8324767,4.39872967 L62.9511146,4.39872967 L62.9511146,6.25130669 L64.0279821,6.25130669 L64.0279821,4.39872967 L64.14662,4.39872967 C64.6120457,4.39872967 64.9497076,4.63600554 65.1687314,5.23832122 C65.3056214,5.648991 65.4242593,6.01403081 65.5611492,6.25130669 L66.6927726,6.25130669 C66.4920007,5.86801489 66.3459848,5.38433715 66.1725909,4.92803739 C65.953567,4.29834372 65.5794012,3.85116996 65.0044635,3.769036 L66.6471427,1.80694704 L65.3877553,1.80694704 L64.173998,3.65952406 L64.0279821,3.65952406 L64.0279821,1.80694704 L62.9511146,1.80694704 L62.9511146,3.65952406 L62.8050987,3.65952406 L61.5822153,1.80694704 L60.331954,1.80694704 Z" id="Path"></path>
                            <path d="M71.0823763,4.3439737 C71.1006283,4.24358775 71.1188803,4.07931984 71.1188803,3.86942195 C71.1188803,2.89294047 70.6443285,1.7065611 69.2024213,1.7065611 C67.7787661,1.7065611 67.0304345,2.86556248 67.0304345,4.09757183 C67.0304345,5.45734511 67.879152,6.34256664 69.3210592,6.34256664 C69.9598789,6.34256664 70.4891866,6.2239287 70.8724784,6.05966079 L70.7082105,5.29307719 C70.3614227,5.41171513 69.9963829,5.49384909 69.4762012,5.49384909 C68.7552475,5.49384909 68.1346799,5.14706127 68.1073019,4.3439737 L71.0823763,4.3439737 Z M68.1073019,3.55913811 C68.1529319,3.10283835 68.4449637,2.47314469 69.1385393,2.47314469 C69.8868709,2.47314469 70.0693908,3.14846833 70.0602649,3.55913811 L68.1073019,3.55913811 Z" id="Shape"></path>
                            <polygon id="Path" points="72.0132278 1.80694704 72.0132278 6.25130669 73.1357252 6.25130669 73.1357252 4.38047768 74.8514123 4.38047768 74.8514123 6.25130669 75.9739097 6.25130669 75.9739097 1.80694704 74.8514123 1.80694704 74.8514123 3.50438214 73.1357252 3.50438214 73.1357252 1.80694704"></polygon>
                            <path d="M77.1602891,1.80694704 L77.1602891,6.25130669 L78.5018104,6.25130669 C78.8851022,5.52122707 79.295772,4.7181395 79.6334338,4.06106785 C79.8524577,3.63214607 79.9984736,3.31273624 80.2174975,2.78342852 L80.2540014,2.78342852 C80.2083715,3.62302008 80.1809935,3.9515559 80.1809935,4.66338353 L80.1809935,6.25130669 L81.2487349,6.25130669 L81.2487349,1.80694704 L79.8889616,1.80694704 L78.8029682,3.88767394 C78.5656923,4.35309969 78.4379284,4.68163552 78.2006525,5.20181724 L78.1641486,5.20181724 C78.2006525,4.58124957 78.2280305,4.10669782 78.2280305,3.4039962 L78.2280305,1.80694704 L77.1602891,1.80694704 Z" id="Path"></path>
                            <path d="M86.2132763,4.3439737 C86.2315283,4.24358775 86.2497803,4.07931984 86.2497803,3.86942195 C86.2497803,2.89294047 85.7752285,1.7065611 84.3333213,1.7065611 C82.909666,1.7065611 82.1613344,2.86556248 82.1613344,4.09757183 C82.1613344,5.45734511 83.010052,6.34256664 84.4519592,6.34256664 C85.0907789,6.34256664 85.6200866,6.2239287 86.0033784,6.05966079 L85.8391105,5.29307719 C85.4923227,5.41171513 85.1272829,5.49384909 84.6071011,5.49384909 C83.8861475,5.49384909 83.2655799,5.14706127 83.2382019,4.3439737 L86.2132763,4.3439737 Z M83.2382019,3.55913811 C83.2838318,3.10283835 83.5758637,2.47314469 84.2694393,2.47314469 C85.0177709,2.47314469 85.2002908,3.14846833 85.1911648,3.55913811 L83.2382019,3.55913811 Z" id="Shape"></path>
                            <path d="M89.0332088,6.25130669 C89.2978627,6.26043268 89.8910523,6.30606266 90.456864,6.30606266 C91.3420856,6.30606266 92.9482607,6.17829872 92.9482607,4.96454137 C92.9482607,4.3439737 92.501087,3.97893389 91.8348893,3.87854794 L91.8348893,3.86029595 C92.3094411,3.75991001 92.7474888,3.44050018 92.7474888,2.87468848 C92.7474888,1.85257702 91.4059675,1.75219107 90.6576359,1.75219107 C90.0461943,1.75219107 89.3617446,1.80694704 89.0332088,1.86170301 L89.0332088,6.25130669 Z M90.1374542,2.50964867 C90.3017221,2.49139668 90.447738,2.47314469 90.6758879,2.47314469 C91.3329596,2.47314469 91.6432434,2.66479059 91.6432434,3.0207044 C91.6432434,3.44962617 91.1686917,3.60476809 90.60288,3.60476809 L90.1374542,3.60476809 L90.1374542,2.50964867 Z M90.1283282,4.28009173 L90.60288,4.28009173 C91.3055816,4.28009173 91.7983853,4.44435964 91.7983853,4.93716338 C91.7983853,5.4664711 91.1778177,5.59423503 90.6667619,5.59423503 C90.447738,5.59423503 90.3108481,5.59423503 90.1283282,5.57598304 L90.1283282,4.28009173 Z" id="Shape"></path>
                        </g>
                    </g>
                </g>
            </g>
        </g>
    </g>
</svg>