<?xml version="1.0" encoding="UTF-8"?>
<svg width="150px" height="61px" viewBox="0 0 150 61" version="1.1" xmlns="http://www.w3.org/2000/svg" xmlns:xlink="http://www.w3.org/1999/xlink">
    <title>Burger_King_Logo</title>
    <g id="Логистика-2" stroke="none" stroke-width="1" fill="none" fill-rule="evenodd">
        <g id="Desktop-HD-Copy-9" transform="translate(-343.000000, -760.000000)">
            <g id="Group-29" transform="translate(142.000000, 601.000000)">
                <g id="Аэроэкспресс" transform="translate(0.000000, 159.344329)">
                    <g id="Burger_King_Logo" transform="translate(201.000000, 0.000000)">
                        <rect id="Rectangle-Copy-3" x="0" y="0" width="150" height="60"></rect>
                        <g id="Group" transform="translate(46.000000, 0.655671)">
                            <polygon id="Path" points="0 0 57.3535235 0 57.3535235 58.9530975 0 58.9530975"></polygon>
                            <path d="M29.5569273,0.983338084 C25.7043535,0.983338084 22.008138,1.72753986 18.4794778,3.21594341 C15.0823827,4.65595985 12.070385,6.6842196 9.44188511,9.31271948 C6.825382,11.9412194 4.78512545,14.953617 3.35710582,18.3503123 C1.85670545,21.8789724 1.11290357,25.5631911 1.11290357,29.4281616 C1.11290357,33.2807354 1.85670545,36.9773509 3.35710582,40.4936143 C4.78512545,43.9019065 6.825382,46.914704 9.44188511,49.542804 C12.070385,52.1709039 15.0823827,54.1999635 18.4794778,55.63958 C22.0077381,57.1283835 25.7039536,57.8841822 29.5569273,57.8841822 C33.421498,57.8841822 37.1061165,57.1279836 40.6347767,55.63958 C44.0314719,54.1999635 47.0434697,52.1709039 49.6723695,49.542804 C52.2884726,46.914704 54.3291291,43.9023064 55.7571488,40.4936143 C57.2575491,36.9773509 58.001351,33.2807354 58.001351,29.4281616 C58.001351,25.5631911 57.2575491,21.8789724 55.7571488,18.3503123 C54.3291291,14.953617 52.2884726,11.9412194 49.6723695,9.31271948 C47.0438696,6.6842196 44.0318718,4.65595985 40.6347767,3.21594341 C37.1061165,1.72753986 33.421498,0.983338084 29.5569273,0.983338084 L29.5569273,0.983338084 Z" id="Path" fill="#F6F5F3"></path>
                            <path d="M42.3031323,10.2968574 C42.5910556,10.260867 42.7590109,10.140499 42.8309917,9.97294366 C42.9149693,9.76859807 42.8669821,9.56465239 42.698627,9.36070671 C41.3549848,7.08011414 38.3181937,5.67648803 33.5654596,5.17182245 C31.5847872,4.95587997 29.4609529,5.0522543 27.1807602,5.45974576 C24.7682028,5.88003382 22.679959,6.55185489 20.915629,7.50040224 C16.5231989,9.86457253 14.0026703,12.9969382 13.3424461,16.909496 C13.2460718,17.2694002 13.2700654,17.5221329 13.3900335,17.6776914 C13.5223982,17.8336499 13.7387406,17.8576435 14.0382608,17.7612692 C19.9074975,15.7929935 24.4562859,14.3769706 27.6726292,13.5128008 C32.7496769,12.1811555 37.622379,11.1010432 42.3031323,10.2968574 L42.3031323,10.2968574 Z" id="Path" fill="#FEBE10"></path>
                            <path d="M37.8503183,3.62383477 C35.1858281,2.75966495 32.4853473,2.33937689 29.7728698,2.33937689 C25.8243215,2.33937689 22.1037125,3.09597537 18.6354364,4.61956955 C15.359109,6.04798907 12.490673,8.06425205 10.0061348,10.6567615 C7.61757098,13.1652933 5.75726651,16.0337293 4.44921492,19.2620694 C3.12916653,22.4904096 2.48053929,25.8027273 2.48053929,29.2118192 C2.48053929,32.884441 3.16475705,36.3891076 4.54518936,39.7490126 C5.88923137,43.0253399 7.77352949,45.9177695 10.2340741,48.438698 C12.6946187,50.9824205 15.5510579,52.9506963 18.779398,54.3435252 C22.1516998,55.8079352 25.7043535,56.5281434 29.449356,56.5281434 C35.9660202,56.5281434 41.654905,54.5590678 46.5160102,50.5985227 C48.423902,49.0505351 50.1042544,47.2502146 51.5686643,45.2227546 C52.805135,43.5060119 53.7772761,41.7656754 54.4854874,40.0257389 L49.9362991,37.5527976 C48.0164105,41.8736467 45.3519202,45.2935358 41.9436281,47.8024675 C38.3305904,50.454961 34.2380805,51.8113997 29.6892921,51.8833805 C26.3165904,51.9309679 23.1362375,51.4031085 20.1598303,50.2870057 C17.2554039,49.2068934 14.6992848,47.6345122 12.490673,45.5586652 L9.86217314,46.6863648 L9.86217314,42.6178485 C8.39776321,40.6495727 7.29405717,38.4893481 6.52546192,36.1007843 C5.73327291,33.6406396 5.33737835,31.0357334 5.33737835,28.2996622 C5.33737835,24.7829989 5.98560569,21.4586843 7.2816605,18.3143219 C8.54212475,15.253937 10.3420453,12.5654531 12.6826219,10.2492701 C15.0467922,7.89669668 17.79566,6.09677611 20.9396226,4.82431501 C24.204353,3.51626342 27.7086197,2.85603928 31.4412254,2.85603928 C33.4458915,2.85563938 35.5941193,3.11956909 37.8503183,3.62383477 L37.8503183,3.62383477 Z" id="Path" fill="#0061A9"></path>
                            <path d="M51.3883124,22.2264798 C51.2087602,21.8425821 50.9200371,21.5786524 50.5125457,21.4102972 C49.8763151,21.1703612 49.1801006,21.0140028 48.3879116,20.9660156 C47.6077194,20.9180283 46.8275272,20.9660156 46.0353382,21.1339708 C44.5237408,21.4338909 43.2272861,22.0821183 42.1587707,23.0782529 C40.6107831,24.5186693 39.8305909,26.4749482 39.8305909,28.9710834 C39.8305909,31.059727 40.5148086,32.6077147 41.8832442,33.6158462 C43.0473341,34.4680192 44.4753537,34.8039298 46.156106,34.611581 C48.052001,34.3960384 49.5288077,33.759408 50.5965233,32.7036891 C51.2087602,32.1038489 51.5086803,31.2756695 51.5206772,30.2195508 C51.5450707,29.4997425 51.5450707,27.9753486 51.5206772,25.6707624 L45.8437892,26.9072331 L45.8437892,28.2272815 C45.855786,29.1878256 46.3000677,29.5833203 47.2002279,29.4033682 L47.920836,29.2234161 L47.9328328,30.3039284 C47.9444297,30.3999028 47.9080394,30.507874 47.800468,30.628242 C47.5957226,30.8917718 47.1874313,31.0717238 46.5875911,31.1916919 C45.6754341,31.3236568 44.9912163,31.1437047 44.5237408,30.6158453 C44.0794592,30.1235764 43.85112,29.3433842 43.8391232,28.2996622 C43.8635167,27.2555403 44.1394432,26.3913705 44.6792994,25.7191496 C45.1715682,25.1069126 45.8077988,24.6990212 46.6119846,24.5190692 C47.3197961,24.3511139 47.992017,24.3031267 48.6282476,24.3871043 L49.8043343,24.6150436 C50.2602129,24.6874243 50.6321138,24.5794531 50.9564274,24.3271203 C51.2323539,24.0871842 51.4243028,23.7628706 51.5086803,23.3673759 C51.592658,22.9586848 51.5446708,22.586384 51.3883124,22.2264798 L51.3883124,22.2264798 Z" id="Path" fill="#ED1C2E"></path>
                            <path d="M36.0376011,24.3027268 C35.7020905,24.7466086 35.5337354,25.3468487 35.5337354,26.1390377 L35.5217385,30.14757 C34.0097413,28.2512751 32.749277,26.7988619 31.765539,25.8027273 C31.2248831,25.2748679 30.5286685,25.1668967 29.6529018,25.4788136 L27.7086197,26.066656 L27.7086197,39.4486926 L29.5929178,38.8004653 C30.2887324,38.5605292 30.7810013,38.212222 31.0809214,37.7803369 C31.3688447,37.348452 31.5012095,36.7726054 31.5012095,36.0400005 L31.476816,31.4192313 L35.5213386,36.0875878 C36.1219787,36.6998248 36.8657806,36.8801767 37.7655409,36.616247 C38.1738322,36.4958791 38.5093428,36.2679398 38.7736724,35.9204324 C39.0619956,35.5597284 39.2059572,35.1402402 39.2171542,34.6599681 L39.2171542,23.066656 C38.5213396,23.2102178 37.8855089,23.3665762 37.2972656,23.5345314 C36.7466123,23.6908898 36.3259244,23.9428227 36.0376011,24.3027268 L36.0376011,24.3027268 Z" id="Path" fill="#ED1C2E"></path>
                            <path d="M24.2643371,27.0871852 C23.5801193,27.339118 23.0762535,27.6870254 22.7643366,28.1069135 C22.4040325,28.6111792 22.2360773,29.3193906 22.2360773,30.2555412 L22.2244804,41.369381 L24.4086986,40.5891888 C25.1648972,40.3008656 25.6927566,39.9533582 26.0046735,39.5090765 C26.3165904,39.0771916 26.4729487,38.4649546 26.4729487,37.6843625 L26.4849456,26.366977 C25.6563663,26.607313 24.9245612,26.8472491 24.2643371,27.0871852 L24.2643371,27.0871852 Z" id="Path" fill="#ED1C2E"></path>
                            <path d="M14.4829423,30.8437846 L10.4384197,32.524137 L10.414426,45.8585853 L13.2708652,44.658105 C13.654763,44.5621306 13.955083,44.3221945 14.1706255,43.9738873 C14.3869679,43.6379767 14.4829423,43.2060918 14.4709456,42.6662356 L14.4709456,38.4289642 L17.6636952,41.8256595 C18.0595897,42.221554 18.5274651,42.4614901 19.0673213,42.5214741 C19.691555,42.6058517 20.2674017,42.4254997 20.795661,42.0052116 C21.2755331,41.6093171 21.527466,41.1054513 21.5514596,40.4932144 C21.5634565,39.9293646 21.4194948,39.4730861 21.095581,39.113182 L18.1791579,36.1967588 L21.1675619,31.4800151 C21.4434884,31.0241365 21.5158691,30.5558613 21.3835044,30.0879859 C21.2395427,29.595717 20.915629,29.2358129 20.4233601,29.0198704 C19.9070976,28.7799343 19.391235,28.7555408 18.9113629,28.9358927 C18.4910748,29.0918512 18.1675609,29.3437841 17.9392218,29.7036882 L14.4945393,35.5605283 L14.4829423,30.8437846 L14.4829423,30.8437846 Z" id="Path" fill="#ED1C2E"></path>
                            <path d="M47.4873514,35.6804963 C47.3437897,35.5241379 47.0918568,35.4885474 46.7439494,35.5845218 C42.7354171,36.5210724 38.1382417,37.8051303 32.9416258,39.4366958 C27.3607123,41.189029 22.8359175,42.8097973 19.3796381,44.297801 L19.0313309,44.4657563 C18.9477532,44.5257403 18.8753724,44.5977211 18.839382,44.7056924 C18.7314108,44.9336316 18.7913948,45.1627706 19.019734,45.4023068 C19.4156285,45.8817791 20.0758526,46.3504542 21.0120033,46.8059329 C22.0201348,47.286205 23.1722279,47.6828994 24.4922763,47.9828194 C27.7086197,48.6906309 30.9369597,48.6546405 34.1776966,47.8744483 C38.7744722,46.7707423 42.3387228,44.6824985 44.8716482,41.609717 C45.7118244,40.577192 46.3960421,39.4850829 46.9235016,38.3449866 C47.2482151,37.6491719 47.4757545,37.0249382 47.6077194,36.4726853 C47.6797002,36.1007843 47.6441097,35.8368547 47.4873514,35.6804963 L47.4873514,35.6804963 Z" id="Path" fill="#FEBE10"></path>
                            <path d="M13.774731,21.0383963 C13.1385005,20.7024857 12.3223179,20.7024857 11.3261832,21.0743867 C10.8219175,21.2543388 9.82618273,21.6502333 8.32578239,22.2624702 L8.33777916,31.9838809 L11.9144265,30.4594869 C12.8985644,30.0511957 13.6307694,29.5953171 14.1106415,29.1030482 C14.7108817,28.4788145 14.998805,27.7470094 14.9864083,26.8828396 C14.9748113,26.4025675 14.8188529,25.9946761 14.4945393,25.6587657 C14.1946192,25.334452 13.8223183,25.1305063 13.3780367,25.0589254 C14.2302097,24.3747077 14.6500979,23.5705219 14.6500979,22.6343712 C14.6504978,21.8905693 14.3505776,21.36231 13.774731,21.0383963 L13.774731,21.0383963 Z M11.2542023,24.8789733 L10.7979239,25.0709222 L10.7979239,23.0190687 C11.1942184,22.8027264 11.5301289,22.7547391 11.7944585,22.8387168 C12.0463914,22.9346912 12.1783562,23.1510336 12.1663594,23.5109377 C12.1663594,24.1227748 11.8544425,24.5790532 11.2542023,24.8789733 L11.2542023,24.8789733 Z M11.9628136,26.426961 C12.2387402,26.5709227 12.3827018,26.8228555 12.3827018,27.2071532 C12.4066954,27.8793742 12.0583882,28.371643 11.3745703,28.68356 L10.8223174,28.9354928 L10.8223174,26.5709227 C11.2901928,26.3313864 11.6744904,26.2829994 11.9628136,26.426961 L11.9628136,26.426961 Z" id="Shape" fill="#ED1C2E"></path>
                            <path d="M21.7917956,18.6738261 C21.7917956,18.2783315 21.6722274,18.0140019 21.4198947,17.8700402 C21.2039522,17.7380753 20.9036322,17.7260786 20.5557249,17.8340498 C20.183424,17.942021 19.7875295,18.0739859 19.3556445,18.2423411 L19.3556445,24.2791331 C19.3316509,25.1792933 19.0557244,25.683559 18.5038714,25.8275207 C18.2279448,25.8875047 18.0120024,25.8395175 17.8676409,25.683559 C17.735676,25.5391975 17.664095,25.2996613 17.664095,24.9877444 L17.6512984,20.0422616 C17.6512984,19.6463671 17.5309305,19.3704406 17.2909944,19.226079 C17.0630551,19.0825173 16.7751318,19.0825173 16.4152277,19.1900886 L15.1907539,19.6339704 L15.1907539,25.6231751 C15.1791569,26.6313066 15.4906739,27.3631117 16.1269045,27.7953965 C16.7755317,28.251675 17.626905,28.3236558 18.6714268,28.0117389 C19.6911551,27.711019 20.4353569,27.2555403 20.915629,26.6792938 C21.4918755,25.9826794 21.7797988,25.0109382 21.7913957,23.7504739 L21.7913957,18.6738261 L21.7917956,18.6738261 Z" id="Path" fill="#ED1C2E"></path>
                            <path d="M39.6866292,16.1177069 L39.6866292,14.7616681 L41.7624763,14.3293833 C42.2547452,14.2334088 42.506678,13.8855015 42.506678,13.309255 L42.506678,12.27673 C40.7903352,12.5650532 39.038002,12.9249573 37.262075,13.3328487 L37.2260846,22.2024862 C39.1699668,21.7350107 40.6583704,21.3987003 41.7264859,21.1703612 C42.3027324,21.0379964 42.6026525,20.6540987 42.6026525,20.018268 L42.6026525,18.9857431 L39.6862293,19.6219736 L39.6982261,17.9056307 L41.5225402,17.5221329 C42.026406,17.4017649 42.2787388,17.089848 42.2787388,16.5615887 L42.2671419,15.5774509 L39.6866292,16.1177069 L39.6866292,16.1177069 Z" id="Path" fill="#ED1C2E"></path>
                            <path d="M22.4644165,26.3673769 L23.9164297,25.8755079 C24.5766539,25.6111783 24.9005676,25.1792933 24.9125644,24.5550596 L24.9245612,22.1784926 L27.012805,24.3511139 C27.3251218,24.6510341 27.6730291,24.7833988 28.0809205,24.7594052 C28.4052341,24.7230149 28.6691638,24.6150436 28.8851063,24.4106981 C29.1494358,24.170762 29.2814007,23.858845 29.2814007,23.4865442 C29.2694039,23.1262402 29.1494358,22.8267199 28.9090999,22.586384 L27.3255217,21.0739868 C28.3456499,20.2342105 28.8495158,19.2616695 28.8615125,18.1815572 C28.8615125,17.4253587 28.5735893,16.8615089 27.9853459,16.5012048 C27.3855057,16.1293039 26.6173103,16.0453262 25.6931565,16.2612687 C24.9009674,16.4412208 23.8208551,16.7775312 22.4648163,17.2454066 L22.4648163,26.3673769 L22.4644165,26.3673769 Z M24.9121645,20.810457 L24.9121645,18.2783315 C25.8483151,17.9300242 26.3285872,18.1339699 26.340584,18.8901685 C26.3525809,19.6819576 25.8723088,20.3181881 24.9121645,20.810457 L24.9121645,20.810457 Z" id="Shape" fill="#ED1C2E"></path>
                            <path d="M48.5678637,12.1091746 C47.992017,11.664893 47.2478153,11.4973376 46.3596518,11.6173057 L43.1433085,12.1571619 L43.1433085,20.8948345 L44.4753537,20.6425018 C45.1591716,20.4861434 45.5074788,20.0786519 45.5194756,19.3944342 L45.5194756,17.2582031 L47.5721288,19.6703607 C47.7760745,19.8982999 48.0280074,20.0302648 48.3039339,20.0786519 C48.6282476,20.1382361 48.9401645,20.0786519 49.2396847,19.8867031 C49.5643982,19.6823575 49.7443503,19.3948341 49.7803407,19.03453 C49.8163311,18.674226 49.7203567,18.3623091 49.4804206,18.1103762 L47.8960426,16.3344492 C48.8801805,15.6742251 49.3844461,14.8460457 49.3844461,13.849911 C49.3956431,13.1049094 49.1201166,12.5410596 48.5678637,12.1091746 L48.5678637,12.1091746 Z M45.5194756,15.9017644 L45.5074788,13.5371943 C46.4320325,13.3456453 46.9119047,13.5735846 46.9235016,14.2334088 C46.9235016,14.9892076 46.4556262,15.5414605 45.5194756,15.9017644 L45.5194756,15.9017644 Z" id="Shape" fill="#ED1C2E"></path>
                            <path d="M36.6142476,15.2295435 C36.6262443,14.8092555 36.4462923,14.4857416 36.0739914,14.2574025 C35.6657002,14.0290633 35.0898536,13.9330888 34.3216582,13.9454855 C32.689293,14.0050697 31.405235,14.5693194 30.4690844,15.6494317 C29.6049145,16.6455663 29.1730296,17.9060306 29.1730296,19.4420215 C29.1730296,20.8944347 29.6049145,21.974547 30.4566877,22.6827583 C31.2488766,23.3425825 32.2814016,23.5589249 33.5170725,23.3305858 C34.5731912,23.1262402 35.4017705,22.7547391 36.0016107,22.2144831 C36.4454925,21.8305853 36.6618349,21.3143228 36.6618349,20.6780923 L36.6618349,17.2334097 L33.0248036,18.0495924 L33.0248036,19.0577239 C33.0248036,19.2980599 33.1087813,19.4780119 33.2647397,19.6099768 C33.4210981,19.7419416 33.6130469,19.7899288 33.8409863,19.7419416 L34.3688456,19.6219736 L34.3808424,20.6181083 C34.3808424,20.8224538 34.2604745,20.9784122 34.0085416,21.0983803 C33.7682056,21.2187482 33.4806822,21.2783324 33.1679655,21.2663356 C32.2682051,21.2543388 31.8239235,20.5941146 31.7999299,19.286063 C31.8119267,18.4702803 32.0038756,17.8096563 32.3521828,17.2817969 C32.70049,16.7899279 33.1439719,16.4776111 33.7086215,16.3216526 C34.0681257,16.237675 34.5368009,16.2260781 35.1246443,16.297659 C35.5813227,16.3816367 35.9412268,16.3096558 36.2047566,16.1177069 C36.4702859,15.9257581 36.6018509,15.6254381 36.6142476,15.2295435 L36.6142476,15.2295435 Z" id="Path" fill="#ED1C2E"></path>
                            <path d="M16.3068566,15.6374349 C16.4268246,15.5530574 16.4872085,15.4094956 16.5108022,15.2291436 C16.9190935,13.680756 17.6988858,12.1563621 18.850979,10.6803552 C19.9310913,9.2999229 21.1075779,8.21981059 22.3916359,7.43961843 C20.555325,8.24380424 18.9349565,9.52826207 17.5189337,11.2925921 C16.9430871,12.0247971 16.4752117,12.7446054 16.1145078,13.4648136 C15.7785972,14.1490313 15.5866484,14.713281 15.5386612,15.1811564 C15.5386612,15.3491117 15.5746516,15.4810765 15.6586292,15.5894476 C15.7422069,15.6854221 15.8505781,15.7330094 15.9825429,15.7450062 C16.1029109,15.7574029 16.2108821,15.7214125 16.3068566,15.6374349 L16.3068566,15.6374349 Z" id="Path" fill="#FFFFFF"></path>
                            <path d="M38.9908145,8.88043462 C39.0024115,8.48454008 38.7384818,8.07624881 38.2222193,7.65636069 C37.7303503,7.26046615 37.0461325,6.90016211 36.1943594,6.56425156 C35.3057961,6.24033784 34.3696454,6.01239857 33.3619138,5.8560402 C32.2818015,5.70048164 31.225283,5.65209453 30.2051547,5.73647206 C32.2214176,5.88003382 33.9021699,6.27632824 35.246212,6.96054601 C35.8344553,7.24846933 36.289934,7.56038623 36.6142476,7.89629678 C36.9257646,8.2202105 37.0945197,8.53252731 37.0945197,8.82045063 C37.1061165,9.18075467 36.9625548,9.51666516 36.6742316,9.80458848 C36.409902,10.1045086 36.0499979,10.320851 35.6301097,10.4528158 L37.0461325,10.1165054 C37.5264046,10.0085342 37.8743119,9.9125597 38.1026511,9.8165853 C38.6908944,9.61263962 38.9788177,9.30072271 38.9908145,8.88043462 L38.9908145,8.88043462 Z" id="Path" fill="#FFFFFF"></path>
                            <path d="M45.0276066,38.7404812 C45.1479746,38.4889482 45.1591716,38.2610089 45.0759937,38.0686602 C45.0160097,37.889108 44.8840448,37.76874 44.6912962,37.708756 C44.4993473,37.648772 44.3189953,37.6727656 44.1394432,37.76874 C43.9231008,37.889108 43.779539,38.0922539 43.6831647,38.3801772 C43.118915,39.8445872 42.3263261,41.1886291 41.3069976,42.4250998 C40.1065173,43.9011066 38.6541042,45.1135837 36.9625548,46.0733281 C38.6784977,45.401507 40.2148885,44.4777531 41.5589305,43.3012664 C43.0593309,41.9936148 44.211424,40.4816174 45.0276066,38.7404812 L45.0276066,38.7404812 Z" id="Path" fill="#FFFFFF"></path>
                            <polygon id="Path" fill="#ED1C2E" points="53.8124667 37.648772 52.9123065 37.648772 52.9123065 37.7931336 53.2606137 37.7931336 53.2606137 38.4893481 53.4889529 38.4893481 53.4889529 37.7931336 53.8124667 37.7931336"></polygon>
                            <polygon id="Path" fill="#ED1C2E" points="54.160774 37.8051303 54.3647196 38.4893481 54.5930588 38.4893481 54.7970045 37.8051303 54.7970045 38.4893481 55.0253437 38.4893481 55.0253437 37.648772 54.6890332 37.648772 54.4850875 38.2969993 54.2687452 37.648772 53.9328346 37.648772 53.9328346 38.4893481 54.160774 38.4893481"></polygon>
                        </g>
                    </g>
                </g>
            </g>
        </g>
    </g>
</svg>