<?xml version="1.0" encoding="UTF-8"?>
<svg width="150px" height="61px" viewBox="0 0 150 61" version="1.1" xmlns="http://www.w3.org/2000/svg" xmlns:xlink="http://www.w3.org/1999/xlink">
    <title>komus</title>
    <g id="Логистика-2" stroke="none" stroke-width="1" fill="none" fill-rule="evenodd">
        <g id="Desktop-HD-Copy-9" transform="translate(-544.000000, -760.000000)">
            <g id="Group-29" transform="translate(142.000000, 601.000000)">
                <g id="Аэроэкспресс" transform="translate(0.000000, 159.344329)">
                    <g id="komus" transform="translate(402.000000, 0.000000)">
                        <rect id="Rectangle-Copy-4" x="0" y="0" width="150" height="60"></rect>
                        <g id="Shape" transform="translate(26.000000, 11.655671)">
                            <path d="M3.94963148,35.434927 L3.17278885,35.434927 L3.17278885,32.6873572 C3.17278885,32.0495285 3.20822378,31.376265 3.27909363,30.6675664 L0.997629483,35.434927 L-1.39564266e-15,35.434927 L-1.39564266e-15,29.8007736 L0.77684263,29.8007736 L0.77684263,32.5483433 C0.77684263,33.3115571 0.741407705,33.992998 0.670537849,34.592666 L2.97653387,29.8007736 L3.94963148,29.8007736 L3.94963148,35.434927 Z M8.86650021,35.434927 L8.86650021,32.793662 L6.49508582,32.793662 L6.49508582,35.434927 L5.71824321,35.434927 L5.71824321,29.8007736 L6.49508582,29.8007736 L6.49508582,32.1558333 L8.86650021,32.1558333 L8.86650021,29.8007736 L9.6433428,29.8007736 L9.6433428,35.434927 L8.86650021,35.434927 Z M14.7407025,29.8007736 L14.6589296,30.4631341 L13.097067,30.4631341 L13.097067,35.434927 L12.3202244,35.434927 L12.3202244,30.4631341 L10.7174754,30.4631341 L10.7174754,29.8007736 L14.7407025,29.8007736 Z M18.8233512,29.8007736 L18.7334011,30.4222477 L16.5500644,30.4222477 L16.5500644,32.2621381 L18.4471958,32.2621381 L18.4471958,32.8836122 L16.5500644,32.8836122 L16.5500644,34.8134529 L18.8887696,34.8134529 L18.8887696,35.434927 L15.7732217,35.434927 L15.7732217,29.8007736 L18.8233512,29.8007736 Z M21.7657222,29.8007736 C22.4635177,29.8007736 23.0032189,29.9479648 23.3848258,30.2423473 C23.7664327,30.5312782 23.9572362,30.9646746 23.9572362,31.5425365 C23.9572362,32.1585591 23.7582554,32.6164874 23.3602939,32.9163214 C22.9623324,33.2161554 22.4335343,33.3660724 21.7738995,33.3660724 L21.0624752,33.3660724 L21.0624752,35.434927 L20.2856326,35.434927 L20.2856326,29.8007736 L21.7657222,29.8007736 Z M21.7411903,32.7527756 C22.1936671,32.7527756 22.5371133,32.6655512 22.7715289,32.4911023 C23.0113962,32.3166534 23.1313298,32.0031906 23.1313298,31.5507138 C23.1313298,31.1473008 23.0113962,30.8556441 22.7715289,30.6757437 C22.5371133,30.4958433 22.1991186,30.4058931 21.7575449,30.4058931 L21.0624752,30.4058931 L21.0624752,32.7527756 L21.7411903,32.7527756 Z M28.321638,35.434927 L28.321638,32.793662 L25.9502237,32.793662 L25.9502237,35.434927 L25.173381,35.434927 L25.173381,29.8007736 L25.9502237,29.8007736 L25.9502237,32.1558333 L28.321638,32.1558333 L28.321638,29.8007736 L29.0984806,29.8007736 L29.0984806,35.434927 L28.321638,35.434927 Z M33.9178124,29.8007736 L33.8278622,30.4222477 L31.6445255,30.4222477 L31.6445255,32.2621381 L33.541657,32.2621381 L33.541657,32.8836122 L31.6445255,32.8836122 L31.6445255,34.8134529 L33.9832308,34.8134529 L33.9832308,35.434927 L30.8676829,35.434927 L30.8676829,29.8007736 L33.9178124,29.8007736 Z M38.7081148,29.8007736 L38.6263419,30.4631341 L37.0644794,30.4631341 L37.0644794,35.434927 L36.287773,35.434927 L36.287773,30.4631341 L34.685024,30.4631341 L34.685024,29.8007736 L38.7081148,29.8007736 Z M39.0065859,33.1943493 L39.0065859,32.5565206 L41.3207592,32.5565206 L41.3207592,33.1943493 L39.0065859,33.1943493 Z M46.0222472,29.8007736 L45.9077651,30.4713114 L43.5445281,30.4713114 L43.5445281,35.434927 L42.7676854,35.434927 L42.7676854,29.8007736 L46.0222472,29.8007736 Z M51.006306,35.434927 L50.2294633,35.434927 L50.2294633,32.6873572 C50.2294633,32.0495285 50.2648982,31.376265 50.3357681,30.6675664 L48.054304,35.434927 L47.0566745,35.434927 L47.0566745,29.8007736 L47.8335171,29.8007736 L47.8335171,32.5483433 C47.8335171,33.3115571 47.7980822,33.992998 47.7272123,34.592666 L50.0332084,29.8007736 L51.006306,29.8007736 L51.006306,35.434927 Z M56.6590854,29.8007736 L56.6590854,35.434927 L55.8822428,35.434927 L55.8822428,30.4631341 L53.5517149,30.4631341 L53.5517149,35.434927 L52.7748722,35.434927 L52.7748722,29.8007736 L56.6590854,29.8007736 Z M61.4795984,29.8007736 L61.3896481,30.4222477 L59.2063115,30.4222477 L59.2063115,32.2621381 L61.103443,32.2621381 L61.103443,32.8836122 L59.2063115,32.8836122 L59.2063115,34.8134529 L61.5450167,34.8134529 L61.5450167,35.434927 L58.4294689,35.434927 L58.4294689,29.8007736 L61.4795984,29.8007736 Z M64.4216059,29.8007736 C65.1194014,29.8007736 65.6591025,29.9479648 66.0407095,30.2423473 C66.4223162,30.5312782 66.6131196,30.9646746 66.6131196,31.5425365 C66.6131196,32.1585591 66.4141392,32.6164874 66.0161778,32.9163214 C65.6182161,33.2161554 65.089418,33.3660724 64.4297832,33.3660724 L63.7183589,33.3660724 L63.7183589,35.434927 L62.9415162,35.434927 L62.9415162,29.8007736 L64.4216059,29.8007736 Z M64.397074,32.7527756 C64.8495508,32.7527756 65.192997,32.6655512 65.4274127,32.4911023 C65.6672799,32.3166534 65.7872135,32.0031906 65.7872135,31.5507138 C65.7872135,31.1473008 65.6672799,30.8556441 65.4274127,30.6757437 C65.192997,30.4958433 64.8550023,30.4058931 64.4134286,30.4058931 L63.7183589,30.4058931 L63.7183589,32.7527756 L64.397074,32.7527756 Z M72.618886,35.434927 L71.8665747,35.434927 L71.6703202,32.8917895 C71.5885469,31.89416 71.5422088,31.1282204 71.531306,30.5939708 L70.3128894,34.7970983 L69.585111,34.7970983 L68.3012758,30.5857935 C68.3012758,31.2672344 68.2658413,32.0549801 68.1949715,32.9490305 L68.0068934,35.434927 L67.2709373,35.434927 L67.7370433,29.8007736 L68.7837364,29.8007736 L69.9694436,33.8975963 L71.0979093,29.8007736 L72.1527801,29.8007736 L72.618886,35.434927 Z M77.0836868,35.434927 L76.6584671,34.0202557 L74.5241947,34.0202557 L74.098975,35.434927 L73.3139557,35.434927 L75.1211365,29.8007736 L76.1024116,29.8007736 L77.9014154,35.434927 L77.0836868,35.434927 Z M74.7122722,33.3906042 L76.4703896,33.3906042 L75.5954194,30.4467795 L74.7122722,33.3906042 Z M80.386858,29.8007736 C81.0846529,29.8007736 81.6243545,29.9479648 82.0059612,30.2423473 C82.387568,30.5312782 82.5783714,30.9646746 82.5783714,31.5425365 C82.5783714,32.1585591 82.379391,32.6164874 81.9814296,32.9163214 C81.5834682,33.2161554 81.0546695,33.3660724 80.395035,33.3660724 L79.6836106,33.3660724 L79.6836106,35.434927 L78.9067683,35.434927 L78.9067683,29.8007736 L80.386858,29.8007736 Z M80.3623257,32.7527756 C80.8148028,32.7527756 81.1582485,32.6655512 81.3926648,32.4911023 C81.6325315,32.3166534 81.7524651,32.0031906 81.7524651,31.5507138 C81.7524651,31.1473008 81.6325315,30.8556441 81.3926648,30.6757437 C81.1582485,30.4958433 80.820254,30.4058931 80.3786803,30.4058931 L79.6836106,30.4058931 L79.6836106,32.7527756 L80.3623257,32.7527756 Z M87.55607,29.8007736 L85.9942077,32.4420385 L87.7114389,35.434927 L86.811937,35.434927 L85.3400243,32.793662 L84.571359,32.793662 L84.571359,35.434927 L83.7945167,35.434927 L83.7945167,29.8007736 L84.571359,29.8007736 L84.571359,32.1558333 L85.348202,32.1558333 L86.7383414,29.8007736 L87.55607,29.8007736 Z M91.7959958,29.8007736 L91.7060456,30.4222477 L89.5227085,30.4222477 L89.5227085,32.2621381 L91.4198402,32.2621381 L91.4198402,32.8836122 L89.5227085,32.8836122 L89.5227085,34.8134529 L91.8614138,34.8134529 L91.8614138,35.434927 L88.7458662,35.434927 L88.7458662,29.8007736 L91.7959958,29.8007736 Z M96.5865254,29.8007736 L96.5047521,30.4631341 L94.9428898,30.4631341 L94.9428898,35.434927 L94.1660468,35.434927 L94.1660468,30.4631341 L92.5632982,30.4631341 L92.5632982,29.8007736 L96.5865254,29.8007736 Z" fill="#595959" fill-rule="nonzero"></path>
                            <path d="M70.0325902,14.6918204 C69.3684123,14.6918204 68.7592047,14.8688134 68.2163234,15.1783692 L61.4909557,5.20466386 L54.1681918,13.2834183 L49.0169528,5.20466386 L41.2053686,14.3148019 C41.238532,14.0381823 41.2498894,13.7715118 41.2498894,13.4841709 C41.2498894,11.2673527 40.4630523,9.22757292 39.1669517,7.63218349 L25.4621302,19.7560621 C27.1244826,21.5836411 29.5062094,22.7253727 32.1429769,22.7253727 C33.4169534,22.7253727 34.6357786,22.4594744 35.7319898,21.9836015 C37.0394932,21.4732932 38.2583638,20.6755984 39.2337329,19.5675755 L43.8316418,14.3370168 L48.9042879,22.2494997 L56.1507305,14.2695996 L61.4250831,22.4157714 L66.3882447,17.494814 C66.4000559,17.5055354 66.4105049,17.5055354 66.4214078,17.5055354 C66.332366,17.8166358 66.2896629,18.1492244 66.2896629,18.4917166 C66.2896629,20.5866931 67.9723672,22.2932028 70.0325902,22.2932028 C70.3319699,22.2932028 70.6209012,22.2494997 70.897566,22.1820826 C71.9724257,22.0058619 72.5925369,21.6288434 73.5233851,20.8970667 L80.3695943,13.5500889 C80.4027581,18.6043815 84.4805003,22.7154237 89.4654675,22.7154237 C93.1447944,22.7154237 96.3243977,20.4763905 97.764055,17.2618521 L95.6252392,17.2511307 C92.0812922,21.4955082 86.6079587,22.0165833 83.6500513,17.0741378 L90.430388,10.080419 C90.4190306,10.0374882 90.0760388,11.0343908 90.1087481,11.2229228 C90.1087481,12.7952795 90.5185208,13.5048412 91.9150204,14.3600041 C96.7773288,15.9982789 99.3377293,8.20840996 93.6204403,5.29429606 C92.50106,4.66137374 91.0282389,4.25141889 89.4654675,4.25141889 C85.6771105,4.25141889 82.4084654,6.62378724 81.046038,9.9823369 L77.6665453,5.14946715 L67.0746822,5.19466939 L74.7636075,16.9415748 L73.7450803,18.0488255 C73.5233851,16.1660951 71.9392619,14.6918204 70.0325902,14.6918204 Z M32.1429769,4.25141889 C27.1352494,4.25141889 23.0352466,8.40766326 23.0352466,13.4841709 C23.0352466,14.6243578 23.246675,15.7216593 23.6228304,16.7423215 L19.5795235,20.2549222 C19.4470059,20.3882575 19.3137161,20.3882575 19.1804262,20.2549222 C16.6868977,17.2733457 14.194096,14.2818656 11.7013398,11.3110558 C11.7013398,11.2673527 11.7013398,11.2451377 11.7013398,11.2122014 L16.8094662,4.79470901 C16.8653898,5.58163697 18.0833973,7.86437316 20.3877124,7.98694161 C22.0386166,8.07507466 23.3684712,7.21150729 24.0219276,6.05750987 C24.908255,4.50732267 24.8193952,2.76714975 23.5784004,1.25989333 C22.3595753,0.2070217 21.6394739,-0.0481097745 20.0330451,0.00704150928 C18.6372724,0.162591753 17.696566,0.749539522 16.676131,1.81313248 L11.4255379,8.24134627 L11.4362592,0.817002166 L0.11307376,6.03679406 L0.0908587872,26.3490482 L11.4362592,20.9644839 L11.4362592,14.2695996 L19.1022877,22.7812963 C19.2248562,22.8816952 19.3351588,22.8816952 19.4799423,22.7812963 C21.1300287,21.3192421 22.7924265,19.8671823 24.4432853,18.403629 C24.4432853,18.4151227 24.4540066,18.4151227 24.4540066,18.4151227 L38.0480257,6.46823701 C38.0362141,6.46823701 38.0257653,6.45747025 38.0257653,6.44524974 C38.0257653,6.44524974 38.0362141,6.43525527 38.0480257,6.43525527 C37.9598927,6.35711672 37.8708511,6.30192 37.7818095,6.24676872 C36.2307137,5.00541054 34.2695722,4.25141889 32.1429769,4.25141889 Z M34.469507,13.9377833 C36.1648411,13.9377833 37.5496653,15.4013821 37.5496653,17.1852581 C37.5496653,18.9691341 36.1648411,20.4311429 34.469507,20.4311429 C32.7742183,20.4311429 31.389167,18.9691341 31.389167,17.1852581 C31.389167,15.4013821 32.7742183,13.9377833 34.469507,13.9377833 L34.469507,13.9377833 Z" fill="#BB0000"></path>
                        </g>
                    </g>
                </g>
            </g>
        </g>
    </g>
</svg>