<svg width="34" height="40" viewBox="0 0 34 40" xmlns="http://www.w3.org/2000/svg">
    <g fill="#72A32F" fill-rule="nonzero">
        <path d="M19.859 12.437a2.176 2.176 0 0 0-.813-.285 6.298 6.298 0 0 0-.964-.076h-2.25v3.972h2.25c.33 0 .652-.029.964-.076.303-.048.577-.143.813-.285a1.48 1.48 0 0 0 .557-.599c.142-.256.208-.598.208-1.017 0-.418-.066-.76-.207-1.016a1.418 1.418 0 0 0-.558-.618z"/>
        <path d="M17.212 5.634c-5.935 0-10.736 4.836-10.736 10.794 0 5.966 4.81 10.793 10.736 10.793 5.936 0 10.737-4.836 10.737-10.793 0-5.958-4.801-10.794-10.737-10.794zm5.974 9.996c-.161.513-.435.969-.794 1.358-.36.4-.832.713-1.408.95-.577.238-1.276.361-2.099.361h-3.043v4.742H12.95V9.815h5.935c.823 0 1.522.123 2.099.36.576.238 1.049.562 1.408.951.359.4.624.846.794 1.35.17.503.245 1.035.245 1.576a4.704 4.704 0 0 1-.245 1.578z"/>
        <path d="M33.686 16.57C33.686 7.42 26.314 0 17.212 0 8.111 0 .73 7.42.73 16.57c0 4.57 1.842 8.713 4.81 11.696.255.257.586.4.964.4a1.35 1.35 0 0 0 1.342-1.35c0-.38-.16-.722-.406-.979a13.863 13.863 0 0 1-4.026-9.776c0-7.649 6.19-13.872 13.798-13.872 7.609 0 13.8 6.223 13.8 13.872 0 3.829-1.55 7.296-4.046 9.805L15.313 38.09l1.9 1.91 11.662-11.724a16.561 16.561 0 0 0 4.811-11.706z"/>
    </g>
</svg>
