<?xml version="1.0" encoding="UTF-8"?>
<svg width="160px" height="50px" viewBox="0 0 160 50" version="1.1" xmlns="http://www.w3.org/2000/svg" xmlns:xlink="http://www.w3.org/1999/xlink">
    <title>download-on-the-app-store-apple-logo-svgrepo-com copy</title>
    <defs>
        <linearGradient x1="61.0326595%" y1="4.94673679%" x2="26.4525181%" y2="71.9326429%" id="linearGradient-1">
            <stop stop-color="#00A0FF" offset="0%"></stop>
            <stop stop-color="#00A1FF" offset="0.7%"></stop>
            <stop stop-color="#00BEFF" offset="26%"></stop>
            <stop stop-color="#00D2FF" offset="51.2%"></stop>
            <stop stop-color="#00DFFF" offset="76%"></stop>
            <stop stop-color="#00E3FF" offset="100%"></stop>
        </linearGradient>
        <linearGradient x1="107.594672%" y1="50.0071383%" x2="-130.515834%" y2="50.0071383%" id="linearGradient-2">
            <stop stop-color="#FFE000" offset="0%"></stop>
            <stop stop-color="#FFBD00" offset="40.9%"></stop>
            <stop stop-color="#FFA500" offset="77.5%"></stop>
            <stop stop-color="#FF9C00" offset="100%"></stop>
        </linearGradient>
        <linearGradient x1="86.245051%" y1="30.9002394%" x2="-50.1231709%" y2="136.017978%" id="linearGradient-3">
            <stop stop-color="#FF3A44" offset="0%"></stop>
            <stop stop-color="#C31162" offset="100%"></stop>
        </linearGradient>
        <linearGradient x1="-18.8049506%" y1="-11.8220467%" x2="42.0874672%" y2="35.0898572%" id="linearGradient-4">
            <stop stop-color="#32A071" offset="0%"></stop>
            <stop stop-color="#2DA771" offset="6.9%"></stop>
            <stop stop-color="#15CF74" offset="47.6%"></stop>
            <stop stop-color="#06E775" offset="80.1%"></stop>
            <stop stop-color="#00F076" offset="100%"></stop>
        </linearGradient>
    </defs>
    <g id="Логистика-2" stroke="none" stroke-width="1" fill="none" fill-rule="evenodd">
        <g id="раздерл-скачать-мобильное-приложение" transform="translate(-328, -1575)">
            <g id="Group-33-Copy" transform="translate(0, 1382)">
                <g id="Group-27" transform="translate(143, 35)">
                    <g id="download-on-the-app-store-apple-logo-svgrepo-com-copy" transform="translate(185, 158)">
                        <path d="M160,43.301942 C160,44.5231384 159.514425,45.6942478 158.650229,46.5573132 C157.786033,47.4203787 156.614108,47.9046031 155.392588,47.9033303 L4.61342026,47.9033303 C2.06862155,47.9059834 0.00331647542,45.8460659 0,43.301942 L0,6.60739274 C0.00331472098,4.06229759 2.06764877,2.00066063 4.61342026,2 L155.391387,2 C156.613556,2 157.785652,2.48545864 158.649744,3.34954694 C159.513835,4.21363524 160,5.3855467 160,6.60739274 L160,43.301942 Z" id="Path" fill="#FFFFFF" fill-rule="nonzero"></path>
                        <path d="M160,44.9879581 C160,46.318141 159.514425,47.5937666 158.650229,48.5338569 C157.786033,49.4739472 156.614108,50.0013864 155.392588,50 L4.61342026,50 C2.06862155,50.00289 0.00331647542,47.7591339 0,44.9879581 L0,5.01858222 C0.00331472098,2.24634855 2.06764877,0.00071958653 4.61342026,0 L155.391387,0 C156.613556,0 157.785652,0.52878368 158.649744,1.46998805 C159.513835,2.41119242 160,3.68769181 160,5.01858222 L160,44.9879581 Z" id="Path" fill="#000000" fill-rule="nonzero"></path>
                        <g id="g1231" transform="translate(14, 11)">
                            <path d="M0.498923933,0.432179403 C0.182099833,0.772691286 0,1.29678349 0,1.97780725 L0,26.2015265 C0,26.8825503 0.182099833,27.4066425 0.510767825,27.7353105 L0.596636039,27.8078543 L14.1697358,14.2347546 L14.1697358,13.9297744 L0.584792147,0.359635567 L0.498923933,0.432179403 Z" id="path1192" fill="url(#linearGradient-1)"></path>
                            <path d="M18.6852195,18.776887 L14.1578919,14.2480789 L14.1578919,13.9312548 L18.6867,9.40244679 L18.7844121,9.46314674 L24.140812,12.5070269 C25.674596,13.371631 25.674596,14.7958589 24.140812,15.6723069 L18.7844121,18.716187 C18.7829316,18.716187 18.6852195,18.776887 18.6852195,18.776887 L18.6852195,18.776887 Z" id="path1203" fill="url(#linearGradient-2)"></path>
                            <path d="M18.7829316,18.716187 L14.1578919,14.0896669 L0.498923933,27.7486349 C0.997847866,28.284571 1.83728368,28.3452709 2.77591209,27.8211787 L18.7829316,18.716187" id="path1210" fill="url(#linearGradient-3)"></path>
                            <path d="M18.7829316,9.46462723 L2.77591209,0.371479458 C1.83876417,-0.164456636 0.997847866,-0.0919128002 0.498923933,0.444023294 L14.1564114,14.0896669 L18.7829316,9.46462723 Z" id="path1223" fill="url(#linearGradient-4)"></path>
                            <path d="M18.6852195,18.6184749 L2.78775598,27.6509228 C1.89946411,28.1616906 1.10740386,28.1261589 0.596636039,27.6627667 L0.510767825,27.7486349 L0.596636039,27.8211787 C1.10740386,28.2830905 1.89946411,28.3201026 2.78775598,27.8093348 L18.7947755,18.716187 L18.6852195,18.6184749 L18.6852195,18.6184749 Z" id="path1225" fill="#000000" fill-rule="nonzero" opacity="0.2"></path>
                            <path d="M24.1393315,15.5138949 L18.6733756,18.6184749 L18.7710877,18.716187 L24.1274877,15.6723069 C24.8943796,15.2340829 25.2719037,14.6626151 25.2719037,14.0896669 C25.2230476,14.6137591 24.8336797,15.112683 24.1393315,15.5138949 L24.1393315,15.5138949 Z" id="path1227" fill="#000000" fill-rule="nonzero" opacity="0.12"></path>
                            <path d="M2.77591209,0.529891508 L24.1393315,12.6669194 C24.8336797,13.0562873 25.2230476,13.5670552 25.2837476,14.0911474 C25.2837476,13.5196796 24.9062235,12.9467314 24.1393315,12.5085074 L2.77591209,0.371479458 C1.24212813,-0.504968519 0,0.2249113 0,1.97780725 L0,2.1362193 C0,0.38332335 1.24212813,-0.334712578 2.77591209,0.529891508 Z" id="path1229" fill="#FFFFFF" opacity="0.25"></path>
                        </g>
                        <g id="g1237" transform="translate(48, 22.5)" fill="#FFFFFF">
                            <path d="M0.00342240358,8.14411549 C0.00342240358,3.65500367 3.77319995,0 8.25825984,0 C10.7377912,0 12.5020403,0.974553462 13.8333553,2.24369954 L12.2658944,3.81257646 C11.3144662,2.91852214 10.0242201,2.22485931 8.25654864,2.22485931 C4.98130841,2.22485931 2.42135053,4.86420357 2.42135053,8.14240274 C2.42135053,11.4206019 4.98130841,14.0633717 8.25483744,14.0633717 C10.3784389,14.0633717 11.5865473,13.2104233 12.3617217,12.4328358 C12.9965776,11.7974064 13.4123996,10.8845119 13.5732526,9.63249327 L8.25825984,9.63249327 L8.25825984,7.4127722 L15.7396341,7.4127722 C15.8183493,7.81012968 15.8594182,8.28627355 15.8594182,8.80181062 C15.8594182,10.4683142 15.4025273,12.5356007 13.932605,14.006851 C12.5020403,15.4969415 10.6778992,16.2916565 8.25654864,16.2916565 C3.76977754,16.2916565 0,12.6400783 0,8.14754098 L0.00342240358,8.14411549 Z M21.9068053,5.80107559 C19.0097407,5.80107559 16.6448598,8.00709567 16.6448598,11.0437974 C16.6448598,14.0650844 19.0080295,16.2865182 21.9068053,16.2865182 C24.8055812,16.2865182 27.1653284,14.0616589 27.1653284,11.0420847 C27.1653284,8.00538292 24.8038699,5.79936384 21.9068053,5.80107559 L21.9068053,5.80107559 Z M21.9068053,14.22437 C20.3205213,14.22437 18.9498486,12.9141179 18.9498486,11.0455102 C18.9498486,9.15806215 20.3188101,7.86665035 21.9068053,7.86665035 C23.4930894,7.86665035 24.8620508,9.1563494 24.8620508,11.0455102 C24.8620508,12.9124052 23.4948006,14.22437 21.9068053,14.22437 Z M33.3804133,5.80107559 C30.4833487,5.80107559 28.1218902,8.00709567 28.1218902,11.0437974 C28.1218902,14.0650844 30.4833487,16.2865182 33.3804133,16.2865182 C36.277478,16.2865182 38.6389364,14.0616589 38.6389364,11.0420847 C38.6389364,8.00538292 36.2791892,5.79936384 33.3804133,5.80107559 L33.3804133,5.80107559 Z M33.3804133,14.22437 C31.7941293,14.22437 30.4234566,12.9141179 30.4234566,11.0455102 C30.4234566,9.15806215 31.7924181,7.86665035 33.3804133,7.86665035 C34.9666974,7.86665035 36.33737,9.1563494 36.33737,11.0455102 C36.33737,12.9124052 34.9666974,14.22437 33.3804133,14.22437 Z M47.4618929,6.11964766 L47.4618929,6.97259604 L47.3831776,6.97259604 C46.8681058,6.3542941 45.8756088,5.79936384 44.6264315,5.79936384 C42.0065815,5.79936384 39.602343,8.10472229 39.602343,11.0660631 C39.602343,14.0034255 42.0048703,16.2899437 44.6264315,16.2899437 C45.8756088,16.2899437 46.8681058,15.7350135 47.3831776,15.099584 L47.4618929,15.099584 L47.4618929,15.8531931 C47.4618929,17.8588207 46.3906805,18.9327135 44.6640779,18.9327135 C43.2540477,18.9327135 42.3813347,17.9187668 42.0236936,17.0675312 L40.0181651,17.9016393 C40.5931289,19.2906778 42.1229433,21 44.6623667,21 C47.3592207,21 49.6419639,19.4088574 49.6419639,15.5363347 L49.6419639,6.11793492 L47.4618929,6.11964766 Z M44.8232197,14.22437 C43.2369356,14.22437 41.9039094,12.8918522 41.9039094,11.0660631 C41.9039094,9.21972107 43.2352244,7.8683631 44.8232197,7.8683631 C46.3906805,7.8683631 47.6210364,9.21800832 47.6210364,11.0660631 C47.6227458,12.8918522 46.3923917,14.22437 44.8232197,14.22437 Z M51.2316704,0.556643014 L53.534948,0.556643014 L53.534948,15.9713726 L51.2316704,15.9713726 L51.2316704,0.556643014 Z M59.8475714,14.22437 C58.6771094,14.22437 57.8420429,13.6865672 57.3098592,12.6366528 L64.3155193,9.73354539 L64.0742398,9.13750918 C63.6395946,7.96770247 62.3082796,5.80107658 59.5891799,5.80107658 C56.8906147,5.80107658 54.6472292,7.92659653 54.6472292,11.0455102 C54.6472292,13.9828725 56.8700803,16.288231 59.8475714,16.288231 C62.2500987,16.288231 63.6395946,14.8204062 64.2145584,13.9640323 L62.4280637,12.7736726 C61.8308543,13.6488867 61.0163222,14.2260827 59.8475714,14.22437 L59.8475714,14.22437 Z M59.6678952,7.82725716 C60.5799658,7.82725716 61.353429,8.2845608 61.6118205,8.93883044 L56.92655,10.8862246 C56.8683691,8.86004404 58.495722,7.82725716 59.6678952,7.82725716 L59.6678952,7.82725716 Z" id="path1233"></path>
                            <path d="M74.4218771,0.556643014 L68.9152297,0.556643014 L68.9152297,15.9713726 L71.2133737,15.9713726 L71.2133737,10.1326156 L74.4235883,10.1326156 C76.9715677,10.1326156 79.4767671,8.28627355 79.4767671,5.34377294 C79.4767671,2.40641057 76.9732789,0.558355762 74.4270107,0.558355762 L74.4218771,0.556643014 Z M74.4817691,7.9865427 L71.2133737,7.9865427 L71.2133737,2.70100318 L74.4817691,2.70100318 C76.1998157,2.70100318 77.1786231,4.12772205 77.1786231,5.34377294 C77.1786231,6.53927086 76.1998157,7.9865427 74.4817691,7.9865427 L74.4817691,7.9865427 Z M83.0412005,15.9713726 L83.0412005,0.556643014 L80.7430565,0.556643014 L80.7430565,15.9713726 L83.0412005,15.9713726 Z M93.3648809,15.9439687 L93.3648809,10.034989 C93.3648809,7.29801811 91.3217059,5.77195987 88.684744,5.77195987 C87.023167,5.77195987 85.2999868,6.50672865 84.5864157,8.13212625 L86.6261682,8.98336188 C87.0625247,8.13212625 87.8736343,7.85294837 88.727524,7.85294837 C89.9150981,7.85294837 91.1232065,8.56716418 91.1420297,9.838023 L91.1420297,9.99730854 C90.7262077,9.7592366 89.8363828,9.40127233 88.744636,9.40127233 C86.5457417,9.40127233 84.3074898,10.6104722 84.3074898,12.8712992 C84.3074898,14.9351603 86.1110965,16.2625398 88.1320258,16.2625398 C89.6789522,16.2625398 90.5294195,15.5688769 91.0633145,14.7570345 L91.1420297,14.7570345 L91.1420297,15.9473942 L93.3631697,15.9473942 L93.3648809,15.9439687 Z M88.4109517,14.2209445 C87.6580229,14.2209445 86.607345,13.84414 86.607345,12.9141179 C86.607345,11.7237583 87.9164144,11.2647419 89.0458076,11.2647419 C90.0571278,11.2647419 90.5311307,11.4822608 91.1471634,11.7802789 C90.9709096,13.1641791 89.8021587,14.203817 88.4109517,14.2209445 L88.4109517,14.2209445 Z M101.446887,6.10937118 L98.8116362,12.7908001 L98.7329209,12.7908001 L95.9984204,6.10937118 L93.5223114,6.10937118 L97.6223509,15.4506973 L95.2831381,20.6454612 L97.6805318,20.6454612 L104,6.10937118 L101.446887,6.10937118 Z" id="path1235"></path>
                        </g>
                        <g id="Скачать-приложение-в" transform="translate(53.6936, 9.7737)" fill="#FFFFFF" fill-rule="nonzero">
                            <path d="M4.55387159,5.19269125 C4.25271375,5.32045518 3.778162,5.41171513 3.33098823,5.41171513 C1.97121495,5.41171513 1.18637937,4.55387159 1.18637937,3.19409831 C1.18637937,1.71568709 2.08985289,0.930851506 3.34011423,0.930851506 C3.84204396,0.930851506 4.25271375,1.04036345 4.54474559,1.16812738 L4.78202146,0.273779855 C4.55387159,0.155141918 4.03368986,0 3.29448425,0 C1.41452925,0 0,1.22288335 0,3.24885428 C0,5.12880928 1.18637937,6.35169263 3.13934234,6.35169263 C3.88767394,6.35169263 4.47173763,6.20567671 4.73639149,6.07791278 L4.55387159,5.19269125 Z" id="Path"></path>
                            <path d="M5.648991,1.80694704 L5.648991,6.25130669 L6.77148841,6.25130669 L6.77148841,4.39872967 L6.91750433,4.39872967 C7.49244203,4.39872967 7.83010385,4.69076151 8.07650572,5.30220319 C8.24077363,5.73112496 8.36853756,6.05966079 8.4871755,6.25130669 L9.65530288,6.25130669 C9.44540499,5.85888889 9.29026307,5.37521115 9.15337315,5.03754933 C8.85221531,4.32572171 8.4780495,3.85116996 7.86660783,3.75991001 L9.63705089,1.80694704 L8.3046556,1.80694704 L6.93575632,3.65039806 L6.77148841,3.65039806 L6.77148841,1.80694704 L5.648991,1.80694704 Z" id="Path"></path>
                            <path d="M13.7254967,3.5865161 C13.7254967,2.61003462 13.3148269,1.7065611 11.8911717,1.7065611 C11.1884701,1.7065611 10.6135324,1.89820699 10.2849965,2.09897889 L10.5040204,2.8290585 C10.8051783,2.6374126 11.261478,2.50052267 11.6995258,2.50052267 C12.4843614,2.50052267 12.6029993,2.98420042 12.6029993,3.27623226 L12.6029993,3.34924022 C10.9603202,3.34011423 9.96558672,3.91505192 9.96558672,5.02842333 C9.96558672,5.70374698 10.4675165,6.35169263 11.361864,6.35169263 C11.9459277,6.35169263 12.4113534,6.10529076 12.6760073,5.75850295 L12.7033853,5.75850295 L12.7855192,6.25130669 L13.7985047,6.25130669 C13.7437487,5.97752683 13.7254967,5.58510904 13.7254967,5.18356525 L13.7254967,3.5865161 Z M12.6303773,4.69076151 C12.6303773,4.77289547 12.6303773,4.85502943 12.6029993,4.93716338 C12.4934874,5.25657321 12.1740775,5.54860506 11.7177778,5.54860506 C11.361864,5.54860506 11.0789581,5.34783316 11.0789581,4.9097854 C11.0789581,4.23446175 11.8364157,4.07019384 12.6303773,4.07931984 L12.6303773,4.69076151 Z" id="Shape"></path>
                            <path d="M14.8571201,1.80694704 L14.8571201,3.35836622 C14.8571201,4.38960367 15.4411838,4.89153341 16.3446573,4.89153341 C16.7553271,4.89153341 17.2116269,4.77289547 17.4945327,4.59037557 L17.5127847,4.59037557 L17.5127847,6.31518865 L18.6352821,6.31518865 L18.6352821,1.80694704 L17.5127847,1.80694704 L17.5127847,3.84204396 C17.3302648,3.97893389 17.038233,4.07931984 16.7553271,4.07931984 C16.1803894,4.07931984 15.9796175,3.769036 15.9796175,3.24885428 L15.9796175,1.80694704 L14.8571201,1.80694704 Z" id="Path"></path>
                            <path d="M23.2804137,3.5865161 C23.2804137,2.61003462 22.8697439,1.7065611 21.4460886,1.7065611 C20.743387,1.7065611 20.1684493,1.89820699 19.8399135,2.09897889 L20.0589374,2.8290585 C20.3600952,2.6374126 20.816395,2.50052267 21.2544427,2.50052267 C22.0392783,2.50052267 22.1579163,2.98420042 22.1579163,3.27623226 L22.1579163,3.34924022 C20.5152371,3.34011423 19.5205037,3.91505192 19.5205037,5.02842333 C19.5205037,5.70374698 20.0224334,6.35169263 20.9167809,6.35169263 C21.5008446,6.35169263 21.9662704,6.10529076 22.2309242,5.75850295 L22.2583022,5.75850295 L22.3404362,6.25130669 L23.3534216,6.25130669 C23.2986656,5.97752683 23.2804137,5.58510904 23.2804137,5.18356525 L23.2804137,3.5865161 Z M22.1852942,4.69076151 C22.1852942,4.77289547 22.1852942,4.85502943 22.1579163,4.93716338 C22.0484043,5.25657321 21.7289945,5.54860506 21.2726947,5.54860506 C20.9167809,5.54860506 20.6338751,5.34783316 20.6338751,4.9097854 C20.6338751,4.23446175 21.3913327,4.07019384 22.1852942,4.07931984 L22.1852942,4.69076151 Z" id="Shape"></path>
                            <polygon id="Path" points="23.9739893 1.80694704 23.9739893 2.67391658 25.3063846 2.67391658 25.3063846 6.25130669 26.428882 6.25130669 26.428882 2.67391658 27.7612773 2.67391658 27.7612773 1.80694704"></polygon>
                            <path d="M28.4548529,1.80694704 L28.4548529,6.2239287 C28.8563967,6.26955868 29.3309484,6.29693666 29.8055002,6.29693666 C30.4716978,6.29693666 31.3112894,6.19655071 31.8405971,5.79500693 C32.1691329,5.54860506 32.3881568,5.19269125 32.3881568,4.68163552 C32.3881568,3.49525615 31.3112894,3.15759433 30.2891779,3.15759433 C30.0519021,3.15759433 29.7689962,3.17584632 29.5773503,3.2123503 L29.5773503,1.80694704 L28.4548529,1.80694704 Z M29.5682243,3.97893389 C29.7233662,3.9515559 29.8785082,3.93330391 30.0792801,3.93330391 C30.5720838,3.93330391 31.2656594,4.07931984 31.2656594,4.72726549 C31.2656594,5.34783316 30.6177138,5.52122707 30.088406,5.52122707 C29.8602562,5.52122707 29.7142402,5.51210108 29.5682243,5.49384909 L29.5682243,3.97893389 Z" id="Shape"></path>
                            <polygon id="Path" points="35.1715854 1.80694704 35.1715854 6.25130669 36.2940828 6.25130669 36.2940828 2.67391658 37.9641399 2.67391658 37.9641399 6.25130669 39.0957633 6.25130669 39.0957633 1.80694704"></polygon>
                            <path d="M40.2912686,8.05825373 L41.413766,8.05825373 L41.413766,5.75850295 L41.432018,5.75850295 C41.6601679,6.11441676 42.1255937,6.35169263 42.6822794,6.35169263 C43.6952648,6.35169263 44.7082503,5.57598304 44.7082503,3.9698079 C44.7082503,2.58265663 43.8595327,1.7065611 42.8374213,1.7065611 C42.1620976,1.7065611 41.6419159,1.98946695 41.3133801,2.49139668 L41.2951281,2.49139668 L41.2403721,1.80694704 L40.2547647,1.80694704 C40.2730166,2.22674282 40.2912686,2.70129457 40.2912686,3.28535826 L40.2912686,8.05825373 Z M41.413766,3.70515404 C41.413766,3.61389408 41.432018,3.51350814 41.45027,3.42224819 C41.568908,2.92944445 41.9978297,2.59178263 42.4632555,2.59178263 C43.1842091,2.59178263 43.5675009,3.23060229 43.5675009,4.01543787 C43.5675009,4.89153341 43.1477051,5.48472309 42.4358775,5.48472309 C41.9521998,5.48472309 41.559782,5.15618727 41.441144,4.69988751 C41.422892,4.59950156 41.413766,4.49911561 41.413766,4.38960367 L41.413766,3.70515404 Z" id="Shape"></path>
                            <path d="M45.6208498,1.80694704 L45.6208498,6.25130669 L46.9623711,6.25130669 C47.3456629,5.52122707 47.7563327,4.7181395 48.0939945,4.06106785 C48.3130184,3.63214607 48.4590343,3.31273624 48.6780582,2.78342852 L48.7145622,2.78342852 C48.6689322,3.62302008 48.6415542,3.9515559 48.6415542,4.66338353 L48.6415542,6.25130669 L49.7092956,6.25130669 L49.7092956,1.80694704 L48.3495224,1.80694704 L47.2635289,3.88767394 C47.0262531,4.35309969 46.8984891,4.68163552 46.6612133,5.20181724 L46.6247093,5.20181724 C46.6612133,4.58124957 46.6885912,4.10669782 46.6885912,3.4039962 L46.6885912,1.80694704 L45.6208498,1.80694704 Z" id="Path"></path>
                            <path d="M51.1512029,1.80694704 L51.1512029,3.59564209 C51.1512029,4.45348564 51.1146989,4.96454137 50.7861631,5.24744722 C50.6766511,5.34783316 50.5032572,5.42996712 50.3116113,5.45734511 L50.4302493,6.33344064 C50.959557,6.33344064 51.2880928,6.2148027 51.5436207,5.96840084 C52.0729284,5.57598304 52.2006923,4.79114746 52.2006923,3.63214607 L52.2006923,2.67391658 L53.4144497,2.67391658 L53.4144497,6.25130669 L54.5369471,6.25130669 L54.5369471,1.80694704 L51.1512029,1.80694704 Z" id="Path"></path>
                            <path d="M57.7401714,1.7065611 C56.3986501,1.7065611 55.4404206,2.60090862 55.4404206,4.06106785 C55.4404206,5.49384909 56.4169021,6.35169263 57.6671634,6.35169263 C58.7987868,6.35169263 59.9486622,5.62161302 59.9486622,3.98805989 C59.9486622,2.6374126 59.0634407,1.7065611 57.7401714,1.7065611 Z M57.7127934,2.51877466 C58.479377,2.51877466 58.7896608,3.32186224 58.7896608,4.01543787 C58.7896608,4.91891139 58.3424871,5.53947906 57.7036674,5.53947906 C57.0283438,5.53947906 56.599422,4.89153341 56.599422,4.03368986 C56.599422,3.29448425 56.9188318,2.51877466 57.7127934,2.51877466 Z" id="Shape"></path>
                            <path d="M60.331954,1.80694704 L61.9746331,3.769036 C61.3996954,3.85116996 61.0346556,4.29834372 60.8065058,4.92803739 C60.6331119,5.38433715 60.4870959,5.85888889 60.286324,6.25130669 L61.3905695,6.25130669 C61.5274594,6.00490482 61.6369713,5.667243 61.7921132,5.23832122 C62.0202631,4.64513154 62.321421,4.39872967 62.8324767,4.39872967 L62.9511146,4.39872967 L62.9511146,6.25130669 L64.0279821,6.25130669 L64.0279821,4.39872967 L64.14662,4.39872967 C64.6120457,4.39872967 64.9497076,4.63600554 65.1687314,5.23832122 C65.3056214,5.648991 65.4242593,6.01403081 65.5611492,6.25130669 L66.6927726,6.25130669 C66.4920007,5.86801489 66.3459848,5.38433715 66.1725909,4.92803739 C65.953567,4.29834372 65.5794012,3.85116996 65.0044635,3.769036 L66.6471427,1.80694704 L65.3877553,1.80694704 L64.173998,3.65952406 L64.0279821,3.65952406 L64.0279821,1.80694704 L62.9511146,1.80694704 L62.9511146,3.65952406 L62.8050987,3.65952406 L61.5822153,1.80694704 L60.331954,1.80694704 Z" id="Path"></path>
                            <path d="M71.0823763,4.3439737 C71.1006283,4.24358775 71.1188803,4.07931984 71.1188803,3.86942195 C71.1188803,2.89294047 70.6443285,1.7065611 69.2024213,1.7065611 C67.7787661,1.7065611 67.0304345,2.86556248 67.0304345,4.09757183 C67.0304345,5.45734511 67.879152,6.34256664 69.3210592,6.34256664 C69.9598789,6.34256664 70.4891866,6.2239287 70.8724784,6.05966079 L70.7082105,5.29307719 C70.3614227,5.41171513 69.9963829,5.49384909 69.4762012,5.49384909 C68.7552475,5.49384909 68.1346799,5.14706127 68.1073019,4.3439737 L71.0823763,4.3439737 Z M68.1073019,3.55913811 C68.1529319,3.10283835 68.4449637,2.47314469 69.1385393,2.47314469 C69.8868709,2.47314469 70.0693908,3.14846833 70.0602649,3.55913811 L68.1073019,3.55913811 Z" id="Shape"></path>
                            <polygon id="Path" points="72.0132278 1.80694704 72.0132278 6.25130669 73.1357252 6.25130669 73.1357252 4.38047768 74.8514123 4.38047768 74.8514123 6.25130669 75.9739097 6.25130669 75.9739097 1.80694704 74.8514123 1.80694704 74.8514123 3.50438214 73.1357252 3.50438214 73.1357252 1.80694704"></polygon>
                            <path d="M77.1602891,1.80694704 L77.1602891,6.25130669 L78.5018104,6.25130669 C78.8851022,5.52122707 79.295772,4.7181395 79.6334338,4.06106785 C79.8524577,3.63214607 79.9984736,3.31273624 80.2174975,2.78342852 L80.2540014,2.78342852 C80.2083715,3.62302008 80.1809935,3.9515559 80.1809935,4.66338353 L80.1809935,6.25130669 L81.2487349,6.25130669 L81.2487349,1.80694704 L79.8889616,1.80694704 L78.8029682,3.88767394 C78.5656923,4.35309969 78.4379284,4.68163552 78.2006525,5.20181724 L78.1641486,5.20181724 C78.2006525,4.58124957 78.2280305,4.10669782 78.2280305,3.4039962 L78.2280305,1.80694704 L77.1602891,1.80694704 Z" id="Path"></path>
                            <path d="M86.2132763,4.3439737 C86.2315283,4.24358775 86.2497803,4.07931984 86.2497803,3.86942195 C86.2497803,2.89294047 85.7752285,1.7065611 84.3333213,1.7065611 C82.909666,1.7065611 82.1613344,2.86556248 82.1613344,4.09757183 C82.1613344,5.45734511 83.010052,6.34256664 84.4519592,6.34256664 C85.0907789,6.34256664 85.6200866,6.2239287 86.0033784,6.05966079 L85.8391105,5.29307719 C85.4923227,5.41171513 85.1272829,5.49384909 84.6071011,5.49384909 C83.8861475,5.49384909 83.2655799,5.14706127 83.2382019,4.3439737 L86.2132763,4.3439737 Z M83.2382019,3.55913811 C83.2838318,3.10283835 83.5758637,2.47314469 84.2694393,2.47314469 C85.0177709,2.47314469 85.2002908,3.14846833 85.1911648,3.55913811 L83.2382019,3.55913811 Z" id="Shape"></path>
                            <path d="M89.0332088,6.25130669 C89.2978627,6.26043268 89.8910523,6.30606266 90.456864,6.30606266 C91.3420856,6.30606266 92.9482607,6.17829872 92.9482607,4.96454137 C92.9482607,4.3439737 92.501087,3.97893389 91.8348893,3.87854794 L91.8348893,3.86029595 C92.3094411,3.75991001 92.7474888,3.44050018 92.7474888,2.87468848 C92.7474888,1.85257702 91.4059675,1.75219107 90.6576359,1.75219107 C90.0461943,1.75219107 89.3617446,1.80694704 89.0332088,1.86170301 L89.0332088,6.25130669 Z M90.1374542,2.50964867 C90.3017221,2.49139668 90.447738,2.47314469 90.6758879,2.47314469 C91.3329596,2.47314469 91.6432434,2.66479059 91.6432434,3.0207044 C91.6432434,3.44962617 91.1686917,3.60476809 90.60288,3.60476809 L90.1374542,3.60476809 L90.1374542,2.50964867 Z M90.1283282,4.28009173 L90.60288,4.28009173 C91.3055816,4.28009173 91.7983853,4.44435964 91.7983853,4.93716338 C91.7983853,5.4664711 91.1778177,5.59423503 90.6667619,5.59423503 C90.447738,5.59423503 90.3108481,5.59423503 90.1283282,5.57598304 L90.1283282,4.28009173 Z" id="Shape"></path>
                        </g>
                        <g id="Group-8" fill-rule="nonzero">
                            <path d="M160,44.9879581 C160,46.318141 159.514425,47.5937666 158.650229,48.5338569 C157.786033,49.4739472 156.614108,50.0013864 155.392588,50 L4.61342026,50 C2.06862155,50.00289 0.00331647542,47.7591339 0,44.9879581 L0,5.01858222 C0.00331472098,2.24634855 2.06764877,0.00071958653 4.61342026,0 L155.391387,0 C156.613556,0 157.785652,0.52878368 158.649744,1.46998805 C159.513835,2.41119242 160,3.68769181 160,5.01858222 L160,44.9879581 Z" id="Path" fill="#FFFFFF" opacity="0.90312"></path>
                            <g id="Скоро-появится" transform="translate(30.174, 19.41)" fill="#000000">
                                <path d="M6.986,7.966 C6.524,8.162 5.796,8.302 5.11,8.302 C3.024,8.302 1.82,6.986 1.82,4.9 C1.82,2.632 3.206,1.428 5.124,1.428 C5.894,1.428 6.524,1.596 6.972,1.792 L7.336,0.42 C6.986,0.238 6.188,0 5.054,0 C2.17,0 0,1.876 0,4.984 C0,7.868 1.82,9.744 4.816,9.744 C5.964,9.744 6.86,9.52 7.266,9.324 L6.986,7.966 Z" id="Path"></path>
                                <path d="M8.666,2.772 L8.666,9.59 L10.388,9.59 L10.388,6.748 L10.612,6.748 C11.494,6.748 12.012,7.196 12.39,8.134 C12.642,8.792 12.838,9.296 13.02,9.59 L14.812,9.59 C14.49,8.988 14.252,8.246 14.042,7.728 C13.58,6.636 13.006,5.908 12.068,5.768 L14.784,2.772 L12.74,2.772 L10.64,5.6 L10.388,5.6 L10.388,2.772 L8.666,2.772 Z" id="Path"></path>
                                <path d="M18.858,2.618 C16.8,2.618 15.33,3.99 15.33,6.23 C15.33,8.428 16.828,9.744 18.746,9.744 C20.482,9.744 22.246,8.624 22.246,6.118 C22.246,4.046 20.888,2.618 18.858,2.618 Z M18.816,3.864 C19.992,3.864 20.468,5.096 20.468,6.16 C20.468,7.546 19.782,8.498 18.802,8.498 C17.766,8.498 17.108,7.504 17.108,6.188 C17.108,5.054 17.598,3.864 18.816,3.864 Z" id="Shape"></path>
                                <path d="M23.66,12.362 L25.382,12.362 L25.382,8.834 L25.41,8.834 C25.76,9.38 26.474,9.744 27.328,9.744 C28.882,9.744 30.436,8.554 30.436,6.09 C30.436,3.962 29.134,2.618 27.566,2.618 C26.53,2.618 25.732,3.052 25.228,3.822 L25.2,3.822 L25.116,2.772 L23.604,2.772 C23.632,3.416 23.66,4.144 23.66,5.04 L23.66,12.362 Z M25.382,5.684 C25.382,5.544 25.41,5.39 25.438,5.25 C25.62,4.494 26.278,3.976 26.992,3.976 C28.098,3.976 28.686,4.956 28.686,6.16 C28.686,7.504 28.042,8.414 26.95,8.414 C26.208,8.414 25.606,7.91 25.424,7.21 C25.396,7.056 25.382,6.902 25.382,6.734 L25.382,5.684 Z" id="Shape"></path>
                                <path d="M34.944,2.618 C32.886,2.618 31.416,3.99 31.416,6.23 C31.416,8.428 32.914,9.744 34.832,9.744 C36.568,9.744 38.332,8.624 38.332,6.118 C38.332,4.046 36.974,2.618 34.944,2.618 Z M34.902,3.864 C36.078,3.864 36.554,5.096 36.554,6.16 C36.554,7.546 35.868,8.498 34.888,8.498 C33.852,8.498 33.194,7.504 33.194,6.188 C33.194,5.054 33.684,3.864 34.902,3.864 Z" id="Shape"></path>
                                <polygon id="Path" points="42.63 2.772 42.63 9.59 44.352 9.59 44.352 4.102 46.914 4.102 46.914 9.59 48.65 9.59 48.65 2.772"></polygon>
                                <path d="M53.578,2.618 C51.52,2.618 50.05,3.99 50.05,6.23 C50.05,8.428 51.548,9.744 53.466,9.744 C55.202,9.744 56.966,8.624 56.966,6.118 C56.966,4.046 55.608,2.618 53.578,2.618 Z M53.536,3.864 C54.712,3.864 55.188,5.096 55.188,6.16 C55.188,7.546 54.502,8.498 53.522,8.498 C52.486,8.498 51.828,7.504 51.828,6.188 C51.828,5.054 52.318,3.864 53.536,3.864 Z" id="Shape"></path>
                                <path d="M63.938,2.828 C63.336,2.744 62.468,2.674 61.516,2.674 C60.606,2.674 59.696,2.8 59.108,3.108 C58.506,3.416 58.072,3.906 58.072,4.676 C58.072,5.754 59.024,6.286 59.85,6.37 L59.85,6.412 C59.5,6.482 59.234,6.65 59.024,6.86 C58.506,7.336 58.268,8.232 58.016,8.82 C57.89,9.114 57.75,9.38 57.596,9.59 L59.43,9.59 C59.542,9.38 59.626,9.226 59.71,9.03 C59.934,8.442 60.102,7.714 60.536,7.336 C60.774,7.07 61.11,6.888 61.586,6.888 L62.23,6.888 L62.23,9.59 L63.938,9.59 L63.938,2.828 Z M62.23,5.796 C62.006,5.81 61.782,5.81 61.376,5.81 C60.704,5.81 59.85,5.502 59.85,4.788 C59.85,4.018 60.62,3.766 61.376,3.766 C61.754,3.766 61.992,3.794 62.23,3.822 L62.23,5.796 Z" id="Shape"></path>
                                <path d="M65.758,9.59 C66.164,9.604 67.074,9.674 67.942,9.674 C69.3,9.674 71.764,9.478 71.764,7.616 C71.764,6.664 71.078,6.104 70.056,5.95 L70.056,5.922 C70.784,5.768 71.456,5.278 71.456,4.41 C71.456,2.842 69.398,2.688 68.25,2.688 C67.312,2.688 66.262,2.772 65.758,2.856 L65.758,9.59 Z M67.452,3.85 C67.704,3.822 67.928,3.794 68.278,3.794 C69.286,3.794 69.762,4.088 69.762,4.634 C69.762,5.292 69.034,5.53 68.166,5.53 L67.452,5.53 L67.452,3.85 Z M67.438,6.566 L68.166,6.566 C69.244,6.566 70,6.818 70,7.574 C70,8.386 69.048,8.582 68.264,8.582 C67.928,8.582 67.718,8.582 67.438,8.554 L67.438,6.566 Z" id="Shape"></path>
                                <path d="M73.15,2.772 L73.15,9.59 L75.208,9.59 C75.796,8.47 76.426,7.238 76.944,6.23 C77.28,5.572 77.504,5.082 77.84,4.27 L77.896,4.27 C77.826,5.558 77.784,6.062 77.784,7.154 L77.784,9.59 L79.422,9.59 L79.422,2.772 L77.336,2.772 L75.67,5.964 C75.306,6.678 75.11,7.182 74.746,7.98 L74.69,7.98 C74.746,7.028 74.788,6.3 74.788,5.222 L74.788,2.772 L73.15,2.772 Z" id="Path"></path>
                                <polygon id="Path" points="80.5 2.772 80.5 4.102 82.544 4.102 82.544 9.59 84.266 9.59 84.266 4.102 86.31 4.102 86.31 2.772"></polygon>
                                <path d="M92.162,8.106 C91.826,8.246 91.392,8.372 90.804,8.372 C89.628,8.372 88.718,7.574 88.718,6.174 C88.704,4.928 89.488,3.962 90.804,3.962 C91.42,3.962 91.826,4.088 92.106,4.228 L92.414,2.926 C92.022,2.758 91.378,2.618 90.748,2.618 C88.354,2.618 86.954,4.2 86.954,6.244 C86.954,8.358 88.34,9.73 90.468,9.73 C91.322,9.73 92.036,9.548 92.4,9.38 L92.162,8.106 Z" id="Path"></path>
                                <path d="M99.232,2.828 C98.63,2.744 97.762,2.674 96.81,2.674 C95.9,2.674 94.99,2.8 94.402,3.108 C93.8,3.416 93.366,3.906 93.366,4.676 C93.366,5.754 94.318,6.286 95.144,6.37 L95.144,6.412 C94.794,6.482 94.528,6.65 94.318,6.86 C93.8,7.336 93.562,8.232 93.31,8.82 C93.184,9.114 93.044,9.38 92.89,9.59 L94.724,9.59 C94.836,9.38 94.92,9.226 95.004,9.03 C95.228,8.442 95.396,7.714 95.83,7.336 C96.068,7.07 96.404,6.888 96.88,6.888 L97.524,6.888 L97.524,9.59 L99.232,9.59 L99.232,2.828 Z M97.524,5.796 C97.3,5.81 97.076,5.81 96.67,5.81 C95.998,5.81 95.144,5.502 95.144,4.788 C95.144,4.018 95.914,3.766 96.67,3.766 C97.048,3.766 97.286,3.794 97.524,3.822 L97.524,5.796 Z" id="Shape"></path>
                            </g>
                        </g>
                    </g>
                </g>
            </g>
        </g>
    </g>
</svg>