<?xml version="1.0" encoding="UTF-8"?>
<svg width="53px" height="66px" viewBox="0 0 53 66" version="1.1" xmlns="http://www.w3.org/2000/svg" xmlns:xlink="http://www.w3.org/1999/xlink">
    <title>321321Безымянный-1</title>
    <g id="Логистика-2" stroke="none" stroke-width="1" fill="none" fill-rule="evenodd">
        <g id="Desktop-HD-Copy-9" transform="translate(-955.000000, -1027.000000)">
            <g id="Group-17" transform="translate(142.000000, 894.000000)">
                <g id="Group-13-Copy-2" transform="translate(793.000000, 105.000000)">
                    <g id="321321Безымянный-1" transform="translate(20.000000, 28.000000)">
                        <path d="M26.5599766,0 C26.7077061,0.0874807447 33.2061135,2.04537151 39.5672033,3.955242 L40.361155,4.19358693 C45.511091,5.73939921 50.3919138,7.20074129 51.5236122,7.54861137 C51.8367517,7.64489946 52.0638552,7.75722051 52.2215202,7.93550251 C52.460592,8.20575952 52.4184095,8.34664633 52.57,8.66348925 L52.57,35.0065466 C52.2937137,35.7745029 52.896824,43.7288836 47.8248082,51.2916988 C47.1586952,52.2849069 46.6895617,52.933203 45.9343641,53.7916438 L44.6876321,55.1474 C43.5808836,56.2817433 42.3459843,57.349132 40.9248091,58.3749705 C38.1657399,60.3665351 35.030167,61.9373588 31.7714339,63.205295 C30.90037,63.5442227 30.0823728,63.8388679 29.189224,64.1456846 C28.559761,64.3619715 27.036291,64.7655504 26.5841841,65.0351074 L26.0135913,65.0351074 C25.6393233,64.8122267 23.938294,64.3385317 23.3789695,64.1474008 C22.4869723,63.8425261 21.6662202,63.5426872 20.7947724,63.2088855 C16.1159029,61.4167618 11.3190443,58.7158177 7.85777653,55.1177052 L6.18985184,53.2632336 C3.34942094,49.8029368 1.61038668,45.745672 0.693752976,41.2531913 C0.494470051,40.276513 0.336105048,39.2128954 0.232477927,38.1949379 C0.181149872,37.6911191 0.0654641585,35.1469367 0,34.958922 L0,8.66202144 C0.153103482,8.34375588 0.107669233,8.20889836 0.34994759,7.93710581 C0.511880491,7.75543656 0.748671511,7.64616403 1.04945888,7.55405354 C1.60934793,7.38256861 2.16444967,7.21882918 2.71462861,7.04842816 C8.21578576,5.34523096 13.8508746,3.69458122 19.3690583,2.02774045 C19.5627503,1.96920886 20.9975301,1.54464037 22.4846484,1.09836146 L23.0424494,0.930661697 C24.524078,0.484335273 25.9094515,0.0593392222 26.0098202,0 Z M26.2839612,2.64288307 C26.0297824,2.64096732 23.7230232,3.38932269 23.2997079,3.52022842 C17.4360478,5.33396273 11.4196681,7.04126979 5.5585145,8.86410449 C5.03561417,9.02676 2.86768693,9.64215471 2.57489346,9.78254473 C2.51473598,12.930402 2.57259013,16.1390716 2.57259013,19.293726 L2.57259013,28.8322535 C2.57259013,35.1708054 2.402573,40.2500022 4.73134923,45.7253711 C5.72909617,48.0711287 6.94518493,50.0589222 8.30132499,51.6941487 C8.97694492,52.5088038 9.84891215,53.4780527 10.6185846,54.1464013 L11.2468508,54.7109874 C14.353045,57.5124875 18.6342745,59.6668884 22.6656156,61.1755674 C23.1502401,61.3569205 25.9559856,62.3853107 26.2841645,62.3823139 C26.6460803,62.3789652 29.3555378,61.3698372 29.8592437,61.1850968 C37.3464104,58.4395539 44.6435301,53.5613338 47.868594,45.8089683 C50.2103547,40.1799088 49.9938194,35.3641268 49.998426,28.8864043 C50.0006616,25.7069102 49.9996455,22.5274386 50.0018133,19.3479445 C50.0039811,16.1687213 50.0529607,12.9495286 50.0027166,9.77518311 L47.0540519,8.87550821 C46.0730831,8.58246634 45.0871238,8.29005676 44.0978901,7.98305944 C42.1226971,7.37008097 40.1617983,6.81479857 38.1841213,6.20272337 C37.6513528,6.03783227 26.5443727,2.64487394 26.2839612,2.64288307 Z" id="Combined-Shape" fill="#1253A2"></path>
                        <path d="M45.2715254,13.8741788 L45.271977,32.0840089 C45.271977,34.1037555 45.2809419,35.9988514 45.0311665,37.9826254 C43.6900206,48.6351953 35.7053579,53.5898318 27.1746261,56.6570952 C26.6647102,56.8404355 26.5274138,56.9272167 25.9586728,56.9488725 C24.5302038,57.0032039 24.2982226,58.9355144 25.5600166,59.4184 C26.478231,59.7698154 27.1534897,59.3787241 27.9801356,59.0884372 C35.1307908,56.577653 40.546499,53.4643682 44.1950589,47.8267277 C45.7491721,45.4253515 46.9240494,42.3279416 47.4587148,38.9542906 C48.046605,35.2449409 47.8390798,30.9807832 47.8390798,27.1521573 C47.8390798,23.0874631 47.8390798,19.0227689 47.8390798,14.9580747 C47.8390798,12.9836043 48.1721138,12.0086423 46.7022978,11.5585225 L31.5073869,6.97072476 C29.9665742,6.51080461 28.3896761,6.05485883 26.8447761,5.56607935 C25.8601491,5.25452054 25.0884444,5.76739462 25.0129088,6.60971217 C24.9116979,7.73757449 25.9166032,7.96111009 26.5805936,8.1580671 C29.7139309,9.08757234 32.845981,10.0367236 35.9530784,10.9791455 L44.9929584,13.6985389 C45.2006642,13.7614513 45.1860765,13.7206689 45.2715254,13.8741788" id="Fill-3" fill="#000000"></path>
                        <path d="M6.25387077,12.1314186 C5.21938351,12.4441065 5.32621723,13.3341842 5.32621723,14.4703114 L5.32621723,30.7290883 C5.32621723,32.8392743 5.2742343,34.9848005 5.46306193,37.0708467 C5.97701993,42.7475987 7.83722724,46.903184 11.378005,50.6769364 C12.0318788,51.3738282 13.2124918,52.3608037 13.9824804,52.9504102 C14.3278213,53.2149089 14.6708589,53.4232696 15.2236573,53.2718146 C16.0678943,53.040669 16.4667989,52.0118272 15.8758601,51.2184214 L14.5489632,50.1080825 C13.4401147,49.217237 11.9676792,47.5977047 11.0992347,46.2400291 C7.63482805,40.8238692 7.88593583,36.1218761 7.88593583,29.9161494 L7.8864552,13.6562209 C7.88767461,13.1007353 7.82853331,12.7475811 7.51001936,12.4340577 C7.22413586,12.1526002 6.76588675,11.9767118 6.25387077,12.1314186" id="Fill-6" fill="#000000"></path>
                        <path d="M22.3828936,39.3208808 C20.5475712,37.5771722 18.1483629,35.0973248 16.2982721,33.2367788 C15.7615293,32.6971003 14.7901577,32.4586608 14.2349882,33.2038773 C13.5372834,34.1404958 14.2304493,34.8279033 14.6867338,35.2818619 L20.7838203,41.3787903 C21.1553559,41.7483839 21.775425,42.6403811 22.7175985,42.3877152 C23.2618837,42.2417701 24.0396855,41.3223814 24.3895653,40.9735177 L36.6167978,28.7583213 C37.1356786,28.2394405 37.6138447,27.7589259 38.1350063,27.2417839 C39.3717798,26.0144946 38.1752242,24.6042715 37.0224543,24.9346183 C36.4251475,25.105787 35.0564746,26.648903 34.5925349,27.1135653 C32.5482647,29.1608163 30.539809,31.1640331 28.4954936,33.2106067 C26.455401,35.2530026 24.4443484,37.3241449 22.3828936,39.3208808" id="Fill-9" fill="#1253A2"></path>
                    </g>
                </g>
            </g>
        </g>
    </g>
</svg>