<?xml version="1.0" encoding="UTF-8"?>
<svg width="53px" height="61px" viewBox="0 0 53 61" version="1.1" xmlns="http://www.w3.org/2000/svg" xmlns:xlink="http://www.w3.org/1999/xlink">
    <title>213Безымянный-1</title>
    <g id="Логистика-2" stroke="none" stroke-width="1" fill="none" fill-rule="evenodd">
        <g id="Desktop-HD-Copy-9" transform="translate(-558.000000, -1184.000000)">
            <g id="Group-17" transform="translate(142.000000, 894.000000)">
                <g id="Group-15" transform="translate(396.000000, 251.000000)">
                    <g id="213Безымянный-1" transform="translate(20.000000, 39.000000)">
                        <path d="M52.57,0 L52.5652329,60.0795285 L48.7788961,60.0795285 L48.7154332,60.0124475 L48.6834817,59.9807649 C48.6740698,59.9718909 48.6610888,59.9598388 48.6511879,59.9510381 L42.2148823,55.1212542 C41.9613239,54.931941 41.5697409,54.6004229 41.3044727,54.4652097 C41.024781,54.6167042 40.6381851,54.9422574 40.3627227,55.1486097 C39.3590255,55.9004842 34.5371378,59.4347783 33.9267593,59.9820117 C33.8653743,60.037114 33.8741017,60.027971 33.828778,60.0795285 L33.7592768,60.0795285 L33.6955205,60.0125698 C33.6868664,60.0041113 33.6731275,59.9900546 33.6634957,59.980985 L27.1956785,55.1207652 C26.9455671,54.9337256 26.5453056,54.597856 26.28456,54.4656986 C25.9644095,54.6404662 25.6846445,54.9073234 25.3454503,55.1501498 L22.5155557,57.2497806 C22.1717166,57.5039502 18.9918713,59.835382 18.7622215,60.0795285 L18.7110796,60.0795285 L11.2647206,54.4656986 L4.22128776,59.7248597 C4.12186412,59.7992746 4.08167419,59.8238677 3.98657756,59.8991383 L3.78929485,60.0795285 L0.0038869828,60.0795285 L0,0 L52.57,0 Z M3.75450758,3.74690474 L3.75450758,4.04832925 L3.77350246,56.2998411 L10.3233129,51.3938332 C10.6018067,51.1855252 10.9825354,50.8645435 11.2647206,50.7096754 L18.7746403,56.2991566 C19.0682419,56.1297917 19.4227641,55.8342344 19.7107675,55.6181035 L26.28456,50.7107021 L28.1671553,52.0958125 C28.793864,52.5644751 29.4196927,53.0326976 30.0443969,53.5039271 L33.7944796,56.2990099 C34.7966367,55.7094353 40.5943771,51.0956601 41.3044727,50.7112644 L48.7888947,56.2990099 C48.846735,55.905349 48.8146612,55.3290733 48.8148079,54.9164175 L48.8143923,3.74758924 L3.75450758,3.74690474 Z" id="Combined-Shape" fill="#1253A2"></path>
                        <polygon id="Fill-3" fill="#000000" points="11.2647206 11.9102776 11.267972 15.0157568 41.3003168 15.0159768 41.3045215 11.2605647 11.2649162 11.2611025"></polygon>
                        <polygon id="Fill-4" fill="#1253A2" points="11.2644273 37.7257105 11.2672141 41.3014902 26.2804041 41.3007324 26.2843399 37.5460048 11.2649162 37.5458825"></polygon>
                        <polygon id="Fill-5" fill="#1253A2" points="11.264305 22.7058467 11.2649895 26.280673 26.2810886 26.280893 26.2849022 22.5261654 11.2642317 22.5260187"></polygon>
                        <polygon id="Fill-6" fill="#1253A2" points="11.2647206 30.6851379 11.267972 33.7905927 26.2804041 33.7908127 26.2844133 30.0355961 11.2649162 30.0359628"></polygon>
                        <polygon id="Fill-7" fill="#000000" points="33.7944063 30.4504766 33.7970465 33.7913016 41.3003168 33.7908127 41.3045215 30.0354006 33.7947486 30.0359628"></polygon>
                        <polygon id="Fill-8" fill="#000000" points="33.7941374 37.7257105 33.7948219 41.3005123 41.3003168 41.300659 41.3043993 37.5462981 33.7940641 37.5458825"></polygon>
                        <polygon id="Fill-9" fill="#000000" points="33.7946019 23.4099039 33.7974621 26.280673 41.3003168 26.2808197 41.3042526 22.5261654 33.7947486 22.5260187"></polygon>
                    </g>
                </g>
            </g>
        </g>
    </g>
</svg>