<svg width="59" height="55" viewBox="0 0 59 55" xmlns="http://www.w3.org/2000/svg">
    <g fill-rule="nonzero" fill="none">
        <path d="M33.19 44.904h-7.81a.976.976 0 0 0-.976.976v3.905a.976.976 0 0 0 .976.976h7.81a.977.977 0 0 0 .975-.976V45.88a.976.976 0 0 0-.976-.976zm-.977 3.905h-5.857v-1.953h5.857v1.953zM40.999 44.904h-3.905a.976.976 0 0 0-.976.976v3.905a.976.976 0 0 0 .976.976H41a.977.977 0 0 0 .976-.976V45.88a.976.976 0 0 0-.976-.976zm-.976 3.905H38.07v-1.953h1.953v1.953zM48.808 44.904h-3.905a.976.976 0 0 0-.976.976v3.905a.976.976 0 0 0 .976.976h3.905a.977.977 0 0 0 .976-.976V45.88a.977.977 0 0 0-.976-.976zm-.976 3.905h-1.953v-1.953h1.953v1.953zM21.475 44.904H17.57a.976.976 0 0 0-.976.976v3.905a.976.976 0 0 0 .976.976h3.905a.977.977 0 0 0 .976-.976V45.88a.977.977 0 0 0-.976-.976zM20.5 48.81h-1.952v-1.953h1.952v1.953zM13.666 44.904H9.76a.976.976 0 0 0-.976.976v3.905a.976.976 0 0 0 .976.976h3.905a.977.977 0 0 0 .976-.976V45.88a.976.976 0 0 0-.976-.976zm-.977 3.905h-1.952v-1.953h1.952v1.953z" fill="#1253A2"/>
        <path d="M55.641 1.952H42.843a6.809 6.809 0 0 0-9.545 0H2.928A2.929 2.929 0 0 0 0 4.881v46.856a2.929 2.929 0 0 0 2.928 2.929h52.714a2.929 2.929 0 0 0 2.928-2.929V4.881a2.929 2.929 0 0 0-2.928-2.929zM52.713 7.81v9.762H25.38V7.81h5.995c.828 3.393 5.513 7.15 6.095 7.603a.976.976 0 0 0 1.2 0c.586-.454 5.272-4.21 6.096-7.603h7.947zm0 17.572H41.975a.976.976 0 0 0-.976.976v14.642h-5.857V26.357a.976.976 0 0 0-.977-.976h-9.761a.976.976 0 0 0-.976.976v14.642H17.57V26.357a.976.976 0 0 0-.976-.976H5.856v-5.858h10.738a.977.977 0 0 0 .976-.976V7.81h5.858v10.738a.977.977 0 0 0 .976.976h28.309v5.858zm0 1.952v13.666H42.95V27.333h9.762zM33.189 40.999h-7.81V27.333h7.81v13.666zM5.856 27.333h9.762v13.666H5.856V27.333zm0-9.762V7.81h9.762v9.762H5.856zM38.07 1.952a4.89 4.89 0 0 1 4.881 4.881c0 1.825-2.783 4.783-4.88 6.552-2.099-1.769-4.882-4.727-4.882-6.552a4.89 4.89 0 0 1 4.881-4.88zm18.547 49.785a.976.976 0 0 1-.976.976H2.928a.976.976 0 0 1-.976-.976V4.881c0-.54.437-.976.976-.976h28.977a6.777 6.777 0 0 0-.59 1.952H5.856a1.953 1.953 0 0 0-1.952 1.952V41a1.953 1.953 0 0 0 1.952 1.953h46.856a1.953 1.953 0 0 0 1.953-1.953V7.81a1.953 1.953 0 0 0-1.953-1.952h-7.887a6.776 6.776 0 0 0-.59-1.952H55.64a.976.976 0 0 1 .976.976v46.856z" fill="#000"/>
        <path fill="#000" d="M12.69 21.476h3.904v1.952H12.69zM8.785 21.476h1.952v1.952H8.785zM19.523 14.643h1.952v3.904h-1.952zM19.523 10.738h1.952v1.952h-1.952zM19.523 26.357h1.952v3.905h-1.952zM19.523 32.214h1.952v3.905h-1.952zM24.404 21.476h3.904v1.952h-3.904zM30.26 21.476h3.905v1.952h-3.904zM36.118 21.476h3.905v1.952h-3.905zM41.975 21.476h3.904v1.952h-3.904zM37.094 26.357h1.952v3.905h-1.952zM37.094 32.214h1.952v3.905h-1.952z"/>
        <path d="M38.07 9.762a2.929 2.929 0 1 0 0-5.858 2.929 2.929 0 0 0 0 5.858zm0-3.905a.976.976 0 1 1 0 1.951.976.976 0 0 1 0-1.951z" fill="#1253A2"/>
    </g>
</svg>
