<?xml version="1.0" encoding="UTF-8"?>
<svg width="59px" height="53px" viewBox="0 0 59 53" version="1.1" xmlns="http://www.w3.org/2000/svg" xmlns:xlink="http://www.w3.org/1999/xlink">
    <title>Group 22</title>
    <g id="Логистика-2" stroke="none" stroke-width="1" fill="none" fill-rule="evenodd">
        <g id="Desktop-HD-Copy-9" transform="translate(-955.000000, -1187.000000)">
            <g id="Group-17" transform="translate(142.000000, 894.000000)">
                <g id="Group-13-Copy-3" transform="translate(793.000000, 251.000000)">
                    <g id="Group-22" transform="translate(20.000000, 42.000000)">
                        <path d="M15.7491747,5.60156204 C15.6992275,5.75359999 15.3850646,5.92838806 15.2308031,6.06090268 C14.1033035,7.03007349 13.0312827,8.0219944 12.0891734,9.16654982 C11.9657154,9.31652698 11.6953986,9.67185165 11.572266,9.71960247 L9.69073189,12.4223368 C9.38272419,13.1125138 8.69395726,13.981519 8.45238313,14.7766068 C8.19456666,14.9962714 7.26105306,17.5725921 7.07875393,18.1513776 C6.67106877,19.4454492 6.4290879,20.6166052 6.16630925,22.0493467 L0.929880097,21.2850082 L0,21.1886389 L0,21.1923266 L1.07454257,22.685482 C1.41381472,23.2019284 2.67000564,24.8299575 2.87776645,25.2601758 C3.3786213,25.891132 3.80027106,26.5849967 4.30866409,27.257223 C4.57214774,27.6056603 4.76746242,27.9150237 5.00835866,28.2510149 C5.22270859,28.5499388 5.56805467,28.9743002 5.72049936,29.3012618 C5.88221764,29.4134938 6.11004409,29.7762753 6.23423419,29.9532869 C6.40197216,30.1922579 6.55908076,30.4114886 6.71648763,30.6427588 C6.97959167,31.0294564 7.55753656,31.7290696 7.67966586,32.0872685 C7.79696856,32.1353719 8.33800893,32.9479764 8.43684581,33.0855617 L9.24107156,34.1921821 C9.5961793,33.8408164 10.7103922,32.0864822 10.8679618,32.022245 C10.9918536,31.7249209 12.6954814,29.2903612 12.9205962,29.1833625 C12.9776477,28.8956645 13.3726427,28.4553049 13.5571925,28.20443 L15.6707831,25.2591725 C15.8222788,24.940888 16.9238828,23.4930701 17.2103606,23.0733184 C17.3390248,22.8849183 17.5854527,22.4473516 17.8016736,22.3504128 C17.8394729,22.1591926 17.8164246,22.2392111 17.9422416,22.0474215 L18.5303278,21.219605 L18.3631592,21.1900218 L17.5736845,21.3168421 C17.3267143,21.3798591 16.9892047,21.4282064 16.7275107,21.3946371 L14.4170597,21.7887102 C13.6173623,21.9029217 12.8063034,22.0567222 12.0050061,22.1507325 C12.1130624,21.4685547 12.3064518,20.7841805 12.4918693,20.1779539 L13.1503479,18.2914847 C13.2612513,18.1895024 13.7426641,17.0818244 13.8528896,16.8506084 C14.314508,15.8822782 15.8043553,13.6417859 16.5634062,12.8584664 C16.9713083,12.4374132 17.2265759,12.1079027 17.6268042,11.7088132 C18.2414096,11.096133 20.8628238,8.92798553 21.4869739,8.82228837 C21.6287079,8.57447762 22.0721316,8.41067143 22.3311683,8.27387252 C22.637766,8.1119102 23.0006288,7.89094403 23.3030236,7.79931994 C24.3797896,7.34903595 25.2543536,6.95336306 26.5099209,6.59969245 C27.2492044,6.39147068 29.567546,5.84522408 30.3504859,5.95252107 C30.4871492,5.85482305 30.5660018,5.88079993 30.7817618,5.86119525 C31.2392586,5.859731 34.61487,5.76580208 35.0733701,6.0769552 C35.6297851,5.97879622 38.602782,6.73353575 38.9819414,6.98256671 C39.5569578,7.11792849 39.9991613,7.34781574 40.5265896,7.56672112 C40.7147457,7.6447331 40.8625536,7.69131794 41.0018472,7.83974951 C41.2807868,7.8590288 42.9086803,8.75994929 43.0167365,8.92606031 C43.420273,9.07316321 43.7329446,9.34041595 44.0544017,9.5725538 C44.8200417,10.1253624 45.3052779,10.5839981 45.8745186,11.0076815 C46.0912005,11.1689388 46.0802187,11.2079855 46.2653107,11.3958976 C46.4184062,11.5514063 46.5426234,11.654636 46.6985931,11.8106599 L48.2495321,13.5132573 C48.5609022,13.8957519 49.4107909,14.997112 49.5959643,15.4925166 C49.8720567,15.6772019 50.4857131,17.0275386 50.7247654,17.4728876 C51.0564452,18.2635826 51.3829458,18.9061714 51.6532897,19.7472746 C51.931904,20.6138394 52.1678109,21.4485161 52.3424363,22.3646485 C52.7651165,24.5828517 52.7347468,26.1888357 52.633822,28.4639277 C52.5109877,29.044774 52.4595763,29.7066421 52.3525776,30.3055746 C52.2475854,30.8934981 52.0965507,31.4758899 51.9383575,32.0285358 C51.7910919,32.5431384 51.0024035,34.9116983 50.7674185,35.08147 C50.6596605,35.4561011 49.9577425,36.8295947 49.7321666,37.0363522 C48.8023408,38.8162836 46.6776869,41.0972869 45.015492,42.4163321 C44.6956618,42.6702168 43.3832329,43.706716 43.0198277,43.7755899 C42.9053722,43.9459852 42.7993767,43.9808832 42.5933784,44.0969657 C42.4481736,44.1787468 42.2890042,44.28119 42.1012277,44.3828198 C41.7577255,44.5688338 41.3688587,44.7919421 40.9992983,44.9087839 C40.832889,45.0819721 39.4787831,45.5711943 39.1372875,45.7187853 C38.8084549,45.7738031 38.3020955,45.97972 37.9461201,46.0851189 C37.5190743,46.2115596 37.1220727,46.3142469 36.6567395,46.4215439 C35.8027835,46.6184584 34.7286205,46.7701981 33.7899821,46.8323745 L33.5855022,46.8606562 C32.9819872,46.8617409 32.4127193,46.9104678 31.8223283,46.8956355 C31.256233,46.8813455 30.6869109,46.8149933 30.1310382,46.7951717 C29.8773976,46.7702795 29.470309,46.7658867 29.3095126,46.6386054 C28.5892372,46.7355984 25.9910069,45.9718022 25.3190789,45.7029497 C25.1208357,45.6489893 25.0170638,45.6052517 24.8219118,45.5339101 C24.6103819,45.4565218 24.5034645,45.4350733 24.3368383,45.2725144 C23.9247604,45.2748192 21.8033333,44.1482958 21.4910413,43.86697 C21.0879658,43.7411529 19.8582127,42.7960338 19.45953,42.4982759 C19.0587593,42.198891 17.7255597,41.0018124 17.5062747,40.9384157 C17.4840669,41.1261923 17.2407845,41.2866632 17.0915937,41.4349321 C16.912196,41.613191 16.7821489,41.7440786 16.6032121,41.9227171 L14.1305819,44.3958896 C13.9757782,44.5509103 13.7969227,44.8198442 13.6015267,44.8431366 C13.6582528,45.1014954 13.5853115,44.9642898 13.7905505,45.1783414 L15.6142197,46.8668928 L17.8877661,48.4971725 C18.1702308,48.6844881 18.4277218,48.8074579 18.6634661,49.0080602 C18.892811,49.0800254 19.3590662,49.3834776 19.6025655,49.5132264 C19.9360078,49.6908617 20.3356125,49.8472653 20.5546805,50.0753357 L23.3701079,51.2152001 C29.8009041,53.5835974 37.0824295,53.1491761 43.268235,50.3032978 C43.7406454,50.085938 44.1277226,49.8726998 44.5742918,49.656506 C44.8728361,49.5119249 45.6549354,48.9905434 45.8635368,48.96256 L46.0151951,48.8193618 C46.2496107,48.6284398 47.7496806,47.6777077 48.4262454,47.1286953 C48.5595193,47.020612 48.6568377,46.9074038 48.8050252,46.8461222 C50.4218555,45.4354529 51.2466621,44.6694332 52.5499802,43.1154843 L52.7773999,42.8902068 L54.801617,39.9752918 C54.9986942,39.3947437 56.4982218,37.2113572 57.3603939,34.2628729 C57.9062067,32.3962524 58.21858,31.074116 58.4178807,29.1446141 C58.4567647,28.7687628 58.5030512,27.4421795 58.57,27.2347983 L58.57,25.1860685 C58.495974,24.9950652 58.3173355,22.6582578 58.2352562,22.1521967 C58.0698502,21.1327533 57.8816127,20.284112 57.6275653,19.3647257 C56.6903097,15.9725194 54.6518839,11.8158119 52.3566721,9.34057864 L51.5676582,8.43843795 C51.2055546,7.99493289 49.9211633,6.82998644 49.8415244,6.73405095 L49.7433654,6.66211289 L48.9074142,5.95780864 C47.2319326,4.56281224 44.6491583,2.91463617 42.6488844,2.13215724 C39.7229061,0.987601823 36.8254536,0.0860576753 33.2552325,0.00913031878 C29.5267368,-0.071213621 26.4707115,0.374379347 23.2452128,1.51709089 C20.5887379,2.45830537 18.8318548,3.46958692 16.6370254,4.99118671 C16.3605533,5.18281365 16.0651002,5.44014203 15.7491747,5.60156204" id="Fill-1" fill="#1253A2"></path>
                        <path d="M40.9606312,18.1082365 L40.0255991,18.5136982 C39.4380553,18.7720298 38.7177527,19.0125464 38.1437396,19.3117686 L33.2543919,21.3588715 C32.7680711,21.4913048 31.5513065,22.1033884 31.2530876,22.1108452 C31.2052825,22.1537152 31.2064214,22.1579452 31.124803,22.2069163 C30.6446375,22.494777 29.6076773,22.6921525 29.139036,23.2870718 C28.6514136,23.9060699 28.4091345,24.7035981 28.0996896,25.5624621 C27.805755,26.378212 27.5044449,27.1783704 27.2321215,27.9523892 C26.9598795,28.7262454 26.5426496,29.67874 26.3541138,30.4603783 C26.1965442,30.626164 25.9403547,31.5761097 25.893092,31.8920352 C25.7924655,32.7294506 26.1249045,33.554664 26.5529535,33.9750393 C27.1544891,34.5659455 27.3307414,34.7237591 28.3116805,35.0544356 L28.6993813,35.1215199 C29.523266,35.1888483 30.1087491,34.9807892 30.6123426,34.5870144 C30.831248,34.4158328 31.0055751,34.1857015 31.1728521,33.9090125 C31.3182738,33.6682789 31.4683866,33.2100771 31.5750057,33.0634352 C31.6471606,32.7319182 31.8052725,32.398259 31.9038925,32.1016399 C31.9550056,31.9480563 32.018104,31.7768747 32.0742336,31.6273042 C32.0975802,31.5650465 32.1441651,31.4269189 32.1613835,31.3894178 L32.3005144,31.1737392 C32.2987519,30.8290711 33.2877443,28.3914202 33.4785849,27.8243216 C33.6964327,27.1769062 33.6283994,27.3523179 34.8088018,26.8697662 L39.6906926,24.9201986 C40.7535754,24.490143 41.9042319,23.9842989 42.9513333,23.620975 C43.3014518,23.5066008 43.638175,23.3471061 44.0134298,23.1956918 C44.2209737,23.1119041 44.3675342,23.050026 44.5443289,22.9425121 C44.7397249,22.8236638 44.7996778,22.7352123 44.96747,22.6455134 C45.0946699,22.4594994 44.9878339,22.558499 45.1927476,22.4535611 C45.2234968,22.3229716 45.1698348,22.4625635 45.2444031,22.3342789 C45.260781,22.3061599 45.3015902,22.2542604 45.3221168,22.2266837 C46.1643859,21.0924051 45.9172531,19.459441 45.0083605,18.4481323 C44.8660029,18.2898035 44.7325663,18.185191 44.6181108,18.0469007 C44.3413404,17.9139251 44.2376498,17.7904129 43.9047499,17.667443 C43.5677012,17.5429275 43.3889272,17.5252481 43.0164382,17.5101717 C42.1145958,17.5139408 41.7032229,17.8980353 40.9606312,18.1082365" id="Fill-2" fill="#000000"></path>
                    </g>
                </g>
            </g>
        </g>
    </g>
</svg>