<?xml version="1.0" encoding="UTF-8"?>
<svg width="14px" height="13px" viewBox="0 0 14 13" version="1.1" xmlns="http://www.w3.org/2000/svg" xmlns:xlink="http://www.w3.org/1999/xlink">
    <title>Path 12</title>
    <g id="Логистика-2" stroke="none" stroke-width="1" fill="none" fill-rule="evenodd">
        <g id="Desktop-HD-Copy-9" transform="translate(-291.000000, -451.000000)" fill="#FFFFFF">
            <g id="Group-12" transform="translate(142.000000, 166.000000)">
                <g id="Кнопка-в-корзину" transform="translate(0.000000, 269.000000)">
                    <path d="M151.304047,21.8511591 L162.656242,21.8562117 C162.968725,21.8563507 163.221929,22.1097807 163.22179,22.4222634 C163.221789,22.4237912 163.221783,22.425319 163.221769,22.4268468 C163.219068,22.7429437 162.962603,22.9980588 162.646496,22.9990916 L151.3183,23.0361009 L151.3183,23.0361009 L155.762011,27.5075891 C155.991789,27.7388025 155.995499,28.1109943 155.770377,28.3467429 C155.551922,28.5755107 155.189376,28.5838704 154.960608,28.3654148 C154.9575,28.3624467 154.954425,28.3594437 154.951384,28.3564063 L149.355401,22.7664978 C149.160033,22.5713418 149.159861,22.2547593 149.355017,22.0593912 C149.355567,22.0588406 149.356118,22.0582913 149.356671,22.0577434 L155.037508,16.4235907 C155.268058,16.1949356 155.640317,16.1964715 155.868972,16.4270213 C155.872127,16.4302022 155.875245,16.433419 155.878327,16.4366712 C156.108534,16.6796503 156.103182,17.0618195 155.866261,17.2982569 L151.304047,21.8511591 L151.304047,21.8511591 Z" id="Path-12" transform="translate(156.113322, 22.385197) rotate(-180.000000) translate(-156.113322, -22.385197) "></path>
                </g>
            </g>
        </g>
    </g>
</svg>