<?xml version="1.0" encoding="UTF-8"?>
<svg width="19px" height="23px" viewBox="0 0 19 23" version="1.1" xmlns="http://www.w3.org/2000/svg" xmlns:xlink="http://www.w3.org/1999/xlink">
    <title>Combined Shape</title>
    <g id="Логистика-2" stroke="none" stroke-width="1" fill="none" fill-rule="evenodd">
        <g id="Desktop-HD-Copy-11" transform="translate(-717.000000, -593.000000)" fill="#1253A2">
            <g id="Group-10" transform="translate(142.000000, 590.000000)">
                <g id="Group" transform="translate(575.000000, 3.000000)">
                    <path d="M10.6384365,0 L11.0130293,0.374592834 L11.0130293,5.31921824 C11.0130293,5.86862106 11.2627579,6.36807818 11.762215,6.81758958 C12.2616721,7.26710098 12.7361564,7.46688382 13.1856678,7.41693811 L18.1302932,7.41693811 C18.2301846,7.41693811 18.3051031,7.44191097 18.3550489,7.49185668 C18.4049946,7.54180239 18.4299674,7.61672096 18.4299674,7.71661238 L18.4299674,21.1270358 C18.4299674,21.6264929 18.2551574,22.0510315 17.9055375,22.4006515 C17.5559175,22.7502714 17.1064061,22.9500543 16.5570033,23 L1.94788274,23 C1.44842562,23 0.998914224,22.82519 0.599348534,22.47557 C0.199782845,22.1259501 0,21.6764387 0,21.1270358 L0,1.87296417 C0.0499457112,1.32356135 0.249728556,0.874049946 0.599348534,0.524429967 C0.948968512,0.174809989 1.39847991,0 1.94788274,0 L10.6384365,0 Z M14.7589577,17.2312704 L3.59609121,17.2312704 L3.44625407,17.3811075 L3.44625407,18.2052117 L3.59609121,18.3550489 L14.7589577,18.3550489 L14.9087948,18.2052117 L14.9087948,17.3811075 L14.7589577,17.2312704 Z M14.7589577,14.3843648 L3.59609121,14.3843648 L3.44625407,14.534202 L3.44625407,15.3583062 L3.59609121,15.5081433 L14.7589577,15.5081433 L14.9087948,15.3583062 L14.9087948,14.534202 L14.7589577,14.3843648 Z M14.7589577,11.5374593 L3.59609121,11.5374593 L3.44625407,11.6872964 L3.44625407,12.5114007 L3.59609121,12.6612378 L14.7589577,12.6612378 L14.9087948,12.5114007 L14.9087948,11.6872964 L14.7589577,11.5374593 Z M14.7589577,8.69055375 L3.59609121,8.69055375 L3.44625407,8.84039088 L3.44625407,9.66449511 L3.59609121,9.81433225 L14.7589577,9.81433225 L14.9087948,9.66449511 L14.9087948,8.84039088 L14.7589577,8.69055375 Z M8.84039088,5.84364821 L3.67100977,5.84364821 L3.52117264,5.99348534 L3.52117264,6.81758958 L3.67100977,6.96742671 L8.84039088,6.96742671 L8.99022801,6.81758958 L8.99022801,5.99348534 L8.84039088,5.84364821 Z M12.1368078,0.0749185668 C12.2366992,0.0749185668 12.3116178,0.0998914224 12.3615635,0.149837134 L18.2801303,6.06840391 C18.3800217,6.16829533 18.4049946,6.26818675 18.3550489,6.36807818 C18.3051031,6.41802389 18.2301846,6.44299674 18.1302932,6.44299674 L13.6351792,6.44299674 C13.2356135,6.39305103 12.8610206,6.21824104 12.5114007,5.91856678 C12.1617807,5.61889251 11.9869707,5.26927253 11.9869707,4.86970684 L11.9869707,0.2247557 C11.9869707,0.124864278 12.0369164,0.0749185668 12.1368078,0.0749185668 Z" id="Combined-Shape"></path>
                </g>
            </g>
        </g>
    </g>
</svg>