<svg width="12" height="8" viewBox="0 0 12 8" fill="none" xmlns="http://www.w3.org/2000/svg">
<path fill-rule="evenodd" clip-rule="evenodd" d="M0.968201 2.63915L1.11737 2.4817C1.38325 2.20105 1.8263 2.18907 2.10695 2.45496C2.11153 2.45929 2.11605 2.46369 2.12051 2.46815L4.9989 5.34654C5.07467 5.42231 5.1967 5.4249 5.27562 5.35241L9.9133 1.09221C10.198 0.830675 10.6408 0.84946 10.9024 1.13417C10.9084 1.14079 10.9144 1.14752 10.9202 1.15436L11.0665 1.32652C11.3089 1.6116 11.2842 2.03684 11.0104 2.29194L5.48757 7.43948C5.29057 7.62309 4.98354 7.61769 4.79311 7.42727L0.981393 3.61555C0.713234 3.34739 0.707385 2.91446 0.968201 2.63915Z" fill="white"/>
</svg>
