<?xml version="1.0" encoding="UTF-8"?>
<svg width="32px" height="23px" viewBox="0 0 32 23" version="1.1" xmlns="http://www.w3.org/2000/svg" xmlns:xlink="http://www.w3.org/1999/xlink">
    <title>YOUTUBE</title>
    <g id="Логистика-2" stroke="none" stroke-width="1" fill="none" fill-rule="evenodd">
        <g id="Desktop-HD-Copy-9" transform="translate(-385.000000, -446.000000)">
            <g id="Group-12" transform="translate(142.000000, 166.000000)">
                <g id="Group-10" transform="translate(0.000000, 269.000000)">
                    <g id="Group-2-Copy" transform="translate(229.000000, 0.000000)">
                        <g id="YOUTUBE" transform="translate(15.000000, 12.000000)">
                            <path d="M1.35118134,19.2491795 C0.450393779,18.0743436 0,15.1904771 0,10.59758 C0,6.0046829 0.361666499,3.25595933 1.0849995,2.35140926 C1.57578292,1.6247027 2.04419637,1.12209858 2.49023984,0.843596906 C2.93628331,0.565095233 3.52368533,0.408466798 4.2524459,0.3737116 C9.28769355,0.124061017 13.1158484,-0.000509516056 15.7369104,0 C18.3579725,0.000511600069 21.8328269,0.12650469 26.1614738,0.377979271 C26.8531999,0.512826403 27.4690884,0.773626802 28.0091394,1.16038047 C28.5491903,1.54713413 28.9122398,2.04097572 29.098288,2.64190522 C29.6994293,4.04118067 30,6.5288418 30,10.1048886 C30,13.6809354 29.7768943,16.2828891 29.330683,17.9107495 C29.1013287,18.8030362 28.6608142,19.5144667 28.0091394,20.0450411 C27.3574645,20.5756155 26.4810743,20.8344179 25.3799686,20.8214484 C20.5672848,21.0623892 16.9577961,21.1786524 14.5515025,21.1702381 C12.1452088,21.1618238 8.69852829,21.0208865 4.21146095,20.7474264 C3.5985232,20.7474264 3.07678524,20.6433835 2.64624708,20.4352977 C2.21570892,20.227212 1.78402034,19.8318392 1.35118134,19.2491795 Z" id="Path-12" stroke="#1253A2"></path>
                            <path d="M11.9577002,6.03703757 L11.9614532,6.04003757 L20.0493585,10.3065067 L19.0609614,10.7778292 L11.9514532,14.4786659 L11.9574532,6.03803757 Z" id="Combined-Shape" fill="#1253A2"></path>
                        </g>
                    </g>
                </g>
            </g>
        </g>
    </g>
</svg>