<svg width="59" height="28" viewBox="0 0 59 28" xmlns="http://www.w3.org/2000/svg">
    <path d="M43.91.008c3.96-.118 6.862 1.086 9.208 2.842 2.113 1.582 4.052 4.053 4.87 7.093 1.107 4.12.537 6.592-.885 9.97-.495 1.177-1.79 2.735-2.552 3.504-4.601 4.64-11.988 5.506-17.611 1.852-.833-.541-2.793-2.16-3.195-2.806.207-.422 4.068-4.179 4.285-4.26.428.26.964.919 1.416 1.306.532.455.966.757 1.635 1.088 4.212 2.078 9.326-.062 10.751-3.883C54.92 8.437 44.91 2.552 38.83 8.601L25.39 22.04c-1.737 1.731-3.217 3.43-6.148 4.634C10.315 30.34.884 24.136.07 15.505-.503 9.448 2.497 4.19 7.63 1.654 12.992-.997 19.438.01 23.714 4.2l.774.777.33.332c1.518 1.52 4.079 4.052 4.434 4.155.31-.185 5.455-5.403 6.088-5.977 1.9-1.724 5.167-3.377 8.57-3.478zM8.79 8.155c-3.567 2.936-3.638 8.583.035 11.658 1.473 1.233 3.95 2.19 6.579 1.658 2.65-.535 3.745-1.845 5.163-3.26.577-.573 4.082-3.952 4.22-4.345-.257-.48-3.784-3.754-4.255-4.222-1.493-1.479-2.538-2.669-5.229-3.205-2.622-.523-4.991.463-6.513 1.716z" fill="#1253A2" fill-rule="evenodd"/>
</svg>
