<?xml version="1.0" encoding="UTF-8"?>
<svg width="59px" height="59px" viewBox="0 0 59 59" version="1.1" xmlns="http://www.w3.org/2000/svg" xmlns:xlink="http://www.w3.org/1999/xlink">
    <title>34123134Безымянный-1</title>
    <g id="Логистика-2" stroke="none" stroke-width="1" fill="none" fill-rule="evenodd">
        <g id="Desktop-HD-Copy-9" transform="translate(-162.000000, -1184.000000)">
            <g id="Group-17" transform="translate(142.000000, 894.000000)">
                <g id="Group-13-Copy" transform="translate(0.000000, 251.000000)">
                    <g id="34123134Безымянный-1" transform="translate(20.000000, 39.000000)">
                        <path d="M8.81947465,8.18429822 C12.3404448,6.87007454 15.5973922,9.41992275 15.6971271,12.7027234 C17.5453399,12.5613568 18.7277121,12.3819301 20.5927695,12.7210072 C22.7517276,13.1134166 25.1621815,14.2356601 26.7587385,15.6365854 C26.9214806,15.7793911 26.966897,15.8073499 27.1100493,15.9261149 C29.9720019,18.3004543 32.045591,22.1244937 33.8733345,25.280187 C35.4817519,28.0572238 37.5556342,32.6959332 40.1598008,34.4753817 C41.8881826,35.6563147 42.6054632,35.4907207 43.7459105,36.0695133 C48.0249134,38.2410248 47.9477802,43.5595142 43.7141936,45.1253138 C42.4587394,45.5896591 41.2125337,46.041371 39.9628365,46.4919635 C37.7182963,47.3013562 34.5613769,48.5398593 32.4237145,49.2260094 C32.7041021,51.7390767 32.5113756,53.1043672 31.3570155,54.9642273 C28.9065023,58.9123621 23.2817188,59.8669594 19.4727916,56.4400203 C19.2039979,56.1982793 18.9014885,55.8449962 18.6613733,55.5242829 L17.9650152,54.5111294 C17.4303597,54.6465257 16.7353609,54.947356 16.187992,55.1477319 L7.32211947,58.3714166 C5.96197299,58.8776868 4.92056753,59.2188962 3.37577034,58.7211548 C0.621468382,57.8338027 -0.238831198,55.0365097 0.493481562,52.4405788 C0.669260688,51.8173903 0.95557176,51.2969989 1.2662045,50.7730242 L1.45481306,50.4573582 C2.18371294,49.2391325 2.95006395,47.8893996 2.70494563,45.1138264 C2.47193761,42.4750859 1.74453897,39.546107 1.10269612,36.5371218 L0.956361258,35.841416 C-0.342232373,29.5690045 -1.07933619,23.0212348 3.94081003,18.0815814 C5.25207525,16.7913186 5.92940325,16.5870248 6.63964748,15.9860837 C6.5182439,15.7048166 6.25336822,15.3710967 6.07679332,15.0151217 C5.90584216,14.6702875 5.78894291,14.3190567 5.70674563,13.9176653 C5.20636567,11.4742418 6.58866064,9.01693217 8.81947465,8.18429822 Z M10.3035834,10.5945923 C8.45273191,10.9055773 7.92236753,12.9370016 8.61720643,14.0131624 C9.01702532,14.6325205 9.61730003,14.7906516 9.82596492,15.6841073 C10.0463304,16.6277503 9.54165934,17.3618221 9.02648707,17.7294444 C7.8420626,18.5745519 6.96158684,18.8516878 5.74899034,20.1464816 C4.74295316,21.22083 4.05627003,22.0889122 3.48107561,23.6349887 C1.29743709,29.5042585 4.3854323,37.264439 5.21545428,43.1952768 C5.78374561,47.256313 5.37923583,49.4623399 3.48395412,52.3587546 C2.81592795,53.3796108 2.48100867,55.7461676 4.38505916,56.1758376 C5.20681877,56.3613146 6.00797575,55.9579509 6.69692438,55.6992586 C12.9348293,53.3573823 19.313008,51.1618033 25.599341,48.8229655 C31.1911817,46.74258 36.7853145,44.7569985 42.3869101,42.7109951 C43.2206901,42.40654 43.6529188,42.20126 44.0116391,41.518868 C44.4848065,40.618909 44.0915709,39.9542944 43.6276786,39.3868293 C42.6594085,38.2024049 41.3205043,38.2564301 39.8115018,37.4438657 C37.0328925,35.9476566 35.9245352,34.2192748 34.26673,31.5398406 C32.0010275,27.877957 29.1564258,21.4871449 25.8650429,18.5119177 C25.7149343,18.3762283 25.6818315,18.3262276 25.5143985,18.16114 C25.3744179,18.0231051 25.2387284,17.9396285 25.0926177,17.8134541 C20.16222,13.5567329 15.5778291,16.1522374 13.9438782,15.3386868 C12.0474771,14.3944575 13.6655429,12.7051221 12.3767993,11.2751719 C11.9904934,10.846488 11.1588456,10.450907 10.3035834,10.5945923 Z M29.8214402,50.2028084 L20.6028976,53.5384882 C21.5468337,55.3097011 24.3203257,56.3894066 26.5871743,55.5070385 C28.5359216,54.7484461 30.0144599,52.9669452 29.8214402,50.2028084 Z" id="Combined-Shape" fill="#000000"></path>
                        <path d="M34.980679,0.0291230257 C34.3664649,0.0611597099 33.8408447,0.102125087 33.4859091,0.418520661 C33.1887569,0.6834763 32.9272128,1.28193862 33.1196995,1.8534816 C33.5267679,3.06205352 34.7726804,2.72095078 36.0676341,2.73425054 C42.4791555,2.79989642 47.8491914,5.74815092 51.4859148,10.2268101 C56.0143081,15.8035652 57.2341541,23.9574345 54.113376,30.8350869 C53.9027388,31.299219 53.5861033,31.7156426 53.7343196,32.3479273 C53.8436495,32.8144582 54.199278,33.2046021 54.665036,33.3352276 C55.9365618,33.6916824 56.3385929,32.5578183 56.7037898,31.6962394 C59.6970609,24.6346025 59.0660555,16.7256727 54.9803121,10.4440305 C54.4397397,9.61280917 53.9548717,8.95906891 53.3969216,8.25069038 L51.5548923,6.25689986 C47.2729575,2.28826898 41.4066995,-0.306462575 34.980679,0.0291230257" id="Fill-3" fill="#1253A2"></path>
                        <path d="M35.1800687,7.1329246 C34.7476801,7.15680553 34.4346694,7.15808486 34.1242441,7.39183005 C33.1119168,8.15399397 33.5557129,9.62083167 34.6085257,9.83501369 C35.5940935,10.0356028 36.7555433,9.57442912 39.4199186,10.3328883 C44.8018151,11.8649188 48.5689507,16.7076821 48.7371299,22.2538398 C48.7860912,23.8677477 48.5298243,25.4801098 48.0450896,26.876131 C47.8827206,27.343728 47.3580333,28.4021912 47.3237311,28.7813808 C47.2527813,29.5658265 47.8272828,30.2099984 48.5386731,30.2681548 C49.4460415,30.3423563 49.772352,29.7641501 50.0640404,29.1508422 C52.3030901,24.4432353 51.7378105,18.5775103 49.0669852,14.3727622 C46.1470093,9.77571118 40.9152482,6.81636911 35.1800687,7.1329246" id="Fill-4" fill="#1253A2"></path>
                        <path d="M34.9994959,14.3117272 C34.3121198,14.5289476 33.7657371,15.2858077 34.1584663,16.1682557 C34.5592713,17.0685878 35.3252733,16.8765543 36.3728622,16.964402 C40.3603099,17.2988682 42.6218546,21.424644 41.2322568,24.7968116 C41.056135,25.2242161 40.8538934,25.4782974 40.9348913,26.0202025 C41.0438214,26.7492902 41.8216305,27.3548955 42.6925912,27.0902597 C44.263748,26.6129078 45.2786339,21.6513795 43.0448881,18.1574353 C42.3297931,17.0388966 41.2336161,15.9070048 39.941994,15.2475076 C38.8871289,14.7089075 36.4349632,13.858043 34.9994959,14.3117272" id="Fill-5" fill="#1253A2"></path>
                    </g>
                </g>
            </g>
        </g>
    </g>
</svg>