<svg viewBox="0 0 1000 1000">
    <path
        d="M455.6 10.1C372 17.2 313.3 30 251.4 54.4c-67.5 26.7-121.6 61.4-164 105.3-38.9 40.4-61 79-73 127.3-3.6 15.3-4.4 23-4.4 48.9.2 40.2 5 61.9 22 98.5a325.1 325.1 0 0 0 68.3 91.3l8 6.7 15.2-10.2c8.2-5.8 16.3-10.7 17.6-11.3 1.6-.4-4.8-7.9-16.3-19-93.5-90.5-99.6-202-16.3-297 26.1-29.5 66.8-59.6 110.5-82 182.9-93.2 445.5-81.7 606.6 26.6 66 44.3 107 98.8 120 159.4 3.6 16.8 4.2 53.6 1 70-8.5 43.3-31.1 83-69 121-18.5 18.1-19.8 20-16.4 22.2 2 1.1 10.4 5.7 18.4 10.3l14.8 8.2 15.7-15.9c87.6-89.1 104.3-201.9 44.5-301-25.7-42.7-72.9-87.8-124.2-119C761 52.7 676 24.9 583 13.6c-23.4-2.7-108-5.2-127.4-3.5z">
    </path>
    <path
        d="M594.4 419a22.8 22.8 0 0 0-12.3 18.7c0 4 31 84.3 82.4 213 88.6 221.6 86.5 217.2 99.9 217.2a28 28 0 0 0 11.5-3.3c6-3.6 5.4-2.1 43.5-91.4l22.8-53.5 53.5-22.8c91.8-39.3 88-37.4 91.8-44.5 4.3-7.9 2.7-18-3.4-23.6-6.7-6.1-373.9-209.3-380.2-210.5-3-.4-7.4 0-9.5.8zM174.7 542.5a83.6 83.6 0 0 0-62.5 68 83.2 83.2 0 0 0 23 69.5 88.6 88.6 0 0 0 41 22.2c8.7 1.5 22.6 16 39 40.3 20.3 30.5 28.1 54.2 28.3 84.1 0 40.3-15.9 74.4-55.4 118.9a94 94 0 0 0-15.3 20.7c-1.8 6.9 3.4 17.8 10.3 21.3 12.5 6.5 19.8 3 39.1-19 46.8-53.5 67.9-108.7 61.2-160-5-36.7-18.8-68.7-44.3-102.4-5.4-7.3-7.7-11.7-6.3-12.3 5.7-2 21.3-16.1 26.8-24.4a76.5 76.5 0 0 0 14.4-47.9c0-13-1-19.7-4-27.8-8.3-21-27-39.9-48-48a93.3 93.3 0 0 0-47.3-3.2zm33.2 42.8a44 44 0 0 1 21.8 20.7c3 6 3.7 10.1 3 19.5a37.7 37.7 0 0 1-18.1 31.5c-6 4-9.2 4.8-21.7 4.8-12.4 0-15.7-.8-21.6-4.8-4-2.7-9.6-8.3-12.5-12.3-4.6-6.7-5.2-9.4-5.2-22.4 0-13.4.6-15.5 5.8-23a40.5 40.5 0 0 1 48.5-14zm106.9 32.2.6 21.3L328 642a721.1 721.1 0 0 0 272 14 180 180 0 0 0 20-3.6c.3-.6-2.5-9.2-6.6-19.6l-7.3-18.4-10.5 1.2c-40 4.8-54 5.5-94.1 5.5-62.1.2-114.3-6-166.2-19.3l-21.3-5.4.7 21z">
    </path>
</svg>