<svg width="400" height="400" viewBox="0 0 400 400" fill="none" xmlns="http://www.w3.org/2000/svg">
<rect width="400" height="400" fill="white"/>
<path fill-rule="evenodd" clip-rule="evenodd" d="M216.34 100L216.083 300L101.306 279.192L100 122.448L216.34 100ZM221.151 122.715L293.262 123.004C296.932 123.019 299.899 125.996 299.902 129.666L299.998 269.528C300.001 273.197 297.039 276.178 293.371 276.199L220.953 276.621L220.974 257.839L283.675 257.843V246.21L220.987 246.206L221 236.9L283.675 236.903V225.269L221.014 225.267L221.027 215.961L283.675 215.962V204.328L221.04 204.328L221.054 195.015L283.675 195.021V183.388L221.074 183.382L221.087 171.75L283.675 171.754V160.12L221.1 160.117L221.114 150.811L283.675 150.813V139.179L221.127 139.178L221.151 122.715ZM119.036 214V183.41C121.198 183.042 124.234 182.766 128.512 182.766C132.836 182.766 135.918 183.594 137.988 185.25C140.012 186.814 141.3 189.39 141.3 192.426C141.3 195.462 140.334 198.084 138.448 199.786C136.056 201.994 132.514 203.052 128.374 203.052C127.454 203.052 126.626 203.006 125.982 202.868V214H119.036ZM125.982 188.332V197.486C126.58 197.624 127.27 197.67 128.328 197.67C132.054 197.67 134.354 195.784 134.354 192.656C134.354 189.804 132.376 188.102 128.834 188.102C127.454 188.102 126.488 188.194 125.982 188.332ZM145.762 213.862V183.456C148.338 183.042 151.696 182.766 155.192 182.766C161.126 182.766 164.99 183.87 167.934 186.078C171.154 188.47 173.178 192.288 173.178 197.762C173.178 203.696 171.016 207.79 168.072 210.32C164.806 213.034 159.792 214.322 153.72 214.322C150.086 214.322 147.464 214.092 145.762 213.862ZM152.754 188.424V208.71C153.352 208.848 154.364 208.848 155.192 208.848C161.586 208.894 165.772 205.398 165.772 197.992C165.772 191.552 162 188.148 155.928 188.148C154.41 188.148 153.352 188.286 152.754 188.424ZM177.824 214H184.816V201.534H195.948V195.83H184.816V188.746H196.73V182.996H177.824V214Z" fill="#BA0805"/>
</svg>
