<svg width="400" height="400" viewBox="0 0 400 400" fill="none" xmlns="http://www.w3.org/2000/svg">
<rect width="400" height="400" fill="white"/>
<g clip-path="url(#clip0_792_91)">
<g clip-path="url(#clip1_792_91)">
<path fill-rule="evenodd" clip-rule="evenodd" d="M216.34 100L216.083 300L101.306 279.192L100 122.448L216.34 100ZM221.151 122.715L285.679 122.974C293.542 123.005 299.902 129.386 299.907 137.249L299.993 261.948C299.998 269.809 293.651 276.197 285.79 276.243L220.953 276.621L220.971 257.843L283.675 257.843V246.21L220.986 246.207L221 236.9L283.675 236.903V225.269L221.014 225.264L221.029 215.957L283.675 215.962V204.328L221.043 204.321L221.057 195.014L283.675 195.021V183.388L221.071 183.386L221.086 171.75L283.675 171.754V160.12L221.1 160.114L221.114 150.807L283.675 150.813V139.179L221.129 139.179L221.151 122.715Z" fill="#A6B7D4"/>
<path d="M161.911 215.287V212.786C161.683 207.329 163.389 202.667 167.937 197.437C172.825 191.866 177.714 186.295 177.714 177.996C177.714 168.9 171.234 160.714 157.136 160.714C149.859 160.714 143.379 162.761 139.286 165.376L142.697 175.381C145.539 173.221 150.087 171.97 154.066 171.97C160.433 172.084 163.503 175.267 163.503 180.042C163.503 184.476 160.546 188.456 156.226 193.686C150.883 200.052 148.836 206.306 149.404 212.331L149.518 215.287H161.911ZM155.317 239.959C160.66 239.959 164.071 236.093 164.071 231.091C163.957 225.861 160.546 222.223 155.43 222.223C150.428 222.223 146.79 225.861 146.79 231.091C146.79 236.093 150.314 239.959 155.317 239.959Z" fill="white"/>
</g>
</g>
<defs>
<clipPath id="clip0_792_91">
<rect width="200" height="200" fill="white" transform="translate(100 100)"/>
</clipPath>
<clipPath id="clip1_792_91">
<rect width="200" height="200" fill="white" transform="translate(100 100)"/>
</clipPath>
</defs>
</svg>
