<svg width="400" height="400" viewBox="0 0 400 400" fill="none" xmlns="http://www.w3.org/2000/svg">
<rect width="400" height="400" fill="white"/>
<g clip-path="url(#clip0_792_66)">
<g clip-path="url(#clip1_792_66)">
<path fill-rule="evenodd" clip-rule="evenodd" d="M216.34 100L216.083 300L101.306 279.192L100 122.448L216.34 100ZM221.151 122.715L285.679 122.974C293.542 123.005 299.902 129.386 299.907 137.249L299.993 261.948C299.998 269.809 293.651 276.197 285.79 276.243L220.953 276.621L220.971 257.843L283.675 257.843V246.21L220.986 246.207L221 236.9L283.675 236.903V225.269L221.014 225.264L221.029 215.957L283.675 215.962V204.328L221.043 204.321L221.057 195.014L283.675 195.021V183.388L221.071 183.386L221.086 171.75L283.675 171.754V160.12L221.1 160.114L221.114 150.807L283.675 150.813V139.179L221.129 139.179L221.151 122.715Z" fill="#2C5897"/>
<path fill-rule="evenodd" clip-rule="evenodd" d="M138.923 227.213L148.64 227.418L156.899 191.443L164.872 228.271L176.252 228.648L187.928 174.908L177.549 175.42L170.589 213.694L162.481 176.794H152.426L144.644 213.157L138.452 177.659H128.694L138.923 227.213Z" fill="white"/>
</g>
</g>
<defs>
<clipPath id="clip0_792_66">
<rect width="200" height="200" fill="white" transform="translate(100 100)"/>
</clipPath>
<clipPath id="clip1_792_66">
<rect width="200" height="200" fill="white" transform="translate(100 100)"/>
</clipPath>
</defs>
</svg>
