<svg width="30" height="30" viewBox="0 0 30 30" fill="none" xmlns="http://www.w3.org/2000/svg">
    <circle cx="15" cy="15" r="14" stroke="#A6B7D4" stroke-width="2"/>
    <path d="M22.5572 9.35728C22.7276 9.53831 22.8191 9.77959 22.8116 10.0281C22.8041 10.2765 22.6982 10.5119 22.5172 10.6823L12.6047 20.0248C12.4026 20.2151 12.1341 20.3187 11.8566 20.3136C11.5791 20.3085 11.3146 20.1949 11.1197 19.9973L7.76971 16.5973C7.681 16.5101 7.61051 16.4062 7.56237 16.2915C7.51422 16.1768 7.48937 16.0537 7.48926 15.9294C7.48915 15.805 7.51379 15.6819 7.56174 15.5671C7.60969 15.4524 7.67999 15.3483 7.76855 15.261C7.85711 15.1737 7.96216 15.1048 8.07758 15.0585C8.19299 15.0122 8.31648 14.9893 8.44083 14.9912C8.56518 14.993 8.68792 15.0196 8.8019 15.0694C8.91587 15.1191 9.01881 15.1911 9.10471 15.281L11.8972 18.1148L21.2322 9.31728C21.4132 9.14692 21.6545 9.05543 21.903 9.06293C22.1515 9.07043 22.3868 9.17631 22.5572 9.35728Z" fill="#A6B7D4"/>
</svg>
