<svg width="15" height="15" viewBox="0 0 15 15" fill="none" xmlns="http://www.w3.org/2000/svg">
<g clip-path="url(#clip0_1269_2)">
<path d="M6.8344 0.151395C5.58039 0.257895 4.69989 0.449895 3.77139 0.815895C2.75889 1.21639 1.94739 1.73689 1.31139 2.39539C0.727891 3.00139 0.396391 3.58039 0.216391 4.30489C0.162391 4.53439 0.150391 4.64989 0.150391 5.03839C0.153391 5.64139 0.225391 5.96689 0.480391 6.51589C0.738547 7.02918 1.08538 7.49281 1.50489 7.88539L1.62489 7.98589L1.85289 7.83289C1.97589 7.74589 2.09739 7.67239 2.11689 7.66339C2.14089 7.65739 2.04489 7.54489 1.87239 7.37839C0.469891 6.02089 0.378391 4.34839 1.62789 2.92339C2.01939 2.48089 2.62989 2.02939 3.28539 1.69339C6.02889 0.295395 9.9679 0.467895 12.3844 2.09239C13.3744 2.75689 13.9894 3.57439 14.1844 4.48339C14.2384 4.73539 14.2474 5.28739 14.1994 5.53339C14.0719 6.18289 13.7329 6.77839 13.1644 7.34839C12.8869 7.61989 12.8674 7.64839 12.9184 7.68139C12.9484 7.69789 13.0744 7.76689 13.1944 7.83589L13.4164 7.95889L13.6519 7.72039C14.9659 6.38389 15.2164 4.69189 14.3194 3.20539C13.9339 2.56489 13.2259 1.88839 12.4564 1.42039C11.4154 0.790395 10.1404 0.373395 8.7454 0.203895C8.3944 0.163395 7.1254 0.125895 6.8344 0.151395Z" fill="#1253A2"/>
<path d="M8.91639 6.28483C8.86412 6.31177 8.81967 6.35174 8.78735 6.40088C8.75503 6.45001 8.73593 6.50665 8.73189 6.56533C8.73189 6.62533 9.19689 7.82983 9.96789 9.76033C11.2969 13.0843 11.2654 13.0183 11.4664 13.0183C11.5268 13.0144 11.5856 12.9976 11.6389 12.9688C11.7289 12.9148 11.7199 12.9373 12.2914 11.5978L12.6334 10.7953L13.4359 10.4533C14.8129 9.86383 14.7559 9.89233 14.8129 9.78583C14.8774 9.66733 14.8534 9.51583 14.7619 9.43183C14.6614 9.34033 9.15339 6.29233 9.05889 6.27433C9.01389 6.26833 8.94789 6.27433 8.91639 6.28633V6.28483ZM2.62089 8.13733C2.3817 8.19644 2.16523 8.32471 1.9985 8.50611C1.83177 8.68751 1.72217 8.91401 1.68339 9.15733C1.6576 9.3459 1.67527 9.53787 1.73507 9.71856C1.79487 9.89925 1.8952 10.0639 2.02839 10.1998C2.19998 10.3637 2.41234 10.4787 2.64339 10.5328C2.77389 10.5553 2.98239 10.7728 3.22839 11.1373C3.53289 11.5948 3.64989 11.9503 3.65289 12.3988C3.65289 13.0033 3.41439 13.5148 2.82189 14.1823C2.73151 14.2748 2.65429 14.3793 2.59239 14.4928C2.56539 14.5963 2.64339 14.7598 2.74689 14.8123C2.93439 14.9098 3.04389 14.8573 3.33339 14.5273C4.03539 13.7248 4.35189 12.8968 4.25139 12.1273C4.17639 11.5768 3.96939 11.0968 3.58689 10.5913C3.50589 10.4818 3.47139 10.4158 3.49239 10.4068C3.57789 10.3768 3.81189 10.1653 3.89439 10.0408C4.04486 9.8323 4.12093 9.57926 4.11039 9.32233C4.11039 9.12733 4.09539 9.02683 4.05039 8.90533C3.92589 8.59033 3.64539 8.30683 3.33039 8.18533C3.10197 8.10851 2.85758 8.09197 2.62089 8.13733ZM3.11889 8.77933C3.26096 8.84123 3.37672 8.95115 3.44589 9.08983C3.49089 9.17983 3.50139 9.24133 3.49089 9.38233C3.4891 9.47758 3.46327 9.57083 3.41581 9.65344C3.36835 9.73604 3.30078 9.80531 3.21939 9.85483C3.12939 9.91483 3.08139 9.92683 2.89389 9.92683C2.70789 9.92683 2.65839 9.91483 2.56989 9.85483C2.50989 9.81433 2.42589 9.73033 2.38239 9.67033C2.31339 9.56983 2.30439 9.52933 2.30439 9.33433C2.30439 9.13333 2.31339 9.10183 2.39139 8.98933C2.47097 8.87713 2.58627 8.79527 2.71842 8.75712C2.85058 8.71897 2.99176 8.7268 3.11889 8.77933ZM4.72239 9.26233L4.73139 9.58183L4.92039 9.62983C6.2547 9.95836 7.6394 10.0296 9.00039 9.83983C9.10133 9.82749 9.20149 9.80946 9.30039 9.78583C9.30489 9.77683 9.26289 9.64783 9.20139 9.49183L9.09189 9.21583L8.93439 9.23383C8.33439 9.30583 8.12439 9.31633 7.52289 9.31633C6.59139 9.31933 5.80839 9.22633 5.02989 9.02683L4.71039 8.94583L4.72089 9.26083L4.72239 9.26233Z" fill="#1253A2"/>
<path d="M3.69381 1.36815L3.67935 1.38546L3.66651 1.404C3.41321 1.76965 3.44878 2.2746 3.77459 2.60041L3.77459 2.60042L6.17426 5L3.77459 7.39958L3.77459 7.39959C3.40847 7.7657 3.40847 8.3593 3.77459 8.72541C4.1407 9.09153 4.7343 9.09153 5.10041 8.72541L5.10042 8.72541L7.5 6.32574L9.89958 8.72541L9.9154 8.74122L9.93257 8.75557L9.99316 8.80619L10.0105 8.82065L10.029 8.83349C10.3946 9.08679 10.8996 9.05123 11.2254 8.72541L11.2412 8.7096L11.2556 8.69243L11.3062 8.63184L11.3206 8.61454L11.3335 8.596C11.5868 8.23035 11.5512 7.7254 11.2254 7.39959L11.2254 7.39958L8.82574 5L11.2254 2.60042L11.2254 2.60041C11.5915 2.2343 11.5915 1.6407 11.2254 1.27459C10.8593 0.908471 10.2657 0.908471 9.89959 1.27459L9.89958 1.27459L7.5 3.67426L5.10042 1.27459L5.0846 1.25878L5.06744 1.24444L5.00685 1.19381L4.98954 1.17935L4.971 1.16651C4.60535 0.913205 4.1004 0.948775 3.77459 1.27459L3.75877 1.2904L3.74444 1.30756L3.69381 1.36815ZM10.3137 8.42248L10.2531 8.37186H10.8719C10.72 8.52373 10.4842 8.5406 10.3137 8.42248Z" fill="#AD0B0A" stroke="white"/>
</g>
<defs>
<clipPath id="clip0_1269_2">
<rect width="15" height="15" fill="white"/>
</clipPath>
</defs>
</svg>
