<svg width="48" height="48" viewBox="0 0 48 48" fill="none" xmlns="http://www.w3.org/2000/svg">
<g clip-path="url(#clip0_1876_60)">
<path d="M48 0H0V48H48V0Z" fill="white"/>
<path fill-rule="evenodd" clip-rule="evenodd" d="M25.9608 12L25.93 36L12.1567 33.503L12 14.6938L25.9608 12ZM26.5381 14.7258L35.1914 14.7605C35.6318 14.7623 35.9879 15.1195 35.9882 15.5599L35.9998 32.3434C36.0001 32.7836 35.6447 33.1414 35.2045 33.1439L26.5144 33.1945L26.5169 30.9407L34.041 30.9412V29.5452L26.5184 29.5447L26.52 28.428L34.041 28.4284V27.0323L26.5217 27.032L26.5232 25.9153L34.041 25.9154V24.5194H26.5248L26.5265 23.4018L34.041 23.4025V22.0066L26.5289 22.0058L26.5304 20.61L34.041 20.6105V19.2144L26.532 19.214L26.5337 18.0973L34.041 18.0976V16.7015L26.5352 16.7014L26.5381 14.7258ZM14.2843 25.68V22.0092C14.5438 21.965 14.9081 21.9319 15.4214 21.9319C15.9403 21.9319 16.3102 22.0313 16.5586 22.23C16.8014 22.4177 16.956 22.7268 16.956 23.0911C16.956 23.4554 16.8401 23.7701 16.6138 23.9743C16.3267 24.2393 15.9017 24.3662 15.4049 24.3662C15.2945 24.3662 15.1951 24.3607 15.1178 24.3442V25.68H14.2843ZM15.1178 22.5998V23.6983C15.1896 23.7149 15.2724 23.7204 15.3994 23.7204C15.8465 23.7204 16.1225 23.4941 16.1225 23.1187C16.1225 22.7765 15.8851 22.5722 15.4601 22.5722C15.2945 22.5722 15.1786 22.5833 15.1178 22.5998ZM17.4914 25.6634V22.0147C17.8006 21.965 18.2035 21.9319 18.623 21.9319C19.3351 21.9319 19.7988 22.0644 20.1521 22.3294C20.5385 22.6164 20.7814 23.0746 20.7814 23.7314C20.7814 24.4435 20.5219 24.9348 20.1686 25.2384C19.7767 25.5641 19.175 25.7186 18.4464 25.7186C18.0103 25.7186 17.6957 25.691 17.4914 25.6634ZM18.3305 22.6109V25.0452C18.4022 25.0618 18.5237 25.0618 18.623 25.0618C19.3903 25.0673 19.8926 24.6478 19.8926 23.759C19.8926 22.9862 19.44 22.5778 18.7114 22.5778C18.5292 22.5778 18.4022 22.5943 18.3305 22.6109ZM21.3389 25.68H22.1779V24.1841H23.5138V23.4996H22.1779V22.6495H23.6076V21.9595H21.3389V25.68Z" fill="#BA0805"/>
</g>
<defs>
<clipPath id="clip0_1876_60">
<rect width="48" height="48" fill="white"/>
</clipPath>
</defs>
</svg>
