<svg xmlns="http://www.w3.org/2000/svg" width="12" height="12" viewBox="0 0 12 12" fill="none">
    <path
        d="M10.3535 2.35359L10.7071 2.70714L11.0606 2.35359L10.7071 2.00004L10.3535 2.35359ZM2.35353 10.3536L1.99998 10.7071L2.35353 11.0607L2.70708 10.7071L2.35353 10.3536ZM9.64642 1.64648L9.99998 1.29293L9.64642 0.939378L9.29287 1.29293L9.64642 1.64648ZM1.64642 9.64648L1.29287 9.29293L0.939317 9.64648L1.29287 10L1.64642 9.64648ZM5.35353 10.3536L4.99998 10.7071L5.35353 11.0607L5.70708 10.7071L5.35353 10.3536ZM10.3535 5.35359L10.7071 5.70714L11.0606 5.35359L10.7071 5.00004L10.3535 5.35359ZM4.64642 9.64648L4.29287 9.29293L3.93932 9.64648L4.29287 10L4.64642 9.64648ZM9.64642 4.64648L9.99998 4.29293L9.64642 3.93938L9.29287 4.29293L9.64642 4.64648ZM8.35353 10.3536L7.99998 10.7071L8.35353 11.0607L8.70708 10.7071L8.35353 10.3536ZM10.3535 8.35359L10.7071 8.70714L11.0606 8.35359L10.7071 8.00004L10.3535 8.35359ZM7.64642 9.64648L7.29287 9.29293L6.93932 9.64648L7.29287 10L7.64642 9.64648ZM9.64642 7.64648L9.99998 7.29293L9.64642 6.93938L9.29287 7.29293L9.64642 7.64648ZM9.99998 2.00004L1.99998 10L2.70708 10.7071L10.7071 2.70714L9.99998 2.00004ZM9.29287 2.00004L9.99998 2.70714L10.7071 2.00004L9.99998 1.29293L9.29287 2.00004ZM1.99998 10L9.99998 2.00004L9.29287 1.29293L1.29287 9.29293L1.99998 10ZM2.70708 10L1.99998 9.29293L1.29287 10L1.99998 10.7071L2.70708 10ZM5.70708 10.7071L10.7071 5.70714L9.99998 5.00004L4.99998 10L5.70708 10.7071ZM4.29287 10L4.99998 10.7071L5.70708 10L4.99998 9.29293L4.29287 10ZM9.29287 4.29293L4.29287 9.29293L4.99998 10L9.99998 5.00004L9.29287 4.29293ZM10.7071 5.00004L9.99998 4.29293L9.29287 5.00004L9.99998 5.70714L10.7071 5.00004ZM8.70708 10.7071L10.7071 8.70714L9.99998 8.00004L7.99998 10L8.70708 10.7071ZM7.29287 10L7.99998 10.7071L8.70708 10L7.99998 9.29293L7.29287 10ZM9.29287 7.29293L7.29287 9.29293L7.99998 10L9.99998 8.00004L9.29287 7.29293ZM10.7071 8.00004L9.99998 7.29293L9.29287 8.00004L9.99998 8.70714L10.7071 8.00004Z"
        fill="#A6B7D4" />
</svg>