<svg width="400" height="400" viewBox="0 0 400 400" fill="none" xmlns="http://www.w3.org/2000/svg">
<rect width="400" height="400" fill="white"/>
<g clip-path="url(#clip0_792_85)">
<path fill-rule="evenodd" clip-rule="evenodd" d="M221.129 123.256L290.418 123.533C295.661 123.554 299.9 127.807 299.904 133.05L299.996 266.808C300 272.049 295.768 276.309 290.528 276.339L220.932 276.744L221.129 123.256ZM100 122.447L216.342 100L216.084 300L101.306 279.192L100 122.447ZM251.165 244.185H283.723V260.465H251.165V244.185ZM251.165 218.604H283.723V234.884H251.165V218.604ZM251.165 193.022H283.723V209.303H251.165V193.022ZM251.165 167.441H283.723V183.722H251.165V167.441ZM251.165 139.535H283.723V155.813H251.165V139.535ZM220.955 244.185H241.862V260.465H220.955V244.185ZM220.932 218.604H241.862V234.884H220.932V218.604ZM221.058 193.022H241.862V209.303H221.058V193.022ZM221.058 167.441H241.862V183.722H221.058V167.441ZM221.058 139.535H241.862V155.813H221.058V139.535ZM132.559 163.953H150.001L159.303 189.535L169.768 161.628H189.536L169.768 201.163L189.536 240.697H170.931L159.303 212.791L148.838 239.535H131.396L150.001 202.325L132.559 163.953Z" fill="#207347"/>
</g>
<defs>
<clipPath id="clip0_792_85">
<rect width="200" height="200" fill="white" transform="translate(100 100)"/>
</clipPath>
</defs>
</svg>
