<svg width="631" height="422" viewBox="0 0 631 422" xmlns="http://www.w3.org/2000/svg">
    <defs>
        <radialGradient cx="10.968%" cy="-14.947%" fx="10.968%" fy="-14.947%" r="263.186%" gradientTransform="scale(1 .6301) rotate(55.515 .193 -.193)" id="68cuiwqz8a">
            <stop stop-color="#0E1B2F" offset="0%"/>
            <stop stop-color="#27425F" offset="100%"/>
        </radialGradient>
        <radialGradient cx="92.013%" cy="36.611%" fx="92.013%" fy="36.611%" r="461.886%" gradientTransform="scale(-.1806 -1) rotate(-3.928 -12.763 87.7)" id="oq1s3w004e">
            <stop stop-color="#E5B873" offset="0%"/>
            <stop stop-color="#F5CB8C" offset="100%"/>
        </radialGradient>
        <radialGradient cx="92.013%" cy="36.611%" fx="92.013%" fy="36.611%" r="142.442%" gradientTransform="matrix(-.58423 .22213 -.1331 -.97502 1.506 .519)" id="5l4kdu8dyf">
            <stop stop-color="#E5B873" offset="0%"/>
            <stop stop-color="#F5CB8C" offset="100%"/>
        </radialGradient>
        <radialGradient cx="10.968%" cy="-14.947%" fx="10.968%" fy="-14.947%" r="272.838%" gradientTransform="scale(1 .5981) rotate(56.896 .202 -.2)" id="hajykrvyah">
            <stop stop-color="#0E1B2F" offset="0%"/>
            <stop stop-color="#27425F" offset="100%"/>
        </radialGradient>
        <radialGradient cx="10.968%" cy="-14.947%" fx="10.968%" fy="-14.947%" r="388.421%" gradientTransform="scale(1 .3811) rotate(67.441 .292 -.27)" id="y7b795iwi">
            <stop stop-color="#0E1B2F" offset="0%"/>
            <stop stop-color="#27425F" offset="100%"/>
        </radialGradient>
        <radialGradient cx="10.968%" cy="-14.947%" fx="10.968%" fy="-14.947%" r="209.075%" gradientTransform="matrix(.71273 .65374 -.70144 .66426 -.073 -.122)" id="jzaxo2fism">
            <stop stop-color="#0E1B2F" offset="0%"/>
            <stop stop-color="#27425F" offset="100%"/>
        </radialGradient>
        <radialGradient cx="10.968%" cy="-14.947%" fx="10.968%" fy="-14.947%" r="209.078%" gradientTransform="matrix(.71271 .65376 -.70145 .66425 -.073 -.122)" id="559o61xdon">
            <stop stop-color="#0E1B2F" offset="0%"/>
            <stop stop-color="#27425F" offset="100%"/>
        </radialGradient>
        <linearGradient x1="73.989%" y1="42.183%" x2="1.527%" y2="67.429%" id="hxwpbuaiob">
            <stop stop-color="#FFD89D" offset="0%"/>
            <stop stop-color="#E2B46E" offset="100%"/>
        </linearGradient>
        <linearGradient x1="73.989%" y1="42.084%" x2="1.527%" y2="67.649%" id="oic3xmqsoc">
            <stop stop-color="#FFD89D" offset="0%"/>
            <stop stop-color="#E2B46E" offset="100%"/>
        </linearGradient>
        <linearGradient x1="1.609%" y1="36.036%" x2="88.725%" y2="61.881%" id="hm0rauycjd">
            <stop stop-color="#FDD59A" offset="0%"/>
            <stop stop-color="#E5B874" offset="100%"/>
        </linearGradient>
        <linearGradient x1="88.946%" y1="68.042%" x2="65.32%" y2="47.522%" id="iymz8r81jg">
            <stop stop-color="#FED79B" offset="0%"/>
            <stop stop-color="#E7BA76" offset="100%"/>
        </linearGradient>
        <linearGradient x1=".083%" y1="35.111%" x2="98.481%" y2="67.214%" id="0k6z0xapij">
            <stop stop-color="#EFC483" offset="0%"/>
            <stop stop-color="#EEC382" offset="100%"/>
        </linearGradient>
        <filter x="-1.1%" y="-.9%" width="102.1%" height="101.8%" filterUnits="objectBoundingBox" id="u4z56579tk">
            <feGaussianBlur stdDeviation="1" in="SourceGraphic"/>
        </filter>
        <filter x="-1.1%" y="-.9%" width="102.1%" height="101.8%" filterUnits="objectBoundingBox" id="ffofzunfel">
            <feGaussianBlur stdDeviation="1" in="SourceGraphic"/>
        </filter>
    </defs>
    <g fill="none" fill-rule="evenodd">
        <path fill="#E7E2DE" d="m170.076 154.98 24.838 14.359 25.202-14.378-24.879-14.376z"/>
        <path fill="#E7E2DE" d="m176.018 152.642 18.958 10.963 19.24-10.977-18.992-10.972z"/>
        <path fill="#192C44" d="m183.238 152.638 11.791 6.819 11.968-6.829-11.813-6.824z"/>
        <path fill="#BFBAB7" d="m184.635 152.638 10.406 6.014 10.558-6.024-10.423-6.022z"/>
        <path fill="#B7B3AF" d="M170.076 217.772V154.98l24.838 14.359v62.791z"/>
        <path fill="#BFBAB7" d="m194.913 169.339 25.203-14.378v62.791l-25.203 14.378z"/>
        <path d="m209.928 164.58 2.218-1.32v9.737l-2.218 1.262v-9.68zm-35.28 36.608-2.218-1.323v19.315l2.218 1.26v-19.252zm4.138 2.392-2.219-1.322v19.315l2.219 1.26V203.58zm4.228 2.446-2.215-1.322v19.314l2.215 1.26v-19.252zm3.964 2.29-2.216-1.32v19.314l2.216 1.26v-19.255zm4.033 2.333-2.218-1.323v19.315l2.218 1.26v-19.252zm6.735.43 2.218-1.32v19.315l-2.218 1.26V211.08zm4.062-2.316 2.216-1.322v19.315l-2.216 1.262v-19.255zm3.973-2.268 2.219-1.32v19.313l-2.219 1.262v-19.255zm8.547-4.836 2.219-1.32v19.315l-2.219 1.26V201.66zm-4.4 2.472 2.218-1.322v19.315l-2.218 1.26V204.13zm-35.28-16.462-2.218-1.322v9.739l2.218 1.262v-9.679zm4.138 2.393-2.219-1.322v9.739l2.219 1.262v-9.679zm4.228 2.446-2.215-1.323v9.74l2.215 1.261v-9.678zm3.964 2.29-2.216-1.32v9.738l2.216 1.26v-9.679zm4.033 2.332-2.218-1.322v9.739l2.218 1.262v-9.68zm6.735.431 2.218-1.32v9.74l-2.218 1.259v-9.679zm4.062-2.316 2.216-1.32v9.737l-2.216 1.262v-9.679zm3.973-2.268 2.219-1.32v9.736l-2.219 1.263v-9.68zm8.547-4.836 2.219-1.32v9.739l-2.219 1.26v-9.679zm-4.4 2.472 2.218-1.322v9.739l-2.218 1.26v-9.677zm-35.28-15.66-2.218-1.32v9.737l2.218 1.262v-9.678zm4.138 2.393-2.219-1.32v9.737l2.219 1.262v-9.679zm4.228 2.445-2.215-1.32v9.737l2.215 1.262v-9.679zm3.964 2.293-2.216-1.323v9.74l2.216 1.261v-9.678zm4.033 2.33-2.218-1.32v9.737l2.218 1.262v-9.679zm6.735.434 2.218-1.322v9.738l-2.218 1.263v-9.68zm4.062-2.319 2.216-1.32v9.739l-2.216 1.26v-9.679zm3.973-2.268 2.219-1.32v9.739l-2.219 1.26v-9.679zm8.547-4.834 2.219-1.321v9.738l-2.219 1.262v-9.679zm-4.4 2.47 2.218-1.32v9.737l-2.218 1.262v-9.679zm-35.28-16.261-2.218-1.32v9.737l2.218 1.262v-9.679zm4.138 2.393-2.219-1.322v9.739l2.219 1.262v-9.679zm4.228 2.445-2.215-1.32v9.737l2.215 1.262v-9.679zm3.964 2.293-2.216-1.323v9.74l2.216 1.26v-9.677zm4.033 2.33-2.218-1.32v9.737l2.218 1.262v-9.679zm6.735.433 2.218-1.321v9.738l-2.218 1.26v-9.677zm4.062-2.318 2.216-1.32v9.739l-2.216 1.26v-9.679zm3.973-2.268 2.219-1.32v9.739l-2.219 1.26v-9.679zm8.547-4.834 2.219-1.322v9.739l-2.219 1.26v-9.677z" fill="url(#68cuiwqz8a)" transform="translate(.228)"/>
        <path fill="#B7B3AF" d="M176.018 155.586v-2.944l18.958 10.963v2.944z"/>
        <path fill="#BFBAB7" d="m194.976 163.605 19.24-10.977v2.946l-19.24 10.975z"/>
        <path fill="url(#hxwpbuaiob)" d="m77.424 350.66 15.178 8.716L624.772 52l-15.1-9.171z" transform="translate(.228)"/>
        <path fill="url(#oic3xmqsoc)" d="m30.3 354.942 15.178 8.718L598.772 42l-15.101-9.171z" transform="translate(.228)"/>
        <path fill="url(#hm0rauycjd)" d="m324.746 173.497 291.56 161.32L630 327.009l-290.97-161.48z" transform="translate(.228)"/>
        <path fill="url(#oq1s3w004e)" d="m273.99 177.274 50.756-3.777 14.285-7.969-50.757 3.78z" transform="translate(.228)"/>
        <path fill="url(#5l4kdu8dyf)" d="M47.487 40.969 273.99 177.274l14.285-7.966L61.772 33z" transform="translate(.228)"/>
        <path fill-opacity=".97" fill="url(#iymz8r81jg)" d="m183.487 40.969 191.012 115.35 13.695-7.809L197.772 33z" transform="translate(.228)"/>
        <path fill="#E8BD7B" d="m322.585 110.91 15.178 8.718L540.11 9.08 524.708 0z"/>
        <path fill="#DBF0D4" d="m507.394 169.384-26.224 5.375-3.777 10.438 7.014 12.85-15.916 14.187-.538 12.313 21.85 14.455 30.215 4.82 19.344 15.59 62.307-35.55zM584.057 93.295l-58.547 35.7 17.135 10.948 56.644-36.176z"/>
        <path fill="#E7E2DE" d="m269.274 94.835 22.66 13.1 22.992-13.117-22.697-13.115z"/>
        <path fill="#E7E2DE" d="m273.023 89.746 18.96 10.962 19.238-10.977L292.23 78.76z"/>
        <path fill="#14243A" d="m280.243 89.741 11.794 6.819 11.965-6.829-11.813-6.824z"/>
        <path fill="#BFBAB7" d="m281.64 89.741 10.406 6.014 10.558-6.024-10.422-6.021z"/>
        <path fill="#B7B3AF" d="M269.274 152.12V94.835l22.66 13.1v57.284z"/>
        <path fill="#BFBAB7" d="m291.935 107.934 22.991-13.116v57.286l-22.991 13.115z"/>
        <path d="m305.613 100.052 2.022-1.205v57.115l-2.022 1.15v-57.06zm-32.186-2.685-2.023-1.205v57.115l2.023 1.15v-57.06zm3.775 2.182-2.025-1.205v57.115l2.025 1.152V99.549zm3.857 2.232-2.022-1.204v57.114l2.022 1.15v-57.06zm3.616 2.091-2.023-1.207v57.117l2.023 1.15v-57.06zm3.679 2.125-2.023-1.205v57.115l2.023 1.152v-57.062zm6.146.395 2.022-1.205v57.115l-2.022 1.152v-57.062zm3.705-2.113 2.022-1.204v57.115l-2.022 1.15v-57.06zm3.625-2.069 2.023-1.205v57.115l-2.023 1.15v-57.06zm7.797-4.412 2.022-1.205v57.115l-2.022 1.15v-57.06z" fill="url(#hajykrvyah)" transform="translate(.228)"/>
        <path fill="#B7B3AF" d="M273.023 92.69v-2.944l18.96 10.962v2.944z"/>
        <path fill="#BFBAB7" d="m291.983 100.708 19.238-10.977v2.946l-19.238 10.975z"/>
        <path fill="#E7E2DE" d="m228.033 67.921 22.658 13.1 22.994-13.117-22.697-13.116z"/>
        <path fill-opacity=".69" fill="#1E344E" d="m231.781 62.831 18.958 10.963 19.238-10.977-18.99-10.972z"/>
        <path fill="#EF7F1A" d="m239 62.826 11.792 6.82 11.965-6.829-11.81-6.824z"/>
        <path fill="#5B5B5B" d="m240.398 62.826 10.403 6.015 10.56-6.024-10.422-6.022z"/>
        <path fill="#B7B3AF" d="M228.033 191.238V67.92l22.658 13.1v123.318z"/>
        <path fill="#BFBAB7" d="m250.69 81.02 22.994-13.116v123.317l-22.993 13.118z"/>
        <path fill="#B7B3AF" d="M231.781 65.775v-2.944l18.958 10.963v2.944z"/>
        <path fill="#BFBAB7" d="m250.739 73.794 19.24-10.977-.003 2.946-19.237 10.975z"/>
        <path fill="#B2B3B3" d="m235.855 60.333 14.915 8.623 15.132-8.635-14.938-8.632z"/>
        <path fill="#B7B3AF" d="M235.855 62.65v-2.317l14.915 8.623v2.316z"/>
        <path fill="#BFBAB7" d="m250.77 68.956 15.132-8.635v2.316l-15.132 8.635z"/>
        <path fill="#B7B3AF" d="m236.003 60.417 14.876-12.544-.109 21.083z"/>
        <path fill="#BFBAB7" d="m250.879 47.873-.11 21.083 15.133-8.635z"/>
        <path d="m232.411 151.751-2.022-1.204v41.596l2.022 1.15V151.75zm36.202-77.49 2.023-1.205v12.728l-2.023 1.15V74.26zm-4.014 2.254 2.023-1.205v12.728l-2.023 1.15V76.515zm-3.782 2.155 2.022-1.204v12.727l-2.022 1.153V78.67zm-3.628 2.07 2.025-1.205v12.728l-2.025 1.152V80.74zm-3.706 2.115 2.026-1.205v12.728l-2.026 1.15V82.854zm-6.142-.396-2.023-1.204v12.728l2.023 1.15V82.458zm-3.679-2.126-2.023-1.205v12.728l2.023 1.15V80.332zm-3.616-2.091-2.023-1.205v12.728l2.023 1.152V78.242zm-3.86-2.23-2.023-1.205v12.728l2.023 1.15V76.011zm-3.775-2.185-2.022-1.202V85.35l2.022 1.152V73.827zm0 19.526-2.022-1.205v12.728l2.022 1.152V93.353zm3.775 2.184-2.023-1.204v12.727l2.023 1.15V95.537zm3.86 2.23-2.023-1.205v12.728l2.023 1.15V97.767zm3.616 2.09-2.023-1.204v12.728l2.023 1.15V99.858zm3.679 2.128-2.023-1.205v12.728l2.023 1.15v-12.673zm6.142.395 2.026-1.205v12.728l-2.026 1.15V102.38zm3.706-2.115 2.025-1.205v12.728l-2.025 1.15v-12.673zm3.628-2.07 2.022-1.204v12.728l-2.022 1.152V98.196zm3.782-2.157 2.023-1.205v12.728l-2.023 1.152V96.038zm4.014-2.252 2.023-1.205v12.728l-2.023 1.15V93.786zm0 18.912 2.023-1.204v12.728l-2.023 1.149v-12.673zm-4.014 2.254 2.023-1.205v12.728l-2.023 1.15v-12.673zm-3.782 2.156 2.022-1.203v12.726l-2.022 1.152v-12.675zm-3.628 2.07 2.025-1.206V130.7l-2.025 1.15v-12.673zm-3.706 2.114 2.026-1.204v12.727l-2.026 1.15v-12.673zm-6.142-.395-2.023-1.205v12.728l2.023 1.15v-12.673zm-3.679-2.127-2.023-1.205v12.728l2.023 1.15V118.77zm-3.616-2.091-2.023-1.205v12.728l2.023 1.152V116.68zm-3.86-2.23-2.023-1.204v12.727l2.023 1.15v-12.673zm-3.775-2.182-2.022-1.205v12.726l2.022 1.152v-12.673zm0 19.327-2.022-1.205v12.728l2.022 1.15v-12.673zm3.775 2.182-2.023-1.205V145.3l2.023 1.15v-12.673zm3.86 2.23-2.023-1.205v12.728l2.023 1.152v-12.676zm3.616 2.09-2.023-1.204v12.728l2.023 1.15v-12.673zm3.679 2.127-2.023-1.204v12.728l2.023 1.15v-12.674zm6.142.396 2.026-1.205v12.728l-2.026 1.15v-12.673zm3.706-2.115 2.025-1.205v12.728l-2.025 1.152v-12.675zm3.628-2.07 2.022-1.204v12.728l-2.022 1.152v-12.676zm3.782-2.155 2.023-1.205v12.728l-2.023 1.15v-12.673zm4.014-2.254 2.023-1.205v12.728l-2.023 1.15v-12.673zm0 20.16 2.023-1.205v41.595l-2.023 1.149v-41.54zm-4.014 2.254 2.023-1.205v41.594l-2.023 1.15v-41.54zm-3.782 2.155 2.022-1.204v41.594l-2.022 1.152v-41.542zm-3.628 2.07 2.025-1.205v41.594l-2.025 1.152v-41.541zm-3.706 2.115 2.026-1.205v41.594l-2.026 1.15v-41.54zm-6.142-.396-2.023-1.204v41.594l2.023 1.15v-41.54zm-3.679-2.126-2.023-1.205v41.594l2.023 1.15v-41.54zm-3.616-2.092-2.023-1.204v41.594l2.023 1.152v-41.542zm-3.86-2.23-2.023-1.204v41.594l2.023 1.15v-41.54z" fill="#000"/>
        <path fill="#E7E2DE" d="m407.167 104.658 22.66 13.102 22.991-13.12-22.696-13.115z"/>
        <path fill="#E7E2DE" d="m410.915 99.57 18.96 10.96 19.238-10.974-18.991-10.975z"/>
        <path fill="#EF7F1A" d="m418.135 99.566 11.792 6.816 11.967-6.826-11.813-6.826z"/>
        <path fill="#5B5B5B" d="m419.532 99.563 10.406 6.017 10.558-6.024-10.423-6.024z"/>
        <path fill="#B7B3AF" d="M407.167 200.27v-95.612l22.66 13.102v95.612z"/>
        <path fill="#BFBAB7" d="m429.827 117.76 22.991-13.12v95.613l-22.99 13.119z"/>
        <path d="m411.319 107.19-2.025-1.205v95.442l2.025 1.152v-95.39zm32.185 2.687 2.023-1.205v95.443l-2.023 1.149v-95.387zm4.014-2.254 2.023-1.205v95.442l-2.023 1.15v-95.387zm-7.796 4.41 2.022-1.205v95.442l-2.022 1.152v-95.39zm-3.626 2.069 2.023-1.205v95.443l-2.023 1.151v-95.39zm-3.705 2.115 2.023-1.205v95.442l-2.023 1.15v-95.387zm-6.145-.395-2.023-1.205v95.442l2.023 1.15v-95.387zm-3.679-2.127-2.023-1.205v95.442l2.023 1.15v-95.387zm-3.616-2.091-2.023-1.205v95.442l2.023 1.152v-95.39zm-3.857-2.23-2.025-1.205v95.442l2.025 1.15v-95.387z" fill="url(#y7b795iwi)" transform="translate(.228)"/>
        <path fill="#B7B3AF" d="M410.915 102.514V99.57l18.96 10.961v2.946z"/>
        <path fill="#BFBAB7" d="m429.875 110.531 19.238-10.975v2.944l-19.238 10.977z"/>
        <path fill="#E7E2DE" d="m414.99 97.07 14.914 8.623 15.132-8.633-14.937-8.632z"/>
        <path fill="#EF7F1A" d="m420.669 97.068 9.276 5.362 9.414-5.37-9.294-5.37z"/>
        <path fill="#5B5B5B" d="m421.767 97.065 8.186 4.733 8.305-4.737-8.197-4.738z"/>
        <path fill="#B7B3AF" d="M414.99 99.386V97.07l14.914 8.622v2.317z"/>
        <path fill="#BFBAB7" d="m429.904 105.693 15.132-8.632v2.313l-15.132 8.635z"/>
        <path fill="#E7E2DE" d="m418.118 94.993 11.808 6.826 11.982-6.835-11.827-6.834z"/>
        <path fill="#EF7F1A" d="m422.614 94.99 7.345 4.248 7.454-4.254-7.357-4.252z"/>
        <path fill="#5B5B5B" d="m423.485 94.989 6.481 3.748 6.575-3.753-6.49-3.75z"/>
        <path fill="#B7B3AF" d="M418.118 96.828v-1.835l11.808 6.826v1.835z"/>
        <path fill="#BFBAB7" d="m429.925 101.82 11.982-6.836v1.835l-11.982 6.835z"/>
        <path fill="#EF7F1A" d="m423.158 94.922 6.807 3.935 6.903-3.94-6.817-3.938z"/>
        <path fill="#5B5B5B" d="m423.964 94.922 6.006 3.472 6.092-3.477-6.012-3.476z"/>
        <path fill="#E7E2DE" d="m421.287 93.4 8.663 5.011 8.79-5.015-8.677-5.016z"/>
        <path fill="#192B43" d="m424.587 93.398 5.387 3.116 5.468-3.118-5.397-3.119z"/>
        <path fill="#BFBAB7" d="m425.224 93.398 4.755 2.75 4.825-2.752-4.762-2.752z"/>
        <path fill="#B7B3AF" d="M421.287 94.746v-1.345l8.663 5.01v1.344z"/>
        <path fill="#BFBAB7" d="m429.95 98.411 8.792-5.015v1.343l-8.791 5.016z"/>
        <path fill="url(#0k6z0xapij)" d="m245.8 268.972 261.573 150.692 13.693-7.808-260.982-150.853z" transform="translate(.228)"/>
        <path d="M361.308 96.668a1.353 1.353 0 0 1 1.834.5 1.33 1.33 0 0 1-.506 1.821l-37.897 21.243 61.926 35.544a1.333 1.333 0 0 1 .055 2.352l-37.575 21.386 18.866 10.936a1.335 1.335 0 0 1-.05 2.338L246.916 261.67 521.619 418.77c.642.371.862 1.188.49 1.825a1.349 1.349 0 0 1-1.84.486L243.608 262.854a1.332 1.332 0 0 1-.056-2.35l121.09-68.909-18.868-10.936a1.335 1.335 0 0 1 .05-2.34l37.53-21.358-61.995-35.585a1.331 1.331 0 0 1 .05-2.34l39.9-22.368z" fill="#FFF2C8" fill-rule="nonzero" filter="url(#u4z56579tk)" transform="translate(.228)"/>
        <path d="M364.45 96.668a1.353 1.353 0 0 1 1.834.5 1.33 1.33 0 0 1-.507 1.821l-37.896 21.243 61.925 35.544a1.333 1.333 0 0 1 .055 2.352l-37.575 21.386 18.867 10.936a1.335 1.335 0 0 1-.051 2.338L250.058 261.67 524.76 418.77c.642.371.862 1.188.49 1.825a1.349 1.349 0 0 1-1.839.486L246.75 262.854a1.332 1.332 0 0 1-.056-2.35l121.09-68.909-18.869-10.936a1.335 1.335 0 0 1 .051-2.34l37.53-21.358-61.996-35.585a1.331 1.331 0 0 1 .05-2.34l39.9-22.368z" fill="#FCFCFC" fill-rule="nonzero" filter="url(#ffofzunfel)" transform="translate(.228)"/>
        <path d="M362.584 95.62a1.353 1.353 0 0 1 1.834.502 1.33 1.33 0 0 1-.507 1.82l-37.896 21.242 61.925 35.544a1.333 1.333 0 0 1 .055 2.352l-37.574 21.387 18.866 10.936a1.335 1.335 0 0 1-.051 2.338l-121.044 68.882 274.703 157.099c.642.37.861 1.188.49 1.825a1.349 1.349 0 0 1-1.84.486L244.883 261.807a1.332 1.332 0 0 1-.056-2.35l121.09-68.909-18.869-10.936a1.335 1.335 0 0 1 .051-2.34l37.53-21.358-61.996-35.585a1.331 1.331 0 0 1 .05-2.34l39.9-22.368z" fill="#D19C00" fill-rule="nonzero"/>
        <path fill="#E7E2DE" d="m338.76 182.12 62.307 35.814 22.994-13.118-62.346-35.83z"/>
        <path fill="#E7E2DE" d="m342.509 177.03 58.606 33.676 19.238-10.975-58.638-33.688z"/>
        <path fill="#1B2F48" d="m349.728 177.025 51.44 29.532 11.965-6.826-51.46-29.54z"/>
        <path fill="#BFBAB7" d="m351.125 177.025 50.052 28.73 10.558-6.024-50.07-28.737z"/>
        <path fill="#B7B3AF" d="M338.76 239.404V182.12l62.307 35.814v57.285z"/>
        <path fill="#BFBAB7" d="m401.067 217.934 22.994-13.118v57.285l-22.994 13.118z"/>
        <path fill="#898989" d="M342.509 179.976v-2.946l58.606 33.676v2.946z"/>
        <path fill="#727271" d="m401.115 210.706 19.238-10.975v2.944l-19.238 10.977z"/>
        <path d="M338.531 229.541v-3.08l62.308 35.815 9.908-5.621v3.08l-9.908 5.621-62.308-35.815zm62.308-5.85 9.908-5.622v3.077l-9.908 5.622-62.308-35.815v-3.078l62.308 35.815zm0 6.423 9.908-5.622v3.078l-9.908 5.621-62.308-35.814v-3.078l62.308 35.815zm0 6.531 9.908-5.62v3.077l-9.908 5.621-62.308-35.815v-3.077l62.308 35.814zm0 6.328 9.908-5.621v3.078l-9.908 5.621-62.308-35.815v-3.077l62.308 35.814zm0 6.472 9.908-5.621v3.078l-9.908 5.62-62.308-35.814v-3.078l62.308 35.815zm0 6.273 9.908-5.621v3.077l-9.908 5.624-62.308-35.817v-3.078l62.308 35.815z" fill="url(#jzaxo2fism)" transform="translate(.228)"/>
        <path fill="#E7E2DE" d="m292.864 209.63 62.307 35.818 22.991-13.119L315.82 196.5z"/>
        <path fill="#E7E2DE" d="m296.613 204.543 58.606 33.676 19.238-10.977-58.638-33.688z"/>
        <path fill="#1B2F48" d="m303.832 204.538 51.44 29.532 11.965-6.826-51.46-29.541z"/>
        <path fill="#BFBAB7" d="m305.228 204.536 50.054 28.732 10.558-6.024-50.069-28.737z"/>
        <path fill="#B7B3AF" d="M292.864 266.915v-57.284l62.307 35.817v57.282z"/>
        <path fill="#BFBAB7" d="m355.171 245.447 22.992-13.118v57.285L355.17 302.73z"/>
        <path fill="#898989" d="m296.612 207.487-.002-2.944 58.609 33.676v2.943z"/>
        <path fill="#727271" d="m355.22 238.219 19.237-10.977v2.946l-19.238 10.974z"/>
        <path d="M292.636 257.052v-3.077l62.306 35.814 9.907-5.621v3.077l-9.907 5.622-62.306-35.815zm62.306-5.851 9.907-5.622v3.08l-9.907 5.622-62.306-35.815v-3.08l62.306 35.815zm0 6.426 9.907-5.621v3.077l-9.907 5.622-62.306-35.815v-3.078l62.306 35.815zm0 6.531 9.907-5.62v3.077l-9.907 5.621-62.306-35.815v-3.077l62.306 35.814zm0 6.329 9.907-5.622v3.078l-9.907 5.621-62.306-35.814v-3.078l62.306 35.815zm-62.306-26.266v-3.08l62.306 35.815 9.907-5.622v3.08l-9.907 5.622-62.306-35.815zm62.306 39.01 9.907-5.621v3.078l-9.907 5.621-62.306-35.815v-3.078l62.306 35.815z" fill="url(#559o61xdon)" transform="translate(.228)"/>
        <path fill="#F18B2B" d="m351.374 59.83 4.47-2.143.114-.053.116-.053.118-.05.12-.046.122-.043.123-.04.123-.039.128-.036.127-.03.128-.032.13-.026.133-.024.136-.022.135-.016.137-.017.14-.012.14-.01.143-.007.145-.005h.292l.15.005.15.007.151.01.155.014.154.015.157.019.16.021.159.022.161.029.162.028.164.031.164.036.167.039.167.038.168.043.167.046.169.05.171.05.17.053.168.057.172.058.17.062.172.065.17.067.17.07.172.071.169.074.171.08.17.078.168.082.17.086.166.086.169.091.164.094.166.093.165.098.161.101.162.103.16.105.159.106.159.11.157.113.155.114.154.118.152.12.152.122.15.122.15.127.149.13.147.129.145.134.145.136.142.137.143.139.142.14.14.147.138.144.137.148.138.151.135.153.135.154.133.155.133.159.13.16.13.163.128.165.128.165.128.168.126.17.125.173.123.172.121.177.123.178.118.177.121.18.116.181.118.185.114.184.113.187.113.187.111.189.11.192.108.189.109.194.103.194.104.194.104.197.099.196.099.196.099.199.096.199.095.201.091.201.092.201.09.202.086.203.085.201.084.204.082.204.08.205.077.204.077.204.075.206.07.206.073.206.067.206.065.205.066.207.06.205.06.207.058.208.058.206.053.208.05.206.051.209.046.208.046.208.043.209.042.21.038.21.037.207.033.211.032.21.028.21.027.21.027.21.021.212.02.213.019.21.015.211.014.213.01.211.007.213.007.213.003.214.002.213-.002.213-.005.213-.007.213-.008.213-.012.216-.014.213-.017.214-.022.213-.022.215-.024.214-.029.212-.029.214-.033.213-.037.213-.038.213-.041.214-.044.212-.048.214-.05.21-.054.214-.056.21-.057.211-.063.211-.063.21-.067.21-.07.21-.075.208-.077.209-.078.208-.084.206-.085.208-.089.206-.092.206-.094.204-.096.206-.102.204-.101.203-.106.201-.109.204-.111.201-.113.201-.117.201-.118.2-.12.198-.123.199-.126.199-.128.196-.13.199-.133.196-.133.194-.138.197-.137.194-.142.194-.143.194-.145.191-.144.192-.15.192-.15.191-.152.192-.154.19-.155.188-.157.187-.159.19-.16.186-.158.185-.162.184-.162.184-.162.18-.162.18-.161.18-.162.174-.162.173-.159.172-.157.17-.157.165-.157.163-.154.16-.152.159-.15.153-.147.151-.142.146-.143.144-3.954 4.005.148-.151.152-.154.157-.16.157-.16.159-.168.162-.168.164-.172.166-.175.167-.178.166-.179.17-.184.17-.185.17-.187.17-.19.172-.19.17-.192.168-.194.17-.197.168-.196.167-.196.164-.2.164-.198.162-.201.159-.199.16-.201.156-.201.152-.204.155-.204.15-.203.147-.204.147-.203.142-.206.143-.206.14-.207.135-.208.135-.208.133-.208.13-.21.126-.21.125-.21.12-.211.122-.21.115-.214.114-.211.111-.216.108-.213.107-.215.101-.216.099-.216.097-.215.094-.218.09-.216.086-.22.085-.218.08-.22.079-.218.072-.22.072-.223.068-.22.065-.223.06-.22.061-.223.055-.223.052-.225.05-.223.046-.223.043-.225.041-.225.039-.223.034-.225.034-.225.028-.225.027-.225.022-.225.022-.226.016-.225.018-.225.012-.225.009-.225.007-.223.005-.225v-.448l-.002-.225-.008-.225-.01-.223-.009-.223-.014-.222-.017-.223-.017-.223-.022-.223-.024-.223-.027-.222-.028-.22-.032-.221-.031-.223-.036-.22-.039-.22-.041-.22-.044-.221-.043-.218-.049-.22-.05-.22-.05-.219-.056-.218-.056-.218-.06-.22-.06-.218-.063-.215-.065-.218-.068-.219-.07-.215-.072-.218-.073-.216-.077-.215-.077-.216-.08-.215-.082-.216-.084-.216-.087-.213-.087-.215-.092-.213-.092-.213-.094-.214-.094-.21-.099-.213-.099-.209-.101-.21-.102-.21-.103-.208-.107-.208-.108-.206-.109-.204-.111-.203-.114-.204-.113-.2-.116-.202-.116-.199-.118-.196-.12-.197-.121-.194-.123-.194-.124-.191-.125-.19-.128-.189-.125-.184-.13-.185-.13-.184-.131-.18-.133-.18-.133-.177-.135-.174-.135-.173-.138-.17-.138-.17-.137-.165-.142-.166-.14-.162-.143-.161-.145-.158-.145-.156-.144-.153-.15-.15-.147-.152-.15-.146-.152-.146-.152-.141-.152-.14-.155-.138-.157-.134-.156-.134-.16-.132-.159-.127-.161-.124-.162-.125-.165-.12-.164-.12-.166-.115-.167-.112-.169-.11-.171-.108-.171-.105-.172-.103-.173-.101-.175-.098-.176-.094-.176-.093-.179-.089-.178-.086-.179-.084-.178-.081-.179-.08-.179-.076-.18-.074-.18-.07-.18-.067-.179-.064-.181-.063-.178-.06-.18-.057-.178-.053-.179-.05-.176-.048-.176-.045-.176-.043-.174-.039-.174-.038-.171-.034-.171-.03-.172-.03-.166-.023-.17-.022-.164-.02-.164-.016-.161-.014-.16-.01-.159-.007-.157-.005-.154-.002-.152.002-.152.005-.15.007-.15.01-.145.014-.144.014-.143.02-.142.021-.14.026-.138.03-.135.03-.135.034-.133.036-.13.04-.13.044-.128.045-.126.048-.123.053-.123.055z"/>
        <path fill="#CB691E" d="m363.469 80.058 3.864-3.155-.089.067-.094.065-.1.058-.103.052-.106.048-.114.04-.115.037-.123.03-.126.027-.133.02-.137.014-.14.007-.148.002-.15-.005-.156-.012-.16-.019-.164-.024-.166-.036-.171-.04-.177-.05-.178-.06-.184-.07-.186-.077-.19-.088-.194-.096-.195-.11-.198-.118-.2-.129-.203-.137-.205-.148-.203-.156-.205-.162-.205-.17-.203-.176-.2-.181-.2-.19-.196-.191-.193-.197-.189-.2-.185-.202-.18-.206-.175-.206-.167-.208-.161-.211-.157-.211-.15-.21-.143-.214-.137-.213-.13-.216-.126-.218-.118-.218-.113-.22-.107-.22-.099-.223-.094-.223-.087-.227-.08-.225-.074-.23-.068-.23-.06-.233-.056-.23-.05-.232-.041-.232-.037-.23-.029-.228-.024-.225-.017-.225-.012-.22-.004-.216v-.213l.009-.206.012-.201.02-.197.026-.189.032-.182.038-.175.043-.17.051-.16.056-.156.062-.149.065-.14.073-.135.08-.13.082-.121.089-.118.092-.11.099-.106.103-.098.11-.093.11-.086.119-.082.12-.076-4.275 2.51-.128.079-.123.086-.118.091-.113.098-.11.103-.103.11-.099.118-.092.122-.089.13-.082.133-.074.144-.07.148-.066.157-.058.162-.053.173-.046.175-.04.184-.035.194-.026.199-.022.206-.014.21-.008.218-.002.226.005.227.012.233.02.234.023.237.032.242.038.242.046.242.05.244.059.245.065.244.07.242.08.24.084.24.092.236.099.237.104.235.11.232.119.23.125.23.13.227.139.228.144.225.152.225.157.223.164.22.171.22.177.221.183.218.189.216.195.213.198.21.203.21.207.2.21.2.213.19.212.185.215.18.215.172.217.163.215.156.212.143.21.137.21.125.206.112.205.103.198.091.195.084.193.072.188.062.186.053.181.045.176.036.174.027.167.019.164.012.16.005h.154l.147-.01.145-.015.137-.02.136-.027.128-.032.123-.038.118-.045.113-.05.109-.056.104-.06.099-.066z"/>
        <path d="M354.44 89.652c-1.664-3.69-3.394-8.04-4.553-11.475-1.156-3.437-1.743-5.957-2.001-8.21-.258-2.252-.19-4.237.282-5.9.471-1.662 1.35-3 2.518-3.825 1.169-.826 2.629-1.14 4.383-.948 1.753.19 3.8.881 5.62 2.019 1.822 1.138 3.418 2.72 4.823 4.64a27.628 27.628 0 0 1 3.485 6.469c.864 2.297 1.38 4.639 1.46 7.025.08 2.388-.28 4.819-1.192 7.15-.91 2.332-2.37 4.562-4.125 6.682-1.752 2.12-3.8 4.127-4.82 5.13l-1.024 1.004-.799-1.517c-.797-1.518-2.394-4.55-4.058-8.244zm1.725-12.742c-.96-1.166-1.646-2.38-2.047-3.669-.398-1.289-.509-2.649-.347-3.691.164-1.045.6-1.768 1.248-2.242.647-.474 1.5-.7 2.546-.39 1.046.306 2.281 1.142 3.365 2.302 1.087 1.159 2.018 2.644 2.614 4.042.597 1.402.855 2.716.893 3.782.041 1.066-.14 1.88-.494 2.46-.353.58-.882.925-1.635 1.02-.753.094-1.73-.062-2.838-.696-1.108-.637-2.344-1.754-3.305-2.918z" fill="#EF7F1A"/>
        <path fill="#DBF0D4" d="m131.55 152.435 18.141 32.027-27.026 33.515 21.395 44.693-37.188 26.552L.228 227.565zM530.587 406.306 358.49 308.872l98.196-55.144 132.049 71.585z"/>
        <path fill="#B2B3B3" d="m380.243 296.654 145.267-4.869 4.76 1.904-154.017 5.206z"/>
        <path fill="#B2B3B3" d="m446.984 295.161 15.497-38.18 3.145 1.764-13.525 36.302z"/>
    </g>
</svg>
